<svg xmlns="http://www.w3.org/2000/svg" width="48" height="48"><path d="M24 0A24 24 0 0 0 0 24a24 24 0 0 0 24 24 24 24 0 0 0 24-24A24 24 0 0 0 24 0zm12.006 14.037a.5.5 0 0 1 .502.559l-.18 1.508.973-.541a.5.5 0 0 1 .484.874l-.937.522 1.361.582a.5.5 0 0 1 .053.893l-3.463 1.998a.5.5 0 0 1-.447.027l-2.15-.918-1.468.814c.644 1.802.264 3.889-1.177 5.33l-.653.653-6.498 6.514a.5.5 0 0 1-.709.002l-4.799-4.81-5.16 2.866 1.676.457a.5.5 0 1 1-.26.965l-2.783-.756a.5.5 0 0 1-.353-.611l.738-2.787a.5.5 0 0 1 .14-.244.5.5 0 0 1 .825.5l-.414 1.57 4.855-2.697-.967-.97-.65-.65c-1.94-1.943-1.956-5.046-.113-7.048a.5.5 0 0 1 .111-.172 5.093 5.093 0 0 1 7.21 0l.298.297.297-.297a5.095 5.095 0 0 1 7.213 0c.299.3.546.631.755.978l1.483-.822.256-2.144a.5.5 0 0 1 .13-.28.5.5 0 0 1 .118-.094l3.465-2a.5.5 0 0 1 .242-.066l-.004-.002zm-.608 1.434-2.378 1.375-.143 1.18 2.375-1.32.146-1.235zm.348 2.103-2.435 1.354 1.209.515 2.382-1.373-1.156-.496zm-17.592.389.002.002c-1.044 0-2.09.402-2.894 1.207a.5.5 0 0 1-.006.006 4.092 4.092 0 0 0 0 5.808l.65.65 1.166 1.17 5.366-2.98a.905.905 0 0 0-.534-.02.5.5 0 1 1-.26-.964 1.916 1.916 0 0 1 2.155 2.804.5.5 0 0 1-.867-.5.909.909 0 0 0 .12-.515l-5.243 2.912 4.246 4.256 6.146-6.162.653-.653a4.092 4.092 0 0 0 0-5.808 4.073 4.073 0 0 0-5.795 0l-.65.65a.5.5 0 0 1-.712 0l-.648-.652a4.082 4.082 0 0 0-2.895-1.211zm-.045 1.039a.5.5 0 1 1 0 1c-.727 0-1.403.403-1.775 1.074a2.265 2.265 0 0 0 0 2.178.5.5 0 0 1-.875.484 3.255 3.255 0 0 1 0-3.146c.54-.976 1.552-1.59 2.65-1.59z"/></svg>