<svg xmlns="http://www.w3.org/2000/svg" viewBox="0 0 64 64" id="coupon"><g data-name="04 Coupon"><path fill="#ffd54f" d="M61.6518,27.6652l-1.86-7.0089A1.0006,1.0006,0,0,0,58.8527,20H4.881a1.0012,1.0012,0,0,0-.9443.67L2.4286,27.4777,27.9043,46.2568a6.9871,6.9871,0,0,0,8.2021.0235Z"></path><path fill="#8bc34a" d="M40.2393,14.9707A.9991.9991,0,0,0,41,14V6a3.0033,3.0033,0,0,0-3-3H26a3.0033,3.0033,0,0,0-3,3v8a1,1,0,0,0,.7578.97,1.0584,1.0584,0,0,1,0,2.06A1,1,0,0,0,23,18V42a3.0033,3.0033,0,0,0,3,3H38a3.0033,3.0033,0,0,0,3-3V18a1.0012,1.0012,0,0,0-.7607-.9712A1.0567,1.0567,0,0,1,40.2393,14.9707Z"></path><path fill="#689f38" d="M38.4756 20.9556a1 1 0 0 1-.0068-2l1.5-.01h.0068c.5488 0 .56 1.9961.0068 2l-1.5.01zM28.08 21.03a1.0005 1.0005 0 0 1-.0108-2l2.6006-.02a1 1 0 0 1 .01 2l-2.6.02zm5.2-.04a1 1 0 0 1-.0108-2l2.6006-.02a1 1 0 0 1 .01 2zM25.4766 19.0449H25.47l-1.5.01a1 1 0 0 0 .0137 2l1.5-.01A1 1 0 0 0 25.4766 19.0449z"></path><path fill="#eee" d="M31 7.0068l.0342 5a1 1 0 0 0 2-.0136l-.0342-5A1 1 0 0 0 31 7.0068zM37 6.9932a1 1 0 0 0-2 .0136l.0342 5a1 1 0 0 0 2-.0136zM27 7.0068l.0342 5a1 1 0 0 0 2-.0136l-.0342-5A1 1 0 0 0 27 7.0068z"></path><path d="M41.52,20.55a1.0246,1.0246,0,0,0-1.34.43.9174.9174,0,0,0-.11.46.972.972,0,0,0,.54.89.9954.9954,0,0,0,.45.11.97.97,0,0,0,1-1A.9626.9626,0,0,0,41.52,20.55Z"></path><path fill="#ff3c38" d="M34.06,43.78,23.44,49.36a3.0212,3.0212,0,0,1-4.06-1.27L8.24,26.84a.9774.9774,0,0,1,.22-1.21,1.0557,1.0557,0,0,0-.96-1.82,1.0014,1.0014,0,0,1-1.12-.51L2.66,16.21a3.0066,3.0066,0,0,1,1.26-4.05L14.55,6.59A3.0154,3.0154,0,0,1,18.6,7.85l3.72,7.09a1.0092,1.0092,0,0,1-.22,1.21,1.0544,1.0544,0,0,0,.95,1.82,1.0077,1.0077,0,0,1,1.13.51L35.33,39.73A3.0075,3.0075,0,0,1,34.06,43.78Z"></path><path fill="#e52828" d="M10.92 26.51L8.67 27.67l.93 1.77 2.24-1.15A1.0022 1.0022 0 0 0 10.92 26.51zM15.54 24.13l-2.31 1.19a1.0022 1.0022 0 0 0 .92 1.78L16.46 25.9A.9976.9976 0 0 0 15.54 24.13z"></path><path d="M23.8193,20.98a1.0017,1.0017,0,0,0-1.7793.92A1.0017,1.0017,0,0,0,23.8193,20.98Z"></path><path fill="#e52828" d="M20.16 21.74L17.85 22.94a.9975.9975 0 0 0 .92 1.77L21.08 23.52A1.0022 1.0022 0 0 0 20.16 21.74zM25.62 21.22l-2.23 1.11a1.0023 1.0023 0 0 1-.92-1.78l2.22-1.09z"></path><path fill="#eee" d="M11.9854 12.46a1 1 0 0 0-1.7774.917L12.5 17.8208a1 1 0 0 0 1.7773-.917zM8.4424 14.3184a1 1 0 0 0-1.7774.917l2.293 4.4438a1 1 0 0 0 1.7774-.917zM17.8193 15.0459l-2.292-4.4438a1 1 0 0 0-1.7773.9169l2.292 4.4439A1 1 0 0 0 17.8193 15.0459zM23.9951 33.1885a2.32 2.32 0 0 0 3.0381-2.1446c-.1075-1.2788-1.08-3.1365-2.4551-3.2988a2.5163 2.5163 0 0 0-2.5215 1.7324 3.226 3.226 0 0 0 .4375 2.1436A3.027 3.027 0 0 0 23.9951 33.1885zm-.33-4.3145a.8433.8433 0 0 1 1.13.3457 7.1585 7.1585 0 0 1 .9619 1.8653.8368.8368 0 0 1-1.2382 1.05 5.2111 5.2111 0 0 1-1.2989-2.54A.7384.7384 0 0 1 23.665 28.874zM28.125 37.6338a.7107.7107 0 0 0-.3008-.2647l-10-6.0009c-.7875-.7146-1.667.3837-.5205.8466l9.9307 5.9444C27.7123 38.5472 28.3276 38.1646 28.125 37.6338zM20.9111 36.0518a2.4467 2.4467 0 0 0-3.0879 1.5722 3.8454 3.8454 0 0 0 1.9336 3.709 2.3336 2.3336 0 0 0 3.0489-2.15A4.2458 4.2458 0 0 0 20.9111 36.0518zm.2354 4.3007a.7293.7293 0 0 1-.8643-.0781 5.0931 5.0931 0 0 1-1.2929-2.5215.848.848 0 0 1 1.58-.3965 5.3938 5.3938 0 0 1 1.0235 2.254A.7458.7458 0 0 1 21.1465 40.3525z"></path><path fill="#26a6fe" d="M61.34,16.21,57.62,23.3a1.0014,1.0014,0,0,1-1.12.51,1.0557,1.0557,0,0,0-.96,1.82.9774.9774,0,0,1,.22,1.21L44.62,48.09c-.54,1.02-14.68-4.31-14.68-4.31a3.0075,3.0075,0,0,1-1.27-4.05L39.82,18.48a1.0077,1.0077,0,0,1,1.13-.51,1.0549,1.0549,0,0,0,.95-1.82,1.0092,1.0092,0,0,1-.22-1.21L45.4,7.85a3.0154,3.0154,0,0,1,4.05-1.26l10.63,5.57A3.0066,3.0066,0,0,1,61.34,16.21Z"></path><path fill="#1c82ba" d="M55.33 27.66l-.93 1.78-2.24-1.15a1.002 1.002 0 0 1 .92-1.78zM46.14 22.94L43.83 21.74a1 1 0 0 0-.91 1.78l2.31 1.19A.9954.9954 0 0 0 46.14 22.94zM50.77 25.32L48.46 24.13a.9977.9977 0 0 0-.92 1.77l2.31 1.2A1.0021 1.0021 0 0 0 50.77 25.32zM40.61 22.33l-2.2-1.15.92-1.77 2.2 1.14A1.0023 1.0023 0 0 1 40.61 22.33z"></path><path fill="#eee" d="M53.792 13.377L51.5 17.8208a1 1 0 0 1-1.7773-.917L52.0146 12.46A1 1 0 0 1 53.792 13.377zM55.5576 14.3184l-2.293 4.4438a1 1 0 0 0 1.7774.917l2.293-4.4438A1 1 0 0 0 55.5576 14.3184zM50.25 11.519l-2.292 4.4439a1 1 0 0 1-1.7773-.917l2.292-4.4438A1 1 0 0 1 50.25 11.519zM38.69 35.2939a2.3375 2.3375 0 0 0-3.4521.815c-.7213 1.4416-.0788 2.5583 1.3984 3.31a4.5889 4.5889 0 0 0 1.1582.4321 2.0819 2.0819 0 0 0 2.4033-1.2158 2.0374 2.0374 0 0 0 .1534-1.8711A3.5408 3.5408 0 0 0 38.69 35.2939zm-.04 3.3921a5.0939 5.0939 0 0 1-2.5215-1.2934.8153.8153 0 0 1 .6641-1.31 5.3936 5.3936 0 0 1 2.2539 1.023A.8483.8483 0 0 1 38.65 38.686zM39.0342 29.8511c-.37-.7791-1.3294-.0814-.79.5893l5.9444 9.9307c.4622 1.1467 1.5614.267.8467-.52zM48.1367 32a4.7865 4.7865 0 0 0-1.3086-.9307 2.3284 2.3284 0 0 0-3.4453.8018c-.721 1.4424-.08 2.5575 1.3994 3.31 1.2832.7508 2.9132.69 3.5733-.7774A1.9417 1.9417 0 0 0 48.1367 32zm-1.3281 2.4551a3.5122 3.5122 0 0 1-1.334-.4575 4.03 4.03 0 0 1-1.206-.8409.8367.8367 0 0 1 1.05-1.2382 7.1486 7.1486 0 0 1 1.8652.9619A.8391.8391 0 0 1 46.8086 34.4551z"></path><path fill="#ffc107" d="M61.632,27.5906l.02.0746L36.1064,46.28a6.9871,6.9871,0,0,1-8.2021-.0235L2.4291,27.4781A2.9676,2.9676,0,0,0,2,29V58a3.0033,3.0033,0,0,0,3,3H59a3.0033,3.0033,0,0,0,3-3V29A2.9621,2.9621,0,0,0,61.632,27.5906Z"></path><path fill="#ffa000" d="M61.73,59.24A3.0077,3.0077,0,0,1,59,61H5a3.0029,3.0029,0,0,1-2.72-1.74L27.9,40.74a6.9947,6.9947,0,0,1,8.21-.02Z"></path></g></svg>