<svg xmlns="http://www.w3.org/2000/svg" enable-background="new 0 0 100 100" viewBox="0 0 100 100" id="extra"><path fill="#fde0c2" d="M62.7,28.6v0.2c-4.5,0-8.1,3.6-8.1,8.1h-0.2c0-0.2,0-0.3,0-0.5c0-0.2,0-0.3-0.1-0.5c0-0.1,0-0.3-0.1-0.4
					c0-0.1,0-0.3-0.1-0.4c0-0.2-0.1-0.3-0.1-0.4c0-0.1-0.1-0.3-0.1-0.4c-0.1-0.2-0.1-0.4-0.2-0.5c0-0.1,0-0.1-0.1-0.2
					c-0.1-0.2-0.2-0.5-0.4-0.7c0-0.1-0.1-0.2-0.1-0.2c-0.1-0.2-0.3-0.4-0.5-0.7c0,0-0.1-0.1-0.1-0.1c-0.2-0.2-0.4-0.5-0.6-0.7
					c-0.2-0.2-0.5-0.4-0.7-0.6l0,0c-0.1,0-0.1-0.1-0.2-0.2c-0.3-0.2-0.5-0.4-0.8-0.5c-1.2-0.6-2.5-1-3.9-1v-0.2
					c4.5,0,8.1-3.6,8.1-8.1h0.2c0,1.5,0.4,2.9,1.2,4.2c0.2,0.2,0.3,0.5,0.5,0.7c0.1,0.1,0.2,0.3,0.3,0.4c0,0,0.1,0.1,0.1,0.1
					c0.1,0.2,0.3,0.3,0.5,0.5c0.2,0.2,0.4,0.4,0.6,0.6c0,0,0.1,0,0.1,0.1c0.2,0.2,0.5,0.3,0.7,0.5c0,0,0.1,0,0.1,0.1
					c0.1,0.1,0.3,0.2,0.4,0.2c0.3,0.1,0.6,0.3,0.9,0.4c0.2,0.1,0.3,0.1,0.5,0.2c0.1,0,0.2,0,0.2,0.1c0.2,0.1,0.5,0.1,0.7,0.2
					c0.1,0,0.2,0,0.3,0C62,28.5,62.4,28.6,62.7,28.6z"></path><path fill="#ffcca1" d="M62.7,28.6v0.2c-4.5,0-8.1,3.6-8.1,8.1h-0.2c0-0.2,0-0.3,0-0.5c0-0.2,0-0.3-0.1-0.5c0-0.1,0-0.3-0.1-0.4
					c0-0.2,0-0.3-0.1-0.4c0-0.1-0.1-0.3-0.1-0.4c0-0.1-0.1-0.3-0.1-0.4c-0.1-0.2-0.1-0.4-0.2-0.5c0-0.1,0-0.1-0.1-0.2
					c-0.1-0.2-0.2-0.5-0.4-0.7c0-0.1-0.1-0.2-0.1-0.2c-0.1-0.2-0.3-0.4-0.5-0.7c0,0-0.1-0.1-0.1-0.1c-0.2-0.2-0.4-0.5-0.6-0.7
					c-0.2-0.2-0.5-0.4-0.7-0.6l0,0c-0.1,0-0.1-0.1-0.2-0.2c-0.3-0.2-0.5-0.4-0.8-0.5h0.4c2.9,0,5.2-2.3,5.2-5.2
					c0.2,0.2,0.3,0.5,0.5,0.7c0.1,0.1,0.2,0.3,0.3,0.4c0,0,0.1,0.1,0.1,0.1c0.1,0.2,0.3,0.3,0.5,0.5c0.2,0.2,0.4,0.4,0.6,0.6
					c0,0,0.1,0,0.1,0.1c0.2,0.2,0.5,0.3,0.7,0.5c0,0,0.1,0,0.1,0.1c0.1,0.1,0.3,0.2,0.4,0.2c0.3,0.1,0.6,0.3,0.9,0.4
					c0.2,0.1,0.3,0.1,0.5,0.2c0.1,0,0.2,0,0.2,0.1c0.2,0.1,0.5,0.1,0.7,0.2c0.1,0,0.2,0,0.3,0C62,28.5,62.4,28.6,62.7,28.6z"></path><circle cx="71.3" cy="18.3" r="2.2" fill="#fde0c2"></circle><path fill="#ffcca1" d="M71.7,16.2l0,0.2c0.1,1.4-1,2.6-2.4,2.7h0c0.4,1,1.4,1.6,2.5,1.3c0.8-0.2,1.5-1,1.6-1.8
					C73.6,17.4,72.8,16.4,71.7,16.2z"></path><circle cx="31.6" cy="57.8" r="2.2" fill="#fde0c2"></circle><path fill="#ffcca1" d="M32,55.7l0,0.2c0.1,1.4-1,2.6-2.4,2.7h0c0.4,1,1.4,1.6,2.5,1.3c0.8-0.2,1.5-1,1.6-1.8
					C33.9,56.9,33.1,55.9,32,55.7z"></path><circle cx="26.4" cy="7.5" r="2.2" fill="#fde0c2"></circle><path fill="#ffcca1" d="M26.8,5.4l0,0.2c0.1,1.4-1,2.6-2.4,2.7h0c0.4,1,1.4,1.6,2.5,1.3c0.8-0.2,1.5-1,1.6-1.8
					C28.7,6.6,27.9,5.6,26.8,5.4z"></path><circle cx="92.3" cy="36.4" r="2.2" fill="#fde0c2"></circle><path fill="#ffcca1" d="M92.8,34.3l0,0.2c0.1,1.4-1,2.6-2.4,2.7l0,0c0.4,1,1.4,1.6,2.5,1.3c0.8-0.2,1.5-1,1.6-1.8
					C94.6,35.5,93.8,34.5,92.8,34.3z"></path><circle cx="88" cy="10.5" r="1.9" fill="#fde0c2"></circle><path fill="#ffcca1" d="M88.5,8.6v0.2c0,1.3-1,2.3-2.3,2.3l0,0c0.3,0.9,1.2,1.5,2.2,1.3c0.8-0.1,1.4-0.8,1.5-1.5
					C90.1,9.8,89.5,8.9,88.5,8.6z"></path><path fill="#e888ab" d="M88 6.6c-.3 0-.6-.3-.6-.6V3.5c0-.3.3-.6.6-.6.3 0 .6.3.6.6V6C88.6 6.3 88.4 6.6 88 6.6zM85.8 7.2c-.2 0-.4-.1-.5-.3L84 4.8c-.2-.3-.1-.7.2-.9.3-.2.7-.1.9.2l1.2 2.2c.2.3.1.7-.2.9C86 7.2 85.9 7.2 85.8 7.2zM84.1 8.9c-.1 0-.2 0-.3-.1l-2.2-1.2c-.3-.2-.4-.6-.2-.9.2-.3.6-.4.9-.2l2.2 1.2c.3.2.4.6.2.9C84.5 8.8 84.3 8.9 84.1 8.9zM83.5 11.1H81c-.3 0-.6-.3-.6-.6s.3-.6.6-.6h2.5c.3 0 .6.3.6.6S83.9 11.1 83.5 11.1zM82 14.6c-.2 0-.4-.1-.5-.3-.2-.3-.1-.7.2-.9l2.2-1.2c.3-.2.7-.1.9.2.2.3.1.7-.2.9l-2.2 1.2C82.2 14.6 82.1 14.6 82 14.6zM84.5 17.2c-.1 0-.2 0-.3-.1-.3-.2-.4-.6-.2-.9l1.2-2.2c.2-.3.6-.4.9-.2.3.2.4.6.2.9l-1.2 2.2C84.9 17.1 84.7 17.2 84.5 17.2zM88 18.1c-.3 0-.6-.3-.6-.6V15c0-.3.3-.6.6-.6.3 0 .6.3.6.6v2.5C88.6 17.9 88.4 18.1 88 18.1zM91.5 17.2c-.2 0-.4-.1-.5-.3l-1.2-2.2c-.2-.3-.1-.7.2-.9.3-.2.7-.1.9.2l1.2 2.2c.2.3.1.7-.2.9C91.7 17.2 91.6 17.2 91.5 17.2zM94.1 14.6c-.1 0-.2 0-.3-.1l-2.2-1.2c-.3-.2-.4-.6-.2-.9.2-.3.6-.4.9-.2l2.2 1.2c.3.2.4.6.2.9C94.5 14.5 94.3 14.6 94.1 14.6zM95 11.1h-2.5c-.3 0-.6-.3-.6-.6s.3-.6.6-.6H95c.3 0 .6.3.6.6S95.4 11.1 95 11.1zM91.9 8.9c-.2 0-.4-.1-.5-.3-.2-.3-.1-.7.2-.9l2.2-1.2c.3-.2.7-.1.9.2.2.3.1.7-.2.9l-2.2 1.2C92.1 8.9 92 8.9 91.9 8.9zM90.3 7.2c-.1 0-.2 0-.3-.1-.3-.2-.4-.6-.2-.9L91 4.1c.2-.3.6-.4.9-.2.3.2.4.6.2.9l-1.2 2.2C90.7 7.1 90.5 7.2 90.3 7.2z"></path><g><path fill="#99c2bc" d="M54.4 5.7L54.4 5.7c-.3.1-.6-.1-.7-.4l-.4-1.2c-.1-.3.1-.6.4-.7l0 0c.3-.1.6.1.7.4L54.8 5C54.9 5.3 54.7 5.6 54.4 5.7zM55.8 9.9L55.8 9.9c-.3.1-.6-.1-.7-.4l-.4-1.2C54.6 8 54.7 7.6 55 7.5l0 0c.3-.1.6.1.7.4l.4 1.2C56.3 9.4 56.1 9.8 55.8 9.9zM55.6 6.3L55.6 6.3C55.5 6 55.7 5.7 56 5.6l1.2-.4C57.5 5 57.9 5.2 58 5.5v0c.1.3-.1.6-.4.7l-1.2.4C56.1 6.8 55.7 6.6 55.6 6.3zM51.5 7.7L51.5 7.7c-.1-.3.1-.6.4-.7l1.2-.4c.3-.1.6.1.7.4v0c.1.3-.1.6-.4.7l-1.2.4C51.9 8.2 51.6 8 51.5 7.7z"></path><circle cx="54.7" cy="6.6" r=".5" fill="#99c2bc"></circle></g><g><path fill="#ed7a88" d="M38 17.2L38 17.2c-.3-.1-.5-.4-.4-.7l.4-1.2c.1-.3.4-.5.7-.4h0c.3.1.5.4.4.7l-.4 1.2C38.7 17.1 38.3 17.3 38 17.2zM36.7 21.4L36.7 21.4c-.3-.1-.5-.4-.4-.7l.4-1.2c.1-.3.4-.5.7-.4l0 0c.3.1.5.4.4.7L37.4 21C37.3 21.3 37 21.5 36.7 21.4zM38.7 18.4L38.7 18.4c.1-.3.4-.5.7-.4l1.2.4c.3.1.5.4.4.7v0c-.1.3-.4.5-.7.4L39 19.1C38.7 19 38.6 18.7 38.7 18.4zM34.5 17.1L34.5 17.1c.1-.3.4-.5.7-.4l1.2.4c.3.1.5.4.4.7l0 0c-.1.3-.4.5-.7.4l-1.2-.4C34.5 17.7 34.4 17.4 34.5 17.1z"></path><circle cx="37.7" cy="18.1" r=".5" fill="#ed7a88"></circle></g><g><path fill="#ed7a88" d="M10.5 12.5L10.5 12.5c-.3.1-.6-.1-.7-.4l-.4-1.2c-.1-.3.1-.6.4-.7h0c.3-.1.6.1.7.4l.4 1.2C11 12.1 10.8 12.4 10.5 12.5zM11.9 16.7L11.9 16.7c-.3.1-.6-.1-.7-.4l-.4-1.2c-.1-.3.1-.6.4-.7h0c.3-.1.6.1.7.4l.4 1.2C12.4 16.3 12.2 16.6 11.9 16.7zM11.7 13.2L11.7 13.2c-.1-.3.1-.6.4-.7l1.2-.4c.3-.1.6.1.7.4l0 0c.1.3-.1.6-.4.7l-1.2.4C12.2 13.6 11.8 13.5 11.7 13.2zM7.6 14.6L7.6 14.6c-.1-.3.1-.6.4-.7l1.2-.4c.3-.1.6.1.7.4v0c.1.3-.1.6-.4.7l-1.2.4C8 15 7.7 14.9 7.6 14.6z"></path><circle cx="10.8" cy="13.5" r=".5" fill="#ed7a88"></circle></g><g><path fill="#ed7a88" d="M34.8 38.5L34.8 38.5c-.3.1-.6-.1-.7-.4l-.4-1.2c-.1-.3.1-.6.4-.7l0 0c.3-.1.6.1.7.4l.4 1.2C35.3 38 35.1 38.4 34.8 38.5zM36.2 42.7L36.2 42.7c-.3.1-.6-.1-.7-.4l-.4-1.2c-.1-.3.1-.6.4-.7l0 0c.3-.1.6.1.7.4l.4 1.2C36.7 42.2 36.5 42.6 36.2 42.7zM36.1 39.1L36.1 39.1c-.1-.3.1-.6.4-.7l1.2-.4c.3-.1.6.1.7.4v0c.1.3-.1.6-.4.7l-1.2.4C36.5 39.6 36.2 39.4 36.1 39.1zM31.9 40.5L31.9 40.5c-.1-.3.1-.6.4-.7l1.2-.4c.3-.1.6.1.7.4l0 0c.1.3-.1.6-.4.7l-1.2.4C32.3 41 32 40.8 31.9 40.5z"></path><circle cx="35.1" cy="39.4" r=".5" fill="#ed7a88"></circle></g><g><path fill="#ed7a88" d="M32.5 78.3L32.5 78.3c-.3.1-.6-.1-.7-.4l-.4-1.2c-.1-.3.1-.6.4-.7h0c.3-.1.6.1.7.4l.4 1.2C33 77.9 32.8 78.2 32.5 78.3zM33.9 82.5L33.9 82.5c-.3.1-.6-.1-.7-.4l-.4-1.2c-.1-.3.1-.6.4-.7l0 0c.3-.1.6.1.7.4l.4 1.2C34.4 82.1 34.2 82.4 33.9 82.5zM33.8 79L33.8 79c-.1-.3.1-.6.4-.7l1.2-.4c.3-.1.6.1.7.4l0 0c.1.3-.1.6-.4.7l-1.2.4C34.2 79.4 33.9 79.3 33.8 79zM29.6 80.4L29.6 80.4c-.1-.3.1-.6.4-.7l1.2-.4c.3-.1.6.1.7.4l0 0c.1.3-.1.6-.4.7l-1.2.4C30 80.8 29.7 80.7 29.6 80.4z"></path><circle cx="32.8" cy="79.3" r=".5" fill="#ed7a88"></circle></g><g><path fill="#f3fbfe" d="M47.9,52.5c0,0-1.7-5,4.9-7.1c6-2,19-3.5,22.8-9c0.5-0.7,1.3-0.7,1.7,0.2c0.8,1.7,2,3.9,3.5,5
						c2.6,1.8,7,7.9,6.9,12.3"></path><path fill="#fff" d="M48.4,52.5c0.7-1.2,2-2.3,4.4-3.1c6-2,19-3.5,22.8-9c0.5-0.7,1.3-0.7,1.7,0.2c0.8,1.7,2,3.9,3.5,5
						c1.9,1.3,4.6,4.8,6,8.2l0.9,0c0.1-4.4-4.3-10.4-6.9-12.3c-1.5-1.1-2.8-3.3-3.5-5c-0.4-0.9-1.2-0.9-1.7-0.2
						c-3.9,5.5-16.8,7.1-22.8,9c-6.7,2.2-4.9,7.1-4.9,7.1L48.4,52.5z"></path><path fill="#e3e8ee" d="M83.9,44.6H55.7c-1,0.3-2,0.5-2.8,0.8c-6.7,2.2-4.9,7.1-4.9,7.1l39.9,1.3C87.9,50.9,86,47.3,83.9,44.6z"></path><path fill="#6fa8a0" d="M96.3,62.4v29.1c0,2.5-2.1,4.6-4.6,4.6H43.5c-2.5,0-4.6-2.1-4.6-4.6V62.4H96.3z"></path><path fill="#6fa8a0" d="M96.3,62.4v29.1c0,2.5-2.1,4.6-4.6,4.6H43.5c-2.5,0-4.6-2.1-4.6-4.6V62.4H96.3z"></path><rect width="13.1" height="33.7" x="46.6" y="62.4" fill="#99c2bc"></rect><path fill="#679998" d="M82.6,62.4v33.7h9.1c2.5,0,4.6-2.1,4.6-4.6V62.4H82.6z"></path><g><path fill="#dddfee" d="M91.4,54.8v7.6H43.8v-7.6c0-1.9,1.6-3.5,3.5-3.5H88C89.9,51.3,91.4,52.8,91.4,54.8z"></path></g><g><path fill="#747a94" d="M23.8,64.4c1.6,0,2.9,1.3,2.9,2.9v23.1c0,3.2-2.3,5.7-5.1,5.7H8.7c-2.8,0-5.1-2.6-5.1-5.7V67.3
						c0-1.6,1.3-2.9,2.9-2.9H23.8z"></path><rect width="5.6" height="31.7" x="9.2" y="64.4" fill="#8087a0"></rect><path fill="#585c77" d="M20.8,64.4v31.7h0.8c2.8,0,5.1-2.6,5.1-5.7V67.3c0-1.6-1.3-2.9-2.9-2.9H20.8z"></path><path fill="#f3fbfe" d="M24.2,44.8v19.7H6.1V44.8c0-1,0.8-1.8,1.8-1.8h14.6C23.4,43,24.2,43.8,24.2,44.8z"></path><path fill="#f3fbfe" d="M24.2,44.8v19.7H6.1V44.8c0-1,0.8-1.8,1.8-1.8h14.6C23.4,43,24.2,43.8,24.2,44.8z"></path><rect width="2.8" height="21.4" x="9.4" y="43" fill="#fff"></rect><path fill="#e3e8ee" d="M18.6,43v21.4h5.6V44.8c0-1-0.8-1.8-1.8-1.8H18.6z"></path><path fill="#e95a6b" d="M22,25.4V43H8.3V30.2c0-2.3,1.2-4.3,3.1-5.2l6.4-2.8C19.9,21.4,22,23,22,25.4z"></path><path fill="#e95a6b" d="M22,25.4V43H8.3V30.2c0-2.3,1.2-4.3,3.1-5.2l6.4-2.8C19.9,21.4,22,23,22,25.4z"></path><polygon fill="#ed7a88" points="11.8 24.9 11.8 43 14.5 43 14.5 23.7"></polygon><path fill="#dd4a63" d="M17.9,22.2l-0.4,0.2V43H22V25.4C22,23,19.9,21.4,17.9,22.2z"></path><path fill="#384169" d="M62.7 28.1c-4.2 0-7.6-3.4-7.6-7.6 0-.3-.2-.5-.5-.5h-.2c-.3 0-.5.2-.5.5 0 4.2-3.4 7.6-7.6 7.6-.3 0-.5.2-.5.5v.2c0 .3.2.5.5.5 4.2 0 7.6 3.4 7.6 7.6 0 .3.2.5.5.5h.2c.3 0 .5-.2.5-.5 0-4.2 3.4-7.6 7.6-7.6.3 0 .5-.2.5-.5v-.2C63.2 28.3 63 28.1 62.7 28.1zM54.5 34.3c-.8-2.7-3-4.8-5.6-5.7 2.7-.8 4.8-3 5.6-5.6.8 2.7 3 4.8 5.6 5.6C57.4 29.5 55.3 31.6 54.5 34.3zM71.1 15.2c-1.7.1-3 1.5-2.9 3.2.1 1.7 1.5 3 3.2 2.9 1.7-.1 2.9-1.5 2.8-3.2C74.2 16.4 72.8 15.1 71.1 15.2zM71.4 19.9c-.9 0-1.7-.6-1.7-1.5 0-.9.6-1.7 1.5-1.7.9-.1 1.7.6 1.7 1.5C73 19.1 72.3 19.8 71.4 19.9zM31.4 54.8c-1.7.1-3 1.5-2.9 3.2s1.5 2.9 3.2 2.9c1.7-.1 3-1.5 2.9-3.2C34.5 56 33.1 54.7 31.4 54.8zM31.7 59.4c-.9 0-1.7-.6-1.7-1.5 0-.9.6-1.7 1.5-1.7.9 0 1.7.6 1.7 1.5S32.6 59.4 31.7 59.4zM26.2 4.5c-1.7.1-2.9 1.5-2.9 3.2.1 1.7 1.5 2.9 3.2 2.9 1.7-.1 3-1.5 2.9-3.2C29.3 5.6 27.9 4.4 26.2 4.5zM26.5 9.1c-.9 0-1.6-.6-1.7-1.5-.1-.9.6-1.7 1.5-1.7.9 0 1.7.6 1.7 1.5C28.1 8.3 27.4 9 26.5 9.1zM92.1 33.3c-1.7.1-2.9 1.5-2.8 3.2.1 1.7 1.5 2.9 3.2 2.9 1.7-.1 2.9-1.5 2.9-3.2C95.2 34.5 93.8 33.3 92.1 33.3zM92.4 38c-.9.1-1.7-.6-1.7-1.5 0-.9.6-1.7 1.5-1.7.9 0 1.7.6 1.7 1.5C94 37.2 93.3 37.9 92.4 38zM88 7.8c-1.5 0-2.7 1.2-2.7 2.7s1.2 2.7 2.7 2.7c1.5 0 2.7-1.2 2.7-2.7S89.5 7.8 88 7.8zM88 12c-.8 0-1.4-.7-1.4-1.5s.6-1.5 1.4-1.5c.8 0 1.5.7 1.5 1.5S88.8 12 88 12zM96.3 61.4h-3.9v-4.2l1.5-.1c.3 0 .5-.3.5-.5 0-.3-.2-.5-.5-.5h0l-1.5.1v-1.4c0-.2 0-.4-.1-.6l1.6-.1c.3 0 .5-.3.5-.5 0-.3-.2-.5-.5-.5h0l-1.8.1c-.6-1.6-2.1-2.8-4-2.9-1.3-3.9-4.4-8-6.7-9.6-1-.7-2.2-2.4-3.2-4.6-.3-.8-.9-1.2-1.6-1.3-.7-.1-1.3.3-1.8.9-2.7 3.8-10.4 5.7-16.7 7.2-2.1.5-4.1 1-5.7 1.5-2.6.8-4.3 2.2-5.2 3.9-.3.7-.5 1.3-.6 2-2.2.3-4 2.1-4 4.4v.7l-1.3.1c-.3 0-.5.3-.5.5 0 .3.2.5.5.5 0 0 0 0 0 0l1.3-.1v2l-1.3.1c-.3 0-.5.3-.5.5 0 .3.2.5.5.5 0 0 0 0 0 0l1.3-.1v2h-3.9c-.6 0-1 .5-1 1v29.1c0 3.1 2.5 5.6 5.6 5.6h48.2c3.1 0 5.6-2.5 5.6-5.6V62.4C97.3 61.9 96.9 61.4 96.3 61.4zM49.1 49.3c.6-1.3 2-2.3 4-2.9 1.5-.5 3.4-.9 5.5-1.4 6.5-1.6 14.7-3.5 17.8-7.9.8 1.8 2.1 4.2 3.9 5.4 1.7 1.2 4.4 4.6 5.7 7.9H48.8C48.9 49.9 49 49.6 49.1 49.3zM44.8 54.8c0-1.4 1.1-2.5 2.5-2.5H88c.8 0 1.5.4 2 1l-45.1 2.1V54.8zM44.8 56.3l45.6-2.1c0 .2 0 .3 0 .5v1.5l-45.6 2.1V56.3zM44.8 59.3l45.6-2.1v4.1H44.8V59.3zM95.3 91.5c0 2-1.6 3.6-3.6 3.6H43.5c-2 0-3.6-1.6-3.6-3.6V63.4h55.4V91.5zM25.2 63.7V44.8c0-1.3-.9-2.4-2.2-2.7V25.4c0-3.1-2.9-5.3-5.5-4.1L11 24.1c-2.3 1-3.7 3.4-3.7 6.1v11.9c-1.3.3-2.2 1.4-2.2 2.7v18.9c-1.4.6-2.4 2-2.4 3.6v23.1c0 3.7 2.7 6.7 6 6.7h12.9c3.3 0 6.1-3 6.1-6.7V67.3C27.6 65.7 26.6 64.3 25.2 63.7zM9.3 30.2c0-1.9 1-3.6 2.5-4.3l6.4-2.8c.6-.3 1.1-.2 1.7.2.7.4 1.1 1.2 1.1 2.1V42H9.3V30.2zM7.1 44.8c0-.4.3-.8.8-.8h14.6c.4 0 .8.4.8.8v18.7H7.1V44.8zM25.6 90.4c0 2.6-1.8 4.7-4.1 4.7H8.7c-2.2 0-4-2.1-4-4.7V67.3c0-1 .8-1.9 1.9-1.9h17.2c1 0 1.9.8 1.9 1.9V90.4z"></path></g></g></svg>