<svg xmlns="http://www.w3.org/2000/svg" width="48" height="48"><path d="M24 0A24 24 0 0 0 0 24a24 24 0 0 0 24 24 24 24 0 0 0 24-24A24 24 0 0 0 24 0zm-2.498 11h.002c1.043 0 1.96.537 2.498 1.348a2.99 2.99 0 0 1 2.5-1.348c1.653 0 3 1.347 3 3 0 .771-.301 1.468-.781 2h4.281c1.1 0 2 .9 2 2v3.998a2.01 2.01 0 0 1-2 2L33 34c0 1.1-.9 2-2 2h-8.5a.5.5 0 0 1-.021-.002H17c-1.1 0-2-.899-2-1.998V24c-1.1 0-2-.9-2-2v-4c0-.55.225-1.05.588-1.412A1.992 1.992 0 0 1 15 16.002h4.281a2.975 2.975 0 0 1 .1-4.121A2.994 2.994 0 0 1 21.502 11zm0 1c-.558 0-1.06.22-1.42.58a2 2 0 0 0-.58 1.42c0 1.117.883 2 2 2H23.5v-2c0-1.117-.881-2-1.998-2zm4.998 0c-.558 0-1.058.222-1.418.582-.36.36-.582.86-.582 1.418v2h2c1.117 0 2-.883 2-2s-.883-2-2-2zM15 17c-.563 0-1 .437-1 1v4c0 .563.437 1 1 1h.414a.5.5 0 0 1 .18 0h1.812a.5.5 0 0 1 .188 0H22v-6h-7zm8 0v6.406a.5.5 0 0 1 0 .188v11.404L25 35V23.594a.5.5 0 0 1 0-.188V17h-2zm3 0 .004.002v6L32.486 23a.5.5 0 0 1 .004-.002H33c.563 0 1-.437 1-1V18c0-.563-.437-1-1-1h-7zm-10.035 1.004h1.494a.5.5 0 1 1 0 1h-1.455v1.308a.5.5 0 1 1-1 0v-1.478c0-.279.16-.51.342-.64.181-.131.395-.19.619-.19zM32 23.998 26 24v11h5c.563 0 1-.437 1-1V23.998zM16 24v10c0 .563.437.998 1 .998h5.002L22 24h-4v6.494a.5.5 0 1 1-1 0V24h-1zm1.494 7.984a.5.5 0 0 1 .506.51v1a.5.5 0 1 1-1 0v-1a.5.5 0 0 1 .135-.351.5.5 0 0 1 .36-.159z"/></svg>