<svg xmlns="http://www.w3.org/2000/svg" data-name="Filled Outline" viewBox="0 0 128 128" id="package"><path fill="#b26b88" d="M97.249,24.9C90.322,12.3,77.764,2.82,64,2.815S37.678,12.3,30.751,24.9c-3.587,6.528-2.915,19.544-.65,29.927H97.9C100.164,44.445,100.836,31.429,97.249,24.9Z"></path><path fill="#ffa39c" d="M91.96 53.134L89.39 71.307c4.571.747 9.807-4.517 10.565-9.087C100.887 56.605 97.687 52.661 91.96 53.134zM28.045 62.22c.758 4.57 5.994 9.834 10.565 9.087L36.04 53.134C30.313 52.661 27.113 56.605 28.045 62.22zM111.385 125.66H16.615a27.869 27.869 0 0 1 6.92-10.36c4.86-4.51 17.19-6.75 23.5-9.95A12.1 12.1 0 0 0 53.615 97c.1-.39.18-.77.24-1.15a47.647 47.647 0 0 0 .52-5.42h19.24a47.539 47.539 0 0 0 .53 5.41c.06.38.14.77.24 1.16a12.1 12.1 0 0 0 6.58 8.35c6.3 3.2 18.63 5.44 23.5 9.95A28.11 28.11 0 0 1 111.385 125.66z"></path><path fill="#ff6c73" d="M74.145,95.84a30.438,30.438,0,0,1-8.67,3.31,6.675,6.675,0,0,1-2.95,0,30.8,30.8,0,0,1-8.67-3.3,47.647,47.647,0,0,0,.52-5.42h19.24A47.539,47.539,0,0,0,74.145,95.84Z"></path><path fill="#ffb3a9" d="M90.984,65.9c-1.51,7.68-4.65,13.86-8.72,17.88-.05.06-.11.11-.16.16-3.85,3.73-8.75,7.76-16.64,9.5a6.675,6.675,0,0,1-2.95,0c-7.89-1.74-12.79-5.77-16.64-9.5-.05-.05-.11-.1-.16-.16-4.09-4.03-7.1-10.22-8.6-17.92a61.451,61.451,0,0,1-1.09-12.73c.22-17.77,7.96-8.71,13.69-25.26C54.5,13.99,69.384,15.41,77,24.71a5,5,0,0,0,2.34,1.57c10,3.21,12.12,12.88,12.6,26.85A55.942,55.942,0,0,1,90.984,65.9Z"></path><path fill="#9b506b" d="M64 68.17a5.756 5.756 0 0 1-3.752-1.562 1.4 1.4 0 0 1 1.82-2.115 2.551 2.551 0 0 0 3.864 0 1.4 1.4 0 0 1 1.82 2.115A5.756 5.756 0 0 1 64 68.17zM72.709 74.474a1.077 1.077 0 0 0-1.265-.847l-.017 0a10.115 10.115 0 0 1-3.5.1c-.29-.041-.574-.1-.91-.161a4.1 4.1 0 0 0-1.455-.069 3.581 3.581 0 0 0-1.415.58.307.307 0 0 1-.3 0 3.581 3.581 0 0 0-1.415-.58 4.1 4.1 0 0 0-1.455.069c-.336.065-.62.12-.91.161a10.115 10.115 0 0 1-3.5-.1l-.018 0a1.076 1.076 0 0 0-.632 2.045 10.3 10.3 0 0 0 4.369.836c.372-.011.748-.043 1.07-.068a1.32 1.32 0 0 1 .908.29 3.23 3.23 0 0 0 1.618.469c.032 0 .179 0 .224 0a3.23 3.23 0 0 0 1.618-.469 1.321 1.321 0 0 1 .909-.29c.321.025.7.057 1.07.068a10.3 10.3 0 0 0 4.368-.836A1.078 1.078 0 0 0 72.709 74.474zM64 82.277a5.181 5.181 0 0 1-2.263-.535 1.5 1.5 0 1 1 1.3-2.7 2.04 2.04 0 0 0 1.92 0 1.5 1.5 0 0 1 1.3 2.7A5.181 5.181 0 0 1 64 82.277z"></path><path fill="#9e5969" d="M72.072,43.745a13.244,13.244,0,0,1,4.288-1.091,17.853,17.853,0,0,1,4.286.045,34.932,34.932,0,0,1,4.179.815,17.01,17.01,0,0,1,4.039,1.526.671.671,0,0,1-.532,1.224l-.041-.014a19.048,19.048,0,0,0-3.831-.721,33.478,33.478,0,0,0-3.966-.129c-1.318.037-2.623.036-3.913.09a29.89,29.89,0,0,0-3.756.423l-.049.01a1.152,1.152,0,0,1-.7-2.178Z"></path><path fill="#9b506b" d="M73.485 55.08a5.987 5.987 0 0 0 2.543.269 13 13 0 0 0 2.789-.56c.464-.147.93-.3 1.379-.485.231-.08 1.425-.611 1.425-.611a4.656 4.656 0 0 1 2.07-.4 2.444 2.444 0 0 1 1.965 1.131.655.655 0 0 1-.691.961l-.148-.027a1.832 1.832 0 0 0-1.024.107 4.9 4.9 0 0 0-1.019.512c-.1.068-.675.432-.675.432-.262.144-.524.3-.792.422a13.377 13.377 0 0 1-1.658.65A11.076 11.076 0 0 1 76.063 58 5.961 5.961 0 0 1 72.4 56.747a1 1 0 0 1 .974-1.709zM55.6 56.747A5.963 5.963 0 0 1 51.937 58a11.076 11.076 0 0 1-3.586-.523 13.377 13.377 0 0 1-1.658-.65c-.268-.127-1.369-.786-1.467-.854a4.9 4.9 0 0 0-1.019-.512 1.832 1.832 0 0 0-1.024-.107l-.148.027a.656.656 0 0 1-.692-.961 2.448 2.448 0 0 1 1.966-1.131 4.656 4.656 0 0 1 2.07.4s1.194.531 1.425.611c.449.186.915.338 1.379.485a12.99 12.99 0 0 0 2.789.56 5.987 5.987 0 0 0 2.543-.269l.112-.041a1 1 0 0 1 .976 1.708z"></path><path fill="#9e5969" d="M55.258,45.913A29.89,29.89,0,0,0,51.5,45.49c-1.29-.054-2.6-.053-3.912-.09a33.464,33.464,0,0,0-3.966.129,19.035,19.035,0,0,0-3.831.721l-.042.013a.67.67,0,0,1-.532-1.223,17.01,17.01,0,0,1,4.039-1.526,34.932,34.932,0,0,1,4.179-.815,17.853,17.853,0,0,1,4.286-.045,13.237,13.237,0,0,1,4.288,1.091,1.153,1.153,0,0,1-.7,2.179Z"></path><path fill="#ffe1e1" d="M45.77 83.78c-4.09-4.03-7.1-10.22-8.6-17.92 4.03-1.35 8.83.81 11.18 5.25C50.86 75.83 49.69 81.39 45.77 83.78zM91.04 65.9c-1.51 7.68-4.65 13.86-8.72 17.88-3.93-2.38-5.1-7.95-2.59-12.67C82.11 66.63 86.98 64.47 91.04 65.9z"></path><path fill="#9b506b" d="M48.236 82.374A1 1 0 0 1 47.4 80.83a7.573 7.573 0 0 0 .427-.749 1 1 0 1 1 1.791.889 9.39 9.39 0 0 1-.54.948A1 1 0 0 1 48.236 82.374zm1.431-4.615H49.62a1 1 0 0 1-.953-1.045c.006-.134.009-.27.009-.4 0-.163 0-.321-.012-.478a1 1 0 0 1 2-.1c.01.195.015.389.014.583 0 .162 0 .327-.011.492A1 1 0 0 1 49.667 77.759zm-.891-4.767a1 1 0 0 1-.92-.606c-.115-.272-.244-.541-.385-.807a1.015 1.015 0 0 1 .383-1.354.988.988 0 0 1 1.341.34c.02.033.054.1.07.131.14.262.293.58.431.9a1 1 0 0 1-.92 1.393zm-2.832-3.98a1 1 0 0 1-.671-.258q-.33-.3-.682-.563a1 1 0 1 1 1.2-1.6c.283.212.56.438.827.68a1 1 0 0 1-.671 1.742zm-9.962-2.66l.008.015zm5.7.36a.983.983 0 0 1-.239-.029 8.067 8.067 0 0 0-.851-.161 1 1 0 1 1 .259-1.982 9.662 9.662 0 0 1 1.069.2 1 1 0 0 1-.238 1.971zM79.007 81.918a9.39 9.39 0 0 1-.54-.948 1 1 0 1 1 1.791-.889 7.779 7.779 0 0 0 .427.749 1 1 0 1 1-1.678 1.088zm-1.589-5.113c-.007-.165-.01-.33-.01-.492 0-.194 0-.388.013-.583a1 1 0 0 1 2 .1c-.007.157-.012.315-.011.478 0 .135 0 .271.008.4a1 1 0 0 1-.953 1.045h-.047A1 1 0 0 1 77.418 76.805zm1.5-3.893a1 1 0 0 1-.527-1.313c.139-.323.291-.641.432-.9.015-.034.05-.1.069-.131a.988.988 0 0 1 1.341-.34 1.015 1.015 0 0 1 .384 1.354q-.213.4-.386.807a1 1 0 0 1-.92.606A.99.99 0 0 1 78.914 72.912zM81.4 68.683a1 1 0 0 1 .071-1.413q.4-.363.827-.68a1 1 0 1 1 1.2 1.6q-.352.262-.683.563a1 1 0 0 1-1.413-.071zm10.7-2.316l.008-.015zm-6.667-.417a1 1 0 0 1 .733-1.209 9.645 9.645 0 0 1 1.068-.2 1 1 0 1 1 .26 1.982 8.085 8.085 0 0 0-.852.161.983.983 0 0 1-.239.029A1 1 0 0 1 85.426 65.95z"></path><path fill="#ffa39c" d="M92.894,74.646a2.143,2.143,0,0,0-2.5,1.616l3.093,20.525c3.495-2.277,4.633-4.208,4.589-9.228C98.06,85.421,95.761,75.177,92.894,74.646Z"></path><path fill="#ffc2b6" d="M96.439,125.671s-5.2-11.681-5.917-15.047c-.864-4.072,4.006-14.264,4.006-14.264a17.969,17.969,0,0,0-.192-11.95c-1.331-3.588-3.016-8.035-4.19-11.459a2.312,2.312,0,0,0-4.483.457c0,.033-.007.066-.01.1-.172,2,1.117,10.155,1.689,12.718.552,2.47-3.2,5.876-4.977,8.5-5.685,8.368-2.944,13.164-1.759,15.9,1.013,2.339,3.819,15.051,3.819,15.051Z"></path><path fill="#ffa39c" d="M35.106,74.646c-2.867.531-5.166,10.775-5.184,12.913-.043,5.02,1.094,6.951,4.589,9.228L37.6,76.262A2.143,2.143,0,0,0,35.106,74.646Z"></path><path fill="#ffc2b6" d="M31.561,125.671s5.2-11.681,5.917-15.047c.864-4.072-4.006-14.264-4.006-14.264a17.969,17.969,0,0,1,.192-11.95c1.331-3.588,3.016-8.035,4.19-11.459a2.312,2.312,0,0,1,4.483.457c0,.033.007.066.01.1.172,2-1.117,10.155-1.689,12.718-.552,2.47,3.2,5.876,4.977,8.5,5.685,8.368,2.944,13.164,1.759,15.9-1.013,2.339-3.819,15.051-3.819,15.051Z"></path><path fill="#9b506b" d="M72.019 43.712A13.6 13.6 0 0 1 76.314 42.6a18.278 18.278 0 0 1 4.293.056 34.816 34.816 0 0 1 4.182.826 16.947 16.947 0 0 1 4.042 1.539.691.691 0 0 1-.547 1.261l-.044-.014a19.058 19.058 0 0 0-3.827-.709 33.419 33.419 0 0 0-3.963-.119 47.773 47.773 0 0 0-7.655.506l-.049.009a1.188 1.188 0 0 1-.727-2.244zM55.205 45.947a47.773 47.773 0 0 0-7.655-.506 33.419 33.419 0 0 0-3.963.119 19.058 19.058 0 0 0-3.827.709l-.044.013a.691.691 0 0 1-.547-1.26 16.947 16.947 0 0 1 4.042-1.539 34.816 34.816 0 0 1 4.182-.826 18.278 18.278 0 0 1 4.293-.056 13.6 13.6 0 0 1 4.3 1.111 1.189 1.189 0 0 1-.726 2.245z"></path><path fill="#9b506b" d="M112.769,125.094a29.385,29.385,0,0,0-7.29-10.895c-3-2.778-8.434-4.695-13.471-6.364a42.205,42.205,0,0,1,2.7-8.49,6.089,6.089,0,0,1,1.886-2.425c2.652-2.081,3.988-4.473,3.945-9.374-.013-1.594-2.046-13.567-6.409-14.374a3.644,3.644,0,0,0-2.192.264c-.086-.243-.165-.474-.247-.71,4.628-.876,9-5.787,9.747-10.261a9.615,9.615,0,0,0-1.907-8.108c2.012-9.7,2.922-23.1-.965-30.178C90.817,10.081,77.574,1.32,64,1.314S37.183,10.081,29.437,24.179c-3.887,7.075-2.977,20.482-.965,30.178a9.615,9.615,0,0,0-1.907,8.108c.742,4.474,5.119,9.385,9.747,10.261-.082.236-.162.467-.247.71a3.627,3.627,0,0,0-2.19-.264c-4.365.807-6.4,12.78-6.411,14.374-.043,4.9,1.293,7.294,3.947,9.375A6.081,6.081,0,0,1,33.3,99.345a41.973,41.973,0,0,1,2.7,8.485c-5.023,1.658-10.454,3.566-13.473,6.369a29.371,29.371,0,0,0-7.289,10.895,1.5,1.5,0,0,0,2.777,1.133,26.5,26.5,0,0,1,6.552-9.828c2.343-2.175,6.969-3.907,11.233-5.341-1.041,3.4-4.323,11.047-5.631,13.994a1.5,1.5,0,0,0,2.742,1.217c.218-.492,5.346-12.066,6.085-15.546.92-4.342-3.4-13.7-4.079-15.136a16.531,16.531,0,0,1,.2-10.868l.844-2.265c1.135-3.042,2.414-6.492,3.363-9.24a.8.8,0,0,1,.28-.4.927.927,0,0,1,.879-.071.73.73,0,0,1,.418.684,8.014,8.014,0,0,1-.019,1.076,103.3,103.3,0,0,1-1.641,11.186c-.559,2.507,1.51,5.039,3.511,7.487.639.78,1.241,1.518,1.691,2.178,4.876,7.178,3.058,11.244,1.855,13.933l-.232.526c-1.041,2.4-3.651,14.189-3.945,15.526a1.5,1.5,0,1,0,2.93.644c1.13-5.133,3.066-13.36,3.767-14.977l.218-.493a15.7,15.7,0,0,0,1.583-5.757c4.219-3.551,4.876-8.391,5.118-12a33.177,33.177,0,0,0,7.211,2.305,5.052,5.052,0,0,0,1.036.139,5.936,5.936,0,0,0,1.165-.155,32.822,32.822,0,0,0,7.124-2.28c.243,3.606.9,8.452,5.121,12a15.7,15.7,0,0,0,1.582,5.743l.218.493c.7,1.617,2.636,9.843,3.767,14.977a1.5,1.5,0,1,0,2.93-.644c-.294-1.337-2.9-13.125-3.945-15.526l-.232-.526c-1.2-2.689-3.021-6.755,1.855-13.933.45-.66,1.052-1.4,1.691-2.178,2-2.448,4.07-4.98,3.511-7.488A103.227,103.227,0,0,1,87.124,74.5a7.415,7.415,0,0,1-.01-1.165.675.675,0,0,1,.409-.594.927.927,0,0,1,.879.071.793.793,0,0,1,.279.4c.948,2.751,2.229,6.2,3.364,9.242l.844,2.265a16.531,16.531,0,0,1,.2,10.868c-.681,1.436-5,10.794-4.079,15.136.739,3.48,5.867,15.054,6.085,15.546a1.5,1.5,0,0,0,2.742-1.217c-1.307-2.945-4.585-10.579-5.628-13.986,4.4,1.48,8.887,3.167,11.228,5.334a26.478,26.478,0,0,1,6.551,9.827,1.5,1.5,0,0,0,1.39.933,1.484,1.484,0,0,0,.565-.111A1.5,1.5,0,0,0,112.769,125.094ZM33.144,81.405,32.3,83.676a19.489,19.489,0,0,0-1.135,8.37,10.44,10.44,0,0,1-.7-4.475c.022-2.729,2.493-10.95,3.958-11.45a.671.671,0,0,1,.608.193C34.409,78.012,33.755,79.767,33.144,81.405ZM32.065,25.624C39.176,12.684,51.711,4.319,64,4.314s24.825,8.37,31.936,21.31c3.13,5.7,2.747,17.182.924,26.784a9.607,9.607,0,0,0-3.5-.788c-.952-13.1-2.8-23.32-13.536-26.767a3.486,3.486,0,0,1-1.641-1.1c-4.622-5.64-11.684-8.556-17.992-7.431-5.537.989-9.755,4.914-11.879,11.052-2.461,7.115-5.19,9.142-7.6,10.929-3.017,2.241-5.635,4.219-6.105,13.317a9.688,9.688,0,0,0-3.461.784C29.32,42.805,28.934,31.322,32.065,25.624ZM29.524,61.975a6.668,6.668,0,0,1,1.266-5.723A5.466,5.466,0,0,1,34.6,54.619q.038,2.1.187,4.121a4.646,4.646,0,0,0-1.688-.149,1.5,1.5,0,1,0,.289,2.986c.293-.027,1.175-.109,1.833,1.261A55.028,55.028,0,0,0,36.6,69.732C33.38,68.972,30.054,65.165,29.524,61.975ZM52.8,91.565c-.162,2.766-.381,6.343-2.55,9.242a21.737,21.737,0,0,0-3.334-7.14c-.522-.77-1.166-1.558-1.848-2.392-1.329-1.625-3.148-3.849-2.906-4.934.172-.768.413-2.065.662-3.558a23.686,23.686,0,0,0,2.016,2.237,41.346,41.346,0,0,0,7.98,6.229C52.815,91.358,52.807,91.453,52.8,91.565Zm30.13-.29c-.682.834-1.326,1.622-1.848,2.392A21.732,21.732,0,0,0,77.75,100.8c-2.166-2.9-2.39-6.469-2.553-9.231-.006-.112-.014-.208-.02-.317a41.533,41.533,0,0,0,7.982-6.236,23.705,23.705,0,0,0,2.015-2.24c.249,1.494.491,2.792.663,3.56C86.079,87.426,84.26,89.65,82.931,91.275Zm5.444-21.583A3.927,3.927,0,0,0,86.3,70a3.682,3.682,0,0,0-2.173,3.023s-.041,1.009,0,1.663c.064,1.041.214,2.391.4,3.813a23.007,23.007,0,0,1-3.461,4.364c-4,3.877-8.771,7.68-16.509,9.238a2.873,2.873,0,0,1-1.124,0c-7.738-1.558-12.507-5.361-16.509-9.238A23.023,23.023,0,0,1,43.468,78.5c.189-1.422.338-2.77.4-3.812a10.741,10.741,0,0,0,.013-1.522c0-.009-.012-.133-.013-.141A3.682,3.682,0,0,0,41.7,70a3.938,3.938,0,0,0-2-.323,55.357,55.357,0,0,1-2.116-16.42c.137-8.445,2.117-10.467,4.915-12.545,2.618-1.945,5.878-4.366,8.643-12.357,2.246-6.492,6.444-8.52,9.57-9.078,5.257-.943,11.2,1.565,15.145,6.38a6.486,6.486,0,0,0,3.044,2.05c8.54,2.744,11.127,10.876,11.593,25.953A50.847,50.847,0,0,1,88.375,69.692Zm4.518-7.069a1.672,1.672,0,0,1,1.714-1.046,1.5,1.5,0,1,0,.289-2.986,4.643,4.643,0,0,0-1.6.126q.146-2.005.185-4.093a5.433,5.433,0,0,1,3.731,1.628,6.668,6.668,0,0,1,1.266,5.723c-.524,3.158-3.8,6.922-6.982,7.735A55.071,55.071,0,0,0,92.893,62.623Zm.077,13.691a.662.662,0,0,1,.595-.2c1.478.5,3.949,8.724,3.971,11.453a10.448,10.448,0,0,1-.7,4.464A19.5,19.5,0,0,0,95.7,83.676l-.845-2.271C94.245,79.767,93.591,78.012,92.97,76.314Z"></path></svg>