<svg xmlns="http://www.w3.org/2000/svg" width="48" height="48"><path fill-rule="evenodd" d="M24 0A24 24 0 0 0 0 24a24 24 0 0 0 24 24 24 24 0 0 0 24-24A24 24 0 0 0 24 0zm10.035 10.133c1.028.007 1.788.8 1.983 1.775.487.096.928.333 1.25.674l.005.008c.322.341.525.785.53 1.299A2.1 2.1 0 0 1 35.693 16l-1.615-.01-1.615-.011a.501.501 0 0 1-.5-.497l-.016-1.615-.015-1.617a2.092 2.092 0 0 1 2.103-2.117zm-.01.996a1.07 1.07 0 0 0-1.091 1.105l.015 1.618.012 1.125 1.125.01 1.62.01c.62.003 1.099-.48 1.093-1.108a1.14 1.14 0 0 0-.336-.8l-.002.005a1.126 1.126 0 0 0-.799-.33.5.5 0 0 1-.498-.496 1.136 1.136 0 0 0-1.137-1.131l-.002-.008zm-19.273.004.002.002a2.095 2.095 0 0 1 2.113 2.107l-.012 1.615-.01 1.616a.503.503 0 0 1-.497.498l-1.616.015-1.617.016A2.096 2.096 0 0 1 11 14.896c.007-1.027.8-1.787 1.775-1.982.097-.488.333-.93.674-1.252h.002a1.902 1.902 0 0 1 1.301-.53zm0 .998a1.138 1.138 0 0 0-.797.338l.01.006c-.204.205-.33.485-.33.798a.501.501 0 0 1-.498.497 1.134 1.134 0 0 0-1.133 1.134h-.002l-.014-.002a1.069 1.069 0 0 0 1.104 1.096l1.617-.016 1.127-.011.01-1.125.01-1.617h.001a1.072 1.072 0 0 0-1.105-1.098zm7.682.869c1.042 0 1.96.537 2.498 1.348a2.988 2.988 0 0 1 2.5-1.348c1.653 0 3 1.347 3 3 0 .771-.301 1.468-.782 2h4.284c1.099 0 1.998.9 1.998 2l.002 4.002c0 1.1-.901 2-2 2L33.932 36c0 1.1-.901 2-2 2h-8.5a.5.5 0 0 1-.022-.002h-5.478c-1.1 0-2-.9-2-2V26c-1.1 0-2-.9-2-2v-4c0-.55.225-1.05.588-1.412A1.994 1.994 0 0 1 15.932 18h4.279a2.974 2.974 0 0 1 .102-4.121 2.992 2.992 0 0 1 2.12-.879zm0 1c-.559 0-1.06.22-1.42.58-.36.36-.582.864-.582 1.422 0 1.117.883 1.998 2 1.998h2v-2c0-1.117-.882-2-1.998-2zm4.998 0c-.559 0-1.058.222-1.418.582-.36.36-.582.86-.582 1.418v2h2c1.116 0 2-.883 2-2s-.884-2-2-2zm-11.5 5c-.563 0-1 .437-1 1v4c0 .563.437 1 1 1h.406a.5.5 0 0 1 .187 0h1.813a.5.5 0 0 1 .187 0h4.407v-6h-7zm8 0v6.396a.5.5 0 0 1 0 .208v11.394l2 .002V25.605a.5.5 0 0 1 0-.199V19h-2zm2.998 0 .002 6.002 6.46-.002a.5.5 0 0 1 .077 0h.465c.562 0 1-.437 1-1l-.002-4c0-.563-.438-1-1-1H26.93zm-10.034 1.004h1.495a.5.5 0 1 1 0 1h-1.455v1.308a.5.5 0 1 1-1 0v-1.478c0-.279.16-.51.341-.64.182-.131.395-.19.62-.19zM16.932 26v9.998c0 .563.437 1 1 1h5.002L22.932 26h-4v6.494a.5.5 0 1 1-1 0V26h-1zm10 .002V37h5c.562 0 1-.437 1-1v-9.998h-6zm-8.506 7.982a.5.5 0 0 1 .506.51v1a.5.5 0 1 1-1 0v-1a.5.5 0 0 1 .134-.351.5.5 0 0 1 .36-.159z"/></svg>