<svg xmlns="http://www.w3.org/2000/svg" viewBox="0 0 128 128" id="service"><path fill="#9e5969" d="M86,83.155c-.5-8.28,2.375-14.244,3-29.213.444-10.628-1.887-25.323-5.112-31.192C77.662,11.418,66.4,2.9,54.031,2.9c0,0-6.781,1.26-7.781,1.854C43.405,6.439,37.449,8.889,32,17.342c-9.75,15.125-12.667,93.013-12.667,93.013H95.208C93.833,94.833,86.682,94.456,86,83.155Z"></path><path fill="#9e5969" d="M86,83.155c-.5-8.28,2.375-14.244,3-29.213.444-10.628-1.887-25.323-5.112-31.192C77.662,11.418,66.4,2.9,54.031,2.9c0,0-6.781,1.26-7.781,1.854C43.405,6.439,37.449,8.889,32,17.342c-9.75,15.125-12.667,93.013-12.667,93.013H95.208C93.833,94.833,86.682,94.456,86,83.155Z"></path><ellipse cx="37.572" cy="77.102" fill="#894255" rx="13.905" ry="28.565"></ellipse><path fill="#ffa39c" d="M91.372,123.94H16.628c-4.65,0-2.493-16.7.992-19.93,4.38-4.05,15.46-6.07,21.13-8.94a11.17,11.17,0,0,0,6.17-8.67c.31-1.77.33-4.45.43-5.75h17.3c.1,1.3.12,3.98.43,5.75a11.17,11.17,0,0,0,6.17,8.67c5.67,2.87,16.75,4.89,21.13,8.94C93.865,107.24,96.022,123.94,91.372,123.94Z"></path><path fill="#ff6c73" d="M63.08,86.4a27.481,27.481,0,0,1-7.76,2.96,5.883,5.883,0,0,1-2.64,0,27.481,27.481,0,0,1-7.76-2.96c.31-1.77.33-4.45.43-5.75h17.3C62.75,81.95,62.77,84.63,63.08,86.4Z"></path><path fill="#f7ceba" d="M97.682,125.94H10.318a2.007,2.007,0,0,1-1.951-2.452c2.146-9.4,4.577-15.143,9.253-19.478,9.88,9.24,29.96,9.73,36.38,9.66,6.42.07,26.5-.42,36.38-9.66,4.676,4.335,7.107,10.082,9.253,19.478A2.007,2.007,0,0,1,97.682,125.94Z"></path><path fill="#ffb05a" d="M125.413,17.347h0V17.28h0a6.333,6.333,0,0,0-3.944-5.839,1.693,1.693,0,0,1-1.042-1.791A6.335,6.335,0,0,0,117.3,3.341h0a6.336,6.336,0,0,0-7.035.489,1.692,1.692,0,0,1-2.071.007,6.334,6.334,0,0,0-7.038-.445h0A6.335,6.335,0,0,0,98.067,9.72a1.693,1.693,0,0,1-1.031,1.8A6.332,6.332,0,0,0,93.13,17.38h0a6.334,6.334,0,0,0,3.931,5.847A1.69,1.69,0,0,1,98.1,25.02a6.335,6.335,0,0,0,3.115,6.316h0a6.333,6.333,0,0,0,7.035-.474,1.692,1.692,0,0,1,2.072,0,6.335,6.335,0,0,0,7.036.459h0a6.333,6.333,0,0,0,3.1-6.322A1.693,1.693,0,0,1,121.5,23.2,6.335,6.335,0,0,0,125.413,17.347Z"></path><path fill="#ffa39c" d="M79.134,48.129,76.823,64.466c4.11.671,8.817-4.061,9.5-8.169C87.158,51.25,84.282,47.7,79.134,48.129Z"></path><path fill="#ff6c73" d="M77.349,57.813a1.5,1.5,0,0,1-1.359-2.135,6.133,6.133,0,0,1,5.466-3.127,1.5,1.5,0,1,1-.289,2.986,3.146,3.146,0,0,0-2.458,1.41A1.5,1.5,0,0,1,77.349,57.813Z"></path><path fill="#ffb3a9" d="M67.824,24.038a5.222,5.222,0,0,1-2.163-1.52c-3.019-3.711-6.963-4.8-10.987-4.93-18.2-.561-24.658,11.424-25.808,30.541-.013,12.367,3.244,22.263,8.85,27.694,3.461,3.353,7.864,6.977,14.959,8.542a6.137,6.137,0,0,0,2.65,0c7.095-1.565,11.5-5.189,14.959-8.542,5.606-5.431,8.863-15.327,8.85-27.694C69.289,38.858,75.95,27.234,67.824,24.038Z"></path><rect width="4.861" height="6.151" x="64.652" y="47.954" fill="#9e5969" rx="2.43" ry="2.43"></rect><circle cx="79.134" cy="65.344" r="2.186" fill="#f7f0e8"></circle><path fill="#f7f0e8" d="M113.451,20.369H111.2a3.8,3.8,0,0,1-3.794-3.794V11.9a1.5,1.5,0,1,1,3,0v4.674a.8.8,0,0,0,.794.794h2.251a1.5,1.5,0,0,1,0,3Z"></path><path fill="#ffb273" d="M13.248,15.107l.834,1.525a1.581,1.581,0,0,0,.628.628l1.525.834a1.579,1.579,0,0,1,0,2.771L14.71,21.7a1.581,1.581,0,0,0-.628.628l-.834,1.524a1.579,1.579,0,0,1-2.771,0l-.834-1.524a1.581,1.581,0,0,0-.628-.628l-1.524-.834a1.579,1.579,0,0,1,0-2.771l1.524-.834a1.581,1.581,0,0,0,.628-.628l.834-1.525A1.579,1.579,0,0,1,13.248,15.107Z"></path><path fill="#ffcba4" d="M100.972,53.8,101.633,55a1.238,1.238,0,0,0,.5.5l1.207.661a1.25,1.25,0,0,1,0,2.194l-1.207.661a1.245,1.245,0,0,0-.5.5l-.661,1.207a1.25,1.25,0,0,1-2.194,0l-.661-1.207a1.245,1.245,0,0,0-.5-.5l-1.207-.661a1.25,1.25,0,0,1,0-2.194L97.62,55.5a1.238,1.238,0,0,0,.5-.5l.661-1.207A1.25,1.25,0,0,1,100.972,53.8Z"></path><path fill="#f7f0e8" d="M55.078,115.172c-.387,0-.751,0-1.1-.006-7.883.086-27.383-.706-37.381-10.059a1.5,1.5,0,1,1,2.048-2.191c9.463,8.852,29.429,9.312,35.333,9.25,5.923.056,25.905-.4,35.369-9.25a1.5,1.5,0,1,1,2.048,2.191C81.836,114.055,63.578,115.172,55.078,115.172Z"></path><path fill="#f7f0e8" d="M70.773 122.25a1.5 1.5 0 0 1-1.479-1.266 69.619 69.619 0 0 0-1.709-7.881 1.5 1.5 0 1 1 2.855-.918 70.975 70.975 0 0 1 1.817 8.331 1.5 1.5 0 0 1-1.247 1.715A1.457 1.457 0 0 1 70.773 122.25zM37.227 122.25a1.466 1.466 0 0 1-.237-.019 1.5 1.5 0 0 1-1.247-1.715 70.975 70.975 0 0 1 1.817-8.331 1.5 1.5 0 1 1 2.855.918 69.526 69.526 0 0 0-1.709 7.881A1.5 1.5 0 0 1 37.227 122.25zM54.034 123.083a1.5 1.5 0 0 1-1.5-1.5v-7.917a1.5 1.5 0 0 1 3 0v7.917A1.5 1.5 0 0 1 54.034 123.083z"></path><path fill="#ff6c73" d="M54.031 61.79A5.314 5.314 0 0 0 57.5 60.349a1.4 1.4 0 1 0-1.82-2.116 2.153 2.153 0 0 1-3.289 0 1.4 1.4 0 0 0-1.821 2.116A5.316 5.316 0 0 0 54.031 61.79zM61.919 67.312a1.077 1.077 0 0 0-1.254-.865l-.021 0a9.115 9.115 0 0 1-3.1.054c-.257-.038-.507-.089-.81-.149a3.75 3.75 0 0 0-1.355-.068 3.363 3.363 0 0 0-1.324.538.145.145 0 0 1-.112 0 3.356 3.356 0 0 0-1.324-.538 3.753 3.753 0 0 0-1.355.068c-.3.06-.553.111-.81.149a9.115 9.115 0 0 1-3.1-.054l-.022 0a1.078 1.078 0 0 0-.628 2.046 9.268 9.268 0 0 0 3.972.788c.339-.007.681-.035.97-.055.268-.023.3.006.717.249a3.03 3.03 0 0 0 1.523.439c.033 0 .181 0 .224 0a3.027 3.027 0 0 0 1.523-.439c.414-.243.449-.272.718-.249.288.02.631.048.969.055a9.265 9.265 0 0 0 3.972-.788A1.079 1.079 0 0 0 61.919 67.312zM54.833 71.279a1.7 1.7 0 0 1-1.6 0 1.5 1.5 0 1 0-1.3 2.7 4.683 4.683 0 0 0 4.2 0 1.5 1.5 0 0 0-1.3-2.7z"></path><path fill="#ffe2d2" d="M74.99,98.117c7.572,12.893,9.145,27.823,9.145,27.823h10.24s-1.625-16.127-9.324-26.854a1.722,1.722,0,0,0-.877-.7l-7.311-2.238C75.662,95.78,74.354,97.034,74.99,98.117Z"></path><path fill="#894255" d="M62.367 47.834a5.9 5.9 0 0 1 2.826-2.143 6.988 6.988 0 0 1 3.591-.2 11.24 11.24 0 0 1 1.613.445c.255.1.51.2.752.308a6.75 6.75 0 0 1 .639.3 3.312 3.312 0 0 0 .857.3 1.588 1.588 0 0 0 .922-.078l.154-.056a.658.658 0 0 1 .862.8 2.3 2.3 0 0 1-1.538 1.483 3.851 3.851 0 0 1-2.082-.011c-.343-.091-.538-.155-.758-.225s-.439-.13-.657-.186a12.7 12.7 0 0 0-1.275-.3 5.851 5.851 0 0 0-2.321-.028 6.1 6.1 0 0 0-2.173 1l-.036.023a1.007 1.007 0 0 1-1.376-1.428zM61.181 39.58a11.85 11.85 0 0 1 3.88-1.024 15.575 15.575 0 0 1 3.873.056 31.388 31.388 0 0 1 3.767.768 15.224 15.224 0 0 1 3.641 1.413.67.67 0 0 1-.528 1.223L75.769 42a17.312 17.312 0 0 0-3.433-.607 29.932 29.932 0 0 0-3.555-.082l-3.5.1a28.628 28.628 0 0 0-3.35.337l-.059.01a1.154 1.154 0 0 1-.694-2.178z"></path><rect width="4.861" height="6.151" x="64.652" y="47.954" fill="#9e5969" rx="2.43" ry="2.43"></rect><path fill="#894255" d="M62.367 47.834a5.9 5.9 0 0 1 2.826-2.143 6.988 6.988 0 0 1 3.591-.2 11.24 11.24 0 0 1 1.613.445c.255.1.51.2.752.308a6.75 6.75 0 0 1 .639.3 3.312 3.312 0 0 0 .857.3 1.588 1.588 0 0 0 .922-.078l.154-.056a.658.658 0 0 1 .862.8 2.3 2.3 0 0 1-1.538 1.483 3.851 3.851 0 0 1-2.082-.011c-.343-.091-.538-.155-.758-.225s-.439-.13-.657-.186a12.7 12.7 0 0 0-1.275-.3 5.851 5.851 0 0 0-2.321-.028 6.1 6.1 0 0 0-2.173 1l-.036.023a1.007 1.007 0 0 1-1.376-1.428zM61.181 39.58a11.85 11.85 0 0 1 3.88-1.024 15.575 15.575 0 0 1 3.873.056 31.388 31.388 0 0 1 3.767.768 15.224 15.224 0 0 1 3.641 1.413.67.67 0 0 1-.528 1.223L75.769 42a17.312 17.312 0 0 0-3.433-.607 29.932 29.932 0 0 0-3.555-.082l-3.5.1a28.628 28.628 0 0 0-3.35.337l-.059.01a1.154 1.154 0 0 1-.694-2.178z"></path><rect width="4.861" height="6.151" x="38.495" y="47.954" fill="#9e5969" rx="2.43" ry="2.43" transform="rotate(-180 40.926 51.03)"></rect><path fill="#894255" d="M45.641 47.834a5.9 5.9 0 0 0-2.826-2.143 6.987 6.987 0 0 0-3.591-.2 11.276 11.276 0 0 0-1.613.445c-.255.1-.509.2-.751.308a6.631 6.631 0 0 0-.639.3 3.325 3.325 0 0 1-.857.3 1.592 1.592 0 0 1-.923-.078l-.154-.056a.659.659 0 0 0-.862.8 2.3 2.3 0 0 0 1.539 1.483 3.848 3.848 0 0 0 2.081-.011c.343-.091.539-.155.758-.225s.439-.13.657-.186a12.715 12.715 0 0 1 1.276-.3 5.851 5.851 0 0 1 2.321-.028 6.106 6.106 0 0 1 2.173 1l.035.023a1.007 1.007 0 0 0 1.376-1.428zM46.828 39.58a11.856 11.856 0 0 0-3.881-1.024 15.566 15.566 0 0 0-3.872.056 31.444 31.444 0 0 0-3.768.768 15.257 15.257 0 0 0-3.641 1.413.671.671 0 0 0 .529 1.223L32.24 42a17.286 17.286 0 0 1 3.433-.607 29.915 29.915 0 0 1 3.554-.082l3.5.1a28.65 28.65 0 0 1 3.35.337l.059.01a1.154 1.154 0 0 0 .694-2.178z"></path><path fill="#9e5969" d="M54.031,2.9c-12.389,0-24.625,8.746-29.531,20.729C19.758,35.207,18.463,44.149,19.125,53c1,13.375-1.574,23.07-6.1,30.155a64.131,64.131,0,0,0-7.649,18.86c-1.6,6.818-1.451,12.084,1.792,16.318,5.064,6.612,10.666,7.5,18.371,7.5,5.774,0,10.212-4.958,8.257-10.432-5.789-16.207,2.053-16.994,1.122-29.821-.533-7.333-5.476-17.554-.973-26.842,4.637-9.564.431-19.863,8.223-33.321,3.616-6.247,7.621-7.985,12.507-7.829Z"></path></svg>