<?xml version="1.0" encoding="utf-8"?>
<!-- Generator: Adobe Illustrator 27.0.0, SVG Export Plug-In . SVG Version: 6.00 Build 0)  -->
<svg version="1.1" id="Layer_1" xmlns="http://www.w3.org/2000/svg" xmlns:xlink="http://www.w3.org/1999/xlink" x="0px" y="0px"
	 viewBox="0 0 354 247.8" style="enable-background:new 0 0 354 247.8;" xml:space="preserve">
<style type="text/css">
	.st0{fill:url(#SVGID_1_);}
	.st1{fill:url(#SVGID_00000050662626540653915390000006358479174765259395_);}
	.st2{fill:url(#SVGID_00000076590067823120819540000009782576870849575563_);}
	.st3{fill:url(#SVGID_00000143614800038891297620000010473634485809046448_);}
	.st4{fill:#FFFFFF;}
	.st5{fill:url(#SVGID_00000160186657027282932950000001246686316636215719_);}
	.st6{fill:url(#SVGID_00000150787220132884592250000011537429052552799154_);}
	.st7{fill:url(#SVGID_00000031895088693810737160000008827040728914137535_);}
	.st8{fill:url(#SVGID_00000048473845837378335400000001334285489243921593_);}
</style>
<g>
	<g>
		<linearGradient id="SVGID_1_" gradientUnits="userSpaceOnUse" x1="-89.8433" y1="169.3635" x2="-163.0301" y2="169.3635">
			<stop  offset="0" style="stop-color:#009FE3"/>
			<stop  offset="1" style="stop-color:#009FE3;stop-opacity:0"/>
		</linearGradient>
		<path class="st0" d="M-67.73,167.8v5.72c0,13.07-10.6,23.67-23.67,23.67h-56.44l-14.04-26.27h56.44
			c13.07,0,23.67-10.6,23.67-23.67v-5.72L-67.73,167.8z"/>
		
			<linearGradient id="SVGID_00000044865388208174825860000005109541819362390177_" gradientUnits="userSpaceOnUse" x1="-301.0557" y1="-51.0246" x2="-374.2425" y2="-51.0246" gradientTransform="matrix(-1 0 0 -1 -577.8207 25.2414)">
			<stop  offset="0" style="stop-color:#009FE3"/>
			<stop  offset="1" style="stop-color:#009FE3;stop-opacity:0"/>
		</linearGradient>
		<path style="fill:url(#SVGID_00000044865388208174825860000005109541819362390177_);" d="M-298.88,77.83V72.1
			c0-13.07,10.6-23.67,23.67-23.67h56.44l14.04,26.27h-56.44c-13.07,0-23.67,10.6-23.67,23.67v5.72L-298.88,77.83z"/>
	</g>
	<path d="M-222.38,101.31c-1.42-2.78-3.33-5.13-5.73-7.03c-2.45-1.79-5.24-3.14-8.28-4.01c-3.02-0.86-6.16-1.29-9.35-1.29h-17.53
		c-3.44,0-5.88,0.73-7.44,2.22c-1.56,1.49-2.34,3.94-2.34,7.31v58.15h14.24v-24.39c0.38,0.18,0.79,0.35,1.23,0.52
		c1.42,0.52,2.42,0.76,3.16,0.76h8.16c3.6,0,6.99-0.46,10.09-1.38c3.13-0.92,5.94-2.34,8.35-4.2c2.37-1.88,4.24-4.25,5.57-7.03
		c1.33-2.79,2.01-6.05,2.01-9.71C-220.23,107.44-220.95,104.11-222.38,101.31z M-234.04,111.22c0,3.62-1.05,6.29-3.2,8.16
		c-2.17,1.89-5.23,2.84-9.1,2.84h-12.47v-21.84h12.47c4.02,0,7.12,0.98,9.2,2.9C-235.06,105.22-234.04,107.81-234.04,111.22z"/>
	<path d="M-154.16,109.99c-1.36-4.19-3.39-7.98-6.05-11.3c-2.73-3.32-6.1-6.03-10.04-8.08c-3.96-2.06-8.61-3.1-13.82-3.1
		c-4.79,0-9.21,0.92-13.13,2.73c-3.91,1.81-7.34,4.35-10.19,7.56c-2.78,3.19-4.95,6.98-6.45,11.26c-1.5,4.26-2.26,8.89-2.26,13.75
		c0,4.35,0.71,8.67,2.12,12.84c1.41,4.19,3.51,7.98,6.22,11.29c2.72,3.32,6.12,6.04,10.08,8.08c3.99,2.05,8.57,3.1,13.6,3.1
		c4.74,0,9.13-0.92,13.04-2.73c3.91-1.81,7.3-4.29,10.1-7.38c2.78-3.14,4.97-6.91,6.5-11.22c1.53-4.29,2.3-8.99,2.3-13.97
		C-152.13,118.47-152.81,114.16-154.16,109.99z M-166.46,122.81c0,2.7-0.35,5.49-1.04,8.31c-0.69,2.79-1.72,5.37-3.07,7.64
		c-1.45,2.3-3.32,4.2-5.56,5.64c-2.2,1.41-4.87,2.13-7.95,2.13c-3.03,0-5.68-0.68-7.89-2.02c-2.24-1.36-4.1-3.18-5.54-5.42
		c-1.47-2.29-2.59-4.88-3.33-7.69c-0.74-2.84-1.12-5.73-1.12-8.59c0-2.58,0.36-5.35,1.08-8.22c0.71-2.84,1.82-5.47,3.29-7.82
		c1.39-2.25,3.22-4.13,5.44-5.6c2.17-1.44,4.88-2.16,8.06-2.16c3.02,0,5.64,0.69,7.78,2.05c2.19,1.39,4.03,3.23,5.48,5.48
		c1.47,2.28,2.57,4.88,3.28,7.72C-166.82,117.13-166.46,120.01-166.46,122.81z"/>
	<path d="M-96.01,128.07c-1.59-2.32-3.68-4.23-6.24-5.69c-2.53-1.41-5.42-2.59-8.59-3.5c-3.11-0.89-6.26-1.66-9.4-2.3
		c-1.23-0.21-2.62-0.64-4.13-1.26c-1.49-0.61-2.87-1.41-4.1-2.37l-0.06-0.04c-1.2-0.83-2.21-1.82-3.02-2.94
		c-0.74-1.03-1.11-2.14-1.11-3.38c0-1.33,0.29-2.42,0.89-3.35c0.62-0.97,1.44-1.79,2.44-2.44c1.02-0.66,2.24-1.16,3.61-1.47
		c1.42-0.32,2.88-0.49,4.33-0.49c1.27,0,2.56,0.25,3.82,0.74c1.27,0.49,2.44,1.16,3.48,1.99c0.99,0.89,1.84,1.92,2.55,3.06
		c0.68,1.12,1.14,2.38,1.34,3.76l0.15,1.01l15.03,0.1l-0.28-1.43c-0.66-3.33-1.78-6.31-3.33-8.85c-1.56-2.55-3.57-4.76-5.99-6.58
		c-2.33-1.67-4.96-2.96-7.83-3.82c-5.52-1.67-11.59-1.68-17.79-0.28c-3.04,0.69-5.83,1.82-8.27,3.37c-2.54,1.58-4.66,3.65-6.3,6.16
		c-1.67,2.56-2.51,5.74-2.51,9.46c0,3.08,0.73,5.81,2.16,8.1c1.4,2.25,3.28,4.19,5.56,5.75c2.26,1.61,4.82,2.9,7.61,3.85
		c2.74,0.93,5.52,1.64,8.25,2.11c5.55,1,9.63,2.29,12.13,3.83c2.28,1.41,3.39,3.2,3.39,5.47c0,3.24-1.1,5.62-3.38,7.29
		c-2.37,1.73-5.23,2.7-8.52,2.86c-3.86-0.01-6.74-1.09-8.81-3.31c-2.14-2.3-3.63-5.21-4.44-8.65l-0.21-0.91l-15.04-0.1l0.29,1.44
		c0.71,3.5,1.91,6.7,3.58,9.52c1.67,2.83,3.73,5.24,6.11,7.14c2.45,2.03,5.22,3.59,8.23,4.63c3,1.04,6.27,1.57,9.71,1.57
		c2.83,0,5.86-0.39,9-1.15c3.17-0.77,6.14-2,8.82-3.67c2.65-1.69,4.88-3.9,6.63-6.58c1.78-2.73,2.68-6.09,2.68-9.97
		C-93.56,133.35-94.38,130.44-96.01,128.07z"/>
	<g>
		<path d="M-262.77,168.89c0.63,0,1.23,0.08,1.82,0.25c0.59,0.17,1.12,0.43,1.6,0.77c0.45,0.36,0.81,0.8,1.09,1.34
			c0.27,0.53,0.41,1.16,0.41,1.89c0,0.71-0.13,1.33-0.38,1.86s-0.61,0.98-1.06,1.34c-0.46,0.36-1,0.63-1.61,0.81
			c-0.61,0.18-1.26,0.27-1.97,0.27h-1.65c-0.12,0-0.3-0.05-0.56-0.14c-0.25-0.09-0.45-0.2-0.57-0.33v5.14h-2.4v-11.51
			c0-0.61,0.13-1.05,0.4-1.3c0.27-0.25,0.71-0.38,1.34-0.38H-262.77z M-262.89,175.61c0.84,0,1.51-0.21,2-0.63
			c0.49-0.42,0.73-1.03,0.73-1.83c0-0.75-0.23-1.35-0.7-1.78c-0.47-0.43-1.14-0.65-2.02-0.65h-2.76v4.9H-262.89z"/>
		<path d="M-251.05,168.89c0.64,0,1.25,0.08,1.85,0.23c0.6,0.16,1.13,0.4,1.59,0.72c0.45,0.32,0.82,0.74,1.09,1.25
			c0.28,0.51,0.42,1.12,0.42,1.82c0,0.73-0.16,1.36-0.47,1.89c-0.31,0.53-0.74,0.96-1.27,1.29l2.36,5.99h-2.26l-2.08-5.26
			c-0.22,0.03-0.44,0.06-0.65,0.09c-0.21,0.02-0.44,0.03-0.69,0.03h-1.65c-0.13,0-0.32-0.04-0.56-0.12
			c-0.25-0.08-0.44-0.19-0.56-0.33v5.59h-2.4v-11.51c0-0.61,0.13-1.05,0.4-1.3c0.27-0.25,0.72-0.38,1.35-0.38H-251.05z
			 M-251.17,175.14c0.84,0,1.51-0.19,2.01-0.57c0.49-0.38,0.74-0.93,0.74-1.65c0-0.69-0.24-1.24-0.71-1.62s-1.15-0.58-2.03-0.58
			h-2.76v4.43H-251.17z"/>
		<path d="M-240.49,176.2c-0.14,0-0.34-0.02-0.59-0.07c-0.25-0.05-0.46-0.16-0.63-0.33v4.45h7.52v1.84h-8.13
			c-0.61,0-1.06-0.13-1.33-0.39c-0.27-0.26-0.41-0.7-0.41-1.31v-9.81c0-0.61,0.14-1.05,0.41-1.3c0.27-0.25,0.71-0.38,1.33-0.38h7.9
			v1.82h-7.29v3.68h7.03v1.81H-240.49z"/>
		<path d="M-229.12,182.09v-11.41h-4.25v-1.79h10.89v1.79h-4.25v11.41H-229.12z"/>
		<path d="M-217.67,182.09v-11.41h-4.25v-1.79h10.89v1.79h-4.25v11.41H-217.67z"/>
		<path d="M-208.21,168.89l3.58,5.4l3.59-5.4h2.61l-5.02,7.33v5.87h-2.34v-5.87l-5.04-7.33H-208.21z"/>
		<path d="M-268.87,192.47c0-0.96,0.15-1.86,0.44-2.7c0.3-0.84,0.71-1.57,1.26-2.2c0.56-0.63,1.22-1.11,1.98-1.47
			c0.76-0.35,1.62-0.53,2.55-0.53c1.02,0,1.91,0.2,2.68,0.6c0.77,0.4,1.42,0.92,1.95,1.57c0.52,0.65,0.91,1.38,1.18,2.21
			c0.27,0.82,0.4,1.66,0.4,2.52c0,0.98-0.15,1.9-0.45,2.74c-0.3,0.85-0.72,1.57-1.27,2.19c-0.54,0.6-1.2,1.08-1.96,1.43
			c-0.76,0.35-1.61,0.53-2.54,0.53c-0.98,0-1.86-0.2-2.64-0.6c-0.78-0.4-1.43-0.92-1.96-1.57c-0.53-0.65-0.94-1.38-1.22-2.21
			C-268.73,194.16-268.87,193.32-268.87,192.47z M-266.49,192.47c0,0.6,0.08,1.2,0.23,1.8c0.16,0.6,0.39,1.14,0.7,1.62
			c0.31,0.49,0.71,0.88,1.2,1.17c0.49,0.3,1.06,0.44,1.72,0.44c0.67,0,1.25-0.16,1.74-0.47c0.49-0.31,0.89-0.72,1.2-1.22
			c0.29-0.49,0.51-1.02,0.65-1.61c0.14-0.59,0.22-1.17,0.22-1.74c0-0.59-0.08-1.19-0.23-1.79c-0.15-0.6-0.38-1.15-0.69-1.63
			c-0.31-0.49-0.71-0.88-1.18-1.18c-0.47-0.3-1.04-0.45-1.7-0.45c-0.69,0-1.28,0.16-1.76,0.48c-0.48,0.32-0.87,0.72-1.17,1.21
			c-0.31,0.5-0.54,1.05-0.69,1.65C-266.41,191.35-266.49,191.92-266.49,192.47z"/>
		<path d="M-251.28,193.18c-0.14,0-0.34-0.02-0.59-0.07c-0.25-0.05-0.47-0.16-0.64-0.33v6.29h-2.4v-11.51c0-0.61,0.14-1.05,0.41-1.3
			c0.27-0.25,0.72-0.38,1.35-0.38h7.88v1.82h-7.24v3.68h6.98v1.81H-251.28z"/>
		<path d="M-232.35,197.55c0.72-0.03,1.34-0.24,1.86-0.63c0.52-0.38,0.78-0.94,0.78-1.67c0-0.54-0.27-0.98-0.8-1.31
			c-0.53-0.33-1.38-0.6-2.54-0.81c-0.54-0.09-1.09-0.23-1.63-0.42c-0.54-0.19-1.04-0.43-1.48-0.75c-0.44-0.3-0.79-0.67-1.06-1.09
			c-0.27-0.43-0.4-0.93-0.4-1.51c0-0.71,0.16-1.3,0.47-1.78c0.31-0.48,0.71-0.87,1.2-1.17c0.47-0.3,1.01-0.52,1.6-0.65
			c0.59-0.13,1.17-0.2,1.74-0.2c0.6,0,1.18,0.08,1.74,0.25c0.56,0.17,1.06,0.41,1.51,0.74c0.46,0.35,0.85,0.77,1.15,1.26
			c0.3,0.49,0.52,1.06,0.64,1.71l-2.54-0.02c-0.05-0.31-0.15-0.6-0.3-0.85c-0.16-0.25-0.34-0.48-0.56-0.68
			c-0.23-0.18-0.49-0.33-0.77-0.44c-0.28-0.11-0.57-0.16-0.86-0.16c-0.31,0-0.62,0.03-0.93,0.1s-0.58,0.18-0.81,0.33
			c-0.23,0.15-0.42,0.34-0.56,0.56c-0.14,0.23-0.22,0.49-0.22,0.81c0,0.3,0.09,0.58,0.27,0.83s0.4,0.47,0.67,0.65
			c0.27,0.21,0.56,0.38,0.89,0.51c0.32,0.13,0.62,0.22,0.89,0.27c0.63,0.13,1.25,0.28,1.88,0.46c0.63,0.18,1.19,0.41,1.68,0.69
			c0.49,0.28,0.88,0.64,1.18,1.08c0.3,0.44,0.45,0.98,0.45,1.61c0,0.74-0.17,1.37-0.5,1.88c-0.34,0.52-0.76,0.94-1.27,1.26
			c-0.52,0.32-1.09,0.56-1.71,0.71c-0.62,0.15-1.21,0.23-1.76,0.23c-0.67,0-1.3-0.1-1.88-0.3c-0.58-0.2-1.11-0.5-1.59-0.89
			c-0.46-0.37-0.86-0.83-1.18-1.38c-0.32-0.55-0.56-1.17-0.69-1.85l2.55,0.02c0.17,0.74,0.49,1.36,0.95,1.86
			C-233.85,197.31-233.19,197.55-232.35,197.55z"/>
		<path d="M-224.65,185.87l3.58,5.4l3.59-5.4h2.61l-5.02,7.33v5.87h-2.34v-5.87l-5.04-7.33H-224.65z"/>
		<path d="M-209.53,197.55c0.72-0.03,1.34-0.24,1.86-0.63c0.52-0.38,0.78-0.94,0.78-1.67c0-0.54-0.27-0.98-0.8-1.31
			c-0.53-0.33-1.38-0.6-2.54-0.81c-0.54-0.09-1.09-0.23-1.63-0.42c-0.54-0.19-1.04-0.43-1.48-0.75c-0.44-0.3-0.79-0.67-1.06-1.09
			c-0.27-0.43-0.4-0.93-0.4-1.51c0-0.71,0.16-1.3,0.47-1.78c0.31-0.48,0.71-0.87,1.2-1.17c0.47-0.3,1.01-0.52,1.6-0.65
			c0.59-0.13,1.17-0.2,1.74-0.2c0.6,0,1.18,0.08,1.74,0.25c0.56,0.17,1.06,0.41,1.51,0.74c0.46,0.35,0.85,0.77,1.15,1.26
			c0.3,0.49,0.52,1.06,0.64,1.71l-2.54-0.02c-0.05-0.31-0.15-0.6-0.3-0.85c-0.16-0.25-0.34-0.48-0.56-0.68
			c-0.23-0.18-0.49-0.33-0.77-0.44c-0.28-0.11-0.57-0.16-0.86-0.16c-0.31,0-0.62,0.03-0.93,0.1s-0.58,0.18-0.81,0.33
			c-0.23,0.15-0.42,0.34-0.56,0.56c-0.14,0.23-0.22,0.49-0.22,0.81c0,0.3,0.09,0.58,0.27,0.83s0.4,0.47,0.67,0.65
			c0.27,0.21,0.56,0.38,0.89,0.51c0.32,0.13,0.62,0.22,0.89,0.27c0.63,0.13,1.25,0.28,1.88,0.46c0.63,0.18,1.19,0.41,1.68,0.69
			c0.49,0.28,0.88,0.64,1.18,1.08c0.3,0.44,0.45,0.98,0.45,1.61c0,0.74-0.17,1.37-0.5,1.88c-0.34,0.52-0.76,0.94-1.27,1.26
			c-0.52,0.32-1.09,0.56-1.71,0.71c-0.62,0.15-1.21,0.23-1.76,0.23c-0.67,0-1.3-0.1-1.88-0.3c-0.58-0.2-1.11-0.5-1.59-0.89
			c-0.46-0.37-0.86-0.83-1.18-1.38c-0.32-0.55-0.56-1.17-0.69-1.85l2.55,0.02c0.17,0.74,0.49,1.36,0.95,1.86
			C-211.03,197.31-210.37,197.55-209.53,197.55z"/>
		<path d="M-200.03,199.07v-11.41h-4.25v-1.79h10.89v1.79h-4.25v11.41H-200.03z"/>
		<path d="M-188.57,193.18c-0.14,0-0.34-0.02-0.59-0.07c-0.25-0.05-0.46-0.16-0.63-0.33v4.45h7.52v1.84h-8.13
			c-0.61,0-1.06-0.13-1.33-0.39c-0.27-0.26-0.41-0.7-0.41-1.31v-9.81c0-0.61,0.14-1.05,0.41-1.3c0.27-0.25,0.71-0.38,1.33-0.38h7.9
			v1.82h-7.29v3.68h7.03v1.81H-188.57z"/>
		<path d="M-170.2,199.07v-9.03l-3.23,6.32h-1.56l-3.25-6.32v9.03h-2.15v-13.2h2.07l4.1,8.06l4.13-8.06h2.05v13.2H-170.2z"/>
	</g>
</g>
<g>
	<g>
		
			<linearGradient id="SVGID_00000128460868658049200830000018203913381041058183_" gradientUnits="userSpaceOnUse" x1="277.9799" y1="169.3635" x2="204.793" y2="169.3635">
			<stop  offset="0" style="stop-color:#009FE3"/>
			<stop  offset="1" style="stop-color:#009FE3;stop-opacity:0"/>
		</linearGradient>
		<path style="fill:url(#SVGID_00000128460868658049200830000018203913381041058183_);" d="M300.09,167.8v5.72
			c0,13.07-10.6,23.67-23.67,23.67h-56.44l-14.04-26.27h56.44c13.07,0,23.67-10.6,23.67-23.67v-5.72L300.09,167.8z"/>
		
			<linearGradient id="SVGID_00000089535743419063248050000005796695557594051754_" gradientUnits="userSpaceOnUse" x1="-668.8788" y1="-51.0246" x2="-742.0656" y2="-51.0246" gradientTransform="matrix(-1 0 0 -1 -577.8207 25.2414)">
			<stop  offset="0" style="stop-color:#009FE3"/>
			<stop  offset="1" style="stop-color:#009FE3;stop-opacity:0"/>
		</linearGradient>
		<path style="fill:url(#SVGID_00000089535743419063248050000005796695557594051754_);" d="M68.95,77.83V72.1
			c0-13.07,10.6-23.67,23.67-23.67h56.44l14.04,26.27h-56.44c-13.07,0-23.67,10.6-23.67,23.67v5.72L68.95,77.83z"/>
	</g>
	<path class="st4" d="M145.44,101.31c-1.42-2.78-3.33-5.13-5.73-7.03c-2.45-1.79-5.24-3.14-8.28-4.01
		c-3.02-0.86-6.16-1.29-9.35-1.29h-17.53c-3.44,0-5.88,0.73-7.44,2.22c-1.56,1.49-2.34,3.94-2.34,7.31v58.15h14.24v-24.39
		c0.38,0.18,0.79,0.35,1.23,0.52c1.42,0.52,2.42,0.76,3.16,0.76h8.16c3.6,0,6.99-0.46,10.09-1.38c3.13-0.92,5.94-2.34,8.35-4.2
		c2.37-1.88,4.24-4.25,5.57-7.03c1.33-2.79,2.01-6.05,2.01-9.71C147.59,107.44,146.87,104.11,145.44,101.31z M133.78,111.22
		c0,3.62-1.05,6.29-3.2,8.16c-2.17,1.89-5.23,2.84-9.1,2.84h-12.47v-21.84h12.47c4.02,0,7.12,0.98,9.2,2.9
		C132.77,105.22,133.78,107.81,133.78,111.22z"/>
	<path class="st4" d="M213.66,109.99c-1.36-4.19-3.39-7.98-6.05-11.3c-2.73-3.32-6.1-6.03-10.04-8.08c-3.96-2.06-8.61-3.1-13.82-3.1
		c-4.79,0-9.21,0.92-13.13,2.73c-3.91,1.81-7.34,4.35-10.19,7.56c-2.78,3.19-4.95,6.98-6.45,11.26c-1.5,4.26-2.26,8.89-2.26,13.75
		c0,4.35,0.71,8.67,2.12,12.84c1.41,4.19,3.51,7.98,6.22,11.29c2.72,3.32,6.12,6.04,10.08,8.08c3.99,2.05,8.57,3.1,13.6,3.1
		c4.74,0,9.13-0.92,13.04-2.73c3.91-1.81,7.3-4.29,10.1-7.38c2.78-3.14,4.97-6.91,6.5-11.22c1.53-4.29,2.3-8.99,2.3-13.97
		C215.69,118.47,215.01,114.16,213.66,109.99z M201.37,122.81c0,2.7-0.35,5.49-1.04,8.31c-0.69,2.79-1.72,5.37-3.07,7.64
		c-1.45,2.3-3.32,4.2-5.56,5.64c-2.2,1.41-4.87,2.13-7.95,2.13c-3.03,0-5.68-0.68-7.89-2.02c-2.24-1.36-4.1-3.18-5.54-5.42
		c-1.47-2.29-2.59-4.88-3.33-7.69c-0.74-2.84-1.12-5.73-1.12-8.59c0-2.58,0.36-5.35,1.08-8.22c0.71-2.84,1.82-5.47,3.29-7.82
		c1.39-2.25,3.22-4.13,5.44-5.6c2.17-1.44,4.88-2.16,8.06-2.16c3.02,0,5.64,0.69,7.78,2.05c2.19,1.39,4.03,3.23,5.48,5.48
		c1.47,2.28,2.57,4.88,3.28,7.72C201,117.13,201.37,120.01,201.37,122.81z"/>
	<path class="st4" d="M271.82,128.07c-1.59-2.32-3.68-4.23-6.24-5.69c-2.53-1.41-5.42-2.59-8.59-3.5c-3.11-0.89-6.26-1.66-9.4-2.3
		c-1.23-0.21-2.62-0.64-4.13-1.26c-1.49-0.61-2.87-1.41-4.1-2.37l-0.06-0.04c-1.2-0.83-2.21-1.82-3.02-2.94
		c-0.74-1.03-1.11-2.14-1.11-3.38c0-1.33,0.29-2.42,0.89-3.35c0.62-0.97,1.44-1.79,2.44-2.44c1.02-0.66,2.24-1.16,3.61-1.47
		c1.42-0.32,2.88-0.49,4.33-0.49c1.27,0,2.56,0.25,3.82,0.74c1.27,0.49,2.44,1.16,3.48,1.99c0.99,0.89,1.84,1.92,2.55,3.06
		c0.68,1.12,1.14,2.38,1.34,3.76l0.15,1.01l15.03,0.1l-0.28-1.43c-0.66-3.33-1.78-6.31-3.33-8.85c-1.56-2.55-3.57-4.76-5.99-6.58
		c-2.33-1.67-4.96-2.96-7.83-3.82c-5.52-1.67-11.59-1.68-17.79-0.28c-3.04,0.69-5.83,1.82-8.27,3.37c-2.54,1.58-4.66,3.65-6.3,6.16
		c-1.67,2.56-2.51,5.74-2.51,9.46c0,3.08,0.73,5.81,2.16,8.1c1.4,2.25,3.28,4.19,5.56,5.75c2.26,1.61,4.82,2.9,7.61,3.85
		c2.74,0.93,5.52,1.64,8.25,2.11c5.55,1,9.63,2.29,12.13,3.83c2.28,1.41,3.39,3.2,3.39,5.47c0,3.24-1.1,5.62-3.38,7.29
		c-2.37,1.73-5.23,2.7-8.52,2.86c-3.86-0.01-6.74-1.09-8.81-3.31c-2.14-2.3-3.63-5.21-4.44-8.65l-0.21-0.91l-15.04-0.1l0.29,1.44
		c0.71,3.5,1.91,6.7,3.58,9.52c1.67,2.83,3.73,5.24,6.11,7.14c2.45,2.03,5.22,3.59,8.23,4.63c3,1.04,6.27,1.57,9.71,1.57
		c2.83,0,5.86-0.39,9-1.15c3.17-0.77,6.14-2,8.82-3.67c2.65-1.69,4.88-3.9,6.63-6.58c1.78-2.73,2.68-6.09,2.68-9.97
		C274.26,133.35,273.44,130.44,271.82,128.07z"/>
	<g>
		<path class="st4" d="M105.05,168.89c0.63,0,1.23,0.08,1.82,0.25c0.59,0.17,1.12,0.43,1.6,0.77c0.45,0.36,0.81,0.8,1.09,1.34
			c0.27,0.53,0.41,1.16,0.41,1.89c0,0.71-0.13,1.33-0.38,1.86c-0.25,0.53-0.61,0.98-1.06,1.34c-0.46,0.36-1,0.63-1.61,0.81
			c-0.61,0.18-1.26,0.27-1.97,0.27h-1.65c-0.12,0-0.3-0.05-0.56-0.14c-0.25-0.09-0.45-0.2-0.57-0.33v5.14h-2.4v-11.51
			c0-0.61,0.13-1.05,0.4-1.3c0.27-0.25,0.71-0.38,1.34-0.38H105.05z M104.93,175.61c0.84,0,1.51-0.21,2-0.63
			c0.49-0.42,0.73-1.03,0.73-1.83c0-0.75-0.23-1.35-0.7-1.78s-1.14-0.65-2.02-0.65h-2.76v4.9H104.93z"/>
		<path class="st4" d="M116.77,168.89c0.64,0,1.25,0.08,1.85,0.23c0.6,0.16,1.13,0.4,1.59,0.72c0.45,0.32,0.82,0.74,1.09,1.25
			c0.28,0.51,0.42,1.12,0.42,1.82c0,0.73-0.16,1.36-0.47,1.89c-0.31,0.53-0.74,0.96-1.27,1.29l2.36,5.99h-2.26l-2.08-5.26
			c-0.22,0.03-0.44,0.06-0.65,0.09c-0.21,0.02-0.44,0.03-0.69,0.03h-1.65c-0.13,0-0.32-0.04-0.56-0.12
			c-0.25-0.08-0.44-0.19-0.56-0.33v5.59h-2.4v-11.51c0-0.61,0.13-1.05,0.4-1.3c0.27-0.25,0.72-0.38,1.35-0.38H116.77z
			 M116.65,175.14c0.84,0,1.51-0.19,2.01-0.57c0.49-0.38,0.74-0.93,0.74-1.65c0-0.69-0.24-1.24-0.71-1.62s-1.15-0.58-2.03-0.58
			h-2.76v4.43H116.65z"/>
		<path class="st4" d="M127.33,176.2c-0.14,0-0.34-0.02-0.59-0.07c-0.25-0.05-0.46-0.16-0.63-0.33v4.45h7.52v1.84h-8.13
			c-0.61,0-1.06-0.13-1.33-0.39c-0.27-0.26-0.41-0.7-0.41-1.31v-9.81c0-0.61,0.14-1.05,0.41-1.3c0.27-0.25,0.71-0.38,1.33-0.38h7.9
			v1.82h-7.29v3.68h7.03v1.81H127.33z"/>
		<path class="st4" d="M138.71,182.09v-11.41h-4.25v-1.79h10.89v1.79h-4.25v11.41H138.71z"/>
		<path class="st4" d="M150.15,182.09v-11.41h-4.25v-1.79h10.89v1.79h-4.25v11.41H150.15z"/>
		<path class="st4" d="M159.61,168.89l3.58,5.4l3.59-5.4h2.61l-5.02,7.33v5.87h-2.34v-5.87l-5.04-7.33H159.61z"/>
		<path class="st4" d="M98.96,192.47c0-0.96,0.15-1.86,0.44-2.7c0.3-0.84,0.71-1.57,1.26-2.2c0.56-0.63,1.22-1.11,1.98-1.47
			c0.76-0.35,1.62-0.53,2.55-0.53c1.02,0,1.91,0.2,2.68,0.6c0.77,0.4,1.42,0.92,1.95,1.57c0.52,0.65,0.91,1.38,1.18,2.21
			c0.27,0.82,0.4,1.66,0.4,2.52c0,0.98-0.15,1.9-0.45,2.74s-0.72,1.57-1.27,2.19c-0.54,0.6-1.2,1.08-1.96,1.43
			c-0.76,0.35-1.61,0.53-2.54,0.53c-0.98,0-1.86-0.2-2.64-0.6c-0.78-0.4-1.43-0.92-1.96-1.57c-0.53-0.65-0.94-1.38-1.22-2.21
			C99.09,194.16,98.96,193.32,98.96,192.47z M101.33,192.47c0,0.6,0.08,1.2,0.23,1.8c0.16,0.6,0.39,1.14,0.7,1.62
			c0.31,0.49,0.71,0.88,1.2,1.17c0.49,0.3,1.06,0.44,1.72,0.44c0.67,0,1.25-0.16,1.74-0.47c0.49-0.31,0.89-0.72,1.2-1.22
			c0.29-0.49,0.51-1.02,0.65-1.61c0.14-0.59,0.22-1.17,0.22-1.74c0-0.59-0.08-1.19-0.23-1.79c-0.15-0.6-0.38-1.15-0.69-1.63
			c-0.31-0.49-0.71-0.88-1.18-1.18c-0.47-0.3-1.04-0.45-1.7-0.45c-0.69,0-1.28,0.16-1.76,0.48c-0.48,0.32-0.87,0.72-1.17,1.21
			c-0.31,0.5-0.54,1.05-0.69,1.65C101.41,191.35,101.33,191.92,101.33,192.47z"/>
		<path class="st4" d="M116.55,193.18c-0.14,0-0.34-0.02-0.59-0.07c-0.25-0.05-0.47-0.16-0.64-0.33v6.29h-2.4v-11.51
			c0-0.61,0.14-1.05,0.41-1.3c0.27-0.25,0.72-0.38,1.35-0.38h7.88v1.82h-7.24v3.68h6.98v1.81H116.55z"/>
		<path class="st4" d="M135.48,197.55c0.72-0.03,1.34-0.24,1.86-0.63c0.52-0.38,0.78-0.94,0.78-1.67c0-0.54-0.27-0.98-0.8-1.31
			c-0.53-0.33-1.38-0.6-2.54-0.81c-0.54-0.09-1.09-0.23-1.63-0.42c-0.54-0.19-1.04-0.43-1.48-0.75c-0.44-0.3-0.79-0.67-1.06-1.09
			c-0.27-0.43-0.4-0.93-0.4-1.51c0-0.71,0.16-1.3,0.47-1.78c0.31-0.48,0.71-0.87,1.2-1.17c0.47-0.3,1.01-0.52,1.6-0.65
			c0.59-0.13,1.17-0.2,1.74-0.2c0.6,0,1.18,0.08,1.74,0.25c0.56,0.17,1.06,0.41,1.51,0.74c0.46,0.35,0.85,0.77,1.15,1.26
			c0.3,0.49,0.52,1.06,0.64,1.71l-2.54-0.02c-0.05-0.31-0.15-0.6-0.3-0.85c-0.16-0.25-0.34-0.48-0.56-0.68
			c-0.23-0.18-0.49-0.33-0.77-0.44c-0.28-0.11-0.57-0.16-0.86-0.16c-0.31,0-0.62,0.03-0.93,0.1s-0.58,0.18-0.81,0.33
			c-0.23,0.15-0.42,0.34-0.56,0.56c-0.14,0.23-0.22,0.49-0.22,0.81c0,0.3,0.09,0.58,0.27,0.83s0.4,0.47,0.67,0.65
			c0.27,0.21,0.56,0.38,0.89,0.51c0.32,0.13,0.62,0.22,0.89,0.27c0.63,0.13,1.25,0.28,1.88,0.46c0.63,0.18,1.19,0.41,1.68,0.69
			c0.49,0.28,0.88,0.64,1.18,1.08c0.3,0.44,0.45,0.98,0.45,1.61c0,0.74-0.17,1.37-0.5,1.88c-0.34,0.52-0.76,0.94-1.27,1.26
			c-0.52,0.32-1.09,0.56-1.71,0.71c-0.62,0.15-1.21,0.23-1.76,0.23c-0.67,0-1.3-0.1-1.88-0.3c-0.58-0.2-1.11-0.5-1.59-0.89
			c-0.46-0.37-0.86-0.83-1.18-1.38c-0.32-0.55-0.56-1.17-0.69-1.85l2.55,0.02c0.17,0.74,0.49,1.36,0.95,1.86
			C133.98,197.31,134.63,197.55,135.48,197.55z"/>
		<path class="st4" d="M143.17,185.87l3.58,5.4l3.59-5.4h2.61l-5.02,7.33v5.87h-2.34v-5.87l-5.04-7.33H143.17z"/>
		<path class="st4" d="M158.29,197.55c0.72-0.03,1.34-0.24,1.86-0.63c0.52-0.38,0.78-0.94,0.78-1.67c0-0.54-0.27-0.98-0.8-1.31
			c-0.53-0.33-1.38-0.6-2.54-0.81c-0.54-0.09-1.09-0.23-1.63-0.42c-0.54-0.19-1.04-0.43-1.48-0.75c-0.44-0.3-0.79-0.67-1.06-1.09
			c-0.27-0.43-0.4-0.93-0.4-1.51c0-0.71,0.16-1.3,0.47-1.78c0.31-0.48,0.71-0.87,1.2-1.17c0.47-0.3,1.01-0.52,1.6-0.65
			c0.59-0.13,1.17-0.2,1.74-0.2c0.6,0,1.18,0.08,1.74,0.25c0.56,0.17,1.06,0.41,1.51,0.74c0.46,0.35,0.85,0.77,1.15,1.26
			c0.3,0.49,0.52,1.06,0.64,1.71l-2.54-0.02c-0.05-0.31-0.15-0.6-0.3-0.85c-0.16-0.25-0.34-0.48-0.56-0.68
			c-0.23-0.18-0.49-0.33-0.77-0.44c-0.28-0.11-0.57-0.16-0.86-0.16c-0.31,0-0.62,0.03-0.93,0.1s-0.58,0.18-0.81,0.33
			c-0.23,0.15-0.42,0.34-0.56,0.56c-0.14,0.23-0.22,0.49-0.22,0.81c0,0.3,0.09,0.58,0.27,0.83c0.18,0.25,0.4,0.47,0.67,0.65
			c0.27,0.21,0.56,0.38,0.89,0.51c0.32,0.13,0.62,0.22,0.89,0.27c0.63,0.13,1.25,0.28,1.88,0.46c0.63,0.18,1.19,0.41,1.68,0.69
			c0.49,0.28,0.88,0.64,1.18,1.08c0.3,0.44,0.45,0.98,0.45,1.61c0,0.74-0.17,1.37-0.5,1.88c-0.34,0.52-0.76,0.94-1.27,1.26
			c-0.52,0.32-1.09,0.56-1.71,0.71c-0.62,0.15-1.21,0.23-1.76,0.23c-0.67,0-1.3-0.1-1.88-0.3c-0.58-0.2-1.11-0.5-1.59-0.89
			c-0.46-0.37-0.86-0.83-1.18-1.38c-0.32-0.55-0.56-1.17-0.69-1.85l2.55,0.02c0.17,0.74,0.49,1.36,0.95,1.86
			C156.8,197.31,157.45,197.55,158.29,197.55z"/>
		<path class="st4" d="M167.79,199.07v-11.41h-4.25v-1.79h10.89v1.79h-4.25v11.41H167.79z"/>
		<path class="st4" d="M179.26,193.18c-0.14,0-0.34-0.02-0.59-0.07c-0.25-0.05-0.46-0.16-0.63-0.33v4.45h7.52v1.84h-8.13
			c-0.61,0-1.06-0.13-1.33-0.39c-0.27-0.26-0.41-0.7-0.41-1.31v-9.81c0-0.61,0.14-1.05,0.41-1.3c0.27-0.25,0.71-0.38,1.33-0.38h7.9
			v1.82h-7.29v3.68h7.03v1.81H179.26z"/>
		<path class="st4" d="M197.63,199.07v-9.03l-3.23,6.32h-1.56l-3.25-6.32v9.03h-2.15v-13.2h2.07l4.1,8.06l4.13-8.06h2.05v13.2
			H197.63z"/>
	</g>
</g>
<g>
	<g>
		
			<linearGradient id="SVGID_00000168100615724857960390000008856010475336274068_" gradientUnits="userSpaceOnUse" x1="270.4605" y1="416.7136" x2="197.2737" y2="416.7136">
			<stop  offset="0" style="stop-color:#B2B2B2"/>
			<stop  offset="1" style="stop-color:#B2B2B2;stop-opacity:0"/>
		</linearGradient>
		<path style="fill:url(#SVGID_00000168100615724857960390000008856010475336274068_);" d="M292.57,415.15v5.72
			c0,13.07-10.6,23.67-23.67,23.67h-56.44l-14.04-26.27h56.44c13.07,0,23.67-10.6,23.67-23.67v-5.72L292.57,415.15z"/>
		
			<linearGradient id="SVGID_00000131348957002471023030000015477084179301834149_" gradientUnits="userSpaceOnUse" x1="-661.3594" y1="-298.3747" x2="-734.5463" y2="-298.3747" gradientTransform="matrix(-1 0 0 -1 -577.8207 25.2414)">
			<stop  offset="0" style="stop-color:#B2B2B2"/>
			<stop  offset="1" style="stop-color:#B2B2B2;stop-opacity:0"/>
		</linearGradient>
		<path style="fill:url(#SVGID_00000131348957002471023030000015477084179301834149_);" d="M61.43,325.18v-5.72
			c0-13.07,10.6-23.67,23.67-23.67h56.44l14.04,26.27H99.14c-13.07,0-23.67,10.6-23.67,23.67v5.72L61.43,325.18z"/>
	</g>
	<path class="st4" d="M137.92,348.66c-1.42-2.78-3.33-5.13-5.73-7.03c-2.45-1.79-5.24-3.14-8.28-4.01
		c-3.02-0.86-6.16-1.29-9.35-1.29H97.04c-3.44,0-5.88,0.73-7.44,2.22c-1.56,1.49-2.34,3.94-2.34,7.31V404h14.24v-24.39
		c0.38,0.18,0.79,0.35,1.23,0.52c1.42,0.52,2.42,0.76,3.16,0.76h8.16c3.6,0,6.99-0.46,10.09-1.38c3.13-0.92,5.94-2.34,8.35-4.2
		c2.37-1.88,4.24-4.25,5.57-7.03c1.33-2.79,2.01-6.05,2.01-9.71C140.07,354.79,139.35,351.46,137.92,348.66z M126.26,358.57
		c0,3.62-1.05,6.29-3.2,8.16c-2.17,1.89-5.23,2.84-9.1,2.84H101.5v-21.84h12.47c4.02,0,7.12,0.98,9.2,2.9
		C125.25,352.57,126.26,355.16,126.26,358.57z"/>
	<path class="st4" d="M206.14,357.34c-1.36-4.19-3.39-7.98-6.05-11.3c-2.73-3.32-6.1-6.03-10.04-8.08c-3.96-2.06-8.61-3.1-13.82-3.1
		c-4.79,0-9.21,0.92-13.13,2.73c-3.91,1.81-7.34,4.35-10.19,7.56c-2.78,3.19-4.95,6.98-6.45,11.26c-1.5,4.26-2.26,8.89-2.26,13.75
		c0,4.35,0.71,8.67,2.12,12.84c1.41,4.19,3.51,7.98,6.22,11.29c2.72,3.32,6.12,6.04,10.08,8.08c3.99,2.05,8.57,3.1,13.6,3.1
		c4.74,0,9.13-0.92,13.04-2.73c3.91-1.81,7.3-4.29,10.1-7.38c2.78-3.14,4.97-6.91,6.5-11.22c1.53-4.29,2.3-8.99,2.3-13.97
		C208.17,365.82,207.49,361.51,206.14,357.34z M193.85,370.16c0,2.7-0.35,5.49-1.04,8.31c-0.69,2.79-1.72,5.37-3.07,7.64
		c-1.45,2.3-3.32,4.2-5.56,5.64c-2.2,1.41-4.87,2.13-7.95,2.13c-3.03,0-5.68-0.68-7.89-2.02c-2.24-1.36-4.1-3.18-5.54-5.42
		c-1.47-2.29-2.59-4.88-3.33-7.69c-0.74-2.84-1.12-5.73-1.12-8.59c0-2.58,0.36-5.35,1.08-8.22c0.71-2.84,1.82-5.47,3.29-7.82
		c1.39-2.25,3.22-4.13,5.44-5.6c2.17-1.44,4.88-2.16,8.06-2.16c3.02,0,5.64,0.69,7.78,2.05c2.19,1.39,4.03,3.23,5.48,5.48
		c1.47,2.28,2.57,4.88,3.28,7.72C193.48,364.48,193.85,367.36,193.85,370.16z"/>
	<path class="st4" d="M264.3,375.42c-1.59-2.32-3.68-4.23-6.24-5.69c-2.53-1.41-5.42-2.59-8.59-3.5c-3.11-0.89-6.26-1.66-9.4-2.3
		c-1.23-0.21-2.62-0.64-4.13-1.26c-1.49-0.61-2.87-1.41-4.1-2.37l-0.06-0.04c-1.2-0.83-2.21-1.82-3.02-2.94
		c-0.74-1.03-1.11-2.14-1.11-3.38c0-1.33,0.29-2.42,0.89-3.35c0.62-0.97,1.44-1.79,2.44-2.44c1.02-0.66,2.24-1.16,3.61-1.47
		c1.42-0.32,2.88-0.49,4.33-0.49c1.27,0,2.56,0.25,3.82,0.74c1.27,0.49,2.44,1.16,3.48,1.99c0.99,0.89,1.84,1.92,2.55,3.06
		c0.68,1.12,1.14,2.38,1.34,3.76l0.15,1.01l15.03,0.1l-0.28-1.43c-0.66-3.33-1.78-6.31-3.33-8.85c-1.56-2.55-3.57-4.76-5.99-6.58
		c-2.33-1.67-4.96-2.96-7.83-3.82c-5.52-1.67-11.59-1.68-17.79-0.28c-3.04,0.69-5.83,1.82-8.27,3.37c-2.54,1.58-4.66,3.65-6.3,6.16
		c-1.67,2.56-2.51,5.74-2.51,9.46c0,3.08,0.73,5.81,2.16,8.1c1.4,2.25,3.28,4.19,5.56,5.75c2.26,1.61,4.82,2.9,7.61,3.85
		c2.74,0.93,5.52,1.64,8.25,2.11c5.55,1,9.63,2.29,12.13,3.83c2.28,1.41,3.39,3.2,3.39,5.47c0,3.24-1.1,5.62-3.38,7.29
		c-2.37,1.73-5.23,2.7-8.52,2.86c-3.86-0.01-6.74-1.09-8.81-3.31c-2.14-2.3-3.63-5.21-4.44-8.65l-0.21-0.92l-15.04-0.1l0.29,1.44
		c0.71,3.49,1.91,6.7,3.58,9.52c1.67,2.83,3.73,5.24,6.11,7.14c2.45,2.03,5.22,3.59,8.23,4.63c3,1.04,6.27,1.57,9.71,1.57
		c2.83,0,5.86-0.39,9-1.15c3.17-0.77,6.14-2,8.82-3.67c2.65-1.69,4.88-3.9,6.63-6.58c1.78-2.73,2.68-6.09,2.68-9.97
		C266.74,380.7,265.92,377.79,264.3,375.42z"/>
	<g>
		<path class="st4" d="M97.53,416.24c0.63,0,1.23,0.08,1.82,0.25c0.59,0.17,1.12,0.43,1.6,0.77c0.45,0.36,0.81,0.8,1.09,1.34
			c0.27,0.53,0.41,1.16,0.41,1.89c0,0.71-0.13,1.33-0.38,1.86c-0.25,0.53-0.61,0.98-1.06,1.34c-0.46,0.36-1,0.63-1.61,0.81
			c-0.61,0.18-1.26,0.27-1.97,0.27h-1.65c-0.12,0-0.3-0.05-0.56-0.14c-0.25-0.09-0.45-0.2-0.57-0.33v5.14h-2.4v-11.51
			c0-0.61,0.13-1.05,0.4-1.3c0.27-0.25,0.71-0.38,1.34-0.38H97.53z M97.41,422.96c0.84,0,1.51-0.21,2-0.63
			c0.49-0.42,0.73-1.03,0.73-1.83c0-0.75-0.23-1.35-0.7-1.78s-1.14-0.65-2.02-0.65h-2.76v4.9H97.41z"/>
		<path class="st4" d="M109.25,416.24c0.64,0,1.25,0.08,1.85,0.23c0.6,0.16,1.13,0.4,1.59,0.72c0.45,0.32,0.82,0.74,1.09,1.25
			c0.28,0.51,0.42,1.12,0.42,1.82c0,0.73-0.16,1.36-0.47,1.89c-0.31,0.53-0.74,0.96-1.27,1.29l2.36,5.99h-2.26l-2.08-5.26
			c-0.22,0.03-0.44,0.06-0.65,0.09c-0.21,0.02-0.44,0.03-0.69,0.03h-1.65c-0.13,0-0.32-0.04-0.56-0.12
			c-0.25-0.08-0.44-0.19-0.56-0.33v5.59h-2.4v-11.51c0-0.61,0.13-1.05,0.4-1.3c0.27-0.25,0.72-0.38,1.35-0.38H109.25z
			 M109.13,422.49c0.84,0,1.51-0.19,2.01-0.57c0.49-0.38,0.74-0.93,0.74-1.65c0-0.69-0.24-1.24-0.71-1.62
			c-0.47-0.39-1.15-0.58-2.03-0.58h-2.76v4.43H109.13z"/>
		<path class="st4" d="M119.81,423.55c-0.14,0-0.34-0.02-0.59-0.07c-0.25-0.05-0.46-0.16-0.63-0.33v4.45h7.52v1.84h-8.13
			c-0.61,0-1.06-0.13-1.33-0.39c-0.27-0.26-0.41-0.7-0.41-1.31v-9.81c0-0.61,0.14-1.05,0.41-1.3c0.27-0.25,0.71-0.38,1.33-0.38h7.9
			v1.82h-7.29v3.68h7.03v1.81H119.81z"/>
		<path class="st4" d="M131.19,429.44v-11.41h-4.25v-1.79h10.89v1.79h-4.25v11.41H131.19z"/>
		<path class="st4" d="M142.63,429.44v-11.41h-4.25v-1.79h10.89v1.79h-4.25v11.41H142.63z"/>
		<path class="st4" d="M152.09,416.24l3.58,5.4l3.59-5.4h2.61l-5.02,7.33v5.87h-2.34v-5.87l-5.04-7.33H152.09z"/>
		<path class="st4" d="M91.44,439.82c0-0.96,0.15-1.86,0.44-2.7c0.3-0.84,0.71-1.57,1.26-2.2c0.56-0.63,1.22-1.11,1.98-1.47
			c0.76-0.35,1.62-0.53,2.55-0.53c1.02,0,1.91,0.2,2.68,0.6c0.77,0.4,1.42,0.92,1.95,1.57c0.52,0.65,0.91,1.38,1.18,2.21
			c0.27,0.82,0.4,1.66,0.4,2.52c0,0.98-0.15,1.9-0.45,2.74c-0.3,0.85-0.72,1.57-1.27,2.19c-0.54,0.6-1.2,1.08-1.96,1.43
			c-0.76,0.35-1.61,0.53-2.54,0.53c-0.98,0-1.86-0.2-2.64-0.6c-0.78-0.4-1.43-0.92-1.96-1.57c-0.53-0.65-0.94-1.38-1.22-2.21
			C91.58,441.51,91.44,440.67,91.44,439.82z M93.82,439.82c0,0.6,0.08,1.2,0.23,1.8c0.16,0.6,0.39,1.14,0.7,1.62
			c0.31,0.49,0.71,0.88,1.2,1.17c0.49,0.3,1.06,0.44,1.72,0.44c0.67,0,1.25-0.16,1.74-0.47c0.49-0.31,0.89-0.72,1.2-1.22
			c0.29-0.49,0.51-1.02,0.65-1.61c0.14-0.59,0.22-1.17,0.22-1.74c0-0.59-0.08-1.19-0.23-1.79c-0.15-0.6-0.38-1.15-0.69-1.63
			c-0.31-0.49-0.71-0.88-1.18-1.18c-0.47-0.3-1.04-0.45-1.7-0.45c-0.69,0-1.28,0.16-1.76,0.48c-0.48,0.32-0.87,0.72-1.17,1.21
			c-0.31,0.5-0.54,1.05-0.69,1.65C93.89,438.7,93.82,439.27,93.82,439.82z"/>
		<path class="st4" d="M109.03,440.53c-0.14,0-0.34-0.02-0.59-0.07c-0.25-0.05-0.47-0.16-0.64-0.33v6.29h-2.4V434.9
			c0-0.61,0.14-1.05,0.41-1.3c0.27-0.25,0.72-0.38,1.35-0.38h7.88v1.82h-7.24v3.68h6.98v1.81H109.03z"/>
		<path class="st4" d="M127.96,444.91c0.72-0.03,1.34-0.24,1.86-0.63c0.52-0.38,0.78-0.94,0.78-1.67c0-0.54-0.27-0.98-0.8-1.31
			c-0.53-0.33-1.38-0.6-2.54-0.81c-0.54-0.09-1.09-0.23-1.63-0.42c-0.54-0.19-1.04-0.43-1.48-0.75c-0.44-0.3-0.79-0.67-1.06-1.09
			c-0.27-0.43-0.4-0.93-0.4-1.51c0-0.71,0.16-1.3,0.47-1.78c0.31-0.48,0.71-0.87,1.2-1.17c0.47-0.3,1.01-0.52,1.6-0.65
			c0.59-0.13,1.17-0.2,1.74-0.2c0.6,0,1.18,0.08,1.74,0.25c0.56,0.17,1.06,0.41,1.51,0.74c0.46,0.35,0.85,0.77,1.15,1.26
			c0.3,0.49,0.52,1.06,0.64,1.71l-2.54-0.02c-0.05-0.31-0.15-0.6-0.3-0.85c-0.16-0.25-0.34-0.48-0.56-0.68
			c-0.23-0.18-0.49-0.33-0.77-0.44c-0.28-0.11-0.57-0.16-0.86-0.16c-0.31,0-0.62,0.03-0.93,0.1c-0.31,0.07-0.58,0.18-0.81,0.33
			c-0.23,0.15-0.42,0.34-0.56,0.56c-0.14,0.23-0.22,0.49-0.22,0.81c0,0.3,0.09,0.58,0.27,0.83c0.18,0.25,0.4,0.47,0.67,0.65
			c0.27,0.21,0.56,0.38,0.89,0.51c0.32,0.13,0.62,0.22,0.89,0.27c0.63,0.13,1.25,0.28,1.88,0.46c0.63,0.18,1.19,0.41,1.68,0.69
			c0.49,0.28,0.88,0.64,1.18,1.08c0.3,0.44,0.45,0.98,0.45,1.61c0,0.74-0.17,1.37-0.5,1.88c-0.34,0.52-0.76,0.94-1.27,1.26
			c-0.52,0.32-1.09,0.56-1.71,0.71c-0.62,0.15-1.21,0.23-1.76,0.23c-0.67,0-1.3-0.1-1.88-0.3c-0.58-0.2-1.11-0.5-1.59-0.89
			c-0.46-0.37-0.86-0.83-1.18-1.38c-0.32-0.55-0.56-1.17-0.69-1.85l2.55,0.02c0.17,0.74,0.49,1.36,0.95,1.86
			C126.46,444.66,127.11,444.91,127.96,444.91z"/>
		<path class="st4" d="M135.65,433.22l3.58,5.4l3.59-5.4h2.61l-5.02,7.33v5.87h-2.34v-5.87l-5.04-7.33H135.65z"/>
		<path class="st4" d="M150.78,444.91c0.72-0.03,1.34-0.24,1.86-0.63c0.52-0.38,0.78-0.94,0.78-1.67c0-0.54-0.27-0.98-0.8-1.31
			c-0.53-0.33-1.38-0.6-2.54-0.81c-0.54-0.09-1.09-0.23-1.63-0.42c-0.54-0.19-1.04-0.43-1.48-0.75c-0.44-0.3-0.79-0.67-1.06-1.09
			c-0.27-0.43-0.4-0.93-0.4-1.51c0-0.71,0.16-1.3,0.47-1.78c0.31-0.48,0.71-0.87,1.2-1.17c0.47-0.3,1.01-0.52,1.6-0.65
			c0.59-0.13,1.17-0.2,1.74-0.2c0.6,0,1.18,0.08,1.74,0.25c0.56,0.17,1.06,0.41,1.51,0.74c0.46,0.35,0.85,0.77,1.15,1.26
			c0.3,0.49,0.52,1.06,0.64,1.71l-2.54-0.02c-0.05-0.31-0.15-0.6-0.3-0.85c-0.16-0.25-0.34-0.48-0.56-0.68
			c-0.23-0.18-0.49-0.33-0.77-0.44c-0.28-0.11-0.57-0.16-0.86-0.16c-0.31,0-0.62,0.03-0.93,0.1c-0.31,0.07-0.58,0.18-0.81,0.33
			c-0.23,0.15-0.42,0.34-0.56,0.56c-0.14,0.23-0.22,0.49-0.22,0.81c0,0.3,0.09,0.58,0.27,0.83c0.18,0.25,0.4,0.47,0.67,0.65
			c0.27,0.21,0.56,0.38,0.89,0.51c0.32,0.13,0.62,0.22,0.89,0.27c0.63,0.13,1.25,0.28,1.88,0.46c0.63,0.18,1.19,0.41,1.68,0.69
			c0.49,0.28,0.88,0.64,1.18,1.08c0.3,0.44,0.45,0.98,0.45,1.61c0,0.74-0.17,1.37-0.5,1.88c-0.34,0.52-0.76,0.94-1.27,1.26
			c-0.52,0.32-1.09,0.56-1.71,0.71c-0.62,0.15-1.21,0.23-1.76,0.23c-0.67,0-1.3-0.1-1.88-0.3c-0.58-0.2-1.11-0.5-1.59-0.89
			c-0.46-0.37-0.86-0.83-1.18-1.38c-0.32-0.55-0.56-1.17-0.69-1.85l2.55,0.02c0.17,0.74,0.49,1.36,0.95,1.86
			C149.28,444.66,149.93,444.91,150.78,444.91z"/>
		<path class="st4" d="M160.27,446.42v-11.41h-4.25v-1.79h10.89v1.79h-4.25v11.41H160.27z"/>
		<path class="st4" d="M171.74,440.53c-0.14,0-0.34-0.02-0.59-0.07c-0.25-0.05-0.46-0.16-0.63-0.33v4.45h7.52v1.84h-8.13
			c-0.61,0-1.06-0.13-1.33-0.39c-0.27-0.26-0.41-0.7-0.41-1.31v-9.81c0-0.61,0.14-1.05,0.41-1.3c0.27-0.25,0.71-0.38,1.33-0.38h7.9
			v1.82h-7.29v3.68h7.03v1.81H171.74z"/>
		<path class="st4" d="M190.11,446.42v-9.03l-3.23,6.32h-1.56l-3.25-6.32v9.03h-2.15v-13.2h2.07l4.1,8.06l4.13-8.06h2.05v13.2
			H190.11z"/>
	</g>
</g>
<g>
	<g>
		
			<linearGradient id="SVGID_00000072254947444337222960000016070810644822799516_" gradientUnits="userSpaceOnUse" x1="631.6001" y1="416.7136" x2="558.4133" y2="416.7136">
			<stop  offset="0" style="stop-color:#B2B2B2"/>
			<stop  offset="1" style="stop-color:#B2B2B2;stop-opacity:0"/>
		</linearGradient>
		<path style="fill:url(#SVGID_00000072254947444337222960000016070810644822799516_);" d="M653.71,415.15v5.72
			c0,13.07-10.6,23.67-23.67,23.67h-56.44l-14.04-26.27H616c13.07,0,23.67-10.6,23.67-23.67v-5.72L653.71,415.15z"/>
		
			<linearGradient id="SVGID_00000049943766526721835520000008906187419788799389_" gradientUnits="userSpaceOnUse" x1="-1022.499" y1="-298.3747" x2="-1095.6859" y2="-298.3747" gradientTransform="matrix(-1 0 0 -1 -577.8207 25.2414)">
			<stop  offset="0" style="stop-color:#B2B2B2"/>
			<stop  offset="1" style="stop-color:#B2B2B2;stop-opacity:0"/>
		</linearGradient>
		<path style="fill:url(#SVGID_00000049943766526721835520000008906187419788799389_);" d="M422.57,325.18v-5.72
			c0-13.07,10.6-23.67,23.67-23.67h56.44l14.04,26.27h-56.44c-13.07,0-23.67,10.6-23.67,23.67v5.72L422.57,325.18z"/>
	</g>
	<path d="M499.06,348.66c-1.42-2.78-3.33-5.13-5.73-7.03c-2.45-1.79-5.24-3.14-8.28-4.01c-3.02-0.86-6.16-1.29-9.35-1.29h-17.53
		c-3.44,0-5.88,0.73-7.44,2.22c-1.56,1.49-2.34,3.94-2.34,7.31V404h14.24v-24.39c0.38,0.18,0.79,0.35,1.23,0.52
		c1.42,0.52,2.42,0.76,3.16,0.76h8.16c3.6,0,6.99-0.46,10.09-1.38c3.13-0.92,5.94-2.34,8.35-4.2c2.37-1.88,4.24-4.25,5.57-7.03
		c1.33-2.79,2.01-6.05,2.01-9.71C501.21,354.79,500.49,351.46,499.06,348.66z M487.4,358.57c0,3.62-1.05,6.29-3.2,8.16
		c-2.17,1.89-5.23,2.84-9.1,2.84h-12.47v-21.84h12.47c4.02,0,7.12,0.98,9.2,2.9C486.39,352.57,487.4,355.16,487.4,358.57z"/>
	<path d="M567.28,357.34c-1.36-4.19-3.39-7.98-6.05-11.3c-2.73-3.32-6.1-6.03-10.04-8.08c-3.96-2.06-8.61-3.1-13.82-3.1
		c-4.79,0-9.21,0.92-13.13,2.73c-3.91,1.81-7.34,4.35-10.19,7.56c-2.78,3.19-4.95,6.98-6.45,11.26c-1.5,4.26-2.26,8.89-2.26,13.75
		c0,4.35,0.71,8.67,2.12,12.84c1.41,4.19,3.51,7.98,6.22,11.29c2.72,3.32,6.12,6.04,10.08,8.08c3.99,2.05,8.57,3.1,13.6,3.1
		c4.74,0,9.13-0.92,13.04-2.73c3.91-1.81,7.3-4.29,10.1-7.38c2.78-3.14,4.97-6.91,6.5-11.22c1.53-4.29,2.3-8.99,2.3-13.97
		C569.31,365.82,568.63,361.51,567.28,357.34z M554.99,370.16c0,2.7-0.35,5.49-1.04,8.31c-0.69,2.79-1.72,5.37-3.07,7.64
		c-1.45,2.3-3.32,4.2-5.56,5.64c-2.2,1.41-4.87,2.13-7.95,2.13c-3.03,0-5.68-0.68-7.89-2.02c-2.24-1.36-4.1-3.18-5.54-5.42
		c-1.47-2.29-2.59-4.88-3.33-7.69c-0.74-2.84-1.12-5.73-1.12-8.59c0-2.58,0.36-5.35,1.08-8.22c0.71-2.84,1.82-5.47,3.29-7.82
		c1.39-2.25,3.22-4.13,5.44-5.6c2.17-1.44,4.88-2.16,8.06-2.16c3.02,0,5.64,0.69,7.78,2.05c2.19,1.39,4.03,3.23,5.48,5.48
		c1.47,2.28,2.57,4.88,3.28,7.72C554.62,364.48,554.99,367.36,554.99,370.16z"/>
	<path d="M625.44,375.42c-1.59-2.32-3.68-4.23-6.24-5.69c-2.53-1.41-5.42-2.59-8.59-3.5c-3.11-0.89-6.26-1.66-9.4-2.3
		c-1.23-0.21-2.62-0.64-4.13-1.26c-1.49-0.61-2.87-1.41-4.1-2.37l-0.06-0.04c-1.2-0.83-2.21-1.82-3.02-2.94
		c-0.74-1.03-1.11-2.14-1.11-3.38c0-1.33,0.29-2.42,0.89-3.35c0.62-0.97,1.44-1.79,2.44-2.44c1.02-0.66,2.24-1.16,3.61-1.47
		c1.42-0.32,2.88-0.49,4.33-0.49c1.27,0,2.56,0.25,3.82,0.74c1.27,0.49,2.44,1.16,3.48,1.99c0.99,0.89,1.84,1.92,2.55,3.06
		c0.68,1.12,1.14,2.38,1.34,3.76l0.15,1.01l15.03,0.1l-0.28-1.43c-0.66-3.33-1.78-6.31-3.33-8.85c-1.56-2.55-3.57-4.76-5.99-6.58
		c-2.33-1.67-4.96-2.96-7.83-3.82c-5.52-1.67-11.59-1.68-17.79-0.28c-3.04,0.69-5.83,1.82-8.27,3.37c-2.54,1.58-4.66,3.65-6.3,6.16
		c-1.67,2.56-2.51,5.74-2.51,9.46c0,3.08,0.73,5.81,2.16,8.1c1.4,2.25,3.28,4.19,5.56,5.75c2.26,1.61,4.82,2.9,7.61,3.85
		c2.74,0.93,5.52,1.64,8.25,2.11c5.55,1,9.63,2.29,12.13,3.83c2.28,1.41,3.39,3.2,3.39,5.47c0,3.24-1.1,5.62-3.38,7.29
		c-2.37,1.73-5.23,2.7-8.52,2.86c-3.86-0.01-6.74-1.09-8.81-3.31c-2.14-2.3-3.63-5.21-4.44-8.65l-0.21-0.92l-15.04-0.1l0.29,1.44
		c0.71,3.49,1.91,6.7,3.58,9.52c1.67,2.83,3.73,5.24,6.11,7.14c2.45,2.03,5.22,3.59,8.23,4.63c3,1.04,6.27,1.57,9.71,1.57
		c2.83,0,5.86-0.39,9-1.15c3.17-0.77,6.14-2,8.82-3.67c2.65-1.69,4.88-3.9,6.63-6.58c1.78-2.73,2.68-6.09,2.68-9.97
		C627.88,380.7,627.06,377.79,625.44,375.42z"/>
	<g>
		<path d="M458.67,416.24c0.63,0,1.23,0.08,1.82,0.25c0.59,0.17,1.12,0.43,1.6,0.77c0.45,0.36,0.81,0.8,1.09,1.34
			c0.27,0.53,0.41,1.16,0.41,1.89c0,0.71-0.13,1.33-0.38,1.86c-0.25,0.53-0.61,0.98-1.06,1.34c-0.46,0.36-1,0.63-1.61,0.81
			c-0.61,0.18-1.26,0.27-1.97,0.27h-1.65c-0.12,0-0.3-0.05-0.56-0.14c-0.25-0.09-0.45-0.2-0.57-0.33v5.14h-2.4v-11.51
			c0-0.61,0.13-1.05,0.4-1.3c0.27-0.25,0.71-0.38,1.34-0.38H458.67z M458.55,422.96c0.84,0,1.51-0.21,2-0.63
			c0.49-0.42,0.73-1.03,0.73-1.83c0-0.75-0.23-1.35-0.7-1.78c-0.47-0.43-1.14-0.65-2.02-0.65h-2.76v4.9H458.55z"/>
		<path d="M470.39,416.24c0.64,0,1.25,0.08,1.85,0.23c0.6,0.16,1.13,0.4,1.59,0.72c0.45,0.32,0.82,0.74,1.09,1.25
			c0.28,0.51,0.42,1.12,0.42,1.82c0,0.73-0.16,1.36-0.47,1.89c-0.31,0.53-0.74,0.96-1.27,1.29l2.36,5.99h-2.26l-2.08-5.26
			c-0.22,0.03-0.44,0.06-0.65,0.09c-0.21,0.02-0.44,0.03-0.69,0.03h-1.65c-0.13,0-0.32-0.04-0.56-0.12
			c-0.25-0.08-0.44-0.19-0.56-0.33v5.59h-2.4v-11.51c0-0.61,0.13-1.05,0.4-1.3c0.27-0.25,0.72-0.38,1.35-0.38H470.39z
			 M470.27,422.49c0.84,0,1.51-0.19,2.01-0.57c0.49-0.38,0.74-0.93,0.74-1.65c0-0.69-0.24-1.24-0.71-1.62
			c-0.47-0.39-1.15-0.58-2.03-0.58h-2.76v4.43H470.27z"/>
		<path d="M480.95,423.55c-0.14,0-0.34-0.02-0.59-0.07c-0.25-0.05-0.46-0.16-0.63-0.33v4.45h7.52v1.84h-8.13
			c-0.61,0-1.06-0.13-1.33-0.39c-0.27-0.26-0.41-0.7-0.41-1.31v-9.81c0-0.61,0.14-1.05,0.41-1.3c0.27-0.25,0.71-0.38,1.33-0.38h7.9
			v1.82h-7.29v3.68h7.03v1.81H480.95z"/>
		<path d="M492.33,429.44v-11.41h-4.25v-1.79h10.89v1.79h-4.25v11.41H492.33z"/>
		<path d="M503.77,429.44v-11.41h-4.25v-1.79h10.89v1.79h-4.25v11.41H503.77z"/>
		<path d="M513.23,416.24l3.58,5.4l3.59-5.4h2.61l-5.02,7.33v5.87h-2.34v-5.87l-5.04-7.33H513.23z"/>
		<path d="M452.58,439.82c0-0.96,0.15-1.86,0.44-2.7c0.3-0.84,0.71-1.57,1.26-2.2c0.56-0.63,1.22-1.11,1.98-1.47
			c0.76-0.35,1.62-0.53,2.55-0.53c1.02,0,1.91,0.2,2.68,0.6c0.77,0.4,1.42,0.92,1.95,1.57c0.52,0.65,0.91,1.38,1.18,2.21
			c0.27,0.82,0.4,1.66,0.4,2.52c0,0.98-0.15,1.9-0.45,2.74c-0.3,0.85-0.72,1.57-1.27,2.19c-0.54,0.6-1.2,1.08-1.96,1.43
			c-0.76,0.35-1.61,0.53-2.54,0.53c-0.98,0-1.86-0.2-2.64-0.6c-0.78-0.4-1.43-0.92-1.96-1.57c-0.53-0.65-0.94-1.38-1.22-2.21
			C452.71,441.51,452.58,440.67,452.58,439.82z M454.95,439.82c0,0.6,0.08,1.2,0.23,1.8s0.39,1.14,0.7,1.62
			c0.31,0.49,0.71,0.88,1.2,1.17c0.49,0.3,1.06,0.44,1.72,0.44c0.67,0,1.25-0.16,1.74-0.47c0.49-0.31,0.89-0.72,1.2-1.22
			c0.29-0.49,0.51-1.02,0.65-1.61c0.14-0.59,0.22-1.17,0.22-1.74c0-0.59-0.08-1.19-0.23-1.79c-0.15-0.6-0.38-1.15-0.69-1.63
			c-0.31-0.49-0.71-0.88-1.18-1.18c-0.47-0.3-1.04-0.45-1.7-0.45c-0.69,0-1.28,0.16-1.76,0.48c-0.48,0.32-0.87,0.72-1.17,1.21
			c-0.31,0.5-0.54,1.05-0.69,1.65C455.03,438.7,454.95,439.27,454.95,439.82z"/>
		<path d="M470.17,440.53c-0.14,0-0.34-0.02-0.59-0.07c-0.25-0.05-0.47-0.16-0.64-0.33v6.29h-2.4V434.9c0-0.61,0.14-1.05,0.41-1.3
			c0.27-0.25,0.72-0.38,1.35-0.38h7.88v1.82h-7.24v3.68h6.98v1.81H470.17z"/>
		<path d="M489.1,444.91c0.72-0.03,1.34-0.24,1.86-0.63c0.52-0.38,0.78-0.94,0.78-1.67c0-0.54-0.27-0.98-0.8-1.31
			c-0.53-0.33-1.38-0.6-2.54-0.81c-0.54-0.09-1.09-0.23-1.63-0.42c-0.54-0.19-1.04-0.43-1.48-0.75c-0.44-0.3-0.79-0.67-1.06-1.09
			c-0.27-0.43-0.4-0.93-0.4-1.51c0-0.71,0.16-1.3,0.47-1.78c0.31-0.48,0.71-0.87,1.2-1.17c0.47-0.3,1.01-0.52,1.6-0.65
			c0.59-0.13,1.17-0.2,1.74-0.2c0.6,0,1.18,0.08,1.74,0.25c0.56,0.17,1.06,0.41,1.51,0.74c0.46,0.35,0.85,0.77,1.15,1.26
			c0.3,0.49,0.52,1.06,0.64,1.71l-2.54-0.02c-0.05-0.31-0.15-0.6-0.3-0.85c-0.16-0.25-0.34-0.48-0.56-0.68
			c-0.23-0.18-0.49-0.33-0.77-0.44c-0.28-0.11-0.57-0.16-0.86-0.16c-0.31,0-0.62,0.03-0.93,0.1c-0.31,0.07-0.58,0.18-0.81,0.33
			c-0.23,0.15-0.42,0.34-0.56,0.56c-0.14,0.23-0.22,0.49-0.22,0.81c0,0.3,0.09,0.58,0.27,0.83c0.18,0.25,0.4,0.47,0.67,0.65
			c0.27,0.21,0.56,0.38,0.89,0.51c0.32,0.13,0.62,0.22,0.89,0.27c0.63,0.13,1.25,0.28,1.88,0.46c0.63,0.18,1.19,0.41,1.68,0.69
			c0.49,0.28,0.88,0.64,1.18,1.08c0.3,0.44,0.45,0.98,0.45,1.61c0,0.74-0.17,1.37-0.5,1.88c-0.34,0.52-0.76,0.94-1.27,1.26
			c-0.52,0.32-1.09,0.56-1.71,0.71c-0.62,0.15-1.21,0.23-1.76,0.23c-0.67,0-1.3-0.1-1.88-0.3c-0.58-0.2-1.11-0.5-1.59-0.89
			c-0.46-0.37-0.86-0.83-1.18-1.38c-0.32-0.55-0.56-1.17-0.69-1.85l2.55,0.02c0.17,0.74,0.49,1.36,0.95,1.86
			C487.6,444.66,488.25,444.91,489.1,444.91z"/>
		<path d="M496.79,433.22l3.58,5.4l3.59-5.4h2.61l-5.02,7.33v5.87h-2.34v-5.87l-5.04-7.33H496.79z"/>
		<path d="M511.91,444.91c0.72-0.03,1.34-0.24,1.86-0.63c0.52-0.38,0.78-0.94,0.78-1.67c0-0.54-0.27-0.98-0.8-1.31
			c-0.53-0.33-1.38-0.6-2.54-0.81c-0.54-0.09-1.09-0.23-1.63-0.42c-0.54-0.19-1.04-0.43-1.48-0.75c-0.44-0.3-0.79-0.67-1.06-1.09
			c-0.27-0.43-0.4-0.93-0.4-1.51c0-0.71,0.16-1.3,0.47-1.78c0.31-0.48,0.71-0.87,1.2-1.17c0.47-0.3,1.01-0.52,1.6-0.65
			c0.59-0.13,1.17-0.2,1.74-0.2c0.6,0,1.18,0.08,1.74,0.25c0.56,0.17,1.06,0.41,1.51,0.74c0.46,0.35,0.85,0.77,1.15,1.26
			c0.3,0.49,0.52,1.06,0.64,1.71l-2.54-0.02c-0.05-0.31-0.15-0.6-0.3-0.85c-0.16-0.25-0.34-0.48-0.56-0.68
			c-0.23-0.18-0.49-0.33-0.77-0.44c-0.28-0.11-0.57-0.16-0.86-0.16c-0.31,0-0.62,0.03-0.93,0.1c-0.31,0.07-0.58,0.18-0.81,0.33
			c-0.23,0.15-0.42,0.34-0.56,0.56c-0.14,0.23-0.22,0.49-0.22,0.81c0,0.3,0.09,0.58,0.27,0.83c0.18,0.25,0.4,0.47,0.67,0.65
			c0.27,0.21,0.56,0.38,0.89,0.51c0.32,0.13,0.62,0.22,0.89,0.27c0.63,0.13,1.25,0.28,1.88,0.46c0.63,0.18,1.19,0.41,1.68,0.69
			c0.49,0.28,0.88,0.64,1.18,1.08c0.3,0.44,0.45,0.98,0.45,1.61c0,0.74-0.17,1.37-0.5,1.88c-0.34,0.52-0.76,0.94-1.27,1.26
			c-0.52,0.32-1.09,0.56-1.71,0.71c-0.62,0.15-1.21,0.23-1.76,0.23c-0.67,0-1.3-0.1-1.88-0.3c-0.58-0.2-1.11-0.5-1.59-0.89
			c-0.46-0.37-0.86-0.83-1.18-1.38c-0.32-0.55-0.56-1.17-0.69-1.85l2.55,0.02c0.17,0.74,0.49,1.36,0.95,1.86
			C510.42,444.66,511.07,444.91,511.91,444.91z"/>
		<path d="M521.41,446.42v-11.41h-4.25v-1.79h10.89v1.79h-4.25v11.41H521.41z"/>
		<path d="M532.88,440.53c-0.14,0-0.34-0.02-0.59-0.07c-0.25-0.05-0.46-0.16-0.63-0.33v4.45h7.52v1.84h-8.13
			c-0.61,0-1.06-0.13-1.33-0.39c-0.27-0.26-0.41-0.7-0.41-1.31v-9.81c0-0.61,0.14-1.05,0.41-1.3c0.27-0.25,0.71-0.38,1.33-0.38h7.9
			v1.82h-7.29v3.68h7.03v1.81H532.88z"/>
		<path d="M551.25,446.42v-9.03l-3.23,6.32h-1.56l-3.25-6.32v9.03h-2.15v-13.2h2.07l4.1,8.06l4.13-8.06h2.05v13.2H551.25z"/>
	</g>
</g>
</svg>
