<svg xmlns="http://www.w3.org/2000/svg" width="48" height="48"><path d="M24 0A24 24 0 0 0 0 24a24 24 0 0 0 24 24 24 24 0 0 0 24-24A24 24 0 0 0 24 0zm-5.5 12c.822 0 1.5.678 1.5 1.5V15h8v-1.5c0-.822.678-1.5 1.5-1.5s1.5.678 1.5 1.5V15h2c1.1 0 2 .9 2 2v3.37a.5.5 0 0 1 0 .257V33c0 1.1-.9 2-2 2H15c-1.1 0-2-.9-2-2V17c0-1.1.9-2 2-2h2v-1.5c0-.822.678-1.5 1.5-1.5zm0 1c-.286 0-.5.214-.5.5v4c0 .286.214.5.5.5.286 0 .5-.214.5-.5v-4c0-.286-.214-.5-.5-.5zm11 0c-.286 0-.5.214-.5.5v4c0 .286.214.5.5.5.286 0 .5-.214.5-.5v-4c0-.286-.214-.5-.5-.5zM15 16c-.563 0-1 .437-1 1v3l20-.002V17c0-.563-.437-1-1-1h-2v1.5c0 .822-.678 1.5-1.5 1.5s-1.5-.678-1.5-1.5V16h-8v1.5c0 .822-.678 1.5-1.5 1.5s-1.5-.678-1.5-1.5V16h-2zm19 4.998L14 21v12c0 .563.437 1 1 1h18c.563 0 1-.437 1-1V20.998zm-6.502 1.996a.5.5 0 0 1 .508.506v3.896a.5.5 0 0 1 .002.2V31.5a.5.5 0 1 1-1 0V28h-3.38a.5.5 0 0 1-.628-.494v-4a.5.5 0 0 1 .137-.348.5.5 0 0 1 .863.35V27h3.006v-3.5a.5.5 0 0 1 .137-.35.5.5 0 0 1 .355-.156zm-7.004.004a.5.5 0 0 1 .506.51l-.002 8a.5.5 0 1 1-.998 0v-8.002a.5.5 0 0 1 .137-.35.5.5 0 0 1 .357-.158z"/></svg>