<svg xmlns="http://www.w3.org/2000/svg" width="48" height="48" id="medical"><path d="M24 0A24 24 0 0 0 0 24a24 24 0 0 0 24 24 24 24 0 0 0 24-24A24 24 0 0 0 24 0zM14 13h20c1.128 0 2 .997 2 2.158v17.686C36 34.005 35.128 35 34 35H14c-1.128 0-2-.995-2-2.156V15.158c0-1.161.872-2.158 2-2.158zm0 1c-.534 0-1 .483-1 1.158v17.686c0 .675.466 1.156 1 1.156h20c.534 0 1-.48 1-1.156V15.158c0-.675-.466-1.158-1-1.158H14zm.5 1h19a.5.5 0 0 1 .5.5v7.137a.5.5 0 0 1 0 .074V28.5a.5.5 0 0 1-.5.5h-19a.5.5 0 0 1-.5-.5v-5.799a.5.5 0 0 1 0-.074V15.5a.5.5 0 0 1 .5-.5zm.5 1v6.168h2.506l1.486-2.324a.5.5 0 0 1 .897.117l1.318 4.098 1.059-1.66a.5.5 0 0 1 .422-.231h1.462l1.346-3.51a.5.5 0 0 1 .438-.32.5.5 0 0 1 .502.338l2.199 6.431 1.129-2.636a.5.5 0 0 1 .46-.303H33V16H15zm10.936 4.305-.975 2.545a.5.5 0 0 1-.467.32h-1.533l-1.484 2.324a.5.5 0 0 1-.899-.117l-1.316-4.098-1.06 1.66a.5.5 0 0 1-.42.23H15V28h18v-4.832h-2.445l-1.514 3.527a.5.5 0 0 1-.932-.033l-2.173-6.357zM28.5 30c.823 0 1.5.677 1.5 1.5 0 .822-.677 1.5-1.5 1.5s-1.5-.678-1.5-1.5c0-.823.677-1.5 1.5-1.5zm4 0c.823 0 1.5.677 1.5 1.5 0 .822-.677 1.5-1.5 1.5s-1.5-.678-1.5-1.5c0-.823.677-1.5 1.5-1.5zm-17 1a.5.5 0 0 1 .5.5.5.5 0 0 1-.5.5.5.5 0 0 1-.5-.5.5.5 0 0 1 .5-.5zm2 0a.5.5 0 0 1 .5.5.5.5 0 0 1-.5.5.5.5 0 0 1-.5-.5.5.5 0 0 1 .5-.5zm2 0a.5.5 0 0 1 .5.5.5.5 0 0 1-.5.5.5.5 0 0 1-.5-.5.5.5 0 0 1 .5-.5zm9 0c-.282 0-.5.218-.5.5 0 .282.218.5.5.5.282 0 .5-.218.5-.5 0-.282-.218-.5-.5-.5zm4 0c-.282 0-.5.218-.5.5 0 .282.218.5.5.5.282 0 .5-.218.5-.5 0-.282-.218-.5-.5-.5z"></path></svg>