<svg xmlns="http://www.w3.org/2000/svg" width="48" height="48"><path fill-rule="evenodd" d="M24 0A24 24 0 0 0 0 24a24 24 0 0 0 24 24 24 24 0 0 0 24-24A24 24 0 0 0 24 0zM11.494 9.992h19c1.376 0 2.5 1.123 2.5 2.498l.002 1.994-.002 6.784.455-.456c.192-.192.17-.373.123-.43a.5.5 0 0 1-.136-.501.5.5 0 0 1-.002-.012.5.5 0 0 1 .011-.031.5.5 0 0 1 .004-.004.5.5 0 0 0 .002-.002.5.5 0 0 1 .02-.043.5.5 0 0 1 .008-.008.5.5 0 0 1 .007-.008.5.5 0 0 1 .05-.07.5.5 0 0 1 .005-.006.5.5 0 0 1 .023-.023.5.5 0 0 1 .72 0c.018.018.029.04.046.06a4.561 4.561 0 0 1 1.434 3.342c1.148-.043 2.261.362 3.08 1.156a.5.5 0 0 1 0 .002.5.5 0 0 1 .023.024.5.5 0 0 1 .112.209.5.5 0 0 1 .003.012.5.5 0 0 1 .002.011.5.5 0 0 1 .006.037.5.5 0 0 1 .002.012.5.5 0 0 1 .002.04.5.5 0 0 1 0 .034.5.5 0 0 1 0 .016.5.5 0 0 1 0 .014.5.5 0 0 1-.004.037.5.5 0 0 1 0 .013.5.5 0 0 1-.01.037.5.5 0 0 1 0 .016.5.5 0 0 1-.011.037.5.5 0 0 1-.008.006.5.5 0 0 1-.018.035.5.5 0 0 1-.007.008.5.5 0 0 1-.2.201.5.5 0 0 1-.01.008.5.5 0 0 1-.56-.072.5.5 0 0 1-.016-.014c-.004-.004-.006-.003-.013-.01-.052-.048-.24-.072-.436.123l-.547.55c.394.24.766.524 1.098.857a.5.5 0 0 1 .047.054c.01.01.021.016.031.026a.5.5 0 1 1-.707.707c-.176-.177-.516-.182-.783.086l-2.395 2.392a.5.5 0 0 1-.078.065c-.4.372-.863.653-1.361.838v1.363h3.5a.5.5 0 0 1 .5.5v1c0 1.376-1.124 2.5-2.5 2.5H23.232l-1.847 1.848a.5.5 0 1 1-.707-.708l1.14-1.14h-6.314a.5.5 0 0 1-.363-.15c-1.18-.2-2.135-1.115-2.135-2.35v-19.5h-3.5a.5.5 0 0 1-.5-.5v-1a2.49 2.49 0 0 1 2.398-2.49l.002-.002a.5.5 0 0 1 .098-.01l-.01-.012zm.01 1.012a1.5 1.5 0 0 0-1.066.435c-.27.27-.434.645-.434 1.065v.5h3v-.5c0-.84-.66-1.5-1.5-1.5zm1.984 0c.317.419.514.933.514 1.496v.92a.5.5 0 0 1 0 .172V33.5c0 .84.66 1.498 1.5 1.498A1.484 1.484 0 0 0 17 33.5v-1a.5.5 0 0 1 .5-.5h4.373c.059-.308.128-.623.211-.922.203-.732.432-1.36.432-1.36a.5.5 0 0 1 .111-.177.5.5 0 0 1 .682-.031s.504.426 1.037.957c.266.265.54.556.771.846.18.224.322.444.426.687h.271l2-2H26a.5.5 0 0 1-.361-.854A.5.5 0 0 1 26 29h2.21a3.955 3.955 0 0 1-.46-1.066 4.048 4.048 0 0 1 .957-3.764.5.5 0 0 1 .074-.094l2.397-2.396c.264-.265.26-.599.09-.774v-.002a.5.5 0 0 1-.008-.008.5.5 0 0 1-.018-.017.5.5 0 0 1-.006-.006.5.5 0 0 1 .655-.746.5.5 0 0 1 .007.006.5.5 0 0 1 .069.056.5.5 0 0 1 .006.006l.03.035.003-5.734-.002-1.994c0-.837-.66-1.498-1.5-1.498H13.488zm6.018 2h6.998a.5.5 0 1 1 0 1l-7 .002a.5.5 0 0 1-.361-.856.5.5 0 0 1 .363-.146zm9.998 3a.5.5 0 1 1 0 1h-13a.5.5 0 0 1-.36-.854.5.5 0 0 1 .36-.144l13-.002zm-13 2h13a.5.5 0 1 1 0 1h-13a.5.5 0 0 1-.36-.854.5.5 0 0 1 .36-.146zm0 2h13a.5.5 0 1 1 0 1h-13a.5.5 0 0 1-.361-.854.5.5 0 0 1 .36-.146zm17.812 1.314c-.05.071-.088.15-.15.213l-.795.795a6.48 6.48 0 0 1 .479 2.424c.168-.005.336-.007.504.002a3.615 3.615 0 0 0-.038-3.434zm-4.812.684a.5.5 0 1 1 0 1l-13 .002a.5.5 0 0 1-.361-.854.5.5 0 0 1 .36-.146l13-.002zm2.637.064c-.07.117-.151.228-.25.327l-2.328 2.328a.5.5 0 0 1-.036.035 3.056 3.056 0 0 0-.804 2.93c.21.805.742 1.464 1.453 1.85a5.627 5.627 0 0 0 2.625-3.983 5.485 5.485 0 0 0-.66-3.487zm-15.637 1.938h6.5a.5.5 0 1 1 0 1h-6.5a.5.5 0 0 1-.361-.854.5.5 0 0 1 .36-.146zm19.637.076c-.16-.01-.325.012-.489.025-.06.268-.148.53-.257.788.277.064.547.153.812.255l.787-.787c.026-.025.062-.037.088-.062a3.207 3.207 0 0 0-.941-.219zm-2.008 1.658.002.002c-.117-.002-.234.008-.352.014a6.617 6.617 0 0 1-2.38 4.135A3.062 3.062 0 0 0 33.77 29l2.362-2.361c.104-.104.22-.188.342-.26a4.95 4.95 0 0 0-2.342-.64zm-13.27.283c.387.015.761.158 1.065.456.703.69.7 1.832.006 2.527a.5.5 0 0 0-.002.002l-.924.908-.922.908a.5.5 0 0 1-.7.002l-.925-.906-.924-.908a1.785 1.785 0 0 1-.008-2.528l.008.008a.5.5 0 0 1 .002-.004c.604-.597 1.497-.576 2.193-.146.348-.217.746-.331 1.133-.317l-.002-.002zm-.21.93a.807.807 0 0 0-.573.238.5.5 0 0 1-.7 0 .81.81 0 0 0-1.144.004.755.755 0 0 0 .004 1.104l.924.908.572.563.576-.561.922-.906c.32-.32.321-.791 0-1.106a.5.5 0 0 1-.007-.008.819.819 0 0 0-.575-.236zm8.513 3.12-.73.73c.33.092.592.282.875.508.26.208.52.454.763.695h1.93v-1.131c-.47.047-.95.02-1.418-.103a3.952 3.952 0 0 1-1.42-.7zm-5.937.724c-.073.223-.096.257-.178.555a9.915 9.915 0 0 0-.233 1.021c-.05.31-.044.58-.03.629a.94.94 0 0 0 1.179.672.991.991 0 0 0 .703-1.203 2.305 2.305 0 0 0-.33-.528 9.57 9.57 0 0 0-.697-.761c-.212-.211-.245-.231-.414-.385zm4.542.941a.998.998 0 0 0-.816.725.94.94 0 0 0 .672 1.18c.049.012.32.02.63-.03.311-.05.676-.139 1.02-.234.298-.083.333-.103.555-.176-.154-.169-.172-.202-.383-.414a9.585 9.585 0 0 0-.763-.697c-.243-.194-.48-.32-.528-.332a.971.971 0 0 0-.387-.022zm-9.767 1.268v.5c0 .585-.284 1.073-.623 1.5h5.435l.377-.377a1.94 1.94 0 0 1-1.373-1.373c-.022-.084-.017-.167-.025-.25h-3.791zm13.006 0 .105.113a.5.5 0 0 1-.21.793s-.628.229-1.36.432c-.366.101-.76.196-1.129.256s-.698.1-1.041.011A1.942 1.942 0 0 1 26 33.234l-1.77 1.77h10.274c.84 0 1.5-.66 1.5-1.5v-.5H31.01z"/></svg>