<svg xmlns="http://www.w3.org/2000/svg" width="48" height="48"><path d="M24 0A24 24 0 0 0 0 24a24 24 0 0 0 24 24 24 24 0 0 0 24-24A24 24 0 0 0 24 0zM12.342 10l23.318.002A2.347 2.347 0 0 1 38 12.344V35.66A2.346 2.346 0 0 1 35.66 38H12.342A2.348 2.348 0 0 1 10 35.658V12.342A2.348 2.348 0 0 1 12.342 10zm-.004.998c-.752 0-1.342.59-1.342 1.342v14.365c.106-.13.204-.268.322-.387A4.486 4.486 0 0 1 14.5 25h3.607a5.98 5.98 0 0 1 3.711-4.537l-.718-.96a.5.5 0 0 1-.047-.523l.834-1.668a.5.5 0 0 1 .088-.125.5.5 0 0 1 .359-.152l3.332.002a.5.5 0 0 1 .447.276l.832 1.666a.5.5 0 0 1-.045.523l-.718.959a5.983 5.983 0 0 1 3.713 4.537H33.5c1.422 0 2.673.673 3.498 1.703V12.34c0-.752-.586-1.342-1.338-1.342H12.342L12.34 11l-.002-.002zm11.652 2.004a.5.5 0 0 1 .51.504v1a.5.5 0 1 1-1 0v-1a.5.5 0 0 1 .137-.348.5.5 0 0 1 .353-.156zm-3.176 1.318a.5.5 0 0 1 .358.153l.707.707a.5.5 0 1 1-.707.707l-.707-.707a.5.5 0 0 1-.01-.707.5.5 0 0 1 .36-.153zm6.358 0a.5.5 0 0 1 .363.858l-.707.707a.5.5 0 1 1-.707-.707l.707-.707a.5.5 0 0 1 .344-.15zm-4.53 3.717-.5 1h3.715l-.5-1h-2.714zm.108 2L24 21.705l1.25-1.668h-2.5zm2.814 1.25-.652.87A3.997 3.997 0 0 1 27.865 25h1.016a4.992 4.992 0 0 0-3.291-3.705.5.5 0 0 1-.026-.008zm-3.123.008A4.986 4.986 0 0 0 19.123 25h1.014a3.996 3.996 0 0 1 2.949-2.844l-.645-.861zM24 23.037c-1.266 0-2.37.794-2.803 1.963h5.608A2.99 2.99 0 0 0 24 23.037zM14.5 26a3.468 3.468 0 0 0-3.451 3H36.95a3.466 3.466 0 0 0-3.449-3H14.5zM11 30v2.5a.5.5 0 0 1-.002.04v3.118c0 .752.59 1.342 1.342 1.342h23.318A1.327 1.327 0 0 0 37 35.658v-3.107a.5.5 0 0 1 0-.051V30H11zm11.5 3h3a.5.5 0 1 1 0 1h-3a.5.5 0 0 1-.361-.854A.5.5 0 0 1 22.5 33z"/></svg>