<svg xmlns="http://www.w3.org/2000/svg" width="48" height="48" id="hand"><path fill-rule="evenodd" d="M24 0A24 24 0 0 0 0 24a24 24 0 0 0 24 24 24 24 0 0 0 24-24A24 24 0 0 0 24 0zm2.842 12.498c.983 0 1.965.372 2.715 1.12l.433.433.436-.434c1.45-1.445 3.758-1.46 5.265-.11h.002a.5.5 0 0 1 .164.11c1.5 1.493 1.552 3.972-.011 5.428l-5.51 5.129a.5.5 0 0 1-.34.135h-.01a.5.5 0 0 1-.34-.135l-5.507-5.13a.5.5 0 0 1-.014-.01 3.823 3.823 0 0 1 0-5.417 3.838 3.838 0 0 1 2.717-1.119zm0 .988c-.726 0-1.45.279-2.01.836a2.803 2.803 0 0 0 0 4l5.16 4.803 5.172-4.814c1.14-1.062 1.107-2.872-.01-3.987a.5.5 0 0 1-.004 0 2.834 2.834 0 0 0-4.02 0l-.786.783a.5.5 0 0 1-.705 0l-.787-.783a2.838 2.838 0 0 0-2.01-.836v-.002zM9.504 21.75v.004h5.471a.5.5 0 0 1 .5.5v.84h4.695c1.42 0 2.71.562 3.642 1.474a5.09 5.09 0 0 1 .887 1.164c.018.032.04.08.059.114h4.44c1.127 0 2.058.913 2.058 2.037 0 .07-.015.134-.022.201l5.332-2.473a.5.5 0 0 1 .05-.021s.385-.134.857-.065c.471.07 1.074.402 1.38 1.127.36.853.015 1.846-.792 2.303l-.237.135a.5.5 0 0 1-.008 0l-9.671 5.256c-.95.637-2.204.801-3.291.525a.5.5 0 0 1-.04-.01l-9.34-3.164v.737a.5.5 0 0 1-.5.5H9.505a.5.5 0 0 1-.5-.5V22.25a.5.5 0 0 1 .5-.5zm.5 1v9.184h4.471V22.75h-4.471zm5.47 1.34v6.55L25.1 33.9h.002c.8.203 1.825.057 2.484-.386a.5.5 0 0 1 .041-.026l9.707-5.277.234-.13a.817.817 0 0 0 .366-1.044c-.185-.437-.391-.496-.606-.527-.21-.031-.374.023-.383.023l-6.978 3.237a.5.5 0 0 1-.172.043c-.19.058-.389.1-.598.1h-6.955v-1h6.955c.148 0 .287-.031.412-.081h.006c.382-.155.64-.519.64-.953 0-.58-.459-1.037-1.058-1.037h-5.07l-.129-.303c-.042-.098-.095-.184-.174-.326a4.022 4.022 0 0 0-.713-.934 4.181 4.181 0 0 0-2.941-1.19h-4.695z"></path></svg>