<svg xmlns="http://www.w3.org/2000/svg" width="48" height="48"><path d="M24 0A24 24 0 0 0 0 24a24 24 0 0 0 24 24 24 24 0 0 0 24-24A24 24 0 0 0 24 0zm-4.516 7.998a.5.5 0 0 1 .014 0 .5.5 0 0 1 .014 0h8.002a.5.5 0 0 1 .494.387l.832 1.666c.089.026.19.04.353.172a.5.5 0 0 1 .073.07l1.398 1.71-.068-.067c.04.033.06.068.09.101a.5.5 0 0 1 .078.037c3.226 1.934 5.201 2.782 6.48 3.75.64.484 1.11 1.026 1.389 1.717.28.69.375 1.498.375 2.553a.5.5 0 0 0-.002.002c-.023 6.136-.003 9.801-.006 15.26a.5.5 0 0 1 0 .289V37.5a.5.5 0 0 1-.498.498h-4.496v1.5a.5.5 0 0 1-.5.5l-5.75.002a.5.5 0 0 1-.022-.002h-2.002a2.724 2.724 0 0 1-2.228-1.166 2.722 2.722 0 0 1-2.227 1.166h-7.773a.5.5 0 0 1-.5-.5v-1.5H8.506a.5.5 0 0 1-.5-.5c-.014-7.003.02-10.405-.006-17.404 0-1.055.093-1.864.373-2.555.28-.69.75-1.23 1.389-1.715 1.279-.968 3.256-1.816 6.482-3.75a.5.5 0 0 1 .06-.035l.034-.033 1.4-1.711a.5.5 0 0 1 .035-.037.5.5 0 0 1 .036-.035c.164-.134.269-.148.359-.174.01.004.008.005.012.002l.865-1.73a.5.5 0 0 1 .113-.173.5.5 0 0 1 .016-.013.5.5 0 0 1 .017-.02.5.5 0 0 1 .008-.008.5.5 0 0 1 .02-.02.5.5 0 0 1 .027-.013.5.5 0 0 1 .006-.006.5.5 0 0 1 .033-.017.5.5 0 0 1 .018-.002.5.5 0 0 1 .086-.031.5.5 0 0 1 .027-.006.5.5 0 0 1 .016-.002.5.5 0 0 1 .017-.004.5.5 0 0 1 .018-.002.5.5 0 0 1 .021-.002l-.004-.004zM25.766 9l-4.516.002 2.258 1.41L25.766 9zm1.543.217-3.002 1.875.996.994a.5.5 0 0 1 .133.133l.105.105 2.344-1.951-.576-1.156zm-7.598.004-.576 1.152 2.345 1.955.14-.14a.5.5 0 0 1 .034-.036.5.5 0 0 1 .037-.035.5.5 0 0 0 .002-.002l1.02-1.021L19.71 9.22zm9.11 2.107-4.77 13.52a.5.5 0 0 1 .006-.008l4.861-7.121-.664-1.815a.5.5 0 0 1 .36-.658l1.386-.32.01-2.043a.5.5 0 0 1 .002-.047c-.006.062-.002-.011-.024-.065-.02-.051-.075-.103-.025-.062a.5.5 0 0 1-.068-.068l-1.075-1.313zm-10.63.002-1.076 1.313a.5.5 0 0 1-.07.068.5.5 0 0 1 .002.057l-.031 2.16 1.379.316a.5.5 0 0 1 .357.658l-.662 1.817 4.861 7.119a.5.5 0 0 1 .008.012l-1.332-3.776a.5.5 0 0 1-.072-.207L18.19 11.33zm5.319.379-.713.713.72.478.71-.474-.717-.717zm-4.041.242 2.23 6.324.295-5.05-.13.13a.5.5 0 0 1-.675.03l-1.72-1.434zm8.062.018-1.7 1.418a.5.5 0 0 1-.675-.032l-.133-.132.295 5.023 2.213-6.277zm-11.494 1.383c-2.818 1.647-4.66 2.51-5.668 3.273-.548.415-.859.785-1.064 1.293-.206.507-.3 1.187-.301 2.178.023 5.998 0 9.651.002 14.906h4.002V21.775a.5.5 0 0 1 .137-.35.5.5 0 0 1 .863.35v13.59a.5.5 0 0 1 0 .274v1.76a.5.5 0 0 1 0 .206v1.397h7.273c.966 0 1.729-.763 1.729-1.729v-9.939c-.026-.054-.199-.42-.408-.871-.214-.46-.418-.898-.502-1.096l-4.887-7.162a.5.5 0 0 1-.047-.084 1.006 1.006 0 0 1-.021-.73.5.5 0 0 0 .001-.002l.471-1.297-1.22-.281a.5.5 0 0 1-.39-.495l.03-1.964zm14.97.021L31 15.328a.5.5 0 0 1-.389.485l-1.222.28.474 1.298a.5.5 0 0 0-.002.002.998.998 0 0 1-.017.73.5.5 0 0 1-.05.086l-4.89 7.16a53.93 53.93 0 0 1-.5 1.094l-.394.85v9.96c0 .966.76 1.729 1.726 1.729h7.274v-1.371a.5.5 0 0 1 0-.258V21.775a.5.5 0 0 1 .136-.35.5.5 0 0 1 .864.35v13.227h3.996c.002-5.254-.019-8.909.004-14.906 0-.993-.093-1.67-.3-2.178-.205-.508-.519-.878-1.067-1.293-1.004-.76-2.836-1.617-5.635-3.252zm-8.038.363-.412 6.973.947 2.686.955-2.711-.02-.366-.386-6.572-.26.172a.5.5 0 0 1-.553 0l-.271-.182zm7.043 9.266a.5.5 0 0 1 .443.277l.863 1.723h.198a.5.5 0 1 1 0 1h-.342a.5.5 0 0 1-.305 0h-2.8a.5.5 0 0 1-.133 0h-.418a.5.5 0 0 1-.364-.854.5.5 0 0 1 .364-.146h.283l1.855-1.856a.5.5 0 0 1 .356-.144zm-.139 1.342-.658.658h.986l-.328-.658zm-8.363 6.658a.5.5 0 0 1 .5.5.5.5 0 0 1-.5.5.5.5 0 0 1-.5-.5.5.5 0 0 1 .5-.5zm0 2a.5.5 0 0 1 .5.5.5.5 0 0 1-.5.5.5.5 0 0 1-.5-.5.5.5 0 0 1 .5-.5zm0 2a.5.5 0 0 1 .5.5.5.5 0 0 1-.5.5.5.5 0 0 1-.5-.5.5.5 0 0 1 .5-.5zm-12.504 1v1h4.002v-1H9.006zm25.004 0v1h3.996v-1H34.01z"/></svg>