<svg xmlns="http://www.w3.org/2000/svg" width="48" height="48"><path fill-rule="evenodd" d="M24 0A24 24 0 0 0 0 24a24 24 0 0 0 24 24 24 24 0 0 0 24-24A24 24 0 0 0 24 0zm-8 10h16c1.1 0 2 .9 2 2v24c0 1.1-.9 2-2 2H16c-1.1 0-2-.9-2-2V12c0-1.1.9-2 2-2zm0 1c-.563 0-1 .437-1 1v24c0 .563.437 1 1 1h16c.563 0 1-.437 1-1V12c0-.563-.437-1-1-1H16zm7.99 2.002a.5.5 0 0 1 .115.012H25a.5.5 0 1 1 0 1h-.5v3.002h.5a.5.5 0 1 1 0 .998h-2a.5.5 0 0 1-.361-.854.5.5 0 0 1 .361-.144h.5v-3H23a.5.5 0 0 1-.361-.856.5.5 0 0 1 .361-.146h.89a.5.5 0 0 1 .1-.012zm1.371 6.072.002.002c.469.014.926.185 1.293.545.832.815.839 2.168.004 2.984l-1.148 1.135-1.15 1.135a.5.5 0 0 1-.704.002l-1.154-1.13-1.154-1.134a2.096 2.096 0 0 1-.006-2.984c.731-.722 1.828-.699 2.656-.147a2.342 2.342 0 0 1 1.361-.408zm-.213.93.004.004c-.289 0-.577.11-.798.332a.5.5 0 0 1-.704 0 1.136 1.136 0 0 0-1.603.004.5.5 0 0 0-.002 0l-.008-.006a1.069 1.069 0 0 0 .006 1.555l1.154 1.132.805.788.803-.79 1.152-1.134a.5.5 0 0 0 0-.002 1.07 1.07 0 0 0-.006-1.557 1.14 1.14 0 0 0-.803-.326zm.348 6a.5.5 0 0 1 .504.51v2.502c.001 1.1-.9 1.998-2 1.998s-2-.901-2-2v-2.5a.5.5 0 0 1 .137-.35.5.5 0 0 1 .863.35v2.5a.989.989 0 0 0 1 1.002c.563 0 1-.438 1-1v-2.502a.5.5 0 0 1 .496-.51zM20.506 32h6.988a.5.5 0 1 1 0 1h-6.988a.5.5 0 0 1-.361-.854.5.5 0 0 1 .36-.146zm9.996 2.002a.5.5 0 1 1 0 1H18.504a.5.5 0 0 1-.363-.854.5.5 0 0 1 .363-.144l11.998-.002z"/></svg>