<svg xmlns="http://www.w3.org/2000/svg" width="48" height="48"><path fill-rule="evenodd" d="M24 0A24 24 0 0 0 0 24a24 24 0 0 0 24 24 24 24 0 0 0 24-24A24 24 0 0 0 24 0zm5.316 10.992.002.004a.5.5 0 0 1 .19.033.5.5 0 0 1 .01.004.5.5 0 0 1 .205.127c.034.035.058.075.088.111a6.763 6.763 0 0 1 1.5 2.034c.316.002.629.027.923.074.458.073.87.183 1.172.273.302.09.502.166.502.166a.5.5 0 0 1 .287.287s.076.203.166.504c.09.302.2.713.274 1.17.057.358.077.744.062 1.131.8.303 1.539.762 2.157 1.38a.5.5 0 0 1 .097.583.5.5 0 0 0-.002.002.5.5 0 0 1-.01.01.5.5 0 0 1-.017.031.5.5 0 0 1-.01.01.5.5 0 0 1-.017.033.5.5 0 0 1-.01.01.5.5 0 0 1-.018.017.5.5 0 0 1-.064.065.5.5 0 0 1-.03.015.5.5 0 0 1-.04.024.5.5 0 0 1-.075.031.5.5 0 0 1-.006.006.5.5 0 0 1-.015.002.5.5 0 0 1-.018.002.5.5 0 0 1-.033.008.5.5 0 0 1-.1.007.5.5 0 0 1-.035-.001.5.5 0 0 1-.012-.004.5.5 0 0 0 0 .002.5.5 0 0 1-.01-.006.5.5 0 0 1-.091-.022.5.5 0 0 1-.033-.011.5.5 0 0 1-.01-.004.5.5 0 0 1-.016-.008.5.5 0 0 1-.076-.047.5.5 0 0 1-.027-.02.5.5 0 0 1-.006-.007.5.5 0 0 1-.014-.014.5.5 0 0 1-.02-.016c-.204-.204-.663-.203-1.038.172l-.498.498a8.901 8.901 0 0 1 1.85 1.404.5.5 0 0 1 .058.07c.02.02.043.033.062.052a.5.5 0 1 1-.707.707c-.527-.528-1.385-.521-1.949.043l-3.016 3.015a.5.5 0 0 1-.037.037l-.2.201a.5.5 0 0 1-.15.108 5.497 5.497 0 0 1-4.982 1.096 5.563 5.563 0 0 1-2.105-1.11l-1.256 1.256c.15.014.3.034.45.074.444.12.845.402 1.277.748.431.346.872.764 1.275 1.168a30.29 30.29 0 0 1 1.455 1.575.5.5 0 0 1-.213.793s-.945.338-2.047.636c-.55.15-1.143.288-1.69.371-.546.084-1.033.131-1.478.012a2.746 2.746 0 0 1-2.011-2.393l-7.33 7.33a.5.5 0 1 1-.708-.706l4.155-4.155a2.748 2.748 0 0 1-2.393-2.013c-.12-.446-.074-.932.01-1.479.084-.547.222-1.138.371-1.69.298-1.102.637-2.048.637-2.048a.5.5 0 0 1 .115-.18.5.5 0 0 1 .68-.031s.765.65 1.574 1.455c.404.403.82.844 1.166 1.275.346.432.63.83.75 1.276.04.15.058.302.072.453l4.432-4.432a5.576 5.576 0 0 1-1.11-2.105 5.495 5.495 0 0 1 1.098-4.985.5.5 0 0 1 .106-.146l.187-.188.016-.015a.5.5 0 0 1 .023-.024l3.03-3.029c.563-.564.572-1.42.044-1.947a.5.5 0 0 1-.011-.707.5.5 0 0 1 .718 0c.018.017.029.039.045.056a.5.5 0 0 1 .07.059 10.055 10.055 0 0 1 1.434 1.826l.47-.47c.359-.358.37-.785.194-1.003l-.01-.01a.5.5 0 0 1 .295-.896zm.657 1.994c-.102.226-.245.44-.428.623l-.676.676c.628 1.298.97 2.722.998 4.184.23-.007.46-.01.688 0a5.78 5.78 0 0 0-.582-5.483zm-2.573.71a2.43 2.43 0 0 1-.625 1.097l-3.052 3.053a4.488 4.488 0 0 0-1.145 4.363c.205.751.597 1.42 1.12 1.965a.5.5 0 0 1 .132.133A4.586 4.586 0 0 0 25.8 25.43l.002-.002a8.98 8.98 0 0 0 3.076-6.438 9.043 9.043 0 0 0-1.477-5.295zm4.305.638c.21.708.305 1.442.277 2.184a6.372 6.372 0 0 1 1.721.095 5.403 5.403 0 0 0-.062-.681 8.344 8.344 0 0 0-.243-1.043c-.04-.135-.045-.14-.07-.213-.074-.026-.078-.032-.213-.072a8.382 8.382 0 0 0-1.045-.243c-.122-.02-.241-.015-.365-.027zm.53 3.162v.002c-.122.005-.245.024-.368.037-.067.353-.164.7-.289 1.043a8.91 8.91 0 0 1 2.084.611l.733-.732c.15-.15.324-.27.505-.367a5.253 5.253 0 0 0-2.666-.594zm-1.891 1.957c-.169-.004-.339.01-.508.016a9.97 9.97 0 0 1-2.746 6.113 4.488 4.488 0 0 0 3.055-1.287l.013-.014a.5.5 0 0 1 .026-.025l3.027-3.027c.303-.304.67-.501 1.057-.612a7.919 7.919 0 0 0-3.924-1.164zm-15.701 6.383c-.121.36-.206.574-.385 1.236-.143.529-.273 1.09-.348 1.578-.075.488-.074.917-.033 1.07a1.73 1.73 0 0 0 1.633 1.286l-.576-2.152a.5.5 0 0 1 .13-.493.5.5 0 0 1 .834.235l.579 2.15a1.7 1.7 0 0 0 .404-.33l.002-.002a1.737 1.737 0 0 0 .365-1.598c-.041-.153-.254-.525-.562-.91a15.13 15.13 0 0 0-1.092-1.191c-.486-.484-.667-.627-.951-.88zm7.367 1.685a1.726 1.726 0 0 0-1.24.418l-.05.05a1.736 1.736 0 0 0-.29.363l2.15.576a.5.5 0 1 1-.258.965l-2.15-.577c.02.753.52 1.43 1.287 1.635.154.041.58.042 1.068-.033a15.14 15.14 0 0 0 1.578-.35c.663-.179.876-.262 1.237-.382-.252-.285-.394-.463-.88-.95a15.175 15.175 0 0 0-1.192-1.093c-.386-.31-.755-.524-.909-.565a.5.5 0 0 0-.002.002 1.765 1.765 0 0 0-.35-.059z"/></svg>