<svg xmlns="http://www.w3.org/2000/svg" width="48" height="48" id="medical"><path fill-rule="evenodd" d="M24 0A24 24 0 0 0 0 24a24 24 0 0 0 24 24 24 24 0 0 0 24-24A24 24 0 0 0 24 0zm0 9c.572 0 1.144.195 1.607.584.72.604.875 1.533.69 2.416H28.5a.5.5 0 0 1 .5.5v.5h3c1.1 0 2 .9 2 2v21c0 1.1-.9 2-2 2H16c-1.1 0-2-.9-2-2V15c0-1.1.9-2 2-2h3v-.5a.5.5 0 0 1 .5-.5h2.203c-.185-.883-.03-1.812.69-2.416A2.497 2.497 0 0 1 24 9zm0 .998c-.342 0-.685.117-.965.352-.56.47-.7 1.267-.334 1.9a.5.5 0 0 1-.433.75H20v.418a.5.5 0 0 1 0 .16v1.84a.5.5 0 0 1 0 .16V16h8v-.418a.5.5 0 0 1 0-.164v-1.836a.5.5 0 0 1 0-.164V13h-2.268a.5.5 0 0 1-.433-.75 1.496 1.496 0 0 0-.334-1.9A1.498 1.498 0 0 0 24 9.998zm0 1a.5.5 0 0 1 .5.5.5.5 0 0 1-.5.5.5.5 0 0 1-.5-.5.5.5 0 0 1 .5-.5zM16 14c-.563 0-1 .437-1 1v21c0 .563.437 1 1 1h16c.563 0 1-.437 1-1V15c0-.563-.437-1-1-1h-3v1h1.5c.822 0 1.5.678 1.5 1.5v18c0 .822-.678 1.5-1.5 1.5h-13c-.822 0-1.5-.678-1.5-1.5v-18c0-.822.678-1.5 1.5-1.5H19v-1h-3zm1.5 2c-.286 0-.5.214-.5.5v18c0 .286.214.5.5.5h13c.286 0 .5-.214.5-.5v-18c0-.286-.214-.5-.5-.5H29v.5a.5.5 0 0 1-.5.5h-9a.5.5 0 0 1-.5-.5V16h-1.5zm.957 3a.5.5 0 0 1 .05 0h.985a.5.5 0 1 1 0 1h-.984a.5.5 0 0 1-.051-1zm2.998 0a.5.5 0 0 1 .05 0h4.987a.5.5 0 1 1 0 1h-4.986a.5.5 0 0 1-.05-1zm-2.998 3a.5.5 0 0 1 .05 0h.985a.5.5 0 1 1 0 1h-.984a.5.5 0 0 1-.051-1zm2.998 0a.5.5 0 0 1 .05 0h4.987a.5.5 0 1 1 0 1h-4.986a.5.5 0 0 1-.05-1zm-2.998 3a.5.5 0 0 1 .05 0h.985a.5.5 0 1 1 0 1h-.984a.5.5 0 0 1-.051-1zm2.998 0a.5.5 0 0 1 .05 0h4.987a.5.5 0 1 1 0 1h-4.986a.5.5 0 0 1-.05-1zm3.045 5c.295 0 .543.182.672.34.13.158.198.308.262.431.029.057.042.073.066.114.024-.042.037-.058.066-.114.064-.123.133-.273.262-.431.13-.158.377-.34.672-.34.295 0 .543.182.672.34.13.158.198.308.262.431.029.057.042.073.066.114.024-.042.037-.058.066-.114.064-.123.133-.273.262-.431.13-.158.378-.34.672-.34.295 0 .505.135.67.268.165.132.295.283.406.427.223.29.371.57.371.57a.5.5 0 1 1-.88.471s-.12-.22-.282-.431c-.078-.101-.165-.19-.232-.246-.03.047-.054.085-.098.17-.065.126-.139.282-.275.44-.137.16-.388.331-.68.331-.292 0-.543-.171-.68-.33-.136-.16-.21-.315-.275-.441-.02-.04-.027-.047-.045-.079-.018.032-.025.04-.045.079-.065.126-.139.282-.275.44-.137.16-.388.331-.68.331-.292 0-.543-.171-.68-.33-.136-.16-.21-.315-.275-.441-.043-.083-.067-.12-.096-.168a1.627 1.627 0 0 0-.222.242c-.16.21-.276.43-.276.43a.5.5 0 0 1-.887-.463s.144-.281.364-.57c.11-.145.239-.297.402-.43.164-.134.376-.27.67-.27zm-1.043 3a.5.5 0 0 1 .05 0h6a.5.5 0 1 1 0 1h-6a.5.5 0 0 1-.05-1z"></path></svg>