<svg xmlns="http://www.w3.org/2000/svg" viewBox="0 0 1364 960" id="girl-getting-professional-nail-art-on-fingernails"><path fill="#F3E8FF" d="M1157.848,552.804c-2.238,58.142-32.92,120.165-85.311,145.548   c-175.773,69.394-559.355,93.286-753.72,14.272c-107.131-36.902-171.958-132.569-159.299-240.798   c6.851-43.922,38.956-59.257,57.534-99.461c18.496-38.134,16.575-89.007,8.938-120.502c-16.374-68.97,7.383-150.579,89.052-176.533   c111.172-35.041,198.088,95.377,342.789,79.052c86.019-9.697,100.55-35.39,193.535-72.096   c122.91-50.23,313.551,19.641,229.161,176.321c-18.404,36.009-41.016,68.642-28.829,107.818   C1081.633,449.134,1156.793,462.669,1157.848,552.804z"></path><polygon fill="#CDB8D6" points="748.623 231.653 537.519 220.873 543.008 70.509 748.623 70.509"></polygon><rect width="201.019" height="154.843" x="537.519" y="66.03" fill="#6E339C"></rect><rect width="188.777" height="145.049" x="543.639" y="70.927" fill="#DBCFE0"></rect><rect width="178.984" height="134.44" x="548.536" y="76.232" fill="#FFF"></rect><path fill="#F0ADAD" d="M562.791,109.182c0.988-0.668,4.236-2.359,6.742-1.101c2.506,1.258,4.977,12.904,6.641,11.851     c1.664-1.052,5.711-1.988,7.283,1.294c1.572,3.281,3.096,11.08,3.096,11.08c2.803-3.525,7.202-2.013,7.923,1.348     c0.72,3.36,7.401,25.701,12.028,30.794c4.626,5.093,25.358,17.494,25.358,17.494l-34.382,8.053     c-11.097-7.734-25.035-23.59-27.506-32.69C567.789,149.264,561.803,109.85,562.791,109.182z"></path><path fill="#FFF" d="M634.964,183.854c-5.789-3.548-25.706-14.388-29.449-18.509c-4.991-5.494-11.765-28.708-12.345-31.412     c-0.172-0.804-0.649-1.476-1.341-1.895c-0.683-0.413-1.485-0.521-2.259-0.305c-0.719,0.201-1.401,0.686-1.971,1.403l-1.801,2.265     l-0.555-2.84c-0.015-0.077-1.51-7.67-2.99-10.759c-0.895-1.867-2.913-1.619-4.036-1.306c-0.497,0.139-0.981,0.344-1.328,0.564     c-0.148,0.094-0.307,0.165-0.472,0.211c0,0,0,0-0.001,0c-1.983,0.553-2.936-1.904-4.515-5.975     c-0.758-1.955-2.169-5.593-2.968-6.023c-0.774-0.388-1.776-0.415-2.98-0.079c-0.737,0.206-1.433,0.523-1.943,0.807     c-0.01,4.737,5.007,38.686,7.253,46.952c2.329,8.577,19.165,30.333,31.537,38.201L634.964,183.854z"></path><path fill="#F0ADAD" d="M575.177,114.584c0.988-0.668,4.236-2.359,6.742-1.101c2.506,1.258,4.977,12.904,6.641,11.851     c1.664-1.052,5.711-1.988,7.283,1.294c1.572,3.281,3.096,11.08,3.096,11.08c2.803-3.525,7.202-2.013,7.923,1.348     c0.72,3.36,5.813,27.841,12.027,30.794c16.303,7.744,28.46,19.407,28.46,19.407l-43.87,0.863     c-7.296-9.292-19.019-19.08-21.49-28.18C579.806,153.899,574.189,115.252,575.177,114.584z"></path><path fill="#FFF" d="M647.35,189.256c-5.789-3.548-18.186-13.786-28.927-18.615c-5.923-2.663-12.287-28.602-12.866-31.306     c-0.172-0.804-0.649-1.476-1.341-1.895c-0.683-0.413-1.485-0.521-2.259-0.305c-0.719,0.201-1.401,0.686-1.971,1.403l-1.801,2.265     l-0.555-2.84c-0.015-0.077-1.51-7.67-2.99-10.759c-0.895-1.867-2.913-1.619-4.036-1.306c-0.497,0.139-0.981,0.344-1.328,0.564     c-0.148,0.094-0.307,0.165-0.472,0.211c0,0-0.001,0-0.001,0c-1.983,0.553-2.936-1.904-4.515-5.975     c-0.758-1.955-2.169-5.594-2.968-6.023c-0.774-0.388-1.776-0.415-2.98-0.079c-0.738,0.206-1.433,0.523-1.943,0.807     c-0.01,4.737,5.007,38.686,7.253,46.952c2.329,8.577,21.15,30.25,28.432,39.736L647.35,189.256z"></path><path fill="#F0ADAD" d="M586.353 125.358c0 0 .194 22.134 4.594 32.327 2.876 6.662 13.255 25.548 13.255 25.548S591.653 159.961 589.628 149c-1.767-9.564-1.377-22.844-1.377-22.844L586.353 125.358zM597.893 139.317c0 0-.346 9.811 1.909 17.601 1.271 4.389 5.522 11.981 10.406 21.112 0 0-8.286-17.272-9.623-22.303-1.954-7.352-1.304-16.798-1.304-16.798L597.893 139.317z"></path><path fill="#F263A6" d="M599.001 132.567c0 0-3.279 6.763-.919 13.86 0 0 2.744 1.426 4.023-.302C603.384 144.397 602.679 133.464 599.001 132.567zM587.987 119.74c0 0-2.925 6.729-1.261 13.792 0 0 3.085 1.494 4.364-.234C592.37 131.571 591.665 120.638 587.987 119.74zM575.56 110.271c0 0-2.688 7.019.272 13.888 0 0 2.856 1.186 3.982-.646C580.94 121.682 579.301 110.85 575.56 110.271zM562.572 104.482c0 0-2.319 7.149.994 13.855 0 0 2.914 1.036 3.943-.852C568.539 115.598 566.338 104.866 562.572 104.482z"></path><ellipse cx="660.128" cy="847.144" fill="#E0D5EB" rx="517.545" ry="46.825"></ellipse><path fill="#FC62A7" d="M665.94,858.549c6.637,0.177,16.908-3.939,19.479-15.238c4.666-20.504,23.076-28.541,27.548-26.1         c4.884,5.621,0.132,28.865-4.002,42.765l11.715,0.627c-0.185-2.577-1.187-22.033,1.566-35.672         c0.396-1.967,0.781-3.807,1.157-5.454l0.004-0.064c0.674-2.913,1.2-5.257,1.629-6.836c2.35-8.659,0.849-19.49,0.849-19.49         c-0.061,0.062-12.726-1.559-12.787-1.499c-9.694,4.258-23.82,8.601-35.947,21.776c-2.295,2.493-4.413,5.714-7.374,8.562         c-12.423,11.801-31.664,20.331-33.161,27.753C634.74,858.877,653.025,858.205,665.94,858.549z"></path><path fill="#FAB9A0" d="M660.128,830.197c20.326,25.349,22.786-6.615,45.046-16.032c10.53-4.455,20.023-10.958,21.099-16.071    c0.428-14.479-5.998-19.638,4.003-55.312c0,0-37.205,10.44-36.6,32.399C694.364,800.104,673.149,813.693,660.128,830.197z"></path><path fill="#FC62A7" d="M671.438,817.236c0,0,9.59,10.802,16.931,12.343l-3.297,4.697c0,0-15.83-7.306-16.457-13.473    L671.438,817.236z"></path><g><path fill="#55207D" d="M439.346,857.842H294.748l0,0c0-11.804,9.569-21.373,21.373-21.373h101.852     C429.777,836.469,439.346,846.038,439.346,857.842L439.346,857.842z"></path><path fill="#55207D" d="M405.209,836.469c-21.955,0-43.908,0-65.861,0c17.408-42.75,21.238-86.223,21.659-129.696     c-0.421-43.473-4.251-86.946-21.659-129.696c21.953,0,43.908,0,65.861,0c-17.407,42.75-21.238,86.223-21.659,129.696     C383.971,750.247,387.801,793.72,405.209,836.469z"></path><path fill="#A8AAAB" d="M347.884,577.078c-2.845,0-5.691,0-8.536,0c17.409,42.749,21.238,86.222,21.66,129.696     c-0.421,43.473-4.251,86.946-21.66,129.696c2.845,0,5.691,0,8.536,0c17.408-42.75,21.238-86.223,21.66-129.696     C369.122,663.3,365.292,619.827,347.884,577.078z"></path><path fill="#55207D" d="M557.312,586.595c0,23.023-55.517,41.656-127.154,41.656s-132.266-30.307-132.266-53.33     c0-23.023,58.073-30.012,129.71-30.012S557.312,563.572,557.312,586.595z"></path><path fill="#55207D" d="M446.238,506.154c-45.354-40.192-94.467-142.635-142.484-143.352     c-54.264-0.81-71.275,190.81-12.377,238.918l162.796,4.937C454.174,606.657,491.593,546.346,446.238,506.154z"></path><path fill="#FAB9A0" d="M627.641,855.801c-1.729,3.494-44.772,2.404-50.678,1.632c-5.904-0.772-22.78,4.309-31.191,1.185     c-8.426-3.123-2.223-14.142-1.195-23.734c0.012-0.059,0.01-0.103,0.022-0.162l-0.003-0.073     c4.079-5.746,0.034-34.346,0.034-34.346l25.578-0.13c0.313,3.232-4.084,19.205,2.097,27.631     c5.714,7.789,19.75,8.017,26.278,9.409c0,0,0.724,0.148,1.95,0.41c0.414,0.087,0.812,0.174,1.226,0.261     c0.606,0.124,1.285,0.273,1.993,0.423c0.383,0.059,0.753,0.147,1.138,0.235c2.805,0.567,5.478,1.125,7.888,1.678     c1.907,0.44,3.638,0.888,5.148,1.328C631.693,845.611,629.369,852.308,627.641,855.801z"></path><path fill="#D13D3D" d="M627.641,855.801c-6.248,5.255-44.772,2.404-50.678,1.632c-5.904-0.772-22.712,4.12-31.191,1.185     c-9.435-3.266-5.335-14.584-1.195-23.734c0.012-0.059,0.01-0.103,0.022-0.162c0.167,4.404,4.485,11.496,12.199,12.492     c10.381,1.32,39.67,2.848,44.112-2.15c4.307-4.846-2.327-7.851-2.327-7.851s0.724,0.148,1.95,0.41     c0.369,0.074,0.783,0.161,1.226,0.261c0.606,0.124,1.285,0.273,1.993,0.423c0.369,0.074,0.739,0.162,1.138,0.235     c2.318,0.498,5.08,1.081,7.888,1.678c1.907,0.44,3.638,0.888,5.148,1.328C631.693,845.611,630.624,853.293,627.641,855.801z"></path><path fill="#873C29" d="M383.553,141.977c10.519-0.213,20.212,13.43,20.212,13.43c1.367,16.021-4.095,27.497-18.131,34.738    c0,0-15.836-1.438-22.189-9.938C353.251,166.568,365.535,142.342,383.553,141.977z"></path><path fill="#873C29" d="M366.538 150.602c3.534-4.966 8.158-9.772 15.62-10.631 3.152-.363 6.688-.02 10.06 1.283 3.399 1.313 6.378 3.548 8.567 6.269 2.445 3.039 3.947 6.625 4.11 9.875.034.668-1.169.529-1.235-.158-.53-5.482-4.286-11.765-10.846-14.731-6.797-3.073-13.695-1.728-18.368 1.191-3.046 1.902-5.392 4.465-7.518 7.133C366.796 150.998 366.412 150.78 366.538 150.602zM363.506 181.964c-1.36-2.094-1.905-4.119-1.768-6.19.006-.093.175-.031.173.06-.102 5.17 5.478 10.427 11.13 12.744 6.592 2.703 12.995 2.37 19.132 1.903.91-.07 1.465 1.229.552 1.295-5.214.374-10.764.454-16.363-1.15C371.339 189.187 366.287 186.243 363.506 181.964z"></path><ellipse cx="432.177" cy="199.214" fill="#873C29" rx="61.949" ry="55.847" transform="rotate(-81.32 432.2 199.223)"></ellipse><path fill="#EB9D7F" d="M608.607,343.082c0.524-1.509-6.87-9.796-8.22-10.925c-3.722-3.114-17.694-2.553-17.694-2.553    l-1.025,16.799c3.149-3.384,12.53-10.455,14.026-10.572C598.144,335.64,607.314,346.81,608.607,343.082z"></path><path fill="#FAB9A0" d="M601.581 345.743c2.05-.879-3.135-1.472-7.103-2.18-3.968-.708-9.932 3.237-10.814 2.024-2.019-2.778 4.862-8.659 9.73-12.645 10.199-5.613 18.167-2.355 22.281-7.131 2.922-3.392-13.192-2.931-20.796-2.194-8.386.813-11.953 3.3-16.802 4.72-6.62 1.939-11.938 10.423-18.359 20.692l8.939 12.324C579.457 361.117 595.557 348.327 601.581 345.743zM456.762 288.807c22.039 7.039 49.695 80.156 61.861 112.553l-.592 27.923c-33.799 2.923-66.373-55.39-69.43-99.285L456.762 288.807z"></path><path fill="#FFBB59" d="M505.135,359.505c-10.241,18.516-35.058,28.054-47.263,28.005c0,0-46.544-63.17-36.697-86.357    c3.307-7.788,18.784-21.153,34.654-13.666C473.163,295.664,490.218,328.966,505.135,359.505z"></path><path fill="#FAB9A0" d="M482.362,409.372l25.809,15.978c17.65-2.415,61.831-62.737,61.705-64.068L559.72,349.03L482.362,409.372z"></path><path fill="#B81F1F" d="M573.841,812.043c-8.531,5.149-18.927,6.494-31.657,3.073c1.36-54.259-27.647-147.101,0.163-209.766    c0.301-0.677-13.538-62.654,28.879-44.016C591.567,586.565,571.469,749.07,573.841,812.043z"></path><path fill="#B81F1F" d="M575.228,573.58c-6.222,7.245-5.555,58.434-14.608,52.208c-45.763-31.469-148.346-37.117-187.244-105.659    c-16.901-29.781-7.917-55.804,21.913-60.941C454.098,478.318,573.852,537.084,575.228,573.58z"></path><path fill="#D13D3D" d="M552.708,586.58c-5.823,7.568-35.686,37.349-45.036,31.585c-47.262-29.134-198.196-33.73-179.225-124.077    c2.026-9.65,7.603-23.506,10.65-24.794c9.142-3.864,23.463,26.486,45.563,21.481C386.862,490.339,542.366,542.809,552.708,586.58z    "></path><path fill="#FFA82B" d="M461.399,392.254c-9.519,24.608-19.497,46.729-18.941,57.527c0.907,18.395,12.592,32.596,12.592,32.596    c-6.34,16.015-24.589,23.789-43.94,25.35c-6.018,0.488-12.143,0.38-18.044-0.273c-24.91-2.75-46.827-12.163-59.243-35.386    c0,0,15.128-14.309,20.014-32.07c6.876-24.677-3.57-47.168-10.661-84.807c-7.003-37.181,15.255-63.096,30.187-71.152    c13.899-7.501,17.635-8.554,20.053-9.861l23.272,2.731L440,279.317c16.483,5.803,23.886,13.645,29.641,20.531    C486.612,320.165,474.44,358.545,461.399,392.254z"></path><path fill="#E6CAA1" d="M442.458,449.78c0.907,18.395,12.592,32.596,12.592,32.596c-6.34,16.015-24.589,23.789-43.94,25.35    c-0.839-0.176-1.287-0.273-1.287-0.273s-2.546,2.604,6.886-16.22c9.432-18.834,15.771-72.793,0-79.465    c-15.645-6.623-55.155-34.782-57.139-71.04l101.83,51.525C451.879,416.862,441.902,438.983,442.458,449.78z"></path><path fill="#FFD0BD" d="M440,279.327c-1.122,27.144-16.63,25.671-46.583-5.15c2.848-1.258,6.935-4.155,10.553-8.388    c0,0,0,0,0.01-0.01c4.243-4.965,7.832-11.792,8.027-20.024l20.034,8.378l5.686,2.38c-1.707,3.375-3.17,6.603-4.057,9.519    C431.66,272.626,432.548,277.649,440,279.327z"></path><path fill="#EBCDC1" d="M433.67,266.033c0,0-12.963,0.078-17.742-2.594c-4.652-2.604-11.607,2.107-11.948,2.341    c4.243-4.965,7.832-11.792,8.027-20.024l20.034,8.378L433.67,266.033z"></path><path fill="#FFD0BA" d="M391.65,198.26c2.829-2.84,6.85-1.399,10.059,0.64c2.974,1.89,4.403,4.826,3.485,7.451     c-2.211,6.318,1.633,13.86,1.986,20.791C383.805,223.007,386.209,203.724,391.65,198.26z"></path><path fill="#EDD6C7" d="M394.633,203.905c1.759-0.391,4.198,0.2,4.945,1.651c0.328,0.637-0.803,1.029-1.249,0.396     c-0.343-0.487-1.045-0.793-1.75-0.722c-0.624,0.062-1.209,0.507-1.531,0.881c-0.982,1.14-0.32,2.771,0.215,4.045     c0.533,1.272,1.292,2.516,2.209,3.683c0.975,1.24,2.389,2.256,3.369,3.478c0.931,1.162-1.14,2.389-2.522,1.523     c-1.066-0.667-1.815-1.595-2.538-2.463c-0.67-0.804-1.262-1.644-1.78-2.5c-1.061-1.755-1.906-3.666-2.135-5.539     C391.663,206.674,392.272,204.43,394.633,203.905z"></path><path fill="#FFD6C9" d="M401.018,194.785c-5.57,36.488,8.412,67.424,36.91,71.774c27.117,4.139,51.862-22.799,55.325-61.161    c3.318-36.761-10.219-57.796-38.716-62.146C426.039,138.903,406.588,158.298,401.018,194.785z"></path><path fill="#EDD6C7" d="M459.073,226.608c-0.614-3.435-3.183-5.12-2.556-13.915c-2.098,4.988-0.492,12.003,0.075,14.935     c1.148,5.943-8.564,3.482-5.741,4.547C454.263,233.464,460.292,233.423,459.073,226.608z"></path><path fill="#943F27" d="M470.651,204.459c7.809-2.867,15.521,4.649,15.543,7.759c0.006,0.818-0.572-0.067-3.466-2.723     c-2.147-1.904-6.671-2.968-9.477-2.567C470.33,207.344,466.885,206.047,470.651,204.459z"></path><path fill="#942525" d="M436.095,238.544c-0.505,2.342,0.03,4.691,1.323,6.619c1.385,2.085,3.643,3.683,6.402,4.278       c2.963,0.639,5.873-0.016,8.046-1.563c1.738-1.229,3.013-3.027,3.478-5.182c1.052-4.876-5.92-2.536-9.515-3.312       C442.828,238.737,437.147,233.669,436.095,238.544z"></path><path fill="#FF7878" d="M437.418,245.163c1.385,2.085,3.643,3.683,6.402,4.278c2.963,0.639,5.873-0.016,8.046-1.563       c-1.134-1.768-3.526-3.292-6.489-3.931C442.161,243.255,439.128,243.791,437.418,245.163z"></path><path fill="#943F27" d="M464.038,217.25c0.254,5.699,15.282,8.249,17.849,6.919c0.14-0.075,0.28-0.15,0.409-0.226      c0.01,0.002,0.012-0.009,0.012-0.009c1.361-1.557,2.793-4.42,2.793-4.42s-2.311-3.295-3.689-4.361      c-0.021-0.003-0.028-0.026-0.058-0.041c-0.346-0.256-1.704-1.244-3.61-2.07c-2.622-1.117-6.283-1.943-9.726-0.137      c-0.395,0.207-2.743,1.432-3.905,3.502C464.052,216.674,464.029,216.959,464.038,217.25z"></path><path fill="#FFF" d="M463.446,218.539c-0.291,4.01,4.699,7.276,8.521,8.169c0.382,0.091,1.47,0.321,2.911,0.273      c1.34-0.02,2.977-0.294,4.655-1.13c0.218-0.095,1.052-0.513,1.989-1.183c0.251-0.176,0.514-0.424,0.774-0.727      c0.01,0.002,0.012-0.009,0.012-0.009c1.361-1.557,2.793-4.42,2.793-4.42s-2.311-3.295-3.689-4.361      c-0.021-0.003-0.028-0.026-0.058-0.041c-0.346-0.256-1.704-1.244-3.61-2.07c-2.622-1.117-6.283-1.943-9.726-0.137      c-0.395,0.207-2.743,1.432-3.905,3.502C463.75,217.035,463.501,217.756,463.446,218.539z"></path><circle cx="473.844" cy="219.36" r="7.654" fill="#B56953"></circle><circle cx="474.048" cy="219.124" r="4.728" fill="#2E130C"></circle><circle cx="471.204" cy="215.935" r="1.182" fill="#FFF"></circle><circle cx="469.311" cy="219.593" r=".66" fill="#FFF"></circle><path fill="#943F27" d="M464.114,216.405c1.161-2.07,3.509-3.295,3.905-3.502c3.443-1.807,7.104-0.98,9.726,0.137      c1.907,0.826,3.264,1.814,3.61,2.07c0.03,0.015,0.037,0.038,0.058,0.041c1.378,1.066,3.689,4.361,3.689,4.361      s-1.432,2.863-2.793,4.42c0.895-0.537,1.406-1.08,1.406-1.08c0.231-0.254,0.675-0.774,1.133-1.464      c0.571-0.865,0.709-1.283,1.034-1.308c0.271-0.023,0.843,2.397,3.754,2.392c0.247-0.005,0.56-0.235,0.56-0.235      c-1.166,0.068-2.8-1.562-4.442-4.615c-4.438-8.284-15.615-9.99-20.397-3.616C464.929,214.572,464.309,215.408,464.114,216.405z"></path><g><path fill="#943F27" d="M443.659,214.019c-1.942,5.363-17.047,3.314-19.1,1.279c-0.111-0.113-0.222-0.226-0.323-0.338      c-0.01-0.002-0.009-0.012-0.009-0.012c-0.835-1.893-1.347-5.052-1.347-5.052s3.189-2.455,4.822-3.062      c0.021,0.003,0.035-0.016,0.068-0.022c0.407-0.141,1.997-0.679,4.064-0.899c2.836-0.284,6.577,0.02,9.324,2.771      c0.315,0.316,2.191,2.185,2.682,4.507C443.818,213.466,443.754,213.745,443.659,214.019z"></path><path fill="#FFF" d="M443.84,215.427c-0.919,3.915-6.656,5.543-10.57,5.255c-0.392-0.027-1.499-0.132-2.86-0.608      c-1.273-0.419-2.753-1.169-4.106-2.467c-0.179-0.156-0.851-0.804-1.545-1.723c-0.188-0.243-0.364-0.558-0.522-0.925      c-0.01-0.002-0.009-0.012-0.009-0.012c-0.835-1.893-1.347-5.052-1.347-5.052s3.189-2.455,4.822-3.062      c0.021,0.003,0.035-0.016,0.068-0.022c0.407-0.141,1.997-0.679,4.064-0.899c2.836-0.284,6.577,0.02,9.324,2.771      c0.315,0.316,2.191,2.185,2.682,4.507C443.998,213.9,444.021,214.663,443.84,215.427z"></path><circle cx="433.671" cy="213.108" r="7.654" fill="#B56953"></circle><circle cx="433.546" cy="212.822" r="4.728" fill="#2E130C"></circle><circle cx="437.212" cy="210.626" r="1.182" fill="#FFF"></circle><circle cx="437.928" cy="214.683" r=".66" fill="#FFF"></circle><path fill="#943F27" d="M443.839,213.191c-0.491-2.322-2.367-4.192-2.682-4.507c-2.747-2.752-6.488-3.055-9.324-2.771      c-2.066,0.22-3.657,0.758-4.064,0.899c-0.033,0.006-0.047,0.025-0.068,0.022c-1.633,0.607-4.822,3.062-4.822,3.062      s0.513,3.16,1.347,5.052c-0.694-0.78-1.02-1.45-1.02-1.45c-0.145-0.311-0.413-0.94-0.644-1.735      c-0.287-0.996-0.294-1.436-0.597-1.557c-0.252-0.102-1.52,2.036-4.297,1.163c-0.234-0.078-0.464-0.392-0.464-0.392      c1.093,0.413,3.139-0.655,5.616-3.08c6.708-6.583,17.884-4.877,20.547,2.634C443.608,211.198,443.95,212.181,443.839,213.191z"></path></g><path fill="#943F27" d="M442.167,199.697c-6.598-5.066-16.201-0.193-17.149,2.768c-0.249,0.779,0.566,0.106,4.12-1.565     c2.617-1.177,7.253-0.842,9.811,0.377C441.613,202.546,445.288,202.336,442.167,199.697z"></path><ellipse cx="427.291" cy="226.876" fill="#FFBBAD" rx="4.375" ry="9.002" transform="rotate(-77.83 427.291 226.885)"></ellipse><ellipse cx="472.588" cy="234.823" fill="#FFBBAD" rx="3.95" ry="8.126" transform="rotate(-77.83 472.588 234.833)"></ellipse><path fill="#FFF" d="M439.997,279.322c0,0,14.751,2.81,12.098,9.774s-11.885,21.381-24.474,10.812    c0,0-13.474,9.434-23.379,2.424c-4.463-3.159-18.02-14.618-19.656-20.761c-1.308-4.913,8.829-7.39,8.829-7.39    s22.909,21.086,32.594,19.492C441.161,291.179,439.997,279.322,439.997,279.322z"></path><g><path fill="#873C29" d="M455.004,141.019c-30.097-3.514-60.515,22.859-54.34,70.281c8.02-14.4,19.12-29.601,35.345-39.99     c0,0-4.297,11.26-6.762,15.229c15.376-0.479,38.561-0.012,42.511-19.517c1.334,9.104,21.592,34.844,23.662,28.568     C502.451,162.397,477.763,143.677,455.004,141.019z"></path><path fill="#873C29" d="M462.113 182.725c-4.163 3.164-9.357 4.786-14.469 5.645-.888.149-1.786.275-2.683.378 9.616-2.899 19.62-8.004 24.037-15.232C467.724 177.181 465.196 180.39 462.113 182.725zM480.567 188.874c-1.42-1.581-2.7-3.294-3.812-5.103-2.21-3.639-3.763-7.695-4.506-11.893-.253-1.456-.424-2.938-.493-4.42 2.609 7.663 6.552 16.966 10.13 22.77C481.433 189.794 480.992 189.35 480.567 188.874z"></path></g><g><path fill="#6E339C" d="M324.404,368.872c0,0-23.884-14.204-38.277,22.189c-14.393,36.392-18.973,105.6,3.271,129.009     c22.244,23.409,120.535,4.887,138.799,37.403s8.084,70.443,8.084,70.443c-0.505,2.468-137.278-7.333-155.389-35.075     C221.521,501.893,254.425,326.186,324.404,368.872z"></path><path fill="#D1D3D4" d="M428.197,557.472c-18.265-32.515-116.555-13.994-138.799-37.403     c-22.244-23.409-17.664-92.616-3.271-129.009c14.394-36.392,38.277-22.189,38.277-22.189c-2.187-1.334-4.338-2.455-6.45-3.371     c0,0,0,0,0,0c0,0-27.073-4.229-41.466,32.163c-14.393,36.392-14.404,103.577,7.84,126.986     c22.244,23.409,115.965,6.911,134.23,39.426c13.737,24.455,11.384,51.97,9.372,64.109c5.207,0.19,8.277,0.095,8.351-0.27     C436.281,627.915,446.462,589.988,428.197,557.472z"></path></g><g><path fill="#FAB9A0" d="M524.314,859.566c-2.422,3.055-33.008-6.502-38.621-8.493c-5.612-1.991-23.177-0.555-30.748-5.37     c-7.586-4.817,0.787-14.294,3.799-23.459c0.024-0.055,0.032-0.099,0.056-0.154l0.013-0.072     c5.192-4.765,7.222-33.578,7.222-33.578l25.039,5.226c-0.37,3.226-8.014,17.925-3.733,27.458     c3.957,8.812,17.634,11.973,23.726,14.701c0,0,0.677,0.297,1.821,0.809c0.387,0.171,0.758,0.34,1.144,0.512     c0.566,0.248,1.2,0.536,1.861,0.83c0.362,0.138,0.705,0.301,1.063,0.468c2.624,1.142,5.122,2.247,7.362,3.292     c1.772,0.83,3.372,1.63,4.756,2.376C541.684,850.969,526.734,856.512,524.314,859.566z"></path><path fill="#D13D3D" d="M523.504,860.005c-13.542,1.703-35.536-4.969-41.149-6.96c-5.612-1.991-19.735-2.697-27.412-7.342     c-8.543-5.169-2.164-15.377,3.799-23.459c0.024-0.055,0.032-0.099,0.056-0.154c-0.758,4.342,1.979,12.18,9.314,14.769     c9.874,3.463,38.195,11.088,43.585,7.131c5.226-3.837-0.633-8.164-0.633-8.164s0.677,0.297,1.821,0.809     c0.345,0.15,0.732,0.321,1.144,0.512c0.566,0.248,1.2,0.536,1.861,0.83c0.345,0.149,0.688,0.313,1.063,0.468     c2.163,0.972,4.742,2.121,7.362,3.292c1.772,0.83,3.372,1.63,4.756,2.376C541.684,850.969,533.177,858.789,523.504,860.005z"></path></g><path fill="#D13D3D" d="M492.139,806.035c-9.42,3.25-19.867,2.389-31.599-3.621c12.687-52.772,3.756-149.63,44.066-205.085    c0.436-0.599,7.91-44.49,45.486-17.386C570.575,607.997,503.001,743.961,492.139,806.035z"></path><g><path fill="#6E339C" d="M609.639,352.002l8.752,1.24l0.259,0.037c0.584,0.083,0.948-0.615,0.545-1.046l-6.555-7.025     c0,0-0.017,0.008-0.05,0.023c-0.132,0.063-0.513,0.257-0.978,0.614c-0.086,0.066-0.176,0.139-0.267,0.216     c-1.054,0.901-2.353,2.581-2.244,5.354C609.113,351.713,609.342,351.96,609.639,352.002z"></path><polygon fill="#6E339C" points="568.763 330.893 571.448 325.741 572.267 324.17 612.623 345.199 612.64 345.207 612.127 346.194 612.123 346.201 612.018 346.403 609.137 351.931"></polygon><path fill="#9354C4" d="M561.969,331.682l6.811-0.819l1.596-3.064l1.874-3.597l-0.061-0.115l-3.169-5.936l-8.723-3.249     l-1.288,2.472l-1.845,3.541l-2.855,5.479L561.969,331.682z M558.669,323.243c0,0-0.487-0.736-0.037-1.563     c0,0,0.369-0.874,1.534-0.868c0,0,0.977-0.014,1.415,1.04c0,0,0.276,0.68-0.077,1.325c0,0-0.376,0.886-1.513,0.869     C559.99,324.045,559.112,324.02,558.669,323.243z"></path><polygon fill="#939598" points="559.008 317.374 560.296 314.902 569.02 318.151 572.188 324.087"></polygon><polygon fill="#BCBEC0" points="571.448 325.741 572.267 324.17 612.623 345.199 612.64 345.207 612.127 346.194 612.123 346.201 612.018 346.403 611.345 346.06"></polygon></g><path fill="#FAB9A0" d="M597.151,342.459c-4.413,0.122-11.141,2.974-11.141,2.974l6.471,5.625    c4.143-3.069,10.457-3.612,11.603-5.093C605.229,344.483,601.565,342.337,597.151,342.459z"></path><path fill="#EB9D7F" d="M595.695,335.831c1.542-0.127,11.331,9.905,12.923,7.951c1.866-2.29-6.613-10.014-6.613-10.014    L595.695,335.831z"></path></g><g><path fill="#6E339C" d="M741.074,464.373l-33.483,30.007H565.374l-33.483-30.007l-3.93,7.048l105.118,94.204v292.064h6.808    V565.625l105.116-94.204L741.074,464.373z M636.483,558.106l-63.257-56.689h126.512L636.483,558.106z"></path><path fill="#9C4DD9" d="M833.927,452.932c0,16.679-89.492,30.2-199.887,30.2s-199.887-13.521-199.887-30.2    c0-1.562-0.889-13.242,0.624-14.74c14.645-14.499,99.205-15.46,199.263-15.46c102.432,0,187.247,2.362,198.894,17.365    C833.84,441.263,833.927,451.729,833.927,452.932z"></path><ellipse cx="634.04" cy="440.591" fill="#6E339C" rx="199.887" ry="30.2"></ellipse><path fill="#6E339C" d="M674.847,853.045h-72.665c-11.242,0-20.355,9.113-20.355,20.355h113.375    C695.202,862.159,686.089,853.045,674.847,853.045z"></path></g><ellipse cx="631.218" cy="450.883" fill="#C0B2D1" rx="44.811" ry="5.349"></ellipse><ellipse cx="497.128" cy="441.463" fill="#C0B2D1" rx="44.811" ry="5.349"></ellipse><ellipse cx="736.386" cy="452.932" fill="#C0B2D1" rx="44.811" ry="5.349"></ellipse><g><polygon fill="#5B2287" points="697.59 413.763 727.509 311.771 667.185 251.446 665.851 252.781 725.325 312.255 695.817 413.118"></polygon><polygon fill="#5B2287" points="702.306 411.876 732.226 309.884 671.901 249.56 670.568 250.894 730.042 310.368 700.534 411.231"></polygon><path fill="#5B2287" d="M734.791,311.541c0-3.843-3.116-6.959-6.959-6.959c-3.844,0-6.959,3.116-6.959,6.959     c0,3.844,3.115,6.96,6.959,6.96C731.675,318.5,734.791,315.384,734.791,311.541z"></path><path fill="#FFF" d="M731.167,311.541c0-1.841-1.493-3.334-3.335-3.334c-1.842,0-3.335,1.493-3.335,3.334     c0,1.842,1.493,3.335,3.335,3.335C729.674,314.876,731.167,313.383,731.167,311.541z"></path><path fill="#5B2287" d="M662.686,268.354l10.158-11.163c2.454-2.697,2.257-6.873-0.44-9.328l0,0    c-2.697-2.454-6.873-2.257-9.327,0.44l-10.158,11.163L662.686,268.354z"></path><path fill="#D13D3D" d="M667.328,297.87l-14.816,16.279l-14.777-13.45l-26.344-23.974l14.806-16.279    c5.492-6.028,13.021-9.09,20.571-9.09c6.681,0,13.372,2.39,18.708,7.237c1.141,1.034,2.165,2.146,3.082,3.306c0,0,0,0,0.01,0.01    C676.887,272.393,676.623,287.648,667.328,297.87z"></path><path fill="#E6D7C1" d="M667.328,297.87l-14.816,16.279l-14.777-13.45c1.551-0.683,3.317-1.307,5.335-1.843    c39.053-10.485,25.847-36.274,25.496-36.947C676.887,272.393,676.623,287.648,667.328,297.87z"></path><path fill="#5B2287" d="M672.452,420.469h50.664l0,0c0-13.991-11.341-25.332-25.332-25.332l0,0    C683.793,395.137,672.452,406.479,672.452,420.469L672.452,420.469z"></path><path fill="#A82727" d="M652.346,314.46c-2.116,2.302-13.001-4.253-24.325-14.64c-11.324-10.388-18.795-20.678-16.678-22.979    c1.599-1.746,8.271,1.619,16.347,7.891c2.556,1.99,5.247,4.262,7.969,6.759c2.721,2.497,5.218,4.984,7.413,7.364    C650.016,306.355,653.946,312.714,652.346,314.46z"></path><path fill="#FFF" d="M643.071,298.855c-1.805,1.444-4.097,2.302-6.584,2.302c-5.833,0-10.563-4.73-10.563-10.573    c0-2.165,0.653-4.174,1.765-5.852c2.556,1.99,5.247,4.262,7.969,6.759C638.38,293.988,640.876,296.475,643.071,298.855z"></path><path fill="#BCBEC0" d="M624.873,267.242c12.101-7.127,23.342-11.877,32.187-9.992    C657.06,257.249,641.285,245.105,624.873,267.242z"></path></g><g><path fill="#CECFF0" d="M690.645,440.612c0-9.683,18.248-17.985,40.758-17.985c22.51,0,39.092,8.863,39.092,18.546    c0,9.683-15.167,14.66-37.677,14.66S690.645,450.295,690.645,440.612z"></path><path fill="#FFF" d="M767.205,442.469c-1.292,18.873-74.283,17.067-71.612-1.079     C694.612,418.234,769.777,421.21,767.205,442.469z"></path><path fill="#CECFF0" d="M718.892,454.994c-10.555-5.214,3.729-4.43,9.576-3.831c16.854,1.728,40.022-5.971,25.934-14.534     c-10.109-6.145-32.818-7.342-43.71-1.789c-19.458,9.92,38.273,19.025,40.575,8.459c1.619-7.433-22.556-8.724-32.537-6.526     c-15.385,3.388,7.933,10.569,19.427,8.358c9.529-1.832,6.469-4.534-0.952-5.507c-7.847-1.518-14.073,2.795-3.06,3.463     c-11.56-0.36-5.054-5.394,3.157-4.007c4.035,0.384,11.185,2.91,7.361,5.318c-7.998,5.037-40.693,0.958-31.95-7.089     c6.375-5.868,37.263-3.204,40.247,3.994c5.671,13.678-57.532,9.031-48.362-5.189c6.966-8.587,41.703-6.725,50.727-0.5     c14.251,9.83-7.67,18.367-26.92,15.971C723.024,450.916,711.79,449.981,718.892,454.994z"></path></g><g><path fill="#FFD0BD" d="M625.091,381.08c0.811,1.339-5.731,9.438-9.342,12.532c-3.611,3.094-15.126,9.687-15.126,9.687    l-8.548-9.467c6.985,1.429,18.606-3.023,19.328-4.304C611.609,389.164,623.089,377.772,625.091,381.08z"></path><path fill="#FFD0BD" d="M602.634 379.47c2.142.435.056 4.737-1.545 8.348-1.601 3.611-8.075 6.291-7.574 7.672 1.149 3.163 9.698.8 15.605-.968 10.151-5.204 11.875-13.462 18.009-14.184 4.357-.513-4.854 12.32-9.622 18.091-5.258 6.364-9.234 7.897-13.047 11.056-5.205 4.313-15.011 3.979-26.872 3.562l-5.106-14.017c6.114-8.639 18.112-9.025 24.508-16.558C598.643 380.526 600.492 379.035 602.634 379.47zM363.514 338.312c16.465 31.792 106.391 107.946 117.644 101.531 12.372-7.053 19.857-25.33 19.857-25.33s-94.001-96.154-108.487-102.091C357.927 298.24 355.19 322.239 363.514 338.312z"></path><path fill="#FFD0BD" d="M498.7,412.29l-30.914,23.431c27.376,18.404,77.615-7.897,111.805-22.537l-5.798-15.786L498.7,412.29z"></path><path fill="#FFBB59" d="M445.679,349.03c-6.504,14.544-33.766,40.052-46.304,41.754c0,0-47.304-36.545-46.565-61.22    c0.248-8.287,9.64-31.902,26.794-30.714C398.338,300.148,421.192,326.456,445.679,349.03z"></path></g><g><path fill="#55207D" d="M852.77 859.645h144.598l0 0c0-11.804-9.569-21.373-21.373-21.373H874.143C862.339 838.271 852.77 847.841 852.77 859.645L852.77 859.645zM886.907 838.271c21.955 0 43.908 0 65.861 0-17.408-42.75-21.238-86.223-21.659-129.696.421-43.473 4.251-86.946 21.659-129.696-21.953 0-43.908 0-65.861 0 17.407 42.75 21.238 86.223 21.659 129.696C908.145 752.049 904.315 795.522 886.907 838.271z"></path><path fill="#A8AAAB" d="M944.232,578.88c2.845,0,5.691,0,8.536,0c-17.409,42.749-21.238,86.223-21.66,129.696     c0.421,43.473,4.251,86.947,21.66,129.696c-2.845,0-5.691,0-8.536,0c-17.408-42.75-21.238-86.223-21.66-129.696     C922.994,665.102,926.824,621.629,944.232,578.88z"></path><path fill="#55207D" d="M734.805,588.397c0,23.023,55.517,41.656,127.154,41.656s132.266-30.307,132.266-53.33     s-58.073-30.012-129.71-30.012S734.805,565.374,734.805,588.397z"></path><path fill="#55207D" d="M845.878,507.956c45.354-40.192,94.467-142.635,142.484-143.352     c54.264-0.81,71.275,190.81,12.377,238.918l-162.797,4.937C837.943,608.459,800.524,548.148,845.878,507.956z"></path><path fill="#873C29" d="M836.53,272.03c9.87,10.594,78.565,1.439,86.261-7.06c0.567-0.626,1.1-1.322,1.605-2.076    c5.032-4.206,8.282-10.646,10.054-16.856c3.837-13.447,0.953-27.643-3.187-40.659c-1.817-5.712-3.823-11.385-6.021-16.985    c-4.893-17.944-12.667-33.176-22.442-38.225l-72.5,49.869C830.3,200.037,812.46,246.194,836.53,272.03z M927.074,257.617    c5.412-13.895,4.997-38.316,0.266-60.554c1.179,3.536,2.276,7.1,3.305,10.682c1.98,6.892,3.598,13.97,3.998,21.149    c0.345,6.184-0.253,12.445-2.204,18.342c-0.911,2.754-2.107,5.412-3.627,7.885C928.276,255.993,927.686,256.814,927.074,257.617z"></path><path fill="#FAB9A0" d="M607.259,388.726c-0.627-1.469,7.146-8.713,11.238-11.32c4.093-2.607,16.674-7.616,16.674-7.616    l7.277,10.793c-6.852-2.447-19.233,0.382-20.147,1.573C622.041,382.494,608.807,392.355,607.259,388.726z"></path><path fill="#FFD0BD" d="M626.433 395.694c-1.862-1.228 1.753-4.505 4.646-7.312 2.892-2.807 10.043-2.875 10.095-4.374.119-3.432-8.875-4.455-15.14-5.035-11.593 1.055-16.375 8.214-22.457 6.558-4.32-1.176 9.294-9.811 16.007-13.455 7.404-4.019 11.753-3.954 16.566-5.49 6.572-2.097 15.726 1.958 26.795 6.876l-.512 15.216c-9.082 5.846-20.586 1.636-29.514 6.327C630.614 396.217 628.295 396.923 626.433 395.694zM834.848 285.356c-33.427.118-58.324 63.018-81.855 91.113l-6.406 33.51c30.879 7.767 80.603-41.761 96.521-82.394L834.848 285.356z"></path><path fill="#FFD0BD" d="M752.993,376.469l1.664,34.321c-34.522-1.859-98.743-22.429-98.743-22.429l1.561-15.838L752.993,376.469z"></path><path fill="#FAB9A0" d="M691.732,806.334l25.436-6.33c4.545-43.98,55.889-164.608,28.423-230.366    c-0.306-0.732,15.288-34.716-31.942-19.565C681.229,584.568,701.228,739.541,691.732,806.334z"></path><path fill="#FAB9A0" d="M704.941,565.377c-4.536,19.455,4.209,59.275,4.209,59.275s154.477-23.044,199.973-94.097    c19.768-30.873,11.649-59.205-19.948-66.4C829.065,472.649,713.819,527.296,704.941,565.377z"></path><path fill="#FFD0BD" d="M831.234,780.006l22.615-9.659c-38.373-50.76-29.659-172.602-102.111-223.637    c-0.649-0.457-29.056,16.527-30.159,37.631C721.617,618.056,799.643,723.233,831.234,780.006z"></path><path fill="#FFD0BD" d="M722.682,576.2c5.793,8.423,20.625,47.592,30.95,41.964c52.188-28.448,220.132-15.217,205.009-112.884    c-1.615-10.432-6.786-25.563-9.97-27.114c-9.552-4.653-26.595,26.975-49.935,20.364    C896.406,497.939,736.237,529.998,722.682,576.2z"></path><path fill="#FFD0BD" d="M856,280.686l23.404-1.163l23.386-1.486c2.34,1.433,18.907,7.399,36.422,10.66    c16.688,3.107,31.657,24.426,15.486,74.028c-11.87,36.408-26.779,57.994-21.229,83.007c3.934,17.993,15.882,35.051,15.882,35.051    c-13.633,22.527-31.826,31.377-56.539,35.505c-25.02-1.311-45.966-8.967-62.055-29.811c0,0,11.815-17.381,13.693-35.703    c2.69-25.48-1.641-49.357-22.786-81.284c-20.411-30.817,10.076-83.94,10.076-83.94C835.404,284.817,843.503,286.335,856,280.686z"></path><path fill="#FC62A7" d="M933.667,433.755c-0.496,19.634,12.176,25.073,23.447,54.581c0,0-25.154,27.027-70.031,29.719    c-30.636,1.824-68.314-29.826-66.324-31.865c0,0,3.668-3.648,8.096-9.549c8.076-10.758,18.698-28.997,14.231-46.134    c-1.356-5.228-3.687-10.719-6.437-16.386c-11.207-23.106-29.534-49.363-18.951-74.576c12.426-29.602,51.928,4.106,51.928,4.106    c14.201-13.304,55.156-27.017,87.489,8.398C956.988,370.318,934.405,404.519,933.667,433.755z"></path><path fill="#E0AFD4" d="M947.527,364.602c0,0-16.386,82.076-44.74,91.625c-24.042,8.105-54.474,12.27-73.932,20.414    c8.076-10.758,18.698-28.997,14.231-46.134c-1.356-5.228,38.855-3.845,38.855-3.845L947.527,364.602z"></path><path fill="#FFD0BD" d="M902.787,278.04c-15.957,6.047-31.533,6.72-46.788,2.643c4.906-4.34,7.744-17.43,4.184-28.12l15.264-1.931    l13.44-1.697c-0.449,14.913,7.471,25.496,13.45,28.861C902.485,277.883,902.641,277.961,902.787,278.04z"></path><path fill="#EBCDC1" d="M882.675,266.495c-12.773,4.644-19.663-0.033-19.663-0.033l12.436-15.83l13.44-1.697    c-0.269,8.949,2.475,16.338,6.005,21.545C897.246,273.95,888.298,264.45,882.675,266.495z"></path><path fill="#FC62A7" d="M862.905,842.41c4.675-4.715,8.711-15.017,2.239-24.63c-11.744-17.444-4.99-36.362-0.148-37.948          c7.44,0.292,21.122,19.675,28.418,32.207l8.481-8.106c-2.005-1.63-16.866-14.226-24.918-25.574          c-1.163-1.636-2.238-3.177-3.181-4.578l-0.044-0.047c-1.661-2.486-3.008-4.475-3.865-5.869          c-4.699-7.643-13.619-13.968-13.619-13.968c0.004,0.086-9.853,8.205-9.85,8.29c-3.537,9.979-10.049,23.246-8.755,41.106          c0.245,3.38,1.141,7.129,1.188,11.237c0.089,17.135-6.874,36.996-2.492,43.17          C841.773,865.368,853.808,851.585,862.905,842.41z"></path><path fill="#FFD0BD" d="M838.267,827.226c32.392,2.553,10.787-21.133,19.173-43.802c3.967-10.724,5.73-22.095,2.742-26.381     c-10.256-10.229-15.455,1.294-28.342-29.627c0,0-12.126,26.08-4.385,46.638C833.568,790.29,837.503,806.111,838.267,827.226z"></path><path fill="#FC62A7" d="M836.57,810.108c0,0,14.439,0.412,20.59-3.882l1.164,5.619c0,0-16.165,6.529-21.088,2.762L836.57,810.108     z"></path><path fill="#FFD0BA" d="M921.203,200.822c-2.623-3.296-6.991-2.259-10.58-0.504c-3.327,1.627-5.161,4.527-4.508,7.375     c1.573,6.856-3.321,14.285-4.497,21.483C926.512,227.582,926.249,207.163,921.203,200.822z"></path><path fill="#EDD6C7" d="M917.43,206.37c-1.792-0.614-4.408-0.281-5.357,1.148c-0.416,0.627,0.719,1.168,1.258,0.56     c0.415-0.468,1.184-0.706,1.912-0.551c0.644,0.138,1.204,0.671,1.496,1.098c0.893,1.305,0.011,2.931-0.696,4.2     c-0.705,1.266-1.643,2.477-2.736,3.589c-1.162,1.182-2.758,2.078-3.924,3.24c-1.108,1.105,0.913,2.627,2.456,1.885     c1.191-0.572,2.081-1.454,2.938-2.276c0.793-0.762,1.51-1.57,2.15-2.404c1.313-1.71,2.418-3.607,2.876-5.536     C920.21,209.608,919.835,207.194,917.43,206.37z"></path><path fill="#FFD6C9" d="M911.862,197.031c0.184,34.435-18.579,68.211-48.849,69.433c-28.803,1.163-49.367-30.619-50.931-69.376    s19.461-55.792,49.731-57.013C892.082,138.852,911.676,162.247,911.862,197.031z"></path><g><path fill="#EDD6C7" d="M853.836,220.512c1.018-3.294,3.741-4.635,4.19-13.334c1.453,5.145-0.971,11.828-1.881,14.635     c-1.845,5.689,7.976,4.45,5.079,5.154C857.722,227.817,851.816,227.047,853.836,220.512z"></path><path fill="#873C29" d="M841.464,197.685c-7.31-3.757-15.781,2.679-16.178,5.726c-0.105,0.801,0.569,0.003,3.728-2.251     c2.336-1.607,6.901-2.102,9.603-1.37C841.43,200.552,844.965,199.698,841.464,197.685z"></path><path fill="#942525" d="M869.067,236.904c0.096,2.365-0.822,4.561-2.407,6.219c-1.7,1.795-4.169,2.969-6.955,3.082       c-2.992,0.121-5.713-1.009-7.568-2.881c-1.484-1.49-2.421-3.455-2.509-5.632c-0.199-4.923,6.191-1.468,9.821-1.615       C862.481,235.953,868.868,231.98,869.067,236.904z"></path><path fill="#FF7878" d="M866.66,243.122c-1.7,1.795-4.169,2.969-6.955,3.082c-2.992,0.121-5.713-1.009-7.568-2.881       c1.402-1.529,3.989-2.608,6.98-2.729C862.366,240.462,865.227,241.498,866.66,243.122z"></path><path fill="#873C29" d="M846.4,211.026c-0.938,5.557-15.982,6.238-18.338,4.623c-0.128-0.09-0.256-0.181-0.374-0.272      c-0.01,0-0.011-0.01-0.011-0.01c-1.146-1.692-2.204-4.672-2.204-4.672s2.665-2.951,4.145-3.83      c0.021-0.001,0.031-0.022,0.062-0.033c0.37-0.209,1.821-1.014,3.791-1.593c2.706-0.778,6.396-1.145,9.553,1.044      c0.362,0.251,2.516,1.736,3.404,3.906C846.456,210.46,846.444,210.743,846.4,211.026z"></path><path fill="#FFF" d="M846.825,212.363c-0.2,3.967-5.488,6.565-9.344,6.978c-0.385,0.043-1.48,0.137-2.887-0.084      c-1.312-0.182-2.883-0.649-4.428-1.671c-0.202-0.12-0.969-0.631-1.807-1.401c-0.225-0.203-0.453-0.478-0.671-0.807      c-0.01,0-0.011-0.01-0.011-0.01c-1.146-1.692-2.204-4.672-2.204-4.672s2.665-2.951,4.145-3.83      c0.021-0.001,0.031-0.022,0.062-0.033c0.37-0.209,1.821-1.014,3.791-1.593c2.706-0.778,6.396-1.145,9.553,1.044      c0.362,0.251,2.516,1.736,3.404,3.906C846.708,210.85,846.865,211.588,846.825,212.363z"></path><circle cx="836.53" cy="211.908" r="7.562" fill="#B56953"></circle><circle cx="836.358" cy="211.652" r="4.671" fill="#2E130C"></circle><circle cx="839.533" cy="208.87" r="1.168" fill="#FFF"></circle><circle cx="840.946" cy="212.686" r=".652" fill="#FFF"></circle><path fill="#873C29" d="M846.428,210.189c-0.888-2.17-3.042-3.655-3.404-3.906c-3.157-2.188-6.847-1.821-9.553-1.044      c-1.969,0.579-3.42,1.384-3.791,1.593c-0.031,0.011-0.041,0.033-0.062,0.033c-1.48,0.879-4.145,3.83-4.145,3.83      s1.058,2.98,2.204,4.672c-0.813-0.635-1.248-1.229-1.248-1.229c-0.196-0.277-0.568-0.841-0.933-1.573      c-0.455-0.917-0.54-1.343-0.856-1.408c-0.263-0.055-1.117,2.248-3.97,1.891c-0.241-0.035-0.521-0.298-0.521-0.298      c1.135,0.208,2.935-1.192,4.914-3.988c5.354-7.585,16.519-7.905,20.436-1.077C845.851,208.293,846.357,209.188,846.428,210.189z      "></path><g><path fill="#873C29" d="M871.426,210.12c1.255,5.494,16.313,5.313,18.573,3.566c0.122-0.098,0.245-0.195,0.357-0.292      c0.01,0,0.01-0.011,0.01-0.011c1.047-1.755,1.933-4.791,1.933-4.791s-2.829-2.794-4.357-3.586      c-0.021,0.001-0.032-0.02-0.064-0.03c-0.382-0.188-1.876-0.908-3.875-1.373c-2.746-0.622-6.451-0.777-9.477,1.589      c-0.347,0.271-2.413,1.877-3.175,4.095C871.337,209.558,871.366,209.84,871.426,210.12z"></path><path fill="#FFF" d="M871.079,211.479c0.427,3.95,5.855,6.24,9.728,6.432c0.387,0.021,1.486,0.052,2.878-0.25      c1.299-0.257,2.841-0.813,4.325-1.922c0.195-0.131,0.932-0.685,1.724-1.502c0.213-0.215,0.424-0.503,0.624-0.844      c0.01,0,0.01-0.011,0.01-0.011c1.047-1.755,1.933-4.791,1.933-4.791s-2.829-2.794-4.357-3.586      c-0.021,0.001-0.032-0.02-0.064-0.03c-0.382-0.188-1.876-0.908-3.875-1.373c-2.746-0.622-6.451-0.777-9.477,1.589      c-0.347,0.271-2.413,1.877-3.175,4.095C871.108,209.962,870.994,210.708,871.079,211.479z"></path><circle cx="881.33" cy="210.436" r="7.562" fill="#B56953"></circle><circle cx="881.487" cy="210.171" r="4.671" fill="#2E130C"></circle><circle cx="878.158" cy="207.574" r="1.168" fill="#FFF"></circle><circle cx="876.966" cy="211.465" r=".652" fill="#FFF"></circle><path fill="#873C29" d="M871.35,209.286c0.762-2.217,2.828-3.823,3.175-4.095c3.026-2.365,6.731-2.21,9.477-1.589      c1.999,0.465,3.494,1.186,3.875,1.373c0.032,0.01,0.043,0.03,0.064,0.03c1.528,0.793,4.357,3.586,4.357,3.586      s-0.885,3.036-1.933,4.791c0.775-0.681,1.176-1.298,1.176-1.298c0.18-0.287,0.519-0.872,0.842-1.623      c0.402-0.942,0.462-1.372,0.774-1.454c0.259-0.07,1.244,2.181,4.072,1.66c0.239-0.048,0.503-0.328,0.503-0.328      c-1.121,0.273-2.998-1.022-5.134-3.7c-5.78-7.266-16.945-6.947-20.465,0.095C871.818,207.36,871.363,208.283,871.35,209.286z"></path></g><path fill="#873C29" d="M874.623,196.258c7.083-4.169,15.908,1.772,16.48,4.79c0.15,0.794-0.568,0.036-3.85-2.034     c-2.424-1.471-7.01-1.704-9.665-0.818C874.821,199.119,871.243,198.468,874.623,196.258z"></path><ellipse cx="883.945" cy="227.558" fill="#FFBBAD" rx="8.894" ry="4.322" transform="rotate(-1.621 884.836 227.477)"></ellipse><ellipse cx="831.142" cy="229.07" fill="#FFBBAD" rx="8.894" ry="4.322" transform="rotate(-1.621 831.986 229.007)"></ellipse></g><path fill="#873C29" d="M814.25,220.892c6.127-39.369,38.872-22.254,45.089-54.643c0.848,2.694,1.506,5.448,2.644,8.046    c2.157,4.924,5.514,8.882,10.31,11.388c2.351,1.228,4.875,2.092,7.432,2.778c0.433,0.116,0.875,0.233,1.316,0.349    c14.585,10.391,30.156,21.772,24.068,39.971c17.288-31.831,16.009-61.378-0.358-77.84c-8.98-9.032-23.296-18.281-46.603-10.825    c-17.056-3.967-32.013,6.208-39.058,18.406C805.912,181.338,806.664,204.907,814.25,220.892z M861.768,171.796    c3.233,5.239,9.462,9.989,16.269,14.869c-4.509-1.362-8.867-3.48-11.921-7.172c-1.72-2.079-2.961-4.468-4.03-6.933    C861.977,172.308,861.875,172.051,861.768,171.796z"></path><path fill="#FC62A7" d="M831.165 473.436l125.951 14.896c4.5 7.733 19.422 62.408-25.879 88.89-45.301 26.482-110.768 23.076-110.768 23.076l-8.732-11.916 52.778-37.739-62.85 18.193c0 0-51.906-34.858-72.507-34.257C769.5 496.749 795.465 500.514 831.165 473.436zM925.9 285.712l7.767 1.86c0 0-16.533 7.833-27.246 46.771l-10.009 1.962C896.412 336.304 899.513 307.415 925.9 285.712zM839.445 285.273l9.425-1.9c-20.003 21.717-20.678 45.433-20.678 45.433l-8.64 7.146C820.304 305.49 839.445 285.273 839.445 285.273z"></path><g><path fill="#6E339C" d="M967.712,370.674c0,0,23.884-14.204,38.277,22.189s18.973,105.6-3.271,129.009     c-22.244,23.409-120.535,4.887-138.799,37.403c-18.265,32.515-8.084,70.443-8.084,70.443     c0.505,2.468,137.278-7.333,155.389-35.075C1070.595,503.695,1037.692,327.988,967.712,370.674z"></path><path fill="#D1D3D4" d="M863.919,559.275c18.265-32.515,116.555-13.994,138.799-37.403     c22.244-23.409,17.664-92.616,3.271-129.009c-14.393-36.392-38.277-22.189-38.277-22.189c2.187-1.334,4.338-2.455,6.45-3.371     c0,0,0,0,0,0c0,0,27.073-4.229,41.466,32.163s14.404,103.577-7.84,126.986c-22.244,23.409-115.965,6.911-134.23,39.426     c-13.737,24.455-11.384,51.97-9.372,64.109c-5.207,0.19-8.277,0.095-8.351-0.27C855.835,629.717,845.654,591.79,863.919,559.275z     "></path></g></g><g><path fill="#FFD0BD" d="M957.116 352.051c.238-.259-50.028 89.825-64.753 92.871-14.232 2.944-20.96-25.726-20.96-25.726 19.766-32.608 24.146-67.626 42.934-107.655C935.911 313.844 959.383 317.908 957.116 352.051zM744.732 431.939c-5.151-6.163-8.979-5.737-15.602-7.049-12.491-.157-18.386 6.954-24.695 4.514-4.48-1.733 11.005-9.443 18.574-12.589 8.348-3.47 7.615-2.14 12.922-3.247 7.246-1.511 21.935 3.051 33.204 9.524l-3.084 16.951C757.88 440.232 745.764 433.174 744.732 431.939z"></path><path fill="#FFD0BD" d="M892.363,444.922l-8.497-30.794l-116.692,8.751l-2.437,16.988    C764.737,439.868,878.636,455.329,892.363,444.922z"></path></g><g><path fill="#FEE" d="M607.545,450.883h9.261c0,0,15.556-18.536,0.782-24.666c-0.039-0.018-0.078-0.034-0.119-0.05h-9.264    c0,0-0.002,0-0.005,0v0.002C593.231,432.251,607.545,450.883,607.545,450.883z"></path><path fill="#FC62A7" d="M616.034,449.282c1.709-2.211,7.574-10.367,6.09-16.327c-0.572-2.297-2.201-3.997-4.976-5.188    l-1.121-4.272l-6.176,0.718l-1.325,3.555c-2.873,1.232-4.591,3.009-5.248,5.426c-1.606,5.904,3.502,13.825,5.085,16.088H616.034z"></path><path fill="#D4BFBD" d="M607.545,450.883h3.242c-0.75-1.666-1.34-3.256-1.797-4.767c-3.857-12.753,1.797-19.95,1.797-19.95h-2.584    c0,0,0,0-0.001,0.001l-0.001,0.001C593.231,432.25,607.545,450.883,607.545,450.883z"></path><path fill="#FFF" d="M615.298,429.522c3.121,3,3.3,7.586,1.581,13.196c0,0,5.867-7.385,1.159-13.196H615.298z"></path><polygon fill="#BE4848" points="608.212 425.444 608.213 425.91 608.215 426.18 610.482 426.183 615.688 426.193 617.474 426.197 617.474 418.686 608.215 418.686 608.215 420.06 608.213 420.963 608.213 423.068"></polygon><path fill="#963030" d="M608.178 423.068h9.309c.159-.304 0-.639 0-.639h-9.309C608.034 422.742 608.178 423.068 608.178 423.068zM611.911 424.532h5.576c0 0 .158-.333 0-.639h-5.576C611.911 423.893 611.74 424.196 611.911 424.532z"></path><path fill="#D1D3D4" d="M608.188,422.429c-0.163,0.313,0,0.639,0,0.639h0.039l-0.001,2.377l0.001,0.465l0.001,0.27l2.558,0.004    v-7.497h-2.558v0.734h-0.041c-0.094,0.165-0.088,0.333-0.063,0.456c0.008,0.052,0.024,0.105,0.049,0.158    c0.008,0.017,0.014,0.026,0.014,0.026h0.041l-0.001,0.903h-0.039c0,0-0.192,0.341,0,0.64h0.039v0.826H608.188z"></path><path fill="#BCBEC0" d="M615.688,418.686v7.507l1.786,0.004v-1.665h0.013c0,0,0.158-0.333,0-0.639h-0.013v-0.826h0.013    c0.159-0.304,0-0.639,0-0.639h-0.013v-0.826h0.013c0,0,0.215-0.318,0-0.64h-0.013v-2.277H615.688z"></path><path fill="#FC62A7" d="M606.6,413.545c1.72-1.393,3.912-1.88,6.066-1.759c2.154-0.121,4.346,0.366,6.066,1.759    c3.226,2.548-1.831,6.727-0.854,12.8h-5.212h-5.212C608.431,420.272,603.374,416.093,606.6,413.545z"></path><path fill="#B0A4BA" d="M606.6,413.545c0.236-0.191,0.482-0.364,0.734-0.522c0.317,1.688,1.39,3.742,1.809,6.187    c0.377,2.2,2.045,3.954,4.231,4.408l4.392,0.913l-5.1,1.813h-5.212C608.431,420.272,603.374,416.093,606.6,413.545z"></path><path fill="#CBCDD1" d="M613.208,450.883h3.598c0,0,15.556-18.536,0.782-24.666l-4.923,0.128c2.031,1.251,8.866,2.386,8.328,9.591    C620.457,443.141,613.208,450.883,613.208,450.883z"></path><path fill="#FFF" d="M607.532,424.532h10.233c0.301,0,0.546,0.244,0.546,0.546v0.721c0,0.301-0.244,0.546-0.546,0.546h-10.233    c-0.301,0-0.546-0.244-0.546-0.546v-0.721C606.987,424.776,607.231,424.532,607.532,424.532z"></path><path fill="#DADCE0" d="M612.649,412.856c0,0,5.033-0.323,5.261,3.026s-1.674,5.025-1.674,5.025S618.658,413.744,612.649,412.856z    "></path></g><g><path fill="#FEE" d="M639.709,450.883h9.261c0,0,15.556-18.536,0.782-24.666c-0.039-0.018-0.078-0.034-0.119-0.05h-9.264    c0,0-0.002,0-0.005,0v0.002C625.395,432.251,639.709,450.883,639.709,450.883z"></path><path fill="#348D94" d="M648.198,449.282c1.709-2.211,7.574-10.367,6.09-16.327c-0.572-2.297-2.201-3.997-4.976-5.188    l-1.121-4.272l-6.176,0.718l-1.325,3.555c-2.873,1.232-4.591,3.009-5.248,5.426c-1.606,5.904,3.502,13.825,5.086,16.088H648.198z"></path><path fill="#D4BFBD" d="M639.709,450.883h3.242c-0.75-1.666-1.34-3.256-1.797-4.767c-3.857-12.753,1.797-19.95,1.797-19.95h-2.584    c0,0,0,0-0.001,0.001l-0.001,0.001C625.395,432.25,639.709,450.883,639.709,450.883z"></path><path fill="#FFF" d="M647.462,429.522c3.121,3,3.3,7.586,1.581,13.196c0,0,5.867-7.385,1.159-13.196H647.462z"></path><polygon fill="#BE4848" points="640.376 425.444 640.377 425.91 640.379 426.18 642.646 426.183 647.852 426.193 649.638 426.197 649.638 418.686 640.379 418.686 640.379 420.06 640.377 420.963 640.377 423.068"></polygon><path fill="#963030" d="M640.342 423.068h9.309c.159-.304 0-.639 0-.639h-9.309C640.198 422.742 640.342 423.068 640.342 423.068zM644.075 424.532h5.576c0 0 .158-.333 0-.639h-5.576C644.075 423.893 643.904 424.196 644.075 424.532z"></path><path fill="#D1D3D4" d="M640.352,422.429c-0.163,0.313,0,0.639,0,0.639h0.039l-0.001,2.377l0.001,0.465l0.001,0.27l2.558,0.004    v-7.497h-2.558v0.734h-0.041c-0.094,0.165-0.088,0.333-0.063,0.456c0.008,0.052,0.024,0.105,0.049,0.158    c0.008,0.017,0.014,0.026,0.014,0.026h0.041l-0.001,0.903h-0.039c0,0-0.192,0.341,0,0.64h0.039v0.826H640.352z"></path><path fill="#BCBEC0" d="M647.852,418.686v7.507l1.786,0.004v-1.665h0.013c0,0,0.158-0.333,0-0.639h-0.013v-0.826h0.013    c0.159-0.304,0-0.639,0-0.639h-0.013v-0.826h0.013c0,0,0.215-0.318,0-0.64h-0.013v-2.277H647.852z"></path><path fill="#348D94" d="M638.764,413.545c1.72-1.393,3.912-1.88,6.066-1.759c2.154-0.121,4.346,0.366,6.066,1.759    c3.226,2.548-1.831,6.727-0.854,12.8h-5.212h-5.212C640.595,420.272,635.538,416.093,638.764,413.545z"></path><path fill="#B0A4BA" d="M638.764,413.545c0.236-0.191,0.482-0.364,0.734-0.522c0.317,1.688,1.39,3.742,1.809,6.187    c0.377,2.2,2.045,3.954,4.231,4.408l4.392,0.913l-5.1,1.813h-5.212C640.595,420.272,635.538,416.093,638.764,413.545z"></path><path fill="#CBCDD1" d="M645.372,450.883h3.598c0,0,15.556-18.536,0.782-24.666l-4.923,0.128c2.031,1.251,8.866,2.386,8.329,9.591    C652.621,443.141,645.372,450.883,645.372,450.883z"></path><path fill="#FFF" d="M639.696,424.532h10.233c0.301,0,0.546,0.244,0.546,0.546v0.721c0,0.301-0.244,0.546-0.546,0.546h-10.233    c-0.301,0-0.546-0.244-0.546-0.546v-0.721C639.151,424.776,639.395,424.532,639.696,424.532z"></path><path fill="#DADCE0" d="M644.813,412.856c0,0,5.033-0.323,5.261,3.026s-1.674,5.025-1.674,5.025S650.822,413.744,644.813,412.856z    "></path></g><g><path fill="#155236" d="M1059.539,828.615c-6.877-29.574-11.438-114.544,4.384-171.509c13.695-49.317,0.238-78.241,0.101-78.53       l2.923-1.411c0.583,1.211,14.154,30.214,0.101,80.809c-15.673,56.442-11.159,140.613-4.345,169.905L1059.539,828.615z"></path><path fill="#155236" d="M1075.846,831.026c-2.212-0.774-13.023-8.757-8.672-90.092c4.384-82.01-38.255-95.277-38.686-95.401       l0.9-3.119c1.86,0.54,45.549,14.133,41.026,98.691c-4.25,79.487,6.548,86.859,6.659,86.922L1075.846,831.026z"></path><path fill="#155236" d="M1070.148,826.393c-2.406-10.329,2.028-32.899,6.719-56.793c3.157-16.082,6.424-32.715,7.08-43.998       c0.669-11.506-1.125-25.22-2.861-38.487c-2.435-18.598-4.732-36.166-0.878-48.575c2.434-7.828,8.12-13.66,15.603-16.003       c8.05-2.5,17.115-0.684,24.259,4.897l-1.997,2.554c-6.307-4.926-14.269-6.564-21.292-4.352       c-6.545,2.047-11.33,6.969-13.474,13.867c-3.644,11.73-1.388,28.956,0.995,47.189c1.756,13.416,3.572,27.286,2.885,39.098       c-0.669,11.502-3.956,28.244-7.134,44.436c-4.422,22.507-8.992,45.779-6.742,55.43L1070.148,826.393z"></path><path fill="#3B661F" d="M976.621,682.457c9.388-3.871,20.308-22.231,30.566-21.799c2.341,11.682-14.966,12.184-21.464,19.117        c-5.375,7.151,20.146,11.069,31.17,3.748c9.245-5.608,5.302-18.88,15.222-38.741c8.236-17.096,14.411-17.655,15.076-27.879        c1.211-18.706-18.212-35.665-20.274-34.444c-0.832,0.494,1.539,3.695,2.576,12.101c0.741,0.687,0.745,33.797-7.854,22.944        c-6.024-13.738,9.592-23.965-0.917-39.539c-7.884-11.674-28.102-11.235-28.532-9.782        c10.265,2.348,16.873,28.643,12.484,39.249c-3.157,6.144-5.717,0.994-6.639-5.195c-5.729-19.959-7.364-30.875-22.102-38.818        c-18.066-9.736-32.152,7.494-54.908,11.507c0,0-5.183,27.865,6.104,43.18c10.864,14.74,25.822,0.665,37.746,4.105        c5.308,0.984,6.693,7.771,3.422,11.089c-4.565,6.746-15.29,7.439-23.03,7.855c-12.824,0.681-17.412-2.014-18.845,0.378        c-4.004,6.206,16.124,23.073,26.938,19.08c13.718,0.938,28.765-22.355,42.622-16.522c0.45,10.889-26.688,23.283-38.385,24.185        c-6.209-0.228-10.445-2.977-11.024-2.011C949.565,672.279,967.956,685.368,976.621,682.457z"></path><path fill="#52A880" d="M999.655,680.159c3.143-0.419,6.144-1.619,8.731-3.447c2.511-1.771,4.489-4.117,6.003-6.777       c1.655-2.919,2.797-6.077,4.022-9.19c1.334-3.37,2.841-6.676,4.564-9.866c0.782-1.438,1.553-2.911,2.49-4.254       c0.78-1.12,1.8-2.19,3.23-2.346c0.016-0.002,0.021-0.015,0.036-0.017c0.22,0.126,0.445,0.238,0.662,0.37       c0.731,0.433,1.453,0.886,2.157,1.37c0.042-0.115,0.094-0.216,0.149-0.326c-1.28-0.86-2.614-1.657-3.986-2.369       c-0.004-0.009-0.008-0.019-0.015-0.021c-0.488-0.451-0.89-1.015-1.226-1.593c-0.319-0.54-0.649-1.177-0.643-1.82       c0.015-0.958,0.395-1.92,0.746-2.801c0.359-0.879,0.739-1.758,1.137-2.622c2.799-6.084,6.435-11.817,8.448-18.241       c1.649-5.281,2.22-11.099,0.18-16.356c-0.082-0.212-0.408-0.065-0.322,0.155c1.184,3.065,1.478,6.382,1.157,9.642       c-0.631,6.381-3.481,12.188-6.375,17.82c-1.606,3.119-3.246,6.225-4.56,9.48c-0.482,1.198-1.046,2.602-0.578,3.88       c0.256,0.716,0.674,1.421,1.171,2.035c-3.907-1.901-8.081-3.17-12.224-4.443c-0.19-0.062-0.389-0.119-0.579-0.181       c0,0,0,0-0.004-0.009c-2.179-2.311-3.534-5.256-4.242-8.337c-1.447-6.279-0.014-12.572,1.619-18.663       c0.448-1.666,0.904-3.336,1.325-5.013c0.397-1.57,0.789-3.165,0.961-4.788c0.284-2.758-0.179-5.779-2.236-7.803       c-0.162-0.158-0.441,0.067-0.273,0.227c2.588,2.544,2.477,6.411,1.804,9.718c-1.344,6.568-3.925,12.929-4.168,19.701       c-0.186,5.199,1.077,10.78,4.565,14.767c-3.881-1.2-7.766-2.471-11.385-4.35c-1.977-1.032-3.823-2.258-5.577-3.609       c-0.011-0.012-0.012-0.028-0.03-0.041c-0.02-0.008-0.038-0.022-0.065-0.031c-1.586-1.23-3.1-2.555-4.564-3.931       c-2.437-2.291-4.764-4.694-7.175-7.014c-1.433-3.216-2.028-6.749-2.376-10.23c-0.632-6.248-0.17-12.727-2.217-18.755       c-1.827-5.363-6.308-10.523-12.334-10.729c-0.231-0.009-0.261,0.344-0.029,0.354c3.351,0.112,6.35,1.901,8.547,4.371       c4.247,4.78,4.923,11.408,5.228,17.53c0.279,5.634,0.408,11.554,2.545,16.855c-0.31-0.295-0.617-0.597-0.934-0.894       c-3.153-2.908-6.563-5.464-10.271-7.617c-7.598-4.414-15.966-7.255-24.255-10.046c-0.214-0.078-0.336,0.257-0.122,0.336       c1.015,0.339,2.03,0.678,3.043,1.023c7.971,2.721,15.99,5.671,23.135,10.2c-2.241-0.452-4.612,0.097-6.8,0.583       c-2.742,0.611-5.954,1.201-8.397-0.591c-0.186-0.136-0.391,0.154-0.205,0.29c2.286,1.682,5.314,1.373,7.929,0.815       c2.723-0.579,5.703-1.468,8.425-0.461c0.013,0.004,0.018-0.009,0.032-0.004c0,0,0,0,0.007,0.002       c3.538,2.351,6.694,5.147,9.728,8.111c2.905,2.841,5.713,5.776,8.802,8.426c0.295,0.252,0.599,0.499,0.898,0.744       c-3.069-1.117-6.594-0.564-9.574,0.68c-3.446,1.44-6.299,3.96-9.086,6.383c-2.767,2.408-5.621,4.64-8.808,6.453       c-6.141,3.486-13.062,5.55-20.111,5.981c-0.23,0.008-0.164,0.365,0.063,0.349c3.841-0.233,7.646-0.95,11.312-2.119       c3.289-1.049,6.459-2.459,9.439-4.205c3.073-1.81,5.821-4.005,8.507-6.336c2.798-2.433,5.676-4.937,9.17-6.321       c3.227-1.277,7.137-1.72,10.267,0.065c2.575,1.97,5.336,3.643,8.327,4.952c4.109,1.785,8.436,2.989,12.702,4.321       c0.367,0.119,0.727,0.234,1.087,0.35c-2.431,0.382-4.737,1.485-6.73,2.915c-2.144,1.533-3.923,3.52-5.668,5.479       c-1.804,2.037-3.628,4.044-5.635,5.887c-3.89,3.577-8.242,6.629-12.924,9.068c-0.206,0.107-0.053,0.436,0.146,0.326       c2.568-1.342,5.048-2.86,7.393-4.548c2.108-1.516,4.12-3.167,6.01-4.938c1.938-1.821,3.702-3.79,5.463-5.774       c1.77-1.982,3.588-3.975,5.797-5.478c2.048-1.394,4.41-2.439,6.895-2.68c0.01-0.004,0.005-0.014,0.012-0.011       c3.179,1.044,6.305,2.235,9.241,3.82c-1.239,0.278-2.197,1.196-2.93,2.212c-1.086,1.48-1.939,3.157-2.807,4.768       c-1.669,3.127-3.145,6.345-4.445,9.644c-1.25,3.18-2.408,6.424-4.137,9.383c-1.572,2.691-3.633,5.014-6.227,6.74       c-2.433,1.619-5.224,2.675-8.119,3.062C999.368,679.842,999.431,680.191,999.655,680.159z"></path><path fill="#3B661F" d="M1181.331,606.125c-10.04,1.521-25.024,16.746-34.884,13.881c0.513-11.903,17.44-8.263,25.403-13.448        c6.926-5.663-16.925-15.553-29.376-11.072c-10.316,3.241-9.652,17.07-24.021,33.992        c-12.075,14.639-18.206,13.71-21.289,23.479c-5.636,17.878,9.182,38.98,11.476,38.285c0.926-0.281-0.614-3.955,0.384-12.366        c-0.556-0.844,7.337-32.999,13.098-20.409c2.575,14.778-15.03,20.987-8.537,38.617c4.873,13.217,24.612,17.612,25.376,16.304        c-9.41-4.729-9.556-31.84-2.764-41.094c4.532-5.214,5.789,0.398,5.209,6.628c0.804,20.749-0.211,31.74,12.208,42.968        c15.223,13.764,33.011,0.39,56.068,1.919c0,0,11.679-25.825,4.368-43.39c-7.035-16.905-24.918-6.804-35.678-12.988        c-4.92-2.221-4.646-9.142-0.678-11.585c6.042-5.463,16.623-3.579,24.238-2.136c12.616,2.397,16.429,6.108,18.392,4.126        c5.368-5.073-10.157-26.253-21.612-24.953c-13.098-4.183-33.265,14.849-45.332,5.881c2.16-10.682,31.47-16.248,43.044-14.334        c5.976,1.702,9.434,5.382,10.227,4.582C1205.178,622.462,1190.44,605.365,1181.331,606.125z"></path><path fill="#52A880" d="M1158.413,602.865c-3.152-0.343-6.352,0.106-9.3,1.265c-2.862,1.122-5.341,2.929-7.446,5.149       c-2.303,2.44-4.165,5.235-6.097,7.967c-2.098,2.955-4.351,5.806-6.785,8.493c-1.102,1.21-2.202,2.456-3.432,3.538       c-1.024,0.902-2.27,1.698-3.695,1.508c-0.016-0.002-0.024,0.009-0.04,0.008c-0.183-0.175-0.375-0.338-0.555-0.518       c-0.606-0.594-1.2-1.207-1.769-1.845c-0.067,0.101-0.143,0.188-0.222,0.281c1.038,1.141,2.144,2.233,3.307,3.252       c0.001,0.011,0.003,0.02,0.01,0.024c0.367,0.554,0.623,1.198,0.811,1.839c0.181,0.602,0.349,1.298,0.19,1.921       c-0.243,0.927-0.842,1.771-1.393,2.543c-0.557,0.769-1.137,1.53-1.729,2.275c-4.169,5.241-9.068,9.943-12.554,15.701       c-2.861,4.735-4.802,10.25-4.075,15.842c0.028,0.225,0.381,0.161,0.35-0.074c-0.419-3.258,0.086-6.55,1.176-9.639       c2.134-6.046,6.287-11.006,10.44-15.786c2.303-2.646,4.637-5.272,6.69-8.12c0.753-1.049,1.635-2.277,1.486-3.63       c-0.078-0.756-0.315-1.54-0.652-2.256c3.341,2.778,7.092,5.006,10.812,7.23c0.17,0.105,0.349,0.209,0.519,0.314       c0,0,0,0,0.002,0.01c1.565,2.764,2.18,5.948,2.132,9.108c-0.091,6.443-2.984,12.212-6.023,17.738       c-0.832,1.511-1.673,3.024-2.481,4.552c-0.76,1.43-1.521,2.887-2.075,4.42c-0.933,2.611-1.204,5.656,0.309,8.112       c0.12,0.192,0.445,0.04,0.319-0.156c-1.906-3.087-0.877-6.817,0.566-9.868c2.871-6.058,6.895-11.62,8.746-18.139       c1.42-5.004,1.526-10.727-0.911-15.43c3.483,2.091,6.953,4.252,10.019,6.94c1.674,1.473,3.175,3.104,4.555,4.835       c0.008,0.014,0.006,0.03,0.02,0.048c0.018,0.012,0.032,0.03,0.055,0.046c1.247,1.572,2.4,3.22,3.495,4.905       c1.82,2.806,3.507,5.695,5.295,8.522c0.624,3.465,0.36,7.038-0.131,10.502c-0.877,6.218-2.871,12.401-2.32,18.742       c0.496,5.644,3.616,11.723,9.42,13.361c0.224,0.064,0.337-0.273,0.113-0.336c-3.227-0.909-5.713-3.362-7.257-6.284       c-2.985-5.655-2.061-12.253-0.897-18.271c1.073-5.537,2.36-11.318,1.548-16.976c0.23,0.36,0.458,0.727,0.694,1.091       c2.369,3.577,5.072,6.871,8.158,9.848c6.327,6.098,13.776,10.853,21.16,15.54c0.189,0.127,0.387-0.17,0.198-0.296       c-0.905-0.571-1.809-1.143-2.71-1.721c-7.093-4.543-14.176-9.319-20.036-15.422c2.069,0.974,4.501,1.006,6.742,1.056       c2.808,0.061,6.069,0.253,8.014,2.577c0.148,0.176,0.415-0.057,0.268-0.233c-1.819-2.179-4.832-2.601-7.506-2.683       c-2.782-0.086-5.888,0.065-8.292-1.561c-0.012-0.008-0.02,0.003-0.032-0.004c0,0,0,0-0.006-0.004       c-2.876-3.126-5.273-6.594-7.514-10.196c-2.142-3.451-4.171-6.972-6.538-10.282c-0.226-0.315-0.464-0.628-0.694-0.937       c2.714,1.817,6.269,2.121,9.46,1.623c3.69-0.576,7.061-2.344,10.346-4.032c3.261-1.679,6.565-3.165,10.092-4.168       c6.796-1.921,14.01-2.275,20.957-1.012c0.225,0.048,0.245-0.316,0.023-0.354c-3.786-0.69-7.652-0.901-11.492-0.64       c-3.444,0.235-6.858,0.848-10.169,1.833c-3.416,1.025-6.609,2.501-9.773,4.124c-3.298,1.696-6.689,3.442-10.412,3.952       c-3.438,0.47-7.341-0.032-9.955-2.512c-2.032-2.528-4.314-4.81-6.906-6.794c-3.565-2.713-7.481-4.914-11.305-7.225       c-0.328-0.203-0.65-0.401-0.972-0.599c2.452,0.209,4.955-0.312,7.232-1.226c2.448-0.978,4.648-2.482,6.811-3.97       c2.238-1.548,4.487-3.063,6.875-4.373c4.631-2.546,9.585-4.472,14.714-5.724c0.226-0.056,0.155-0.411-0.064-0.352       c-2.814,0.69-5.584,1.572-8.264,2.654c-2.409,0.97-4.757,2.093-7.014,3.362c-2.316,1.307-4.499,2.797-6.683,4.305       c-2.19,1.503-4.433,3.005-6.936,3.937c-2.321,0.866-4.864,1.317-7.335,0.959c-0.01,0.002-0.008,0.012-0.015,0.008       c-2.838-1.771-5.589-3.674-8.063-5.914c1.27,0.026,2.418-0.638,3.373-1.449c1.406-1.178,2.635-2.604,3.862-3.962       c2.366-2.638,4.567-5.411,6.616-8.305c1.971-2.791,3.87-5.665,6.256-8.126c2.168-2.239,4.723-4.004,7.654-5.062       c2.749-0.991,5.711-1.352,8.615-1.037C1158.616,603.241,1158.638,602.887,1158.413,602.865z"></path><g><path fill="#98BC67" d="M1002.885,561.899c8.953,4.79,30.071,1.559,36.255,9.755c-7.534,9.23-18.918-3.816-28.4-4.429        c-8.938,0.393,4.253,22.59,16.909,26.452c10.205,3.576,17.949-7.901,39.588-12.858c18.435-4.502,22.791-0.088,31.107-6.071        c15.215-10.95,15.972-36.723,13.718-37.539c-0.91-0.329-1.876,3.535-7.708,9.677c-0.06,1.009-25.626,22.047-22.708,8.512        c6.781-13.38,24.6-7.819,29.951-25.829c4.006-13.505-9.179-28.838-10.574-28.248c4.709,9.419-11.399,31.228-22.379,34.576        c-6.75,1.465-4.4-3.784-0.205-8.427c11.773-17.105,19.164-25.302,15.934-41.73c-3.959-20.137-26.214-20.068-43.771-35.092        c0,0-24.812,13.701-29.467,32.148c-4.48,17.753,15.892,20.363,20.811,31.757c2.612,4.724-1.75,10.105-6.39,9.688        c-8.109,0.76-15.459-7.081-20.697-12.795c-8.673-9.47-9.508-14.725-12.265-14.312c-7.336,0.852-7.574,27.111,2.381,32.924        c7.991,11.191,35.538,8.011,39.838,22.418c-8.123,7.266-34.936-5.816-43.063-14.276c-3.769-4.94-4.337-9.957-5.451-9.792        C993.555,534.539,995.132,557.057,1002.885,561.899z"></path><path fill="#789E44" d="M1019.293,578.226c2.321,2.161,5.154,3.717,8.209,4.552c2.964,0.814,6.032,0.85,9.047,0.331       c3.306-0.576,6.47-1.701,9.652-2.733c3.449-1.112,6.96-2.048,10.518-2.744c1.607-0.311,3.235-0.65,4.867-0.78       c1.36-0.11,2.835-0.002,3.862,1.003c0.012,0.011,0.025,0.006,0.037,0.018c0.043,0.249,0.099,0.494,0.135,0.746       c0.129,0.838,0.239,1.685,0.312,2.536c0.114-0.04,0.227-0.065,0.346-0.092c-0.149-1.536-0.381-3.072-0.703-4.584       c0.004-0.009,0.008-0.019,0.006-0.025c0.038-0.664,0.218-1.331,0.45-1.959c0.216-0.59,0.497-1.249,0.997-1.652       c0.749-0.597,1.734-0.914,2.638-1.203c0.906-0.282,1.826-0.546,2.746-0.788c6.477-1.704,13.215-2.539,19.454-5.066       c5.126-2.081,9.981-5.337,12.746-10.252c0.112-0.198-0.209-0.357-0.325-0.151c-1.615,2.862-3.989,5.197-6.711,7.019       c-5.328,3.567-11.623,5.054-17.812,6.399c-3.428,0.741-6.869,1.449-10.218,2.502c-1.232,0.388-2.674,0.845-3.363,2.018       c-0.391,0.652-0.67,1.424-0.828,2.198c-1.014-4.224-2.686-8.254-4.335-12.262c-0.073-0.187-0.155-0.377-0.228-0.563       c0,0,0,0,0.004-0.009c0.401-3.15,1.813-6.069,3.743-8.573c3.929-5.107,9.7-7.998,15.442-10.607       c1.57-0.713,3.15-1.422,4.711-2.161c1.465-0.691,2.947-1.403,4.308-2.3c2.31-1.533,4.35-3.811,4.606-6.684       c0.019-0.226-0.333-0.299-0.349-0.067c-0.32,3.614-3.377,5.986-6.358,7.567c-5.926,3.136-12.479,5.183-17.862,9.298       c-4.132,3.16-7.641,7.68-8.504,12.908c-1.538-3.76-3.026-7.568-3.873-11.556c-0.46-2.183-0.686-4.387-0.756-6.6       c0.001-0.015,0.013-0.027,0.012-0.05c-0.007-0.02-0.007-0.042-0.018-0.069c-0.057-2.006,0.004-4.016,0.137-6.022       c0.221-3.337,0.598-6.661,0.857-9.997c1.573-3.149,3.924-5.854,6.391-8.335c4.423-4.458,9.72-8.218,13.074-13.628       c2.981-4.818,4.12-11.556,0.449-16.341c-0.141-0.185-0.432,0.017-0.292,0.202c2.042,2.659,2.566,6.112,2.054,9.378       c-0.992,6.317-5.682,11.048-10.215,15.174c-4.174,3.795-8.664,7.655-11.399,12.674c0.03-0.427,0.069-0.856,0.097-1.289       c0.242-4.283,0.048-8.539-0.643-12.772c-1.419-8.672-4.541-16.939-7.652-25.113c-0.076-0.215-0.412-0.096-0.337,0.119       c0.383,0.999,0.766,1.998,1.142,3c2.964,7.885,5.78,15.95,6.823,24.347c-1.075-2.018-3.005-3.499-4.77-4.88       c-2.214-1.729-4.712-3.835-4.88-6.861c-0.013-0.23-0.366-0.203-0.353,0.026c0.153,2.835,2.315,4.975,4.408,6.642       c2.177,1.734,4.756,3.471,5.709,6.213c0.005,0.013,0.019,0.008,0.023,0.022c0,0,0,0,0.003,0.007       c0.433,4.226,0.279,8.439-0.083,12.665c-0.349,4.047-0.831,8.082-0.915,12.15c-0.007,0.388-0.004,0.78-0.004,1.166       c-1.087-3.08-3.754-5.45-6.608-6.961c-3.3-1.747-7.06-2.349-10.701-2.961c-3.617-0.606-7.154-1.393-10.58-2.702       c-6.594-2.528-12.584-6.562-17.396-11.73c-0.152-0.173-0.386,0.105-0.23,0.27c2.621,2.818,5.591,5.301,8.823,7.389       c2.9,1.873,6.003,3.424,9.245,4.617c3.35,1.223,6.791,1.951,10.297,2.544c3.658,0.615,7.42,1.246,10.708,3.065       c3.036,1.681,5.862,4.419,6.472,7.97c0.116,3.241,0.578,6.435,1.467,9.577c1.232,4.306,3.052,8.414,4.733,12.554       c0.142,0.358,0.281,0.71,0.421,1.062c-1.84-1.634-4.157-2.715-6.527-3.345c-2.547-0.681-5.21-0.793-7.833-0.896       c-2.719-0.099-5.428-0.231-8.125-0.611c-5.234-0.732-10.356-2.153-15.214-4.22c-0.214-0.091-0.371,0.236-0.16,0.32       c2.667,1.131,5.416,2.082,8.209,2.82c2.51,0.665,5.063,1.17,7.631,1.504c2.638,0.339,5.278,0.451,7.931,0.551       c2.654,0.108,5.349,0.245,7.913,0.996c2.378,0.696,4.686,1.855,6.45,3.622c0.009,0.005,0.013-0.005,0.016,0.002       c1.213,3.118,2.28,6.289,2.922,9.563c-1.002-0.781-2.319-0.936-3.57-0.858c-1.832,0.102-3.669,0.509-5.465,0.863       c-3.475,0.696-6.899,1.602-10.271,2.695c-3.25,1.055-6.49,2.222-9.875,2.767c-3.077,0.496-6.18,0.381-9.162-0.526       c-2.796-0.85-5.384-2.334-7.523-4.325C1019.356,577.803,1019.126,578.074,1019.293,578.226z"></path></g><g><path fill="#FFA82B" d="M1105.887,800.212c-0.408,5.256-7.338,47.852-7.981,56.04h-61.107c-0.746-8.603-8.332-50.417-8.812-56.04     H1105.887z"></path><path fill="#E68800" d="M1027.987,800.212c0.069,0.811,0.287,3.336,0.611,7.074h23.525c21.39,0,36.653,18.158,36.568,39.547     c-0.019,4.695-1.899,7.54-4.323,9.419h13.537c0.642-8.189,7.573-50.784,7.981-56.04H1027.987z"></path><path fill="#FFA82B" d="M1104.362,800.215h-74.847c-5.022,0-9.094-3.302-9.094-7.377l0,0c0-4.073,4.071-7.375,9.094-7.375h74.847     c5.023,0,9.094,3.302,9.094,7.375l0,0C1113.456,796.913,1109.385,800.215,1104.362,800.215z"></path></g></g></svg>