<svg xmlns="http://www.w3.org/2000/svg" viewBox="0 0 1364 960" id="facial-treatment"><path fill="#D8E8EB" d="M987.861 647.336c-1.203-20.613 1.821-41.415 9.009-60.784 3.371-9.082 7.464-18.283 13.214-26.174l-.007.907c.927 2.412 7.528 18.905 21.565 21.891 11.412 2.428 22.968-5.088 32.206-11.095a79.595 79.595 0 0 0 7.6-5.612c-4.919-.344-12.046-1.408-19.803-4.872-6.139-2.742-8.143-4.964-12.232-6.705-5.282-2.25-13.416-3.423-25.965 1.271 6.445-7.33 14.795-12.317 23.401-16.778 8.547-4.429 17.469-8.414 25.148-14.306 5.867-4.501 10.397-10.016 13.362-16.591 1.817 4.355 8.431 18.16 21.155 20.867 11.412 2.427 22.967-5.087 32.205-11.095a79.422 79.422 0 0 0 7.6-5.612c-4.919-.344-12.047-1.408-19.804-4.872-6.139-2.742-8.143-4.964-12.231-6.706-5.397-2.299-13.769-3.477-26.79 1.584 2.995-10.113 3.991-21.057 4.663-31.524.331-5.156.35-10.309.342-15.463 2.509 5.435 9.011 16.861 20.464 19.298 11.412 2.427 22.968-5.088 32.205-11.096a79.595 79.595 0 0 0 7.6-5.612c-4.919-.344-12.047-1.408-19.804-4.872-6.139-2.741-8.142-4.964-12.231-6.705-5.595-2.382-14.385-3.56-28.235 2.164.012-2.655.049-5.31.152-7.965.449-11.556 3.133-22.822 11.735-31.028l-.014 1.889c.926 2.411 7.528 18.905 21.565 21.891 11.412 2.427 22.968-5.088 32.205-11.095a79.595 79.595 0 0 0 7.6-5.612c-4.919-.345-12.047-1.409-19.803-4.873-6.139-2.741-8.143-4.963-12.232-6.705-5.149-2.193-13.005-3.364-25.021.925 6.746-4.9 14.756-7.94 22.78-10.417l2.348 1.955c2.55.844 20.163 6.411 31.817-2.906 9.475-7.576 11.051-21.82 12.31-33.207.444-4.014.52-7.4.499-9.81-3.52 3.728-9.075 8.757-16.973 12.71-6.251 3.128-9.358 3.275-13.454 5.414-5.616 2.934-12.376 9.247-16.905 24.23-7.893 2.446-15.692 5.407-22.502 10.088-6.943 4.771-11.999 11.248-14.748 19.021.14-6.005-.779-16.801-8.415-23.204-8.28-6.943-20.996-5.816-31.162-4.914a73.783 73.783 0 0 0-8.654 1.288c3.874 2.419 9.242 6.385 14.082 12.588 3.83 4.909 4.504 7.598 7.092 10.798 3.632 4.492 10.561 9.408 25.108 10.592l.17-.313c-1.578 8.636-1.148 17.541-1.125 26.277a217.8 217.8 0 0 1-.831 19.522l-.046-.494c-1.074-2.138-8.666-16.736-21.876-18.205-10.74-1.194-20.702 6.788-28.667 13.169a73.61 73.61 0 0 0-6.492 5.867c4.566-.132 11.231.197 18.697 2.681 5.908 1.966 7.958 3.83 11.886 5.062 5.427 1.701 13.745 1.969 26.186-4.771a209.224 209.224 0 0 1-1.612 12.185c-.676 4.149-1.557 8.195-2.838 12.046-.128.055-.254.106-.384.161l-.007.958c-2.082 5.825-5.147 11.175-9.934 15.702-4.776 4.515-10.398 7.952-16.195 11.049l-.037-2.747c-.905-2.215-7.34-17.358-20.396-19.849-10.615-2.025-21.167 5.16-29.603 10.904a73.961 73.961 0 0 0-6.927 5.344c4.562.223 11.182 1.069 18.432 4.125 5.738 2.418 7.637 4.437 11.457 5.969 4.46 1.789 11.059 2.719 20.796-.507l-2.698 1.362c-8.572 4.344-17.283 8.839-24.298 15.531a55.338 55.338 0 0 0-5.35 5.933l-.109.046-.001.091c-5.223 6.701-9.092 14.491-12.365 22.267-8.961 21.287-12.877 44.531-11.531 67.578.061 1.067 1.714.961 1.651-.104zM431.009 627.789c-19.6-6.494-37.815-16.986-53.16-30.819-7.195-6.486-14.234-13.688-19.444-21.945l.84.341c2.583.03 20.349-.014 28.308-11.956 6.47-9.709 3.754-23.223 1.582-34.026a79.53 79.53 0 0 0-2.409-9.135c-2.137 4.445-5.758 10.675-11.841 16.604-4.815 4.693-7.62 5.734-10.748 8.891-4.041 4.078-8.136 11.203-8.407 24.599-4.431-8.697-5.983-18.298-6.95-27.943-.96-9.578-1.369-19.341-4.008-28.653-2.016-7.114-5.468-13.361-10.483-18.544 4.719-.08 19.99-1.128 27.204-11.953 6.47-9.709 3.754-23.223 1.582-34.026a79.56 79.56 0 0 0-2.408-9.135c-2.137 4.445-5.758 10.675-11.841 16.605-4.815 4.692-7.62 5.734-10.748 8.891-4.129 4.167-8.316 11.511-8.422 25.481-8.292-6.518-18.095-11.485-27.574-15.975-4.67-2.212-9.451-4.133-14.243-6.028 5.977-.325 18.997-2.147 25.491-11.891 6.471-9.709 3.754-23.223 1.582-34.026a79.768 79.768 0 0 0-2.408-9.135c-2.137 4.444-5.758 10.675-11.841 16.604-4.814 4.693-7.62 5.734-10.748 8.89-4.28 4.32-8.621 12.054-8.416 27.039a235.508 235.508 0 0 1-7.346-3.083c-10.573-4.684-20.052-11.339-24.501-22.364l1.751.711c2.583.029 20.348-.014 28.308-11.957 6.47-9.709 3.754-23.223 1.582-34.026a79.712 79.712 0 0 0-2.408-9.135c-2.137 4.444-5.758 10.675-11.842 16.604-4.815 4.693-7.62 5.734-10.748 8.891-3.939 3.975-7.929 10.844-8.38 23.594-2.062-8.079-1.93-16.645-1.269-25.017l2.684-1.46c1.726-2.058 13.404-16.37 9.049-30.642-3.541-11.603-16.197-18.328-26.314-23.703a82.571 82.571 0 0 0-8.933-4.086c2.165 4.648 4.787 11.667 5.544 20.467.598 6.964-.413 9.906.062 14.502.652 6.303 4.023 14.916 16.274 24.658-.642 8.238-.77 16.579 1.065 24.636 1.87 8.214 6.022 15.305 12.23 20.73-5.529-2.348-15.901-5.481-24.671-.749-9.51 5.13-13.158 17.364-16.075 27.145a73.877 73.877 0 0 0-1.999 8.518c3.679-2.707 9.347-6.23 16.898-8.438 5.977-1.747 8.724-1.38 12.654-2.603 5.515-1.716 12.643-6.34 19.116-19.422l-.229-.273c7.443 4.656 15.877 7.545 24.004 10.75a217.678 217.678 0 0 1 17.835 7.982l-.476-.14c-2.383.209-18.753 1.873-24.997 13.607-5.076 9.539-1.337 21.746 1.651 31.504a73.534 73.534 0 0 0 3.055 8.199c1.563-4.292 4.331-10.365 9.396-16.385 4.009-4.765 6.499-5.981 9.094-9.176 3.584-4.415 6.906-12.046 5.237-26.097a209.21 209.21 0 0 1 10.729 5.998c3.606 2.16 7.041 4.473 10.147 7.086.003.139.004.275.008.416l.888.36c4.645 4.086 8.485 8.91 10.923 15.031 2.433 6.106 3.55 12.599 4.288 19.131l-2.566-.98c-2.392.023-18.842.411-25.978 11.624-5.801 9.117-3.022 21.577-.799 31.538a74 74 0 0 0 2.408 8.411c1.892-4.157 5.123-9.997 10.64-15.606 4.367-4.44 6.943-5.459 9.778-8.443 3.31-3.484 6.611-9.273 7.209-19.513.09 1.005.179 2.01.27 3.01.871 9.57 1.831 19.326 5.46 28.316 1 2.479 2.197 4.862 3.538 7.163l.002.118.085.034c4.298 7.328 10.109 13.8 16.127 19.714 16.474 16.189 36.628 28.411 58.542 35.672 1.011.334 1.523-1.241.51-1.577z"></path><path fill="#BED8DD" d="M392.964 856.784H159.288a4.5 4.5 0 0 1 0-9h233.677a4.501 4.501 0 0 1-.001 9zM1133.016 856.784H899.339a4.5 4.5 0 0 1 0-9h233.677a4.5 4.5 0 1 1 0 9zM484.243 825.415c-2.62-15.17-7.02-35.78-14.21-59.14-.13-.47-.26-.83-.4-1.31-4.3-13.91-9.59-28.75-16.16-43.98-.32-.77-.64-1.55-.97-2.32-8.75-20.22-19.57-40.99-33.08-61.15-6.15 6.13-11.37 11.04-11.37 11.04l-1.9-29.45c-9.25-11.9-19.57-23.54-31.01-34.35-23.19-21.93-49.07-38.91-75.15-52.21-.49-.22-.86-.45-1.35-.68-8.55-4.34-17.15-8.25-25.67-11.74.71 14.85-5.48 25.74-15.78 34.27 6.28-16.43 2.44-30.95-10.68-43.71-.55-.53-1.29-.99-2.02-1.21-22.06-7.39-42.91-12.46-61.01-15.99-.54-.05-1.03-.15-1.51-.26-31.42-5.92-54.08-6.98-59.03-7.2-.66-.04-1.021-.03-1.021-.03s.01.36.09 1.02c.68 7.21 5.51 53.01 25.47 107.84.189.42.33.89.52 1.31 5.6 15.14 12.31 30.96 20.39 46.81 9.92 14.53 24.17 15.94 33.34 14.18-6.59 5.6-13.73 8.57-22.29 5.98 14.59 24.58 32.67 48.82 55.24 70.16.62.59 1.3 1.23 1.98 1.75l1.3 1.23c11.98 10.99 24.66 20.74 37.72 29.35.43.29.8.52 1.17.75 25.99 17.05 53.32 29.69 79.37 39.04 10.17 3.66 20.15 6.82 29.78 9.54h99.79c-.429-2.87-.939-6.06-1.549-9.54zm-205.44-274.86c.76-.81 1.96-.84 2.77-.08.8.76.9 2.02.13 2.83-.75.8-2.02.78-2.82.01-.81-.76-.84-1.96-.08-2.76zm-33 8.51c.81.76.84 2.08.14 2.82-.76.81-2.08.84-2.88.08-.81-.76-.79-2.02-.02-2.83.7-.74 1.96-.83 2.76-.07zm-10.91-15.59a4.57 4.57 0 0 1 6.5-.18 4.577 4.577 0 0 1 .18 6.49 4.57 4.57 0 0 1-6.5.18 4.577 4.577 0 0 1-.18-6.49zm-95.62 4c-.23-2.1 1.34-4.01 3.38-4.19 2.1-.24 3.95 1.27 4.19 3.37.24 2.1-1.28 3.95-3.38 4.19-2.04.179-3.95-1.27-4.19-3.37zm5.69 20.25c-2.41-2.28-2.46-6.07-.18-8.48a5.912 5.912 0 0 1 8.42-.24c2.42 2.28 2.58 6.07.3 8.48-2.28 2.41-6.13 2.52-8.54.24zm72.48 109.53c1.58-1.67 4.17-1.68 5.84-.1a4.089 4.089 0 0 1-5.62 5.94c-1.67-1.58-1.8-4.17-.22-5.84zm11.67 29.78c-2.691 2.84-7.26 2.97-10.17.22-2.84-2.69-2.97-7.26-.28-10.1 2.75-2.91 7.32-3.039 10.17-.35a7.235 7.235 0 0 1 .28 10.23z"></path><path fill="#FFF" d="m460.733 825.415 10.09 9.54h-1.99l-10.09-9.54-40.88-38.65-41.46 2.84-.1-1.38 40.26-2.69-48.11-45.49-53.88 6.68c-8.77 9.16-27.02 28.33-37.72 39.65-.37-.23-.74-.46-1.17-.75 11.35-12 30.82-32.47 36.73-38.6l-74.45 9.25-1.3-1.23 130.49-16.23-95.98-90.76-39.17 11.58-.34-1.26 38.4-11.37-40.69-38.48-81.37 7.64c-.19-.42-.33-.89-.52-1.31l40.47-3.78c-11.82-9.67-28.71-23.4-29.87-24.03l.29-.55-.06-.06-.55-.28.47-.38c.42-.07.84-.14 31.65 25.12l38.19-3.59-106.06-100.29c-.08-.66-.09-1.02-.09-1.02s.36-.01 1.021.03l83.24 78.71-24.21-71.51c.48.11.97.21 1.51.26l24.809 73.24 87.13 82.39 3.22-117.25c.49.23.86.46 1.35.68l-1.53 55.25 26.47-18.08.69 1.13-27.23 18.64-1.67 60.86 51.7 48.88 2.65-68.83 1.27.03-2.62 70.03 89.61 84.73 13.17-86.52c.33.77.65 1.55.97 2.32l-8.34 54.9 24.5-10.92c.14.48.27.84.4 1.31l-25.15 11.24-4.37 28.78 20.22 19.12z"></path><path fill="#BED8DD" d="M580.072 552.444c-8.53-30.756-21.923-58.661-37.385-83.52-.301-.447-.496-.834-.798-1.28a350.938 350.938 0 0 0-15.918-23.319c-7.058 13.086-17.989 19.21-31.214 21.199 13.867-10.824 18.082-25.241 13.437-42.943-.205-.738-.596-1.513-1.106-2.078-15.072-17.724-30.306-32.842-43.981-45.212-.443-.319-.802-.661-1.162-1.003-23.838-21.299-42.703-33.908-46.819-36.653-.549-.378-.862-.556-.862-.556s-.179.314-.452.92c-3.138 6.523-22.658 48.238-33.891 105.496-.05.456-.183.934-.234 1.39-3.023 15.854-5.458 32.869-6.718 50.618.987 17.568 12.46 26.133 21.217 29.357-8.536 1.396-16.184.249-22.176-6.391-.2 28.584 2.76 58.677 11.063 88.612.228.82.478 1.722.787 2.52l.478 1.722c4.589 15.597 10.402 30.502 17.144 44.618.217.47.414.857.608 1.244 47.115 98.221 136.332 158.445 145.929 164.703.547.378.862.556.862.556s.176-.314.452-.92c2.742-5.707 17.389-36.973 28.551-81.758.132-.478.205-.852.338-1.33 3.499-14.131 6.636-29.574 8.88-46.007l.369-2.487c2.952-21.84 4.42-45.211 3.265-69.445-8.435 2.074-15.438 3.575-15.438 3.575l13.58-26.201c-1.772-14.963-4.598-30.254-8.806-45.427zM407.697 381.562c.882-1.923 3.215-2.746 5.055-1.844 1.921.88 2.722 3.131 1.843 5.053-.881 1.923-3.133 2.724-5.054 1.843-1.839-.902-2.723-3.13-1.844-5.052zm-1.363 12.92a5.923 5.923 0 0 1 7.335 4.148c.887 3.199-.928 6.529-4.128 7.416-3.198.887-6.551-1.009-7.438-4.208-.887-3.199 1.034-6.469 4.231-7.356zm1.253 138.586c2.214-.614 4.437.713 5.051 2.927a4.086 4.086 0 0 1-7.874 2.184c-.613-2.215.608-4.497 2.823-5.111zm-9.231 17.664c3.854-1.069 7.834 1.184 8.88 4.956a7.227 7.227 0 0 1-5.036 8.904c-3.774 1.047-7.755-1.206-8.824-5.06-1.046-3.772 1.205-7.753 4.98-8.8zm127.218-94.461a1.926 1.926 0 0 1 2.41 1.363c.296 1.066-.273 2.195-1.34 2.492-1.065.295-2.136-.379-2.432-1.445s.298-2.115 1.362-2.41zm-33.938-28.744a4.577 4.577 0 0 1 5.657 3.201 4.577 4.577 0 0 1-3.201 5.657 4.577 4.577 0 0 1-5.657-3.201 4.577 4.577 0 0 1 3.201-5.657zm-1.118 17.622c.982-.272 2.113.297 2.409 1.363.296 1.066-.357 2.219-1.34 2.491-1.068.296-2.219-.356-2.514-1.422-.296-1.066.377-2.136 1.445-2.432z"></path><path fill="#FFF" d="m512.841 515.446 32.001-1.81.012 1.321-32.949 1.896-32.862 51.245 19.017 68.565 37.821-57.567 1.071.674-38.415 58.614 32.96 118.84 55.971-67.281-.369 2.487-35.499 42.702 26.62 3.304c-.132.478-.205.852-.338 1.33l-27.343-3.368-18.609 22.384 17.606 63.48-1.314.364-25.59-92.267-36.971-18.981.628-1.234 35.866 18.493-17.697-63.808-49.586-22.107c-12.243 3.307-37.773 10.3-52.783 14.463-.194-.388-.392-.775-.608-1.244 15.911-4.413 43.161-11.882 51.386-14.075l-68.53-30.543-.478-1.722 120.122 53.507-35.303-127.288-39.518-10.326.359-1.248 38.749 10.097-14.968-53.964-73.614-35.492c.05-.456.184-.934.234-1.39l36.607 17.669c-5.136-14.385-12.495-34.867-13.164-36.006l.527-.323-.023-.082-.323-.529.598-.077c.396.155.793.31 14.121 37.861l34.56 16.647L413.811 338c.273-.606.452-.92.452-.92s.313.178.862.556l30.617 110.393 16.202-73.74c.36.342.72.684 1.162 1.003l-16.591 75.526 32.051 115.559 63.323-98.732c.301.446.497.834.798 1.28l-29.846 46.521z"></path><path fill="#BED8DD" d="M1265.234 506.525c-4.95.23-27.61 1.28-59.03 7.2-.48.11-.97.22-1.51.26-18.1 3.53-38.95 8.61-61.01 16-.73.22-1.47.68-2.02 1.2-13.13 12.76-16.96 27.28-10.68 43.71-10.3-8.53-16.49-19.42-15.78-34.27-8.53 3.49-17.12 7.41-25.67 11.74-.49.23-.86.46-1.35.69-26.08 13.3-51.96 30.27-75.15 52.2-11.44 10.82-21.76 22.45-31.01 34.35l-1.9 29.45s-5.22-4.9-11.38-11.03c-13.5 20.15-24.32 40.92-33.07 61.14-.33.78-.65 1.55-.97 2.32-6.57 15.23-11.86 30.08-16.16 43.98-.14.48-.27.84-.4 1.32-7.11 23.1-11.49 43.52-14.13 58.63-.61 3.47-1.12 6.66-1.56 9.54h101.49c9.52-2.74 19.38-5.89 29.41-9.54 25.63-9.3 52.44-21.79 77.97-38.54.37-.23.74-.46 1.17-.75 13.06-8.6 25.74-18.36 37.72-29.34l1.3-1.23c.68-.53 1.36-1.17 1.98-1.75 22.57-21.35 40.65-45.59 55.24-70.16-8.561 2.59-15.7-.38-22.29-5.99 9.17 1.771 23.41.36 33.33-14.17 8.09-15.85 14.8-31.68 20.4-46.82.191-.41.32-.89.521-1.31 19.96-54.83 24.79-100.63 25.47-107.84.08-.66.09-1.02.09-1.02s-.362-.011-1.021.03zm-118.451 37.269a4.589 4.589 0 0 1 6.5.18 4.589 4.589 0 0 1-.18 6.5 4.589 4.589 0 0 1-6.5-.18 4.589 4.589 0 0 1 .18-6.5zm-4.41 15.771c.8-.76 2.06-.66 2.76.08.76.8.789 2.07-.02 2.83-.8.76-2.12.72-2.88-.08-.7-.741-.67-2.07.14-2.83zm-35.77-8.59c.81-.76 2.01-.72 2.77.08.76.81.73 2.01-.08 2.77-.8.76-2.07.78-2.83-.02-.76-.8-.66-2.06.14-2.83zm62.631 156.79c-2.91 2.75-7.48 2.62-10.17-.23-2.75-2.9-2.62-7.47.28-10.22 2.85-2.69 7.42-2.57 10.17.34 2.689 2.85 2.559 7.42-.28 10.11zm1.269-24.17a4.08 4.08 0 0 1-5.77-.16 4.089 4.089 0 0 1 .16-5.78c1.67-1.57 4.26-1.56 5.84.11 1.58 1.67 1.44 4.25-.23 5.83zm72.71-115.37c-2.41 2.28-6.26 2.18-8.54-.24-2.28-2.41-2.12-6.2.29-8.48a5.932 5.932 0 0 1 8.43.24c2.28 2.409 2.23 6.199-.18 8.48zm5.69-20.25c-.24 2.1-2.15 3.55-4.19 3.38-2.1-.24-3.62-2.09-3.38-4.19.24-2.1 2.09-3.62 4.19-3.38 2.04.179 3.61 2.09 3.38 4.19z"></path><path fill="#FFF" d="m1266.163 507.515-106.06 100.29 38.19 3.6c30.81-25.27 31.23-25.2 31.65-25.13l.47.38-.55.29-.06.05.29.55c-1.17.63-18.05 14.37-29.88 24.03l40.48 3.78c-.2.42-.33.9-.521 1.31l-81.37-7.63-40.69 38.48 38.4 11.37-.34 1.25-39.17-11.57-95.98 90.75 130.49 16.24-1.3 1.23-74.45-9.25c5.91 6.12 25.38 26.6 36.73 38.59-.43.29-.8.52-1.17.75-10.7-11.31-28.95-30.49-37.72-39.64l-53.88-6.69-48.11 45.5 40.26 2.69-.1 1.38-41.46-2.85-40.35 38.15-10.09 9.54h-1.98l10.09-9.54 19.68-18.61-4.37-28.78-25.15-11.24c.13-.48.26-.84.4-1.32l24.5 10.93-8.34-54.91c.32-.77.64-1.54.97-2.32l13.17 86.53 89.61-84.74-2.62-70.03 1.27-.021 2.65 68.83 51.7-48.89-1.67-60.85-27.23-18.65.69-1.12 26.47 18.08-1.53-55.25c.49-.23.86-.46 1.35-.69l3.22 117.25 87.13-82.39 24.81-73.24c.54-.04 1.03-.15 1.51-.26l-24.21 71.51 83.24-78.71c.66-.04 1.02-.03 1.02-.03s-.009.361-.089 1.021z"></path><path fill="#BED8DD" d="m799.301 598.378 13.58 26.201s-7.004-1.501-15.439-3.575c-1.155 24.234.313 47.605 3.265 69.445l.369 2.487c2.244 16.432 5.38 31.876 8.88 46.007.132.478.205.852.338 1.33 11.161 44.785 25.808 76.051 28.551 81.758.276.607.452.92.452.92s.315-.177.862-.556c9.598-6.259 98.815-66.482 145.929-164.703.194-.388.391-.775.608-1.245 6.742-14.117 12.555-29.021 17.144-44.618l.478-1.722c.309-.797.56-1.7.787-2.52 8.303-29.936 11.263-60.028 11.063-88.612-5.993 6.64-13.64 7.787-22.176 6.391 8.757-3.224 20.23-11.789 21.217-29.357-1.26-17.749-3.695-34.765-6.718-50.618-.05-.456-.183-.934-.234-1.39-11.233-57.258-30.753-98.973-33.891-105.497-.274-.606-.452-.92-.452-.92s-.313.178-.862.556c-4.116 2.745-22.981 15.354-46.819 36.653-.36.342-.719.684-1.162 1.003-13.676 12.37-28.909 27.488-43.981 45.212-.51.565-.901 1.34-1.106 2.078-4.645 17.702-.43 32.119 13.437 42.943-13.225-1.99-24.156-8.113-31.214-21.199a350.938 350.938 0 0 0-15.918 23.319c-.301.446-.497.834-.798 1.28-15.462 24.859-28.855 52.764-37.385 83.52-4.21 15.172-7.036 30.463-8.805 45.429zm179.334-211.259c-1.922.88-4.173.079-5.054-1.843-.879-1.922-.078-4.173 1.843-5.053 1.84-.903 4.173-.079 5.055 1.844.879 1.921-.005 4.149-1.844 5.052zm7.437 15.223c-.887 3.199-4.24 5.095-7.438 4.208-3.199-.887-5.015-4.217-4.128-7.416a5.921 5.921 0 0 1 7.335-4.148c3.198.887 5.118 4.157 4.231 7.356zm-2.661 136.341c-.591 2.132-2.814 3.459-5.029 2.845-2.214-.614-3.436-2.896-2.845-5.029.614-2.214 2.837-3.541 5.051-2.927 2.216.615 3.437 2.897 2.823 5.111zm11.388 21.353c-1.069 3.855-5.049 6.107-8.824 5.06a7.227 7.227 0 0 1-5.036-8.904c1.046-3.773 5.026-6.025 8.88-4.956 3.775 1.047 6.027 5.028 4.98 8.8zM863.964 459.184c-.296 1.066-1.367 1.741-2.432 1.445-1.068-.296-1.636-1.425-1.34-2.492a1.925 1.925 0 0 1 2.409-1.363 1.927 1.927 0 0 1 1.363 2.41zm35.777-25.495a4.577 4.577 0 0 1-5.657 3.201 4.578 4.578 0 0 1-3.201-5.657 4.576 4.576 0 0 1 5.657-3.2 4.576 4.576 0 0 1 3.201 5.656zm-.638 14.396c-.296 1.066-1.446 1.719-2.514 1.422-.983-.273-1.635-1.425-1.34-2.491.296-1.066 1.426-1.636 2.409-1.363 1.068.296 1.741 1.366 1.445 2.432z"></path><path fill="#FFF" d="m875.334 515.95-32.001-1.81-.012 1.321 32.949 1.896 32.862 51.245-19.016 68.565-37.821-57.567-1.071.674 38.415 58.614-32.96 118.84-55.971-67.281.369 2.487 35.499 42.702-26.62 3.304c.132.478.205.852.338 1.33l27.343-3.368 18.609 22.384-17.606 63.48 1.314.364 25.59-92.267 36.971-18.981-.628-1.234-35.866 18.493 17.697-63.808 49.586-22.107c12.243 3.307 37.773 10.3 52.783 14.463.194-.388.391-.775.608-1.245-15.911-4.413-43.161-11.882-51.385-14.075l68.53-30.543.478-1.722-120.122 53.507 35.303-127.288 39.518-10.326-.359-1.248-38.749 10.097 14.968-53.966 73.614-35.492c-.05-.456-.183-.934-.234-1.39l-36.607 17.669c5.136-14.385 12.495-34.867 13.164-36.006l-.527-.323.023-.082.323-.529-.598-.077c-.396.155-.793.31-14.121 37.861l-34.56 16.647 39.011-140.656c-.274-.606-.452-.92-.452-.92s-.313.178-.862.556l-30.617 110.393-16.202-73.74c-.36.342-.719.684-1.162 1.003l16.591 75.526-32.051 115.561-63.323-98.732c-.301.446-.497.834-.798 1.28l29.845 46.521z"></path><path fill="#067962" d="m215.932 782.198.118.053c10.515 13.162 18.888 26.492 23.744 37.225l2.148-.981c-4.808-10.624-13.034-23.767-23.364-36.811 2.439-7.441 1.712-22.215 1.7-22.371l-2.354.144c.171 2.77.376 13.623-1.132 20.025-5.924-7.304-12.487-14.5-19.471-21.188 1.301-7.666-1.704-22.326-1.735-22.483l-2.307.526c.033.135 2.574 12.551 1.98 19.972-13.014-12.119-27.357-22.271-41.632-27.544l-.824 2.213c11.906 4.398 23.859 12.274 35.035 21.841-5.349 1.969-15.127 5.1-19.955 4.618l-.237 2.359c6.245.616 18.575-3.838 22.194-5.209 6.491 5.723 12.679 11.973 18.421 18.456-3.265 2.006-14.042 8.417-19.71 8.942l.226 2.358c6.448-.607 18.155-7.686 21.074-9.508a239.711 239.711 0 0 1 6.102 7.3c-.007.017-.012.045-.021.063z"></path><path fill="#0AC69F" d="M197.389 748.227s-19.349-23.966-32.031-57.73c-12.682-33.765-13.894-64.542-13.894-64.542s19.349 23.966 32.031 57.73c12.682 33.765 13.894 64.542 13.894 64.542z"></path><path fill="#089577" d="M219.155 769.355s-8.01-25.039-5.969-55.117c2.042-30.078 13.362-53.805 13.362-53.805s8.01 25.039 5.968 55.117-13.361 53.805-13.361 53.805zM67.796 766.464s23.603-11.577 53.657-13.945c30.054-2.368 55.179 5.37 55.179 5.37s-23.603 11.577-53.658 13.945c-30.053 2.368-55.178-5.37-55.178-5.37z"></path><path fill="#0AC69F" d="M99.719 820.392s18.885-18.289 46.746-29.805c27.861-11.517 54.148-11.9 54.148-11.9s-18.885 18.289-46.746 29.805c-27.862 11.516-54.148 11.9-54.148 11.9zM165.921 735.883s-30.052-6.756-60.968-25.332c-30.916-18.577-50.989-41.939-50.989-41.939s30.051 6.755 60.968 25.332c30.917 18.577 50.989 41.939 50.989 41.939z"></path><path fill="#067962" d="m1192.392 731.062-.003.131c-7.983 15.009-16.929 28.075-24.849 36.827l1.707 1.631c7.839-8.664 16.671-21.519 24.617-36.308 7.692-.623 20.852-7.083 20.99-7.155l-1.023-2.151c-2.454 1.244-12.247 5.681-18.641 6.771 4.396-8.412 8.451-17.382 11.885-26.547 7.465-1.778 19.658-10.33 19.789-10.421l-1.354-1.958c-.11.084-10.438 7.323-17.412 9.668 6.085-16.945 9.879-34.367 9.26-49.817l-2.325.093c.515 12.886-2.114 27.176-6.576 41.399-3.819-4.246-10.375-12.192-11.767-16.908l-2.235.701c1.808 6.098 10.535 15.919 13.155 18.777-2.743 8.326-6.08 16.574-9.798 24.494-3.062-2.278-12.98-9.878-15.607-14.988l-2.059 1.134c2.998 5.81 13.875 14.02 16.639 16.046a244.303 244.303 0 0 1-4.325 8.577c-.021-.001-.049.005-.068.004z"></path><path fill="#0AC69F" d="M1216.253 700.385s14.457-27.519 40.354-52.618c25.897-25.099 53.428-38.273 53.428-38.273s-14.457 27.519-40.354 52.618c-25.897 25.1-53.428 38.273-53.428 38.273z"></path><path fill="#089577" d="M1205.293 729.062s19.734-17.305 47.862-27.154 54-8.512 54-8.512-19.734 17.305-47.862 27.154-54 8.512-54 8.512zM1150.52 585.981s19.48 17.608 33.031 44.868c13.552 27.26 16.043 53.85 16.043 53.85s-19.479-17.608-33.031-44.869c-13.552-27.26-16.043-53.849-16.043-53.849z"></path><path fill="#0AC69F" d="M1113.583 637.01s23.794 10.559 44.834 32.184c21.04 21.625 31.358 46.128 31.358 46.128s-23.794-10.559-44.834-32.184c-21.04-21.626-31.358-46.128-31.358-46.128zM1215.545 666.047s-5.253-30.826-.084-67.086c5.17-36.259 18.803-64.222 18.803-64.222s5.253 30.826.084 67.086c-5.169 36.259-18.803 64.222-18.803 64.222z"></path><path fill="#F9CBCB" d="M914.564 825.744c-.129.709-.194 1.419-.257 2.128 0 .322-25.926.58-65.461.774-84.162.387-229.978.387-318.268 0-44.501-.129-74.424-.387-74.424-.774 0-1.934-20.058-122.406 10.446-183.609 26.056-55.269 104.413-33.471 147.88-62.235 21.153-14.059 27.28-62.751 28.055-94.609h85.387c.773 31.858 6.901 80.551 28.055 94.609 10.706 7.094 23.604 11.093 37.277 13.93 25.989 5.482 54.881 6.707 77.776 16.961h.065c13.802 6.191 25.409 15.672 32.763 31.343 28.312 56.883 13.028 164.843 10.706 181.482z"></path><path fill="#EBA6A6" d="M793.255 595.958v.064c-73.458.517-61.362-65.377-91.414-65.739-34.91-.421-60.575-21.208-60.575-21.208l14.815-21.656h71.843c.773 31.858 6.901 80.551 28.055 94.609 10.705 7.094 23.603 11.093 37.276 13.93zM570.823 598.84c7.78 4 15.668 7.438 23.883 9.871 8.173 2.511 16.553 4.24 25.009 5.384 8.531 1.183 16.89 1.383 25.756 1.631 8.869.373 18.393 3.846 23.353 11.294-6.285-6.177-15.14-8.094-23.4-7.865-8.509.809-17.587.777-26.318-.297-8.767-1.163-17.477-3.173-25.674-6.551-8.21-3.292-15.985-7.722-22.609-13.467zM802.995 598.84c-6.624 5.744-14.398 10.175-22.608 13.467-8.197 3.378-16.905 5.388-25.672 6.551-8.73 1.074-17.811 1.106-26.318.297-8.261-.228-17.116 1.688-23.4 7.865 4.958-7.447 14.484-10.921 23.351-11.294 8.868-.248 17.227-.448 25.756-1.631 8.458-1.144 16.836-2.873 25.011-5.384 8.212-2.432 16.1-5.87 23.88-9.871zM536.665 768.55c2.134-16.672 5.334-32.865 10.08-48.804 2.343-7.947 5.153-15.788 8.747-23.265 3.6-7.424 7.841-14.747 13.919-20.344-5.465 6.178-8.838 13.729-11.608 21.309-2.754 7.625-4.707 15.522-6.199 23.493-3.028 15.892-4.54 32.242-4.947 48.224l-9.992-.613zM834.438 760.231c-.355-13.818-1.66-27.954-4.279-41.694-1.288-6.891-2.977-13.719-5.358-20.312-2.395-6.553-5.314-13.082-10.037-18.424 5.253 4.839 8.922 11.171 12.032 17.589 3.11 6.464 5.54 13.244 7.566 20.115 4.103 13.781 6.869 27.782 8.715 42.196l-8.639.53z"></path><path fill="#F56181" d="M848.849 828.645c-9.884.05-20.559.088-31.837.113-72.754.239-170.801.251-246.393.037h-.013c-12.509-.037-24.377-.075-35.429-.126-7.259-27.102-3.68-57.382 5.149-80.515 1.808-1.494 4.044-2.913 6.669-4.258 25.13-12.898 85.275-18.436 129.721-4.835 12.257 3.742 25.407 4.132 37.601.138 41.08-13.489 100.66-9.068 127.159 11.052l.012.013v.025c9.27 21.038 12.523 50.965 7.361 78.356z"></path><path fill="#EBA6A6" d="M914.564 825.744c11.142-141.1-14.094-194.412-43.532-212.824h.065c13.802 6.191 25.409 15.672 32.763 31.343 28.31 56.882 9.381 198.229 10.704 181.481z"></path><path fill="#DB4A6A" d="M713.78 739.371c-8.969 5.193-13.441 28.176-13.441 28.176 0-8.404-9.936-22.209-13.442-26.164 8.938 1.393 18.092.874 26.744-1.966l.139-.046zM841.489 750.265v.025c-.012-.025-.012-.038-.012-.038l.012.013zM848.849 828.645c-9.884.05-20.559.088-31.837.113-.138-.075-.201-.113-.201-.113 37.828-8.088 25.017-76.571 24.678-78.355 9.269 21.037 12.522 50.964 7.36 78.355zM570.606 828.796c-12.509-.037-24.377-.075-35.429-.126-7.259-27.102-3.68-57.382 5.149-80.515 1.808-1.494 4.044-2.913 6.669-4.258-.501 2.626-13.425 72.805 23.611 84.899z"></path><path fill="#F9CBCB" d="M800.158 423.096c-1.723.863-3.446 1.438-5.463 2.301v-4.028l-.863-43.443c3.456-9.207 5.751-18.988 7.48-29.345v-.288c7.193-3.74 18.7-8.056 29.058-2.877 13.81 6.905 26.181 52.075-30.212 77.68z"></path><path fill="#F9CBCB" d="M809.169 322.293c-1.73 10.357-4.026 20.139-7.481 29.345l-.288-21.001v-3.453l.864-.862c1.15-.577 3.451-2.302 6.905-4.029z"></path><path fill="#F0B4B4" d="m564.62 334.087-.288 8.632-.288 15.536c-4.026-8.919-6.906-18.126-8.347-27.045 0-.863.288-1.726.575-2.301h.291c2.013 1.15 3.742 2.014 5.179 3.164 1.723 1.151 2.878 2.014 2.878 2.014z"></path><path fill="#F9CBCB" d="M808.194 381.331c-1.87 29.15-12.061 56.623-27.538 79.067-7.674 11.286-16.703 21.346-26.828 29.73-20.187 16.833-44.501 26.958-69.846 26.958-35.083 0-76.488-27.087-102.413-66.491-15.479-23.024-25.281-50.627-25.281-79.39 0-3.677.129-7.288.387-10.834 8.836-.904 65.782-47.338 67.459-102.544 49.465 96.287 164.391 53.013 169.679 164.907 5.288-5.675 10.899-23.411 14.381-41.403z"></path><path fill="#F9CBCB" d="M808.582 371.205c0 3.418-.129 6.772-.388 10.126-3.483 17.993-9.093 35.728-14.382 41.403-5.288-111.894-120.214-68.62-169.679-164.907-1.677 55.206-58.623 101.64-67.459 102.544 3.225-46.822 27.216-87.259 61.72-109.895 9.028-5.933 18.831-10.641 29.086-13.93 11.093-3.546 22.766-5.482 34.825-5.482 35.6 0 67.846 16.446 90.87 42.887 21.927 25.217 35.407 59.461 35.407 97.254z"></path><path fill="#F9CBCB" d="m577.138 380.514-1.154 51.786c-.573-.287-.86-.575-1.436-.575v-.288c-2.876-1.151-5.469-2.301-8.052-3.452-58.982-30.784-38.842-72.789-25.321-79.694 10.074-4.891 21-1.151 28.193 2.877-.288.575-.576 1.438-.576 2.302 1.441 8.918 4.321 18.125 8.346 27.044z"></path><path fill="#021450" d="M811.419 356.823c-.387 7.416-1.548 15.994-3.225 24.508-3.483 17.993-9.093 35.728-14.382 41.403-5.288-111.894-120.214-68.62-169.679-164.907-1.677 55.206-58.623 101.64-67.459 102.544-.579.128-.967 0-1.096-.388-9.095-28.055-20.516-41.654-7.684-82.066 31.599-99.511 113.729-85.999 129.966-85.768 121.576 1.729 132.649 79.344 139.228 109.592 3.097 13.929-4.444 34.638-5.669 55.082z"></path><path fill="#F56181" d="M660.312 457.503c8.989 3.562 17.995 4.691 27.312 4.734 9.313.207 18.475-.776 27.31-4.734-3.756 3.058-13.623 9.723-27.31 9.723-10.011-.14-19.6-3.908-27.312-9.723z"></path><path fill="#021450" d="M632.842 382.974c-12.752 0-21.82-10.232-31.019-10.094-4.545.068-7.684 2.614-8.886 3.391 2.237-.712 8.094-1.154 8.094-1.154-4.296.544-8.501 6.512-8.501 6.512.722-.904 4.159-3.075 10.038-3.437.927-.057 1.929.218 3.006.678-3.336 1.049-5.483 3.426-6.858 5.466 2.674-1.68 6.336-3.395 10.406-3.536 5.494 3.423 12.942 8.995 23.915 8.995 12.48 0 26.778-7.08 32.474-17.39-6.036 4.68-16.255 10.569-32.669 10.569zM725.342 383.485c12.752 0 21.307-10.743 30.507-10.605 4.544.068 7.682 2.614 8.886 3.391-2.239-.712-8.094-1.154-8.094-1.154 4.296.544 8.501 6.512 8.501 6.512-.724-.904-4.16-3.075-10.039-3.437-.926-.057-1.928.218-3.006.678 3.336 1.049 5.484 3.426 6.858 5.466-2.674-1.68-6.336-3.395-10.407-3.536-5.493 3.423-12.94 8.995-23.914 8.995-12.48 0-26.777-7.08-32.474-17.39 6.036 4.68 16.767 11.08 33.182 11.08z"></path><path fill="#80D3C3" d="M786.593 420.608c-.277-94.38-105.724-63.288-152.011-129.696-13.092 36.76-43.211 66.298-61.461 77.52-1.327 85.146 98.48 188.363 176.385 111.76 14.84-14.391 37.153-36.957 37.087-59.584zm-100.675 4.641c7.932 0 8.577-7.094 14.188-3.741 5.805 3.483 2.322 14.898-13.156 15.8-22.771.246-24.082-22.798-1.032-12.059zm-88.807-30.376c-36.995-45.09 96.384-64.043 68.429-.966-6.386 6.964-48.822 18.636-68.429.966zm93.192 91.128c-32.723-1.278-46.861-22.546-39.7-34.147 4.297-6.959 15.622-9.556 36.991-4.738 21.798-1.165 31.953-6.413 38.433 2.946 8.516 12.302-1.578 33.122-35.724 35.939zm69.476-91.459c-19.604 17.671-59.416 6.329-65.8-.636-7.863-17.746-3.803-29.254 5.45-35.564 14.203-9.683 40.639-7.116 54.971 3.95 9.532 7.36 13.71 18.477 5.379 32.25z"></path><path fill="#51595F" d="M1258.928 787.451c0 27.257-60.8 49.353-135.815 49.353s-135.815-22.096-135.815-49.353c0-12.901 13.605-24.63 35.889-33.403 24.817-9.805 60.378-15.95 99.926-15.95 47.524 0 89.324 8.867 113.578 22.284 14.074 7.787 22.237 17.076 22.237 27.069z"></path><path fill="#3D4347" d="M1232.823 758.366c7.051 5.97 10.97 12.544 10.97 19.452 0 27.261-60.807 49.36-135.817 49.36-45.073 0-84.997-7.986-109.701-20.27 20.775 17.587 68.846 29.908 124.846 29.908 75.01 0 135.817-22.099 135.817-49.36 0-10.88-9.707-20.931-26.115-29.09z"></path><path fill="#292D30" d="M1236.69 760.381c-7.272 22.894-60.19 22.237-119.067 17.64-44.708-3.518-76.422-12.901-94.437-23.973 24.817-9.805 60.378-15.95 99.926-15.95 47.524 0 89.324 8.866 113.578 22.283z"></path><path fill="#51595F" d="M1238.942 747.621c-2.815 26.553-57.985 26.084-119.818 21.205-75.624-5.911-114.094-28.711-111.888-47.758 1.36-11.869 15.153-20.126 35.841-24.958 24.911-5.77 59.768-6.568 94.719-2.58 23.269 2.674 43.395 6.943 59.393 12.667 28.055 9.898 43.583 24.16 41.753 41.424z"></path><path fill="#3D4347" d="M1223.985 719.72c3.809 5.483 5.582 11.425 4.905 17.804-2.816 26.535-58.003 26.071-119.825 21.22-48.844-3.833-82.086-14.706-98.991-27.054 10.205 16.148 47.172 32.294 109.062 37.15 61.821 4.851 117.008 5.314 119.824-21.22 1.12-10.537-4.287-19.916-14.975-27.9z"></path><path fill="#302621" d="M1197.189 706.196c-13.371 10.321-35.655 17.686-66.758 15.294-45.319-3.425-83.506-7.741-87.354-25.38 24.911-5.77 59.768-6.568 94.719-2.58 23.27 2.674 43.396 6.943 59.393 12.666z"></path><path fill="#51595F" d="M1214.735 670.683c1.642 19.047-25.849 46.163-81.584 41.941-46.773-3.518-85.945-8.022-87.634-27.116-.797-9.242 7.366-18.39 21.299-25.896 14.824-7.928 36.217-13.933 60.284-16.044 23.691-2.111 45.413 0 61.316 5.067 15.529 4.924 25.475 12.618 26.319 22.048z"></path><path fill="#3D4347" d="M1204.049 655.801c2.013 2.627 3.307 5.438 3.57 8.445 1.674 19.078-25.819 46.192-81.568 41.968-33.961-2.573-63.843-5.68-78.349-14.477 8.985 13.907 44.259 17.781 85.446 20.902 55.749 4.225 83.241-22.889 81.568-41.967-.497-5.654-4.356-10.677-10.667-14.871z"></path><path fill="#302621" d="M1188.416 648.633c-12.667 9.148-34.575 16.326-59.909 18.531-25.004 2.205-47.57-.938-61.691-7.553 14.824-7.928 36.217-13.933 60.284-16.044 23.691-2.112 45.413-.001 61.316 5.066z"></path><path fill="#51595F" d="M1200.051 622.455c1.455 16.889-30.587 33.45-71.543 37.062-41.003 3.612-75.437-7.178-76.891-24.02-1.314-14.637 22.519-28.992 55.546-34.904a166.713 166.713 0 0 1 15.998-2.158c15.247-1.361 29.556-.704 41.612 1.501 20.406 3.754 34.34 11.964 35.278 22.519z"></path><path fill="#3D4347" d="M1186.5 606.863c4.947 3.57 7.985 7.767 8.397 12.461 1.48 16.867-30.547 33.457-71.535 37.053-26.033 2.285-49.381-1.236-63.36-8.421 12.828 9.257 38.917 14.162 68.496 11.567 40.988-3.597 73.015-20.186 71.535-37.053-.54-6.153-5.503-11.48-13.533-15.607z"></path><ellipse cx="1127.424" cy="583.11" fill="#51595F" rx="19.008" ry="40.469" transform="rotate(-81.031 1127.42 583.088)"></ellipse><path fill="#302621" d="M1164.772 599.937c-6.991 5.958-22.144 8.538-38.939 5.911-6.896-1.126-13.229-2.956-18.672-5.254a166.713 166.713 0 0 1 15.998-2.158c15.247-1.361 29.556-.704 41.613 1.501z"></path><path fill="#3D4347" d="M1154.569 572.327c4.916 4.06 7.539 8.623 6.842 13.034-1.636 10.37-20.86 15.952-42.937 12.468-9.389-1.482-17.762-4.372-24.182-7.993 6.64 5.484 17.484 10.048 30.169 12.05 22.077 3.484 41.301-2.098 42.938-12.468.94-5.96-4.154-12.196-12.83-17.091z"></path><path fill="#979B9F" d="M1084.8 624.474c-7.632 3.624-14.879 4.331-16.186 1.578-1.307-2.753 3.82-7.922 11.452-11.547 7.632-3.624 14.879-4.331 16.186-1.578 1.307 2.753-3.82 7.923-11.452 11.547zM1110.246 573.443c-5.43.893-10.092.029-10.414-1.93-.322-1.958 3.818-4.269 9.248-5.162 5.429-.893 10.092-.029 10.414 1.93.322 1.958-3.818 4.27-9.248 5.162zM1178.816 680.981c-8.189 3.29-15.789 3.562-16.976.609-1.186-2.953 4.49-8.015 12.679-11.305 8.189-3.29 15.789-3.562 16.976-.609s-4.49 8.015-12.679 11.305zM1039.814 728.661c-8.318-2.948-14.199-7.771-13.136-10.771 1.063-3 8.669-3.042 16.987-.094 8.318 2.948 14.199 7.771 13.136 10.771-1.064 3.001-8.669 3.043-16.987.094zM1023.335 793.63c-8.318-2.948-14.199-7.771-13.136-10.771 1.063-3 8.668-3.042 16.987-.094 8.318 2.948 14.199 7.77 13.136 10.771-1.063 3.001-8.669 3.043-16.987.094zM1209.915 744.516c-4.591 2.337-9.387 2.124-10.711-.476-1.324-2.601 1.325-6.604 5.917-8.941s9.387-2.124 10.711.476c1.324 2.601-1.325 6.604-5.917 8.941zM1198.616 660.896c.445.863-.563 2.27-2.253 3.141-1.69.871-3.42.878-3.865.014-.445-.864.563-2.27 2.253-3.141 1.689-.871 3.419-.877 3.865-.014zM1071.18 635.937c.132.962-1.287 1.953-3.171 2.211s-3.517-.312-3.65-1.274c-.132-.963 1.287-1.953 3.171-2.212 1.884-.259 3.518.312 3.65 1.275zM1053.321 807.055c-.077 1.445-2.432 2.495-5.26 2.345-2.828-.15-5.058-1.444-4.982-2.889.077-1.445 2.432-2.495 5.26-2.345 2.828.15 5.059 1.443 4.982 2.889zM1219.736 790.523c.397 1.392-1.488 3.151-4.212 3.928-2.723.778-5.253.279-5.651-1.113-.397-1.392 1.488-3.151 4.212-3.928 2.723-.777 5.253-.279 5.651 1.113zM1066.968 683.032c.397 1.392-1.488 3.151-4.212 3.928-2.723.777-5.253.279-5.65-1.113-.397-1.392 1.488-3.151 4.211-3.928 2.724-.777 5.254-.278 5.651 1.113z"></path><path fill="#72748D" d="M273.662 575.222c1.301-1.554.038-9.851-1.25-16.539-2.555-13.243 3.331-19.622 3.389-19.682l-1.881-1.79c-.281.297-6.863 7.423-4.059 21.964 2.37 12.303 1.673 14.559 1.643 14.65l.819.279 1.339 1.118z"></path><path fill="#F3B4C5" d="m222.441 598.484 22.552-26.557a15.556 15.556 0 0 1 11.758-5.486l25.514-.161a15.556 15.556 0 0 1 12.18 5.757l21.044 26.832c-33.993 2.274-64.687 2.375-93.048-.385z"></path><path fill="#F0A1B6" d="M294.445 572.036c-2.444-3.014-5.911-4.958-9.688-5.548 2.484 2.353 4.457 5.32 3.364 11.371-1.907 10.56-11.281 18.203-22.011 18.374-14.23.227-27.885-.033-40.982-.915l-.706.837a8.315 8.315 0 0 0-1.956 5.357l-.025 219.83a4.912 4.912 0 0 0 4.913 4.914h83.627c2.713 0 4.913-2.2 4.913-4.913V601.435a8.315 8.315 0 0 0-1.857-5.239l-19.592-24.16z"></path><path fill="#DB8198" d="m314.038 596.196-19.593-24.16c-2.247-2.77-5.362-4.623-8.783-5.364l18.288 22.55a8.323 8.323 0 0 1 1.857 5.239v171.803c0 29.282-23.738 53.019-53.019 53.019h-30.346v2.059a4.912 4.912 0 0 0 4.913 4.914h83.627c2.713 0 4.913-2.2 4.913-4.913V601.435a8.315 8.315 0 0 0-1.857-5.239z"></path><path fill="#F9D9E2" d="M250.615 581.856c-3.626 4.732-7.903 7.542-9.554 6.277-1.652-1.266-.051-6.127 3.574-10.859s7.903-7.542 9.554-6.276c1.651 1.265.051 6.126-3.574 10.858z"></path><path fill="#FF772E" d="M275.922 539.344c-6.015.44-19.181-7.694-14.009-23.443 5.171-15.749 6.944-39.572 2.864-49.444 12.94 7.391 23.933 35.829 25.782 49.902 1.569 11.943-2.75 22.116-14.637 22.985z"></path><path fill="#FFDBA0" d="M275.435 532.335c-.926-.01-3.909-1.125-5.899-3.874-1.987-2.742-2.306-6.232-.947-10.367 2.746-8.363 4.705-19.172 5.292-29.378 4.887 9.506 8.703 20.895 9.708 28.562.696 5.302-.083 9.794-2.141 12.319-1.335 1.64-3.302 2.535-6.013 2.738z"></path><path fill="#72748D" d="M384.259 676.545c-1.116-1.334-.033-8.453 1.072-14.192 2.193-11.364-2.858-16.837-2.908-16.889l1.614-1.536c.241.254 5.889 6.369 3.482 18.847-2.034 10.557-1.436 12.493-1.409 12.571l-.703.239-1.148.96z"></path><path fill="#9DBAF7" d="m344.489 699.351 19.352-22.788a13.349 13.349 0 0 1 10.09-4.708l21.893-.138a13.346 13.346 0 0 1 10.451 4.94L421.495 700c-29.168 1.952-52.67 1.719-77.006-.649z"></path><path fill="#84A9F5" d="M406.274 676.656a13.328 13.328 0 0 0-8.313-4.76c2.132 2.019 3.824 4.565 2.887 9.757-1.636 9.062-9.68 15.619-18.887 15.766-12.21.195-23.928-.029-35.165-.785l-.605.717a7.142 7.142 0 0 0-1.679 4.598l-.021 122.67a4.215 4.215 0 0 0 4.216 4.217h71.758a4.217 4.217 0 0 0 4.216-4.216V701.883a7.135 7.135 0 0 0-1.594-4.495l-16.813-20.732z"></path><path fill="#637FB8" d="m423.086 697.388-16.812-20.731a13.262 13.262 0 0 0-5.789-4.106l15.859 19.556a7.135 7.135 0 0 1 1.594 4.495v89.665c0 20.594-16.695 37.289-37.289 37.289h-36.158v1.064a4.215 4.215 0 0 0 4.216 4.217h71.758a4.216 4.216 0 0 0 4.216-4.216V701.883a7.142 7.142 0 0 0-1.595-4.495z"></path><path fill="#CEDDFB" d="M368.664 685.082c-3.111 4.06-6.781 6.471-8.198 5.386-1.417-1.086-.044-5.257 3.067-9.317 3.111-4.06 6.781-6.471 8.198-5.386 1.417 1.086.044 5.257-3.067 9.317z"></path><path fill="#FF772E" d="M385.374 652.503c-5.274.386-16.818-6.746-12.284-20.555 4.534-13.809 6.089-34.697 2.512-43.353 11.346 6.481 20.985 31.416 22.606 43.755 1.376 10.471-2.411 19.391-12.834 20.153z"></path><path fill="#FFDBA0" d="M384.948 646.357c-.813-.009-3.427-.987-5.172-3.397-1.742-2.404-2.022-5.464-.83-9.09 2.407-7.333 4.125-16.811 4.639-25.759 4.285 8.335 7.631 18.321 8.512 25.043.611 4.649-.072 8.587-1.877 10.802-1.171 1.438-2.895 2.224-5.272 2.401z"></path><path fill="#CAD6F0" d="M910.753 794.666c0-25.266 26.676-46.928 59.583-46.928s57.149 23.125 57.149 48.391-22.172 38.251-55.079 38.251c-32.906 0-61.653-14.448-61.653-39.714z"></path><path fill="#FFF" d="M1022.676 799.511c-1.888 49.244-108.593 44.532-104.689-2.814-1.435-60.421 108.447-52.655 104.689 2.814z"></path><path fill="#CAD6F0" d="M952.046 832.193c-15.43-13.606 5.452-11.56 13.999-9.997 24.638 4.508 58.508-15.581 37.913-37.923-14.779-16.033-47.976-19.157-63.9-4.667-28.446 25.884 55.952 49.643 59.316 22.072 2.367-19.394-32.974-22.763-47.565-17.028-22.492 8.841 11.597 27.576 28.4 21.809 13.93-4.781 9.457-11.83-1.392-14.37-11.471-3.96-20.573 7.294-4.473 9.036-16.899-.94-7.388-14.073 4.615-10.456 5.899 1.003 16.351 7.593 10.761 13.877-11.692 13.143-59.488 2.5-46.707-18.498 9.319-15.31 54.474-8.359 58.837 10.422 8.29 35.688-84.106 23.565-70.7-13.539 10.183-22.406 60.966-17.547 74.157-1.306 20.833 25.65-11.213 47.925-39.354 41.674-7.866-1.747-24.288-4.187-13.907 8.894z"></path><path fill="#CAD6F0" d="M992.665 794.666c0-25.266 26.676-46.928 59.583-46.928s57.149 23.125 57.149 48.391-22.172 38.251-55.079 38.251-61.653-14.448-61.653-39.714z"></path><path fill="#FFF" d="M1104.588 799.511c-1.888 49.244-108.593 44.532-104.689-2.814-1.435-60.421 108.447-52.655 104.689 2.814z"></path><path fill="#CAD6F0" d="M1033.958 832.193c-15.43-13.606 5.452-11.56 13.999-9.997 24.638 4.508 58.508-15.581 37.913-37.923-14.779-16.033-47.976-19.157-63.9-4.667-28.446 25.884 55.952 49.643 59.316 22.072 2.367-19.394-32.974-22.763-47.566-17.028-22.492 8.841 11.597 27.576 28.4 21.809 13.93-4.781 9.457-11.83-1.392-14.37-11.471-3.96-20.573 7.294-4.473 9.036-16.899-.94-7.388-14.073 4.615-10.456 5.899 1.003 16.351 7.593 10.761 13.877-11.692 13.143-59.488 2.5-46.707-18.498 9.319-15.31 54.474-8.359 58.837 10.422 8.291 35.688-84.106 23.565-70.7-13.539 10.183-22.406 60.966-17.547 74.157-1.306 20.833 25.65-11.213 47.925-39.354 41.674-7.865-1.747-24.287-4.187-13.906 8.894zM952.658 722.874c0-25.266 26.676-46.928 59.583-46.928s57.149 23.125 57.149 48.391-22.172 38.251-55.079 38.251-61.653-14.448-61.653-39.714z"></path><path fill="#FFF" d="M1064.58 727.719c-1.888 49.244-108.593 44.532-104.689-2.814-1.434-60.421 108.448-52.655 104.689 2.814z"></path><path fill="#CAD6F0" d="M993.951 760.401c-15.43-13.606 5.452-11.56 13.999-9.997 24.638 4.508 58.508-15.581 37.913-37.923-14.779-16.033-47.976-19.157-63.9-4.667-28.446 25.884 55.952 49.643 59.316 22.072 2.367-19.395-32.974-22.763-47.565-17.028-22.492 8.841 11.597 27.576 28.4 21.809 13.93-4.781 9.457-11.83-1.392-14.37-11.471-3.96-20.573 7.294-4.473 9.036-16.899-.94-7.388-14.073 4.615-10.456 5.899 1.003 16.351 7.593 10.761 13.877-11.692 13.143-59.488 2.5-46.707-18.498 9.319-15.31 54.474-8.359 58.837 10.422 8.29 35.689-84.106 23.565-70.7-13.539 10.183-22.406 60.966-17.547 74.157-1.306 20.833 25.65-11.213 47.926-39.354 41.674-7.867-1.747-24.288-4.188-13.907 8.894z"></path><path fill="#BED8DD" d="M1242.943 829.214v1.94c0 2.1-1.7 3.8-3.8 3.8H98.743c-2.09 0-3.79-1.7-3.79-3.8v-1.94c0-2.1 1.7-3.8 3.79-3.8h1140.4a3.8 3.8 0 0 1 3.8 3.8z"></path><path fill="#021450" d="M621.81 245.288c2.901 10.878 4.422 22.268 3.563 33.675a78.473 78.473 0 0 1-3.188 16.849c-1.712 5.482-4.03 10.773-6.808 15.802-5.699 9.99-13.164 18.873-21.551 26.604a151.444 151.444 0 0 1-6.427 5.647c-2.253 1.864-4.184 3.497-6.003 5.513-3.613 3.915-6.245 8.626-7.544 13.765-1.324 5.136-1.395 10.602-.714 16.003.72 5.406 2.018 10.792 3.698 16.09 3.352 10.607 7.832 20.941 11.879 31.489 2.041 5.27 3.992 10.598 5.588 16.06 1.592 5.453 2.907 11.046 3.342 16.767.442 5.697-.031 11.571-2.044 16.952-1.961 5.408-5.572 10.05-9.904 13.634 4.068-3.896 7.264-8.675 8.917-13.972 1.672-5.297 1.833-10.944 1.123-16.423-1.454-11.023-5.678-21.495-9.937-31.848-4.338-10.355-9.055-20.633-12.644-31.477-1.796-5.412-3.303-10.987-4.072-16.751-.755-5.749-.742-11.752.719-17.555 1.436-5.793 4.403-11.262 8.479-15.579 1.959-2.168 4.356-4.169 6.454-5.877a146.996 146.996 0 0 0 6.301-5.463c8.169-7.51 15.62-15.849 21.279-25.351 5.683-9.461 9.457-20.071 10.82-31.111.716-5.512.905-11.111.629-16.707-.287-5.594-1.017-11.178-1.955-16.736z"></path><path fill="#F56181" d="M811.261 362c3.227-62.505-86.083-117.434-110.123-131.067-3.227-1.779-5.27-2.898-5.796-3.161h-.066l-.066-.066c-51.636 40.308-89.969 21.471-148.521 127.379-.923-.988-3.161-5.73-4.677-9.023-.658-1.383-1.186-2.503-1.383-3.029a42.542 42.542 0 0 1-1.712-4.874c-6.719-22.196 4.15-48.673 6.455-54.008 0-.066 0-.131.066-.197.197-.462.329-.659.329-.659a83.166 83.166 0 0 1-2.766-6.85c-8.563-26.214 3.359-47.619 8.628-55.127.132-.198.263-.462.395-.659.989-1.449 1.713-2.305 1.713-2.305 0-.197-.066-.461-.066-.658-.263-3.688-.329-7.377-.132-10.868 2.041-73.898 82.395-116.973 123.626-116.973 35.896 0 74.886 12.448 98.268 47.224 0 .066.067.132.067.198 4.741 7.113 8.825 15.017 12.118 24.04 14.293 39.189 8.43 56.643 4.216 63.097-1.449 2.371-2.767 3.294-2.767 3.294a70.482 70.482 0 0 1 6.06 4.676c.395.264.789.593 1.185.988C845.708 276.114 811.261 362 811.261 362z"></path><g fill="#E65373"><path d="M690.713 225.795c-3.227-1.778-5.27-2.897-5.796-3.161h-.066l-.066-.066c-50.396 39.34-88.124 22.364-144.34 119.983.065.159.12.323.186.48.197.526.724 1.646 1.383 3.029 1.516 3.293 3.754 8.035 4.677 9.023 58.358-105.558 96.633-87.201 148.012-126.989a371.76 371.76 0 0 0-3.99-2.299zM796.311 233.369a7.993 7.993 0 0 0-1.185-.988 70.528 70.528 0 0 0-6.06-4.676s1.317-.922 2.767-3.293c4.214-6.455 10.077-23.908-4.216-63.097-3.293-9.022-7.377-16.927-12.118-24.04 0-.066-.066-.132-.066-.198-11.798-17.547-27.572-29.403-44.915-36.85 13.203 7.402 25.104 17.756 34.489 31.713 0 .066.067.132.067.198 4.742 7.113 8.825 15.017 12.118 24.04 14.292 39.189 8.43 56.643 4.216 63.097-1.449 2.371-2.767 3.294-2.767 3.294a70.528 70.528 0 0 1 6.06 4.676c.394.264.79.593 1.185.988 33.915 29.348 28.307 79.031 21.46 107.291 2.913 8.601 4.382 17.459 3.917 26.477-.001-.001 34.445-85.887-14.952-128.632z"></path></g><path fill="#D13657" d="M679.799 203.401c-6.916 1.318-13.897 2.305-20.747 3.951-6.718 1.91-13.633 3.293-20.154 5.863-13.371 4.28-25.885 10.669-37.937 17.651-11.922 7.179-22.92 15.938-32.866 25.555-8.497 8.299-16.466 17.651-22.657 27.531.197-.462.329-.659.329-.659a83.166 83.166 0 0 1-2.766-6.85c6.389-8.694 13.765-16.466 21.735-23.645 10.603-9.483 22.129-17.98 34.579-24.764 12.513-6.652 25.422-12.647 39.056-16.401 6.718-2.305 13.7-3.424 20.549-5.07 6.915-1.384 13.897-2.108 20.879-3.162zM629.742 148.537c-8.627 3.161-16.926 7.113-24.501 12.185-7.574 5.137-14.622 10.868-21.076 17.322-6.454 6.389-12.382 13.305-17.849 20.55-4.545 6.125-8.892 12.58-12.646 19.1-.263-3.688-.329-7.377-.132-10.868a209.599 209.599 0 0 1 8.892-11.328c6.06-7.047 12.514-13.699 19.495-19.891 6.916-6.126 14.49-11.526 22.46-16.268 7.97-4.677 16.597-8.168 25.357-10.802zM772.534 153.279c-2.569 5.006-5.73 9.681-9.089 14.16-6.85 9.023-14.358 17.322-22.196 25.489-12.778 13.238-26.214 25.818-40.11 38.003-3.227-1.779-5.27-2.898-5.796-3.161 15.016-11.724 29.639-24.106 43.601-37.213 8.101-7.64 16.004-15.544 23.184-24.106 3.557-4.28 6.915-8.759 9.681-13.568 2.371-4.215 4.808-9.089 4.084-13.963.988 4.941-1.186 9.947-3.359 14.359zM795.125 232.381c-4.94-3.821-10.143-7.377-15.544-10.538-9.154-5.467-19.034-9.88-29.506-12.646 10.67 1.646 21.142 5.072 31.021 9.681 3.622 1.712 7.246 3.557 10.737 5.533-1.449 2.371-2.767 3.294-2.767 3.294a70.513 70.513 0 0 1 6.059 4.676z"></path><path fill="#089577" d="M1075.49 779.154c-3.698-6.704-7.037-13.304-10.328-20.287 2.192-3.951 4.088-9.312 5.404-13.606 5.514 2.762 11.559 6.774 16.047 12.406-2.359 6.04-6.542 15.715-11.123 21.487zM1064.643 757.741c-2.585-5.535-5.143-11.331-7.831-17.622 1.722.432 6.898 1.831 12.847 4.697-1.238 4.044-2.989 9.075-5.016 12.925z"></path><path fill="#089577" d="M1090.112 802.79c-1.255-1.614-1.825-2.576-1.844-2.607a.505.505 0 0 0-.233-.19c-4.542-7.022-8.453-13.514-12.01-19.893 4.608-5.661 8.839-15.271 11.301-21.519a33.345 33.345 0 0 1 2.616 4.128c8.408 15.844 1.565 36.325.17 40.081z"></path><path fill="#089577" d="M1089.886 803.401s-.231-.047-.661-.161l-.009-.004c-.1-.022-.208-.048-.326-.078-3.898-.999-18.322-5.245-27.766-15.523-.43-.463-.851-.944-1.256-1.44a32.977 32.977 0 0 1-3.722-5.534c-2.801-5.27-3.915-11.041-4.095-16.553a30.912 30.912 0 0 1-.017-1.101c-.125-10.516 2.979-19.825 3.909-22.355.162-.442.254-.675.254-.675l.616.141c2.689 6.291 5.246 12.087 7.831 17.622 2.027-3.849 3.778-8.881 5.016-12.925.298.142.605.289.908.444-1.316 4.294-3.212 9.655-5.404 13.606 3.291 6.983 6.63 13.583 10.328 20.287 4.581-5.772 8.763-15.447 11.124-21.488.247.306.482.617.711.915-2.462 6.248-6.693 15.858-11.301 21.519 3.557 6.379 7.469 12.871 12.01 19.893.092.04.175.099.233.19.019.03.589.992 1.844 2.607-.031.096-.058.182-.091.255-.084.239-.136.358-.136.358z"></path><path fill="#0AC69F" d="M1107.227 818.793a.502.502 0 0 1-.614.177c-.027-.012-.055-.024-.078-.046-9.31-6.273-14.756-12.36-17.311-15.685l-.009-.004c-.1-.022-.208-.048-.326-.078a419.048 419.048 0 0 1-7.17-11.319c-7.407-.678-14.672-2.42-20.596-4.204-.43-.463-.851-.944-1.256-1.44 5.938 1.877 13.475 3.794 21.209 4.573a324.346 324.346 0 0 1-12.31-22.211c-5.458-.387-11.796-2.473-16.717-4.449a30.912 30.912 0 0 1-.017-1.101c4.758 1.925 10.907 4.016 16.209 4.509-4.181-8.36-8.079-17.011-12.3-26.864.162-.442.254-.675.254-.675l.616.141c2.689 6.291 5.246 12.087 7.831 17.622 2.027-3.849 3.778-8.881 5.016-12.925.298.142.605.289.908.444-1.316 4.294-3.212 9.655-5.404 13.606 3.291 6.983 6.63 13.583 10.328 20.287 4.581-5.772 8.763-15.447 11.124-21.488.247.306.482.617.711.915-2.462 6.248-6.693 15.858-11.301 21.519 3.557 6.379 7.469 12.871 12.01 19.893.092.04.175.099.233.19.019.03.589.992 1.844 2.607 2.561 3.262 7.901 9.193 16.975 15.307a.502.502 0 0 1 .141.699zM1126.617 718.701a201.196 201.196 0 0 1 2.923-12.668c2.409-.925 5.206-2.576 7.357-3.972 1.4 3.232 2.574 7.205 2.472 11.317-3.25 1.778-8.63 4.478-12.752 5.323zM1129.725 705.35a330.689 330.689 0 0 1 3.038-10.586 39.882 39.882 0 0 1 3.9 6.769c-2.027 1.316-4.639 2.876-6.938 3.817z"></path><path fill="#0AC69F" d="M1124.345 734.41c.043-1.167.146-1.797.149-1.818a.296.296 0 0 0-.032-.169 200.563 200.563 0 0 1 2.042-13.113c4.094-.787 9.471-3.441 12.841-5.272a19.214 19.214 0 0 1-.369 2.766c-2.134 10.02-12.642 16.474-14.631 17.606z"></path><path fill="#0AC69F" d="M1124.022 734.595s-.084-.105-.23-.313l-.003-.005a4.835 4.835 0 0 1-.114-.154c-1.34-1.868-6.095-9.017-6.458-16.981-.018-.36-.026-.725-.021-1.091a18.86 18.86 0 0 1 .401-3.788c.708-3.334 2.337-6.269 4.28-8.747.129-.165.26-.325.396-.488 3.803-4.648 8.577-7.584 9.912-8.35.233-.134.359-.202.359-.202s.073.098.218.287a335.975 335.975 0 0 0-3.038 10.586c2.299-.941 4.911-2.501 6.937-3.817.078.172.159.348.234.528-2.151 1.397-4.948 3.047-7.357 3.972a201.196 201.196 0 0 0-2.923 12.668c4.122-.846 9.502-3.546 12.752-5.324-.004.225-.016.447-.024.661-3.37 1.831-8.747 4.485-12.841 5.272-.784 4.097-1.453 8.373-2.042 13.113.025.051.04.107.032.169-.003.02-.106.651-.149 1.818-.049.03-.092.058-.133.078-.121.075-.188.108-.188.108z"></path><path fill="#089577" d="M1125.965 747.693a.287.287 0 0 1-.352-.197c-1.773-6.161-1.924-10.823-1.822-13.216l-.003-.005a4.835 4.835 0 0 1-.114-.154c.315-2.657.65-5.171 1.014-7.585-2.993-3.014-5.534-6.442-7.472-9.396-.018-.36-.026-.725-.021-1.091 1.91 3 4.506 6.604 7.605 9.783a184.995 184.995 0 0 1 2.761-14.237c-2.247-2.172-4.255-5.41-5.685-8.08.129-.165.26-.325.396-.488 1.376 2.588 3.3 5.759 5.44 7.92 1.237-5.192 2.704-10.409 4.472-16.27.233-.134.359-.202.359-.202s.073.098.218.287a335.975 335.975 0 0 0-3.038 10.586c2.299-.941 4.911-2.501 6.937-3.817.078.172.159.348.234.528-2.151 1.397-4.948 3.047-7.357 3.972a201.196 201.196 0 0 0-2.923 12.668c4.122-.846 9.502-3.546 12.752-5.324-.004.225-.016.447-.024.661-3.37 1.831-8.747 4.485-12.841 5.272-.784 4.097-1.453 8.373-2.042 13.113.025.051.04.107.032.169-.003.02-.106.651-.149 1.818-.076 2.367.085 6.922 1.814 12.927a.282.282 0 0 1-.191.358z"></path><path fill="#0AC69F" d="M1062.175 823.711c-7.648.358-15.044.44-22.763.309-2.578-3.711-6.55-7.78-9.823-10.856 4.913-3.729 11.182-7.38 18.216-8.921 4.38 4.785 11.214 12.81 14.37 19.468zM1038.173 823.99c-6.108-.124-12.438-.389-19.269-.754 1.148-1.354 4.689-5.381 9.887-9.453 3.082 2.896 6.823 6.688 9.382 10.207z"></path><path fill="#0AC69F" d="M1089.839 821.028c-2.002.413-3.118.5-3.153.504a.517.517 0 0 0-.274.125c-8.305.975-15.858 1.618-23.152 1.993-3.045-6.634-9.8-14.673-14.318-19.641a33.408 33.408 0 0 1 4.859-.525c17.928-.549 33.283 14.633 36.038 17.544z"></path><path fill="#0AC69F" d="M1090.287 821.5s-.144.186-.436.522l-.008.006c-.064.08-.135.166-.214.258-2.618 3.057-12.795 14.124-26.187 18.06-.605.181-1.223.347-1.846.491a32.903 32.903 0 0 1-6.609.896c-5.965.186-11.635-1.362-16.66-3.634-.335-.15-.662-.307-.995-.471-9.49-4.531-16.473-11.426-18.332-13.378-.325-.341-.493-.526-.493-.526l.398-.49c6.832.365 13.162.63 19.269.754-2.559-3.518-6.301-7.31-9.382-10.207.259-.204.526-.415.799-.618 3.272 3.077 7.245 7.145 9.823 10.856 7.719.131 15.115.049 22.763-.309-3.156-6.658-9.991-14.683-14.369-19.468.384-.087.766-.16 1.135-.234 4.519 4.968 11.273 13.007 14.318 19.641 7.294-.375 14.847-1.018 23.152-1.993a.514.514 0 0 1 .274-.125c.036-.004 1.151-.091 3.153-.504.072.07.137.133.189.194.174.18.258.279.258.279z"></path><path fill="#089577" d="M1111.754 812.737a.502.502 0 0 1-.112.629c-.023.019-.046.039-.075.05-9.739 5.584-17.605 7.782-21.716 8.607l-.008.006c-.064.08-.135.166-.214.258a418.55 418.55 0 0 1-13.322 1.436c-3.879 6.346-8.65 12.096-12.866 16.624-.605.181-1.223.347-1.846.491 4.306-4.499 9.354-10.416 13.468-17.011a323.612 323.612 0 0 1-25.364 1.238c-2.757 4.727-7.427 9.492-11.372 13.035-.335-.15-.662-.307-.995-.471 3.828-3.419 8.419-8.013 11.202-12.553-9.347.06-18.83-.261-29.534-.824-.325-.341-.493-.526-.493-.526l.398-.49c6.832.365 13.162.63 19.269.754-2.559-3.518-6.301-7.31-9.382-10.207.259-.204.526-.415.799-.618 3.272 3.077 7.245 7.145 9.823 10.856 7.719.131 15.115.049 22.763-.309-3.156-6.658-9.991-14.683-14.369-19.468.384-.087.766-.16 1.135-.234 4.519 4.968 11.273 13.007 14.318 19.641 7.294-.375 14.847-1.018 23.152-1.993a.514.514 0 0 1 .274-.125c.036-.004 1.151-.091 3.153-.504 4.057-.858 11.737-3.03 21.229-8.472a.495.495 0 0 1 .685.18z"></path><path fill="#F56181" d="M1094.503 807.867c1.167 1.541 2.346 3.012 3.559 4.354l.157.168.098.112c-.412.285-.85.589-1.306.913-.162.112-.325.231-.493.35-.131.092-.256.185-.387.278-9.079 6.58-24.618 19.148-32.892 9.776-1.813-3.312-.226-7.784-2.245-10.97-1.555-2.466-4.727-3.311-6.923-5.232-5.417-5.552 1.158-7.451 5.659-11.688 2.676-2.515 1.51-7.359 5.727-7.929 14.487-2.345 21.581 10.055 29.046 19.868z"></path><path fill="#F56181" d="M1095.289 810.602c1.167 1.541 2.346 3.012 3.559 4.354l.157.168.098.112c-.412.285-.85.589-1.306.913-.162.112-.325.231-.493.35-.131.092-.256.185-.387.277-9.079 6.58-24.618 19.148-32.892 9.777-1.813-3.312-.226-7.784-2.245-10.97-1.555-2.466-4.727-3.311-6.923-5.232-5.417-5.552 1.158-7.451 5.659-11.688 2.676-2.515 1.51-7.359 5.727-7.929 14.487-2.345 21.581 10.055 29.046 19.868z"></path><g fill="#D64968"><path d="m1094.854 814.947-.387.278c-1.508 1.093-3.197 2.352-4.999 3.647 2.339-1.637 4.523-3.274 6.436-4.664-.187.131-.362.251-.556.389-.163.112-.326.231-.494.35zM1098.219 812.389l-.157-.168c-1.213-1.342-2.391-2.813-3.559-4.354-7.465-9.813-14.559-22.213-29.045-19.868-1.199.162-1.955.677-2.496 1.378.253-.084.524-.154.831-.196 14.486-2.345 21.58 10.055 29.045 19.868 1.167 1.541 2.346 3.011 3.559 4.354l.157.168.09.103c.123-.088.246-.177.367-.26.456-.324.894-.628 1.306-.913a9.81 9.81 0 0 0-.098-.112z"></path></g><path fill="#D64968" d="M1084.66 801.007c2.85 1.891 5.48 4.087 7.774 6.591a47.174 47.174 0 0 1 2.767 3.3l-.167-.072c-3.193-1.392-6.509-2.57-9.915-3.345-3.406-.781-6.903-1.109-10.37-1.049-3.467.06-6.905.502-10.286 1.151 3.412-.441 6.856-.666 10.277-.515 3.415.151 6.802.679 10.061 1.649 3.322.975 6.503 2.335 9.587 3.92-.971.089-1.942.217-2.905.376-3.454.556-6.819 1.575-10.003 2.932-3.19 1.364-6.213 3.061-9.097 4.938 2.997-1.696 6.101-3.198 9.329-4.346 3.222-1.142 6.555-1.931 9.938-2.262a50.476 50.476 0 0 1 4.481-.234l.387-.278c.169-.119.331-.238.493-.35.456-.324.894-.628 1.306-.913a9.81 9.81 0 0 1-.098-.112l.191-.005a51.345 51.345 0 0 0-5.07-5.676c-2.515-2.435-5.345-4.51-8.344-6.245-3.005-1.734-6.174-3.133-9.406-4.313 3.155 1.381 6.22 2.96 9.07 4.858z"></path><path fill="#F56181" d="M1093.806 816.565c1.541-1.167 3.012-2.346 4.354-3.559l.168-.157a9.81 9.81 0 0 1 .112-.098c.285.412.589.85.913 1.306.113.163.231.325.35.493.092.131.185.256.277.387 6.58 9.079 19.148 24.618 9.777 32.892-3.312 1.813-7.784.226-10.97 2.245-2.466 1.555-3.311 4.727-5.232 6.923-5.552 5.417-7.451-1.158-11.688-5.659-2.515-2.676-7.359-1.51-7.929-5.727-2.345-14.487 10.055-21.581 19.868-29.046z"></path><path fill="#D64968" d="m1100.045 815.356-.278-.387c-.119-.169-.238-.331-.35-.493a115.44 115.44 0 0 1-.913-1.306l-.112.099-.168.157c-.457.413-.947.817-1.431 1.222.075.105.151.208.226.315 6.58 9.079 19.148 24.618 9.776 32.892-3.312 1.813-7.784.226-10.969 2.245-2.466 1.555-3.311 4.727-5.232 6.923-.98.956-1.844 1.532-2.629 1.818 1.523 1.017 3.245.926 5.654-1.425 1.921-2.196 2.766-5.368 5.232-6.923 3.186-2.019 7.657-.432 10.969-2.245 9.373-8.274-3.196-23.813-9.775-32.892z"></path><path fill="#D64968" d="M1086.946 826.408c1.891-2.85 4.087-5.48 6.591-7.774a47.174 47.174 0 0 1 3.3-2.767l-.072.167c-1.392 3.193-2.57 6.509-3.345 9.915-.781 3.406-1.109 6.903-1.048 10.37.06 3.467.501 6.905 1.151 10.286-.441-3.412-.666-6.856-.515-10.277.151-3.415.679-6.802 1.649-10.061.975-3.323 2.335-6.503 3.92-9.587.089.971.217 1.942.376 2.905.556 3.454 1.575 6.819 2.932 10.003 1.364 3.19 3.061 6.213 4.938 9.097-1.696-2.997-3.198-6.101-4.346-9.329-1.142-3.222-1.931-6.555-2.262-9.938a50.473 50.473 0 0 1-.234-4.48c-.093-.131-.185-.256-.277-.387-.119-.169-.238-.331-.35-.493a115.44 115.44 0 0 1-.913-1.306 9.81 9.81 0 0 1-.112.098l-.005-.191a51.345 51.345 0 0 0-5.676 5.071c-2.434 2.515-4.51 5.345-6.245 8.344-1.734 3.005-3.133 6.174-4.313 9.406 1.379-3.156 2.958-6.221 4.856-9.072z"></path><path fill="#F56181" d="M1102.812 817.591c-1.167-1.541-2.346-3.012-3.559-4.354l-.157-.168-.099-.112c.412-.285.85-.589 1.306-.913.162-.112.325-.231.493-.35l.387-.278c9.079-6.58 24.618-19.148 32.892-9.776 1.813 3.312.226 7.784 2.245 10.969 1.555 2.466 4.727 3.311 6.923 5.232 5.417 5.552-1.158 7.451-5.659 11.688-2.676 2.515-1.51 7.359-5.727 7.929-14.486 2.346-21.58-10.054-29.045-19.867z"></path><path fill="#F56181" d="M1102.812 817.591c-1.167-1.541-2.346-3.012-3.559-4.354l-.157-.168-.099-.112c.412-.285.85-.589 1.306-.913.162-.112.325-.231.493-.35l.387-.278c9.079-6.58 24.618-19.148 32.892-9.776 1.813 3.312.226 7.784 2.245 10.969 1.555 2.466 4.727 3.311 6.923 5.232 5.417 5.552-1.158 7.451-5.659 11.688-2.676 2.515-1.51 7.359-5.727 7.929-14.486 2.346-21.58-10.054-29.045-19.867z"></path><path fill="#D64968" d="M1143.244 817.842c-2.196-1.921-5.368-2.766-6.923-5.232-2.019-3.186-.432-7.658-2.245-10.97-6.414-7.265-17.193-1.344-25.945 4.75 8.111-5.241 17.264-9.204 22.966-2.745 1.813 3.312.226 7.784 2.245 10.97 1.555 2.466 4.727 3.311 6.923 5.232 5.417 5.552-1.158 7.451-5.659 11.689-1.706 1.603-1.855 4.149-2.828 5.935.027-.004.053-.006.08-.011 4.217-.57 3.051-5.414 5.727-7.929 4.501-4.238 11.076-6.137 5.659-11.689z"></path><path fill="#D64968" d="M1112.66 824.486c-2.85-1.891-5.48-4.087-7.774-6.591a47.174 47.174 0 0 1-2.767-3.3l.167.072c3.194 1.392 6.509 2.57 9.915 3.345 3.406.781 6.903 1.109 10.37 1.049 3.467-.06 6.905-.501 10.286-1.151-3.412.441-6.856.666-10.277.515-3.415-.151-6.802-.679-10.061-1.649-3.323-.975-6.502-2.335-9.587-3.92a40.613 40.613 0 0 0 2.905-.376c3.454-.556 6.819-1.575 10.003-2.932 3.191-1.364 6.213-3.06 9.097-4.938-2.997 1.696-6.101 3.198-9.329 4.346-3.222 1.142-6.555 1.931-9.938 2.262a50.099 50.099 0 0 1-4.481.233l-.387.278c-.169.119-.331.238-.494.35-.456.324-.893.628-1.306.913l.098.112-.191.005a51.345 51.345 0 0 0 5.071 5.676c2.515 2.435 5.345 4.51 8.344 6.245 3.005 1.734 6.174 3.133 9.406 4.313-3.154-1.38-6.219-2.96-9.07-4.857z"></path><path fill="#F56181" d="M1103.61 808.582c-1.541 1.167-3.012 2.346-4.354 3.559l-.167.157-.112.099c-.284-.412-.589-.85-.913-1.306-.113-.162-.231-.325-.35-.493l-.278-.387c-6.58-9.079-19.148-24.618-9.776-32.892 3.312-1.813 7.784-.226 10.97-2.245 2.466-1.555 3.311-4.727 5.232-6.923 5.552-5.417 7.452 1.158 11.689 5.659 2.515 2.676 7.359 1.51 7.929 5.727 2.343 14.486-10.057 21.58-19.87 29.045z"></path><g fill="#D64968"><path d="M1096.254 775.974c-2.809.563-6.044-.052-8.595 1.344-.039.034-.07.071-.107.105 2.891-.557 6.183.081 8.702-1.449zM1115.549 773.809c-3.852-4.093-5.773-9.896-10.263-6.846 2.996-.086 4.852 4.368 7.983 7.695 2.515 2.676 7.359 1.51 7.929 5.727 2.345 14.486-10.056 21.581-19.868 29.045a77 77 0 0 0-2.843 2.267c.164.234.336.478.488.698l.112-.099.167-.157c1.343-1.213 2.813-2.391 4.354-3.559 9.813-7.465 22.213-14.559 19.868-29.045-.568-4.215-5.412-3.049-7.927-5.726z"></path></g><path fill="#D64968" d="M1110.47 798.739c-1.891 2.85-4.087 5.48-6.591 7.774a47.39 47.39 0 0 1-3.299 2.767l.072-.167c1.392-3.194 2.57-6.509 3.345-9.915.781-3.406 1.109-6.903 1.049-10.37-.06-3.467-.501-6.905-1.151-10.286.441 3.412.666 6.856.515 10.277-.151 3.415-.679 6.802-1.649 10.061-.975 3.322-2.335 6.503-3.92 9.587a40.613 40.613 0 0 0-.376-2.905c-.556-3.454-1.575-6.819-2.932-10.003-1.364-3.19-3.061-6.213-4.938-9.097 1.696 2.997 3.198 6.101 4.346 9.329 1.142 3.222 1.931 6.555 2.262 9.938.148 1.492.219 2.985.233 4.481l.278.387c.119.169.238.331.35.493.324.456.628.894.913 1.306l.112-.099.005.191a51.345 51.345 0 0 0 5.676-5.07c2.434-2.515 4.51-5.345 6.245-8.344 1.734-3.005 3.133-6.174 4.313-9.406-1.381 3.156-2.961 6.22-4.858 9.071z"></path><path fill="#FFF" d="M1096.898 819.804a7.273 7.273 0 0 1-5.215-8.867 7.273 7.273 0 0 1 8.867-5.215 7.273 7.273 0 0 1 5.215 8.867 7.273 7.273 0 0 1-8.867 5.215zM1143.866 725.608c.257-4.436-3.404-3.861-6.468-4.457-2.033-.793-2.74-3.767-5.031-4.075-4.998.534-5.856 12.473-6.538 16.575l8.043 3.942c3.565-3.647 9.616-6.283 9.994-11.985z"></path><path fill="#FBC0CD" d="M1143.866 725.608c.103-1.77-.42-2.741-1.278-3.308.041.221.073.458.094.715.404 5.7-5.23 9.138-8.263 13.238l-8.506-2.806c.004-.122.006-.252.008-.388-.031.21-.062.411-.092.591l8.043 3.942c3.565-3.646 9.616-6.282 9.994-11.984z"></path><path fill="#FFF" d="M1121.248 718.855c-3.713-2.44-5.045 1.018-7.094 3.373-1.703 1.365-4.632.489-6.044 2.319-2.036 4.596 7.874 11.308 11.085 13.951l7.435-4.995c-1.376-4.911-.634-11.469-5.382-14.648z"></path><path fill="#FBC0CD" d="M1121.248 718.855c-1.482-.974-2.583-1.007-3.504-.547.212.075.433.165.666.276 5.138 2.5 5.299 9.099 7.333 13.775l-6.683 5.964-.332-.201c.166.132.325.259.467.375l7.435-4.995c-1.376-4.91-.634-11.468-5.382-14.647z"></path><path fill="#FFF" d="M1104.09 735.067c-3.97 1.995-1.641 4.878-.626 7.83.33 2.157-1.893 4.256-1.014 6.394 2.962 4.061 13.73-1.165 17.624-2.625l-.608-8.936c-4.941-1.264-10.249-5.186-15.376-2.663z"></path><path fill="#FBC0CD" d="M1104.09 735.067c-1.584.796-2.164 1.734-2.225 2.76.171-.146.36-.292.572-.439 4.735-3.2 10.529-.04 15.596.537l1.823 8.77-.339.187c.197-.078.386-.152.558-.216l-.608-8.936c-4.942-1.264-10.25-5.186-15.377-2.663z"></path><path fill="#FFF" d="M1109.551 758.032c-.257 4.436 3.404 3.861 6.468 4.457 2.033.793 2.739 3.767 5.031 4.075 4.998-.534 5.856-12.473 6.539-16.575l-8.043-3.942c-3.566 3.647-9.617 6.283-9.995 11.985z"></path><path fill="#FBC0CD" d="M1109.551 758.032c-.103 1.77.42 2.741 1.278 3.308a7.066 7.066 0 0 1-.094-.715c-.404-5.7 5.23-9.138 8.263-13.238l8.506 2.806a39.35 39.35 0 0 0-.008.387c.031-.209.062-.411.092-.591l-8.043-3.942c-3.565 3.647-9.616 6.283-9.994 11.985z"></path><path fill="#FFF" d="M1132.169 764.785c3.713 2.44 5.045-1.018 7.094-3.373 1.703-1.365 4.632-.488 6.045-2.319 2.036-4.596-7.874-11.308-11.085-13.951l-7.436 4.995c1.376 4.911.634 11.469 5.382 14.648z"></path><path fill="#FBC0CD" d="M1132.169 764.785c1.481.974 2.583 1.007 3.503.547a6.867 6.867 0 0 1-.666-.276c-5.139-2.5-5.299-9.098-7.333-13.775l6.683-5.964c.104.064.215.131.332.2a37.123 37.123 0 0 1-.466-.375l-7.436 4.995c1.377 4.911.635 11.469 5.383 14.648z"></path><path fill="#FFF" d="M1149.327 748.573c3.97-1.995 1.642-4.878.626-7.83-.33-2.157 1.893-4.256 1.014-6.394-2.961-4.061-13.729 1.165-17.624 2.625l.608 8.936c4.941 1.264 10.249 5.186 15.376 2.663z"></path><path fill="#FBC0CD" d="M1149.327 748.573c1.584-.796 2.164-1.734 2.226-2.76-.171.146-.36.292-.572.439-4.735 3.2-10.529.04-15.596-.537l-1.823-8.77c.108-.058.221-.121.339-.187-.197.078-.386.152-.558.216l.608 8.936c4.941 1.264 10.249 5.186 15.376 2.663z"></path><path fill="#F56181" d="M1118.494 738.115a9.01 9.01 0 1 1 16.428 7.41 9.011 9.011 0 0 1-16.428-7.41z"></path><path fill="#FFF" d="M594.829 312.736c.442-7.621-5.849-6.634-11.113-7.658-3.494-1.362-4.707-6.473-8.644-7.002-8.587.918-10.062 21.43-11.234 28.479l13.82 6.773c6.124-6.266 16.521-10.795 17.171-20.592z"></path><path fill="#FBC0CD" d="M594.829 312.736c.176-3.041-.721-4.709-2.196-5.683.071.38.126.787.161 1.228.694 9.794-8.986 15.701-14.198 22.745l-14.615-4.821c.006-.21.01-.433.014-.666-.053.36-.106.706-.157 1.016l13.82 6.773c6.124-6.266 16.521-10.795 17.171-20.592z"></path><path fill="#FFF" d="M555.966 301.133c-6.379-4.192-8.669 1.749-12.189 5.796-2.926 2.345-7.959.839-10.386 3.985-3.499 7.896 13.528 19.429 19.047 23.969l12.775-8.582c-2.364-8.438-1.088-19.706-9.247-25.168z"></path><path fill="#FBC0CD" d="M555.966 301.133c-2.545-1.673-4.438-1.729-6.02-.94.365.129.744.284 1.144.474 8.829 4.296 9.104 15.633 12.599 23.668l-11.483 10.247c-.179-.11-.371-.226-.57-.345.286.226.558.444.801.645l12.775-8.582c-2.363-8.437-1.087-19.705-9.246-25.167z"></path><path fill="#FFF" d="M526.485 328.988c-6.821 3.428-2.82 8.382-1.076 13.454.568 3.707-3.253 7.313-1.742 10.986 5.089 6.978 23.59-2.001 30.281-4.51l-1.044-15.354c-8.489-2.172-17.609-8.911-26.419-4.576z"></path><path fill="#FBC0CD" d="M526.485 328.988c-2.722 1.368-3.717 2.979-3.824 4.743.293-.251.618-.502.983-.754 8.135-5.498 18.09-.068 26.797.923l3.132 15.068c-.184.1-.38.208-.583.321.339-.134.664-.261.959-.371l-1.044-15.354c-8.49-2.172-17.61-8.911-26.42-4.576z"></path><path fill="#FFF" d="M535.869 368.446c-.442 7.621 5.848 6.634 11.113 7.658 3.494 1.362 4.707 6.473 8.644 7.002 8.587-.918 10.062-21.43 11.235-28.479l-13.819-6.773c-6.127 6.266-16.523 10.796-17.173 20.592z"></path><path fill="#FBC0CD" d="M535.869 368.446c-.176 3.041.721 4.709 2.195 5.683a11.95 11.95 0 0 1-.161-1.228c-.694-9.794 8.986-15.701 14.198-22.746l14.615 4.822c-.006.21-.01.433-.014.666.054-.36.106-.705.158-1.016l-13.819-6.773c-6.126 6.266-16.522 10.796-17.172 20.592z"></path><path fill="#FFF" d="M574.732 380.05c6.379 4.192 8.669-1.749 12.189-5.795 2.927-2.345 7.959-.839 10.386-3.985 3.499-7.896-13.528-19.429-19.046-23.97l-12.776 8.582c2.364 8.437 1.088 19.705 9.247 25.168z"></path><path fill="#FBC0CD" d="M574.732 380.05c2.545 1.673 4.438 1.729 6.019.94a11.893 11.893 0 0 1-1.144-.474c-8.829-4.296-9.104-15.633-12.599-23.669l11.483-10.246c.179.11.37.225.57.344a46.965 46.965 0 0 1-.801-.645l-12.776 8.582c2.365 8.437 1.089 19.705 9.248 25.168z"></path><path fill="#FFF" d="M604.212 352.195c6.821-3.428 2.82-8.382 1.076-13.453-.567-3.707 3.253-7.312 1.742-10.987-5.088-6.978-23.589 2.001-30.281 4.51l1.044 15.354c8.489 2.171 17.61 8.91 26.419 4.576z"></path><path fill="#FBC0CD" d="M604.212 352.195c2.722-1.368 3.717-2.979 3.824-4.743-.294.251-.618.502-.983.754-8.135 5.498-18.09.068-26.797-.923l-3.133-15.068c.185-.1.38-.208.583-.321-.339.134-.664.261-.959.371l1.044 15.354c8.491 2.171 17.612 8.91 26.421 4.576z"></path><path fill="#F56181" d="M551.235 334.225c3.516-7.795 12.685-11.263 20.48-7.747 7.794 3.516 11.263 12.685 7.747 20.479-3.516 7.794-12.684 11.263-20.479 7.747-7.795-3.515-11.264-12.684-7.748-20.479zM1198.022 789.71c-.375 2.585-.672 5.115-.812 7.555l-.012.31-.014.201c-.665-.127-1.373-.259-2.118-.39-.262-.05-.531-.093-.805-.142-.214-.039-.421-.071-.635-.109-14.945-2.49-41.78-5.513-40.616-22.365 1.466-4.887 7.274-7.603 8.423-12.569.897-3.836-1.301-7.69-1.536-11.625.201-10.48 8.267-5.957 16.615-5.647 4.959.188 8.513-5.53 13.063-2.014 16 11.711 10.803 30.303 8.447 46.795z"></path><path fill="#F7819A" d="M1196.136 793.061c-.375 2.585-.672 5.114-.812 7.555l-.012.31-.014.201a148.71 148.71 0 0 0-2.117-.39c-.262-.05-.531-.093-.805-.142-.214-.039-.421-.071-.634-.109-14.945-2.49-41.781-5.513-40.617-22.365 1.466-4.887 7.274-7.603 8.423-12.569.897-3.836-1.301-7.69-1.536-11.625.201-10.48 8.267-5.957 16.615-5.647 4.959.188 8.513-5.53 13.063-2.014 16 11.71 10.803 30.302 8.446 46.795z"></path><path fill="#D64968" d="M1191.543 796.765c-.214-.038-.421-.071-.634-.109-2.482-.414-5.296-.844-8.252-1.348 3.794.696 7.442 1.245 10.594 1.765-.303-.056-.585-.11-.902-.166-.263-.049-.531-.092-.806-.142z"></path><path fill="#E35F7B" d="m1197.198 797.576.012-.31c.14-2.441.437-4.97.812-7.555 2.356-16.493 7.554-35.084-8.448-46.795-1.294-1-2.506-1.239-3.694-1.093.322.164.646.358.977.614 16.002 11.711 10.805 30.303 8.448 46.795-.375 2.585-.671 5.114-.812 7.555l-.012.31-.013.184c.202.035.404.069.598.106.745.131 1.452.263 2.118.39l.014-.201z"></path><path fill="#F4AABA" d="M1195.281 773.731c.886 4.536 1.268 9.15 1.036 13.732a63.968 63.968 0 0 1-.549 5.793c-.032-.078-.058-.151-.09-.229-1.692-4.393-3.704-8.7-6.19-12.713-2.481-4.019-5.483-7.693-8.831-10.971-3.348-3.278-7.034-6.167-10.868-8.803 3.662 2.864 7.146 5.964 10.247 9.398 3.095 3.429 5.802 7.188 7.961 11.243 2.215 4.121 3.924 8.471 5.325 12.943a55.196 55.196 0 0 0-3.118-2.438c-3.812-2.795-7.985-5.065-12.313-6.841-4.34-1.775-8.84-3.073-13.383-4.066 4.476 1.274 8.866 2.835 13.034 4.851 4.156 2.016 8.077 4.474 11.607 7.414a67.736 67.736 0 0 1 4.476 4.089c.214.038.421.071.635.109.275.049.543.092.805.142.744.131 1.452.263 2.118.39l.014-.201.186.179a69.43 69.43 0 0 0 .638-8.044c.016-.736.026-1.478.011-2.219-.044-4.729-.733-9.422-1.91-13.952-1.184-4.537-2.844-8.912-4.776-13.142 1.666 4.346 3.055 8.794 3.935 13.336z"></path><path fill="#F7819A" d="M1188.992 797.293c2.585.375 5.114.672 7.555.812l.31.012.201.014a148.71 148.71 0 0 0-.39 2.117c-.05.262-.093.531-.142.805-.039.214-.071.421-.109.635-2.49 14.945-5.513 41.781-22.365 40.617-4.887-1.466-7.603-7.274-12.569-8.423-3.836-.897-7.69 1.301-11.625 1.536-10.48-.201-5.957-8.267-5.647-16.615.188-4.959-5.53-8.513-2.014-13.063 11.711-16 30.302-10.803 46.795-8.447z"></path><path fill="#E35F7B" d="M1196.075 802.148c.038-.214.071-.421.109-.634.049-.275.093-.543.142-.805.131-.744.263-1.452.39-2.117l-.201-.014-.31-.012c-.83-.048-1.684-.136-2.533-.216-.03.172-.057.343-.089.517-2.491 14.945-5.513 41.781-22.365 40.617-4.887-1.466-7.603-7.274-12.568-8.422-3.836-.897-7.69 1.3-11.625 1.536-1.849-.035-3.224-.32-4.244-.804.468 2.43 2.188 4 6.736 4.087 3.935-.236 7.789-2.433 11.625-1.536 4.966 1.149 7.682 6.956 12.569 8.423 16.852 1.16 19.874-25.675 22.364-40.62z"></path><path fill="#F4AABA" d="M1173.013 800.034c4.536-.886 9.15-1.269 13.733-1.036a63.61 63.61 0 0 1 5.793.549c-.078.032-.151.058-.229.09-4.393 1.692-8.7 3.704-12.713 6.19-4.019 2.481-7.693 5.483-10.971 8.831-3.278 3.348-6.166 7.034-8.802 10.868 2.864-3.662 5.964-7.146 9.398-10.247 3.429-3.095 7.188-5.802 11.243-7.961 4.121-2.215 8.471-3.924 12.943-5.326a55.196 55.196 0 0 0-2.438 3.118c-2.795 3.813-5.065 7.986-6.841 12.313-1.775 4.34-3.073 8.84-4.065 13.383 1.274-4.476 2.835-8.866 4.85-13.034 2.016-4.156 4.474-8.077 7.414-11.607a67.736 67.736 0 0 1 4.089-4.476c.038-.214.071-.421.109-.635.049-.275.093-.543.142-.805.131-.744.263-1.452.39-2.117l-.201-.014.179-.186a69.43 69.43 0 0 0-8.044-.638 52.911 52.911 0 0 0-2.219-.011c-4.729.044-9.422.733-13.952 1.91-4.537 1.184-8.912 2.845-13.142 4.776 4.344-1.666 8.791-3.055 13.334-3.935z"></path><path fill="#F56181" d="M1196.551 806.931c.375-2.585.672-5.114.812-7.555l.012-.31.014-.201c.665.127 1.373.259 2.117.39.262.05.531.093.805.142.214.038.421.071.634.109 14.945 2.49 41.781 5.513 40.617 22.365-1.466 4.887-7.274 7.603-8.423 12.569-.897 3.836 1.301 7.69 1.536 11.625-.201 10.48-8.267 5.957-16.615 5.647-4.959-.188-8.512 5.53-13.063 2.014-16-11.711-10.802-30.302-8.446-46.795z"></path><path fill="#F7819A" d="M1196.551 806.931c.375-2.585.672-5.114.812-7.555l.012-.31.014-.201c.665.127 1.373.259 2.117.39.262.05.531.093.805.142.214.038.421.071.634.109 14.945 2.49 41.781 5.513 40.617 22.365-1.466 4.887-7.274 7.603-8.423 12.569-.897 3.836 1.301 7.69 1.536 11.625-.201 10.48-8.267 5.957-16.615 5.647-4.959-.188-8.512 5.53-13.063 2.014-16-11.711-10.802-30.302-8.446-46.795z"></path><path fill="#E35F7B" d="M1234.677 846.065c-.236-3.935-2.433-7.789-1.536-11.625 1.149-4.965 6.956-7.682 8.423-12.569.902-13.065-15.022-17.816-29.189-20.453 12.738 2.83 25.236 7.874 24.433 19.489-1.466 4.887-7.274 7.604-8.422 12.569-.897 3.836 1.3 7.69 1.536 11.625-.201 10.48-8.267 5.957-16.615 5.647-3.161-.12-5.752 2.153-8.393 2.911.03.022.056.045.086.067 4.55 3.516 8.104-2.202 13.063-2.014 8.347.31 16.413 4.833 16.614-5.647z"></path><path fill="#F4AABA" d="M1199.264 822.948c-.886-4.537-1.268-9.15-1.036-13.733.089-1.941.282-3.866.549-5.793.032.078.058.151.09.229 1.692 4.393 3.704 8.701 6.19 12.713 2.481 4.018 5.484 7.693 8.831 10.971 3.348 3.278 7.034 6.166 10.868 8.803-3.662-2.865-7.146-5.964-10.248-9.398-3.095-3.429-5.802-7.188-7.961-11.243-2.215-4.121-3.924-8.471-5.326-12.943a55.179 55.179 0 0 0 3.118 2.437c3.812 2.795 7.985 5.065 12.313 6.841 4.34 1.775 8.84 3.073 13.383 4.066-4.476-1.274-8.866-2.835-13.034-4.851-4.156-2.016-8.077-4.474-11.607-7.414a67.736 67.736 0 0 1-4.476-4.089c-.213-.038-.421-.071-.634-.109-.275-.049-.543-.093-.805-.142a151.59 151.59 0 0 1-2.118-.39l-.014.201-.186-.179a69.43 69.43 0 0 0-.638 8.044 52.911 52.911 0 0 0-.011 2.219c.044 4.729.733 9.422 1.91 13.953 1.184 4.537 2.845 8.912 4.776 13.142-1.666-4.345-3.055-8.793-3.934-13.335z"></path><path fill="#F7819A" d="M1205.975 799.149c-2.585-.375-5.114-.672-7.555-.812l-.31-.012-.201-.014c.127-.665.259-1.373.39-2.117.05-.262.093-.531.142-.805.039-.214.071-.421.109-.635 2.49-14.945 5.513-41.781 22.365-40.617 4.887 1.466 7.603 7.274 12.569 8.423 3.836.897 7.69-1.3 11.625-1.536 10.48.201 5.957 8.267 5.647 16.615-.188 4.959 5.53 8.513 2.014 13.063-11.711 16.001-30.302 10.804-46.795 8.447z"></path><path fill="#D64968" d="M1230.364 761.13c-3.207-2.168-5.686-5.864-9.449-6.993-.069-.005-.134 0-.203-.004 3.28 2.253 5.79 6.026 9.652 6.997z"></path><path fill="#E35F7B" d="M1250.756 777.638c.282-7.59 4.043-14.945-3.152-16.369 2.926 2.801.402 8.812.173 14.981-.188 4.959 5.53 8.513 2.014 13.063-11.711 16.002-30.303 10.805-46.795 8.448-1.656-.24-3.277-.428-4.879-.583-.07.379-.141.777-.208 1.133l.201.014.31.012c2.441.14 4.97.437 7.555.812 16.493 2.357 35.084 7.554 46.795-8.448 3.516-4.55-2.202-8.104-2.014-13.063z"></path><path fill="#F4AABA" d="M1221.954 796.409c-4.536.886-9.15 1.268-13.732 1.036a63.255 63.255 0 0 1-5.793-.549c.078-.032.151-.058.229-.09 4.393-1.692 8.7-3.704 12.713-6.19 4.019-2.481 7.693-5.484 10.971-8.831 3.278-3.348 6.167-7.034 8.803-10.868-2.865 3.662-5.964 7.146-9.399 10.247-3.429 3.095-7.188 5.802-11.243 7.961-4.121 2.215-8.471 3.924-12.943 5.326a54.861 54.861 0 0 0 2.438-3.119c2.795-3.812 5.065-7.985 6.841-12.313 1.775-4.339 3.073-8.84 4.065-13.383-1.274 4.476-2.835 8.866-4.851 13.034-2.016 4.156-4.474 8.077-7.414 11.607a67.989 67.989 0 0 1-4.089 4.476c-.038.213-.071.421-.109.635-.049.274-.093.543-.142.805-.131.745-.263 1.452-.39 2.117l.201.014-.179.186a69.43 69.43 0 0 0 8.044.638c.736.016 1.478.026 2.219.011 4.729-.044 9.422-.733 13.953-1.91 4.536-1.184 8.912-2.844 13.142-4.776-4.345 1.667-8.792 3.056-13.335 3.936z"></path><path fill="#FFF" d="M1188.811 803.342c-2.72-4.698-1.117-10.711 3.581-13.432 4.698-2.72 10.712-1.116 13.432 3.582 2.72 4.698 1.116 10.711-3.581 13.432-4.699 2.719-10.712 1.116-13.432-3.582z"></path><path fill="#089577" d="M301.604 764.502c-3.43-7.919-6.468-15.682-9.41-23.87 2.883-4.198 5.586-10.009 7.523-14.686 5.891 3.69 12.242 8.841 16.673 15.641-3.296 6.524-9.027 16.93-14.786 22.915zM291.732 739.313c-2.306-6.488-4.554-13.265-6.895-20.612 1.886.67 7.543 2.795 13.91 6.649-1.824 4.404-4.328 9.861-7.015 13.963z"></path><path fill="#089577" d="M315.472 792.59c-1.235-1.946-1.771-3.086-1.79-3.123a.578.578 0 0 0-.241-.239c-4.342-8.365-8.034-16.069-11.34-23.608 5.778-5.857 11.556-16.185 14.989-22.931a37.762 37.762 0 0 1 2.492 4.912c7.733 18.679-2.142 40.924-4.11 44.989z"></path><path fill="#089577" d="M315.153 793.251s-.254-.078-.725-.251l-.01-.005a10.532 10.532 0 0 1-.358-.123c-4.267-1.539-19.994-7.851-29.487-20.396a33.73 33.73 0 0 1-1.254-1.75 37.085 37.085 0 0 1-3.582-6.609c-2.577-6.213-3.208-12.808-2.818-19.011.025-.413.059-.82.099-1.237.989-11.812 5.47-21.924 6.785-24.662.23-.479.357-.73.357-.73l.676.224c2.341 7.347 4.589 14.125 6.895 20.612 2.687-4.101 5.191-9.559 7.015-13.963.319.192.648.389.971.596-1.937 4.677-4.64 10.488-7.523 14.686 2.942 8.188 5.981 15.952 9.41 23.87 5.759-5.984 11.49-16.39 14.786-22.915.245.37.474.744.7 1.103-3.433 6.745-9.211 17.074-14.989 22.931 3.306 7.539 6.998 15.243 11.34 23.608.098.055.186.13.241.239.019.036.555 1.177 1.79 3.123-.045.104-.085.198-.129.276-.119.256-.19.384-.19.384z"></path><path fill="#0AC69F" d="M332.957 812.382a.566.566 0 0 1-.708.133c-.03-.017-.059-.033-.083-.059-9.772-8.037-15.228-15.451-17.738-19.456l-.01-.005a10.532 10.532 0 0 1-.358-.123 473.064 473.064 0 0 1-6.83-13.469c-8.237-1.556-16.202-4.29-22.657-6.927a33.73 33.73 0 0 1-1.254-1.75c6.46 2.743 14.712 5.703 23.305 7.407a364.807 364.807 0 0 1-11.427-26.242c-6.083-1.02-12.969-4.041-18.278-6.785.025-.413.059-.82.099-1.237 5.132 2.67 11.806 5.676 17.703 6.798-3.793-9.828-7.239-19.952-10.917-31.46.23-.479.357-.73.357-.73l.676.224c2.341 7.347 4.589 14.125 6.895 20.612 2.687-4.101 5.191-9.559 7.015-13.963.319.192.648.389.971.596-1.937 4.677-4.64 10.488-7.523 14.686 2.942 8.188 5.981 15.952 9.41 23.87 5.759-5.984 11.49-16.39 14.786-22.915.245.37.474.744.7 1.103-3.433 6.745-9.211 17.074-14.989 22.931 3.306 7.539 6.998 15.243 11.34 23.608.098.055.186.13.241.239.019.036.555 1.177 1.79 3.123 2.523 3.934 7.878 11.162 17.402 18.996.246.202.28.557.082.795zM354.552 781.852c6.633-5.519 13.228-10.62 20.257-15.747 4.84 1.586 11.177 2.544 16.21 3.086-1.884 6.691-5.038 14.235-10.317 20.401-7.189-1.327-18.787-3.899-26.15-7.74zM375.945 765.29c5.576-4.039 11.448-8.103 17.839-12.417-.112 1.998-.559 8.024-2.466 15.219-4.74-.511-10.681-1.378-15.373-2.802z"></path><path fill="#0AC69F" d="M331.502 803.063c1.52-1.733 2.463-2.568 2.493-2.596a.573.573 0 0 0 .161-.298c6.805-6.521 13.159-12.231 19.463-17.525 7.247 3.896 18.783 6.534 26.222 7.93a37.759 37.759 0 0 1-4.012 3.774c-15.748 12.677-39.873 9.461-44.327 8.715z"></path><path fill="#0AC69F" d="M330.778 802.943s.003-.265.037-.766l.003-.011c.003-.115.009-.241.017-.378.276-4.528 1.907-21.395 11.274-34.035.421-.574.864-1.143 1.326-1.696a37.104 37.104 0 0 1 5.333-5.297c5.237-4.221 11.387-6.682 17.45-8.054a35.26 35.26 0 0 1 1.215-.253c11.612-2.375 22.577-.921 25.575-.429.524.086.801.138.801.138l-.025.711c-6.391 4.314-12.262 8.378-17.839 12.417 4.692 1.424 10.633 2.292 15.373 2.802a37.9 37.9 0 0 1-.299 1.099c-5.033-.543-11.37-1.501-16.21-3.086-7.029 5.128-13.624 10.228-20.257 15.747 7.363 3.842 18.961 6.413 26.15 7.74-.286.339-.581.665-.862.982-7.439-1.396-18.976-4.034-26.222-7.93-6.304 5.294-12.658 11.005-19.463 17.525a.566.566 0 0 1-.161.298c-.03.028-.973.864-2.493 2.596-.112-.014-.214-.026-.302-.046-.278-.041-.421-.074-.421-.074z"></path><path fill="#089577" d="M317.43 825.412a.565.565 0 0 1-.327-.642c.008-.033.015-.066.034-.096 4.963-11.639 10.541-18.961 13.678-22.497l.003-.011c.003-.115.009-.241.017-.378a470.77 470.77 0 0 1 11.003-10.344c-.825-8.342-.443-16.754.271-23.691.421-.574.864-1.143 1.326-1.696-.815 6.971-1.332 15.722-.549 24.448a365.186 365.186 0 0 1 21.965-18.35c-.733-6.124.228-13.582 1.367-19.449a35.26 35.26 0 0 1 1.215-.253c-1.118 5.676-2.125 12.927-1.542 18.9 8.363-6.406 17.109-12.561 27.117-19.33.524.086.801.138.801.138l-.025.711c-6.391 4.314-12.262 8.378-17.839 12.417 4.692 1.424 10.633 2.292 15.373 2.802a37.9 37.9 0 0 1-.299 1.099c-5.033-.543-11.37-1.501-16.21-3.086-7.029 5.128-13.624 10.228-20.257 15.747 7.363 3.842 18.961 6.413 26.15 7.74-.286.339-.581.665-.862.982-7.439-1.396-18.976-4.034-26.222-7.93-6.304 5.294-12.658 11.005-19.463 17.525a.566.566 0 0 1-.161.298c-.03.028-.973.864-2.493 2.596-3.065 3.529-8.494 10.701-13.331 22.044a.56.56 0 0 1-.74.306z"></path><path fill="#BED8DD" d="M483.616 856.784h-65.965a4.5 4.5 0 0 1 0-9h65.965a4.5 4.5 0 1 1 0 9zM880.083 856.784H861.98a4.5 4.5 0 0 1 0-9h18.103a4.5 4.5 0 1 1 0 9z"></path><path fill="#F56181" d="M319.729 799.444c1.536 2.17 3.089 4.245 4.697 6.144l.209.238.13.158c-.58.373-1.195.771-1.836 1.197-.228.147-.457.303-.694.459-.184.121-.36.243-.545.364-12.773 8.638-34.693 25.218-45.646 11.968-2.343-4.634.038-10.709-2.595-15.178-2.027-3.459-6.35-4.763-9.282-7.501-7.197-7.874 1.924-10.19 8.301-15.813 3.791-3.337 2.405-10.047 8.227-10.643 20.016-2.575 29.213 14.786 39.034 28.607z"></path><path fill="#F7819A" d="M320.687 803.238c1.535 2.17 3.089 4.244 4.697 6.144l.209.237.13.158c-.58.373-1.194.772-1.836 1.197-.228.147-.457.303-.694.46-.185.121-.36.243-.545.364-12.773 8.638-34.693 25.218-45.646 11.968-2.343-4.634.038-10.709-2.595-15.178-2.027-3.459-6.35-4.763-9.282-7.501-7.197-7.873 1.924-10.19 8.301-15.813 3.791-3.337 2.405-10.047 8.227-10.643 20.015-2.575 29.212 14.786 39.034 28.607z"></path><path fill="#D64968" d="M319.895 809.191c-.185.121-.36.243-.545.364-2.122 1.435-4.499 3.09-7.034 4.79 3.288-2.146 6.364-4.298 9.054-6.123-.263.172-.509.329-.782.51-.228.147-.456.303-.693.459z"></path><path fill="#E35F7B" d="m324.635 805.826-.208-.238c-1.607-1.899-3.161-3.973-4.697-6.144-9.822-13.821-19.019-31.182-39.035-28.607-1.655.169-2.717.843-3.492 1.783a6.213 6.213 0 0 1 1.151-.232c20.016-2.575 29.213 14.786 39.035 28.607 1.536 2.17 3.09 4.244 4.697 6.144l.208.237.12.145c.173-.116.346-.232.515-.341.642-.425 1.256-.824 1.836-1.197l-.13-.157z"></path><path fill="#F4AABA" d="M306.507 789.575c3.833 2.727 7.349 5.862 10.391 9.406a64.737 64.737 0 0 1 3.656 4.659c-.079-.035-.148-.071-.227-.106-4.327-2.056-8.831-3.823-13.479-5.041-4.647-1.226-9.438-1.832-14.206-1.904-4.768-.072-9.513.381-14.189 1.123 4.71-.453 9.453-.609 14.149-.248 4.688.361 9.319 1.237 13.755 2.716 4.523 1.488 8.833 3.5 13.002 5.817a55.608 55.608 0 0 0-4.01.387c-4.772.61-9.443 1.86-13.88 3.583-4.446 1.732-8.677 3.929-12.725 6.381 4.195-2.197 8.529-4.122 13.017-5.557 4.479-1.426 9.096-2.361 13.761-2.665a69.402 69.402 0 0 1 6.169-.121c.184-.121.36-.243.545-.364.237-.156.466-.312.694-.459.641-.425 1.256-.824 1.836-1.197l-.13-.158.262.001a70.82 70.82 0 0 0-5.168-6.383 54.36 54.36 0 0 0-1.547-1.645c-3.348-3.459-7.145-6.438-11.189-8.956-4.053-2.518-8.346-4.582-12.736-6.349 4.273 2.037 8.415 4.345 12.249 7.08z"></path><path fill="#F7819A" d="M318.382 811.369c2.17-1.536 4.245-3.089 6.144-4.697l.237-.209.158-.13c.373.58.772 1.195 1.197 1.836.147.228.303.457.46.694.121.185.243.36.364.545 8.638 12.773 25.218 34.693 11.968 45.646-4.634 2.344-10.709-.038-15.178 2.596-3.459 2.027-4.763 6.35-7.501 9.282-7.873 7.197-10.19-1.924-15.813-8.301-3.337-3.791-10.048-2.405-10.643-8.227-2.575-20.016 14.786-29.213 28.607-39.035z"></path><path fill="#E35F7B" d="M327.012 809.986c-.122-.185-.243-.36-.364-.545-.156-.237-.312-.466-.46-.694-.425-.641-.824-1.256-1.197-1.836l-.158.13-.238.209c-.646.547-1.337 1.08-2.021 1.616.099.148.198.293.297.444 8.638 12.773 25.218 34.693 11.968 45.646-4.634 2.344-10.709-.038-15.178 2.596-3.459 2.027-4.763 6.35-7.501 9.282-1.389 1.27-2.603 2.023-3.695 2.382 2.048 1.465 4.418 1.417 7.835-1.706 2.739-2.932 4.042-7.255 7.501-9.282 4.469-2.633 10.544-.252 15.178-2.595 13.251-10.955-3.329-32.874-11.967-45.647z"></path><path fill="#F4AABA" d="M308.513 824.592c2.727-3.833 5.862-7.349 9.406-10.391a64.737 64.737 0 0 1 4.659-3.656c-.035.078-.071.148-.106.227-2.055 4.327-3.823 8.831-5.041 13.479-1.226 4.647-1.832 9.438-1.905 14.206-.072 4.768.381 9.513 1.123 14.189-.453-4.71-.609-9.453-.248-14.149.361-4.688 1.237-9.319 2.716-13.755 1.488-4.523 3.5-8.833 5.817-13.002.08 1.339.212 2.679.387 4.009.61 4.772 1.86 9.443 3.583 13.88 1.732 4.446 3.929 8.677 6.381 12.725-2.197-4.195-4.122-8.529-5.557-13.017-1.426-4.48-2.361-9.096-2.665-13.761a69.025 69.025 0 0 1-.121-6.169c-.121-.184-.243-.36-.364-.545-.156-.237-.312-.465-.46-.694-.425-.641-.824-1.256-1.197-1.836l-.158.13.001-.263a70.82 70.82 0 0 0-8.028 6.715c-3.458 3.348-6.438 7.145-8.956 11.189-2.518 4.054-4.582 8.346-6.349 12.736 2.039-4.272 4.347-8.414 7.082-12.247z"></path><path fill="#F56181" d="M330.715 813.181c-1.536-2.17-3.09-4.244-4.697-6.144l-.209-.238-.13-.158c.58-.373 1.195-.771 1.836-1.197.228-.147.457-.303.694-.459.184-.121.36-.243.544-.364 12.773-8.638 34.693-25.218 45.647-11.968 2.343 4.634-.038 10.709 2.595 15.178 2.027 3.459 6.35 4.762 9.282 7.501 7.197 7.874-1.924 10.19-8.301 15.813-3.791 3.337-2.405 10.047-8.227 10.643-20.015 2.576-29.212-14.785-39.034-28.607z"></path><path fill="#F7819A" d="M330.715 813.181c-1.536-2.17-3.09-4.244-4.697-6.144l-.209-.238-.13-.158c.58-.373 1.195-.771 1.836-1.197.228-.147.457-.303.694-.459.184-.121.36-.243.544-.364 12.773-8.638 34.693-25.218 45.647-11.968 2.343 4.634-.038 10.709 2.595 15.178 2.027 3.459 6.35 4.762 9.282 7.501 7.197 7.874-1.924 10.19-8.301 15.813-3.791 3.337-2.405 10.047-8.227 10.643-20.015 2.576-29.212-14.785-39.034-28.607z"></path><path fill="#E35F7B" d="M386.278 815.333c-2.932-2.738-7.255-4.042-9.282-7.501-2.633-4.469-.252-10.544-2.595-15.178-8.492-10.272-23.572-2.616-35.874 5.369 11.383-6.841 24.14-11.879 31.689-2.747 2.344 4.634-.038 10.709 2.596 15.178 2.027 3.459 6.35 4.763 9.282 7.501 7.197 7.874-1.924 10.19-8.301 15.813-2.417 2.127-2.735 5.62-4.152 8.031.037-.005.073-.006.11-.011 5.822-.595 4.436-7.305 8.227-10.643 6.376-5.622 15.497-7.939 8.3-15.812z"></path><path fill="#F4AABA" d="M343.944 823.098c-3.833-2.727-7.349-5.862-10.391-9.406a64.737 64.737 0 0 1-3.656-4.659c.079.035.148.071.227.106 4.327 2.056 8.831 3.823 13.479 5.041 4.647 1.226 9.438 1.832 14.206 1.905 4.768.072 9.513-.381 14.189-1.123-4.71.453-9.453.609-14.149.248-4.688-.36-9.319-1.237-13.755-2.716-4.523-1.488-8.834-3.5-13.002-5.817a56.768 56.768 0 0 0 4.01-.387c4.772-.61 9.443-1.86 13.88-3.583 4.446-1.732 8.677-3.929 12.725-6.381-4.195 2.197-8.529 4.122-13.017 5.557-4.479 1.426-9.096 2.36-13.761 2.665a69.402 69.402 0 0 1-6.169.121c-.184.121-.36.243-.544.364-.237.156-.466.312-.694.459-.641.425-1.256.824-1.836 1.197l.13.158-.262-.002a70.82 70.82 0 0 0 6.716 8.028c3.348 3.459 7.145 6.438 11.189 8.956 4.053 2.518 8.346 4.582 12.736 6.349-4.276-2.036-8.418-4.345-12.251-7.08z"></path><path fill="#F7819A" d="M332.215 800.834c-2.17 1.536-4.244 3.089-6.144 4.697l-.237.209-.158.13c-.373-.58-.771-1.195-1.196-1.836-.147-.228-.304-.457-.46-.694-.121-.185-.243-.36-.364-.545-8.638-12.773-25.218-34.693-11.968-45.647 4.634-2.343 10.709.038 15.178-2.595 3.459-2.027 4.762-6.35 7.501-9.282 7.874-7.197 10.19 1.924 15.813 8.301 3.337 3.791 10.047 2.405 10.643 8.227 2.574 20.016-14.787 29.213-28.608 39.035z"></path><path fill="#D64968" d="M323.56 755.686c-3.886.648-8.306-.342-11.874 1.463-.055.045-.099.094-.152.14 4-.637 8.496.387 12.026-1.603z"></path><path fill="#E35F7B" d="M350.179 753.572c-5.112-5.798-7.492-13.861-13.8-9.869 4.122.016 6.474 6.22 10.629 10.933 3.337 3.791 10.048 2.405 10.643 8.227 2.576 20.016-14.786 29.213-28.607 39.035-1.39.984-2.718 1.981-4.009 2.989.214.329.44.672.64.982l.158-.13.237-.209c1.9-1.607 3.974-3.161 6.144-4.697 13.821-9.822 31.182-19.019 28.607-39.035-.595-5.821-7.305-4.435-10.642-8.226z"></path><path fill="#F4AABA" d="M342.084 787.611c-2.726 3.833-5.862 7.349-9.406 10.39a64.737 64.737 0 0 1-4.659 3.656c.035-.078.071-.148.106-.227 2.056-4.327 3.824-8.831 5.041-13.479 1.226-4.647 1.832-9.438 1.905-14.206.072-4.768-.381-9.513-1.123-14.189.453 4.71.608 9.453.248 14.149-.36 4.688-1.237 9.319-2.716 13.755-1.488 4.523-3.5 8.833-5.817 13.002a55.58 55.58 0 0 0-.387-4.009c-.61-4.772-1.86-9.443-3.583-13.88-1.732-4.446-3.929-8.676-6.381-12.725 2.197 4.195 4.123 8.529 5.557 13.017 1.426 4.479 2.361 9.096 2.665 13.761.136 2.057.168 4.113.121 6.169.121.184.243.36.364.545.156.237.312.466.46.694.425.641.824 1.256 1.196 1.836l.158-.13-.002.263a70.82 70.82 0 0 0 8.028-6.715c3.459-3.348 6.438-7.145 8.956-11.189 2.517-4.053 4.582-8.346 6.349-12.736-2.037 4.273-4.345 8.415-7.08 12.248z"></path><circle cx="325.313" cy="806.362" r="10.004" fill="#FFF" transform="rotate(-32.21 325.232 806.292)"></circle><path fill="#0AC69F" d="M259.796 809.078c6.588 1.802 12.887 3.768 19.401 6.004 1.165 3.859 3.417 8.405 5.346 11.917-5.195 1.811-11.52 3.184-17.914 2.555-2.398-5.266-5.988-13.957-6.833-20.476zM280.24 815.45c5.149 1.787 10.447 3.754 16.144 5.945-1.347.833-5.46 3.275-10.992 5.3-1.818-3.307-3.949-7.556-5.152-11.245z"></path><path fill="#0AC69F" d="M235.583 803.739c1.813.201 2.783.434 2.815.44a.457.457 0 0 0 .267-.031c7.316 1.459 13.902 2.993 20.195 4.683.757 6.468 4.276 15.149 6.743 20.609a29.876 29.876 0 0 1-4.267-.892c-15.367-4.471-24.217-21.581-25.753-24.809z"></path><path fill="#0AC69F" d="M235.333 803.214s.173-.118.514-.323l.008-.003c.076-.05.16-.103.253-.16 3.063-1.873 14.746-8.463 27.194-8.115a26.45 26.45 0 0 1 1.702.092 29.35 29.35 0 0 1 5.855 1.059c5.113 1.484 9.498 4.359 13.137 7.67.243.219.477.442.715.673 6.806 6.458 10.833 14.231 11.873 16.399.182.379.274.582.274.582l-.473.306c-5.697-2.191-10.995-4.158-16.144-5.945 1.203 3.69 3.334 7.938 5.152 11.245-.276.102-.561.207-.849.305-1.929-3.512-4.181-8.058-5.346-11.917-6.514-2.236-12.813-4.203-19.401-6.004.845 6.519 4.435 15.21 6.833 20.476-.35-.032-.694-.075-1.027-.114-2.467-5.46-5.985-14.141-6.743-20.609-6.293-1.69-12.879-3.223-20.195-4.683a.464.464 0 0 1-.267.031c-.032-.007-1.002-.24-2.815-.44a2.526 2.526 0 0 1-.107-.217c-.1-.2-.143-.308-.143-.308z"></path><path fill="#089577" d="M214.703 804.74a.448.448 0 0 1 .268-.503c.025-.01.05-.02.078-.022 9.801-2.057 17.082-1.757 20.798-1.325l.008-.003c.076-.05.16-.103.253-.16 4.103.795 7.981 1.604 11.7 2.449 5.039-4.317 10.67-7.883 15.494-10.564a26.45 26.45 0 0 1 1.702.092c-4.892 2.632-10.805 6.263-16.111 10.727a289.513 289.513 0 0 1 21.864 5.932c3.641-3.252 8.916-6.009 13.239-7.93.243.219.477.442.715.673-4.19 1.847-9.35 4.482-12.962 7.568 7.948 2.522 15.907 5.406 24.835 8.831.182.379.274.582.274.582l-.473.306c-5.697-2.191-10.995-4.158-16.144-5.945 1.203 3.69 3.334 7.938 5.152 11.245-.276.102-.561.207-.849.305-1.929-3.512-4.181-8.058-5.346-11.917-6.514-2.236-12.813-4.203-19.401-6.004.845 6.519 4.435 15.21 6.833 20.476-.35-.032-.694-.075-1.027-.114-2.467-5.46-5.985-14.141-6.743-20.609-6.293-1.69-12.879-3.223-20.195-4.683a.464.464 0 0 1-.267.031c-.032-.007-1.002-.24-2.815-.44-3.679-.389-10.794-.66-20.347 1.345a.445.445 0 0 1-.533-.343z"></path><path fill="#F56181" d="M224.021 793.68c-.318 1.907-.578 3.773-.72 5.577l-.014.229-.014.148c-.49-.104-1.012-.213-1.561-.322-.193-.041-.391-.077-.594-.118-.157-.032-.31-.059-.468-.091-11.018-2.079-30.825-4.739-29.698-17.189 1.162-3.592 5.502-5.511 6.43-9.166.724-2.824-.841-5.71-.953-8.625.314-7.751 6.211-4.277 12.382-3.916 3.666.218 6.386-3.957 9.697-1.284 11.656 8.918 7.517 22.592 5.513 34.757z"></path><path fill="#F56181" d="M222.573 796.129c-.318 1.907-.578 3.773-.72 5.577l-.014.229-.014.148c-.49-.104-1.012-.213-1.561-.322-.193-.041-.391-.077-.594-.118-.157-.032-.31-.059-.468-.091-11.018-2.079-30.825-4.739-29.698-17.189 1.162-3.592 5.502-5.511 6.43-9.166.724-2.824-.841-5.71-.953-8.625.314-7.75 6.211-4.277 12.382-3.916 3.666.217 6.386-3.957 9.697-1.284 11.657 8.918 7.517 22.592 5.513 34.757z"></path><g fill="#D64968"><path d="M219.117 798.797c-.158-.032-.31-.059-.468-.091-1.83-.345-3.905-.708-6.084-1.128 2.796.575 5.486 1.039 7.81 1.474-.224-.046-.431-.091-.665-.137-.193-.04-.391-.077-.593-.118zM223.287 799.486l.014-.229c.142-1.804.402-3.67.72-5.577 2.004-12.165 6.143-25.839-5.511-34.756-.941-.76-1.835-.956-2.716-.867.235.126.472.275.713.47 11.654 8.918 7.515 22.591 5.511 34.756-.318 1.907-.577 3.773-.72 5.577l-.014.229-.012.136c.149.029.298.057.441.088.549.109 1.07.218 1.561.322l.013-.149z"></path></g><path fill="#D64968" d="M222.246 781.814c.584 3.37.794 6.79.55 10.177a46.937 46.937 0 0 1-.498 4.277c-.022-.058-.04-.112-.063-.171-1.182-3.277-2.603-6.496-4.379-9.504-1.772-3.013-3.936-5.778-6.361-8.256-2.425-2.478-5.107-4.674-7.902-6.685 2.664 2.177 5.193 4.525 7.433 7.116 2.236 2.586 4.179 5.41 5.713 8.445 1.574 3.084 2.77 6.33 3.736 9.66a40.794 40.794 0 0 0-2.269-1.853c-2.777-2.128-5.828-3.874-9.002-5.256-3.183-1.382-6.492-2.413-9.838-3.219 3.291 1.013 6.515 2.238 9.567 3.795 3.043 1.557 5.906 3.438 8.47 5.669a50.25 50.25 0 0 1 3.247 3.096c.157.032.31.059.468.091.202.041.4.077.594.118.549.109 1.07.218 1.561.322l.014-.148.135.135a51.497 51.497 0 0 0 .642-7.584c.042-3.5-.393-6.982-1.193-10.353-.804-3.375-1.964-6.639-3.326-9.799 1.165 3.24 2.122 6.552 2.701 9.927z"></path><path fill="#F56181" d="M217.221 799.148c1.907.318 3.773.578 5.577.72l.229.014.149.014c-.104.49-.213 1.012-.322 1.56-.041.193-.077.391-.118.594-.032.157-.059.31-.091.468-2.079 11.018-4.739 30.825-17.189 29.698-3.592-1.162-5.511-5.502-9.166-6.43-2.824-.724-5.71.841-8.625.953-7.751-.314-4.277-6.211-3.916-12.382.217-3.666-3.957-6.386-1.284-9.697 8.917-11.655 22.59-7.516 34.756-5.512z"></path><path fill="#D64968" d="M222.385 802.852c.032-.158.059-.31.091-.468.041-.202.077-.4.118-.594.109-.549.218-1.07.322-1.561l-.148-.014-.229-.014c-.614-.049-1.244-.127-1.871-.2-.025.127-.048.253-.074.381-2.079 11.018-4.739 30.825-17.189 29.698-3.592-1.162-5.51-5.502-9.166-6.43-2.824-.725-5.71.841-8.626.953-1.368-.055-2.38-.288-3.127-.662.308 1.805 1.556 2.994 4.919 3.13 2.915-.112 5.801-1.677 8.626-.953 3.656.928 5.574 5.268 9.166 6.43 12.449 1.129 15.109-18.678 17.188-29.696z"></path><path fill="#D64968" d="M205.355 800.923c3.37-.584 6.79-.794 10.177-.55a47.29 47.29 0 0 1 4.277.497c-.059.022-.113.04-.171.063-3.277 1.182-6.496 2.603-9.504 4.379-3.012 1.772-5.778 3.936-8.257 6.361-2.478 2.425-4.674 5.107-6.685 7.902 2.177-2.664 4.525-5.193 7.116-7.433 2.586-2.236 5.41-4.179 8.445-5.713 3.084-1.574 6.33-2.769 9.66-3.736a40.349 40.349 0 0 0-1.853 2.269c-2.128 2.777-3.874 5.828-5.256 9.002-1.382 3.183-2.413 6.492-3.219 9.838 1.013-3.291 2.238-6.515 3.795-9.567 1.557-3.043 3.438-5.906 5.669-8.471a50.25 50.25 0 0 1 3.096-3.247c.032-.157.059-.31.091-.468.041-.202.077-.4.118-.594.109-.549.218-1.07.322-1.56l-.149-.014.135-.135a51.497 51.497 0 0 0-7.584-.642c-3.5-.042-6.982.393-10.353 1.193-3.375.804-6.639 1.964-9.799 3.326 3.241-1.164 6.554-2.121 9.929-2.7z"></path><path fill="#F56181" d="M222.661 806.398c.318-1.907.578-3.773.72-5.577l.014-.229.014-.148c.49.104 1.012.213 1.561.322.193.041.391.077.594.118.157.032.31.059.468.091 11.018 2.079 30.826 4.739 29.698 17.189-1.162 3.592-5.502 5.51-6.43 9.166-.725 2.824.841 5.71.953 8.625-.314 7.75-6.211 4.277-12.382 3.916-3.666-.218-6.385 3.957-9.697 1.284-11.656-8.918-7.517-22.592-5.513-34.757z"></path><path fill="#F56181" d="M222.661 806.398c.318-1.907.578-3.773.72-5.577l.014-.229.014-.148c.49.104 1.012.213 1.561.322.193.041.391.077.594.118.157.032.31.059.468.091 11.018 2.079 30.826 4.739 29.698 17.189-1.162 3.592-5.502 5.51-6.43 9.166-.725 2.824.841 5.71.953 8.625-.314 7.75-6.211 4.277-12.382 3.916-3.666-.218-6.385 3.957-9.697 1.284-11.656-8.918-7.517-22.592-5.513-34.757z"></path><path fill="#D64968" d="M250.251 835.955c-.112-2.915-1.677-5.801-.953-8.625.928-3.656 5.268-5.574 6.43-9.166.874-9.652-10.833-13.419-21.273-15.594 9.38 2.295 18.547 6.225 17.77 14.805-1.162 3.593-5.502 5.511-6.43 9.167-.725 2.824.841 5.71.953 8.625-.314 7.751-6.211 4.277-12.382 3.916-2.337-.139-4.29 1.502-6.256 2.021l.063.051c3.311 2.673 6.03-1.501 9.696-1.284 6.171.361 12.068 3.834 12.382-3.916z"></path><path fill="#D64968" d="M224.415 818.291c-.584-3.37-.794-6.79-.55-10.177a47.29 47.29 0 0 1 .497-4.277c.022.059.04.112.063.171 1.182 3.277 2.603 6.496 4.379 9.504 1.772 3.013 3.936 5.778 6.361 8.256 2.425 2.478 5.107 4.674 7.902 6.685-2.664-2.177-5.193-4.525-7.433-7.116-2.236-2.586-4.179-5.41-5.713-8.444-1.574-3.084-2.77-6.33-3.736-9.66a40.712 40.712 0 0 0 2.269 1.853c2.777 2.128 5.828 3.874 9.002 5.256 3.183 1.382 6.492 2.413 9.838 3.219-3.291-1.013-6.515-2.238-9.567-3.795-3.043-1.557-5.905-3.438-8.47-5.669a50.25 50.25 0 0 1-3.247-3.096c-.157-.032-.31-.059-.468-.091-.202-.041-.4-.077-.594-.118-.549-.109-1.07-.218-1.561-.322l-.014.148-.135-.135a51.497 51.497 0 0 0-.642 7.584c-.042 3.5.393 6.982 1.193 10.353.804 3.375 1.964 6.639 3.326 9.799-1.164-3.24-2.121-6.553-2.7-9.928z"></path><path fill="#F56181" d="M229.757 800.789c-1.907-.318-3.773-.578-5.577-.72l-.229-.014-.148-.014c.104-.49.213-1.012.322-1.56.041-.193.077-.391.118-.594.032-.157.059-.31.091-.468 2.079-11.018 4.739-30.825 17.189-29.698 3.592 1.162 5.511 5.502 9.166 6.43 2.824.724 5.71-.841 8.625-.953 7.75.314 4.277 6.211 3.916 12.382-.217 3.666 3.957 6.386 1.284 9.697-8.919 11.656-22.592 7.517-34.757 5.512z"></path><g fill="#D64968"><path d="M248.402 773.045c-2.338-1.655-4.114-4.429-6.88-5.323-.051-.005-.099-.002-.15-.006 2.391 1.719 4.188 4.549 7.03 5.329zM263.229 785.581c.328-5.611 3.227-10.993-2.074-12.161 2.12 2.119.158 6.526-.109 11.087-.217 3.666 3.957 6.386 1.284 9.697-8.918 11.655-22.591 7.515-34.756 5.511a77.417 77.417 0 0 0-3.6-.509c-.058.28-.116.572-.172.835l.148.014.229.014c1.804.143 3.67.402 5.577.72 12.165 2.004 25.839 6.143 34.756-5.511 2.674-3.311-1.5-6.031-1.283-9.697z"></path></g><path fill="#D64968" d="M241.622 799.014c-3.37.584-6.79.794-10.177.55a47.29 47.29 0 0 1-4.277-.497c.058-.022.113-.04.171-.063 3.277-1.182 6.496-2.603 9.504-4.379 3.012-1.772 5.778-3.936 8.257-6.361 2.478-2.425 4.674-5.107 6.684-7.902-2.177 2.664-4.525 5.193-7.116 7.433-2.586 2.236-5.41 4.179-8.444 5.713-3.084 1.574-6.33 2.77-9.66 3.736a40.349 40.349 0 0 0 1.853-2.269c2.128-2.776 3.874-5.828 5.256-9.002 1.382-3.183 2.413-6.492 3.219-9.838-1.013 3.291-2.238 6.515-3.795 9.567-1.557 3.043-3.438 5.906-5.669 8.471a50.25 50.25 0 0 1-3.096 3.247c-.032.157-.059.31-.091.468-.041.202-.077.4-.118.594-.109.549-.218 1.07-.322 1.56l.148.014-.135.135a51.497 51.497 0 0 0 7.584.642c3.5.042 6.982-.393 10.353-1.193 3.375-.804 6.639-1.964 9.799-3.326-3.24 1.164-6.553 2.121-9.928 2.7z"></path><path fill="#FFF" d="M216.991 803.62a7.274 7.274 0 1 1 12.743-7.019 7.274 7.274 0 0 1-12.743 7.019z"></path><path fill="#089577" d="M398.835 788.055a201.196 201.196 0 0 1 2.923-12.668c2.409-.925 5.206-2.576 7.357-3.972 1.4 3.232 2.574 7.205 2.472 11.317-3.25 1.777-8.63 4.477-12.752 5.323zM401.943 774.704a330.689 330.689 0 0 1 3.038-10.586 39.882 39.882 0 0 1 3.9 6.769c-2.027 1.316-4.639 2.875-6.938 3.817z"></path><path fill="#089577" d="M396.563 803.764c.043-1.167.146-1.797.149-1.818a.296.296 0 0 0-.032-.169 200.563 200.563 0 0 1 2.042-13.113c4.094-.787 9.471-3.441 12.841-5.272a19.214 19.214 0 0 1-.369 2.766c-2.134 10.02-12.642 16.474-14.631 17.606z"></path><path fill="#089577" d="M396.24 803.948s-.084-.105-.23-.313l-.003-.005a7.089 7.089 0 0 1-.114-.154c-1.34-1.868-6.095-9.017-6.458-16.981-.018-.36-.026-.725-.021-1.091a18.86 18.86 0 0 1 .401-3.788c.707-3.334 2.337-6.269 4.28-8.747.129-.165.26-.325.396-.488 3.803-4.648 8.577-7.584 9.912-8.35.233-.134.359-.202.359-.202l.218.287a335.975 335.975 0 0 0-3.038 10.586c2.299-.941 4.911-2.501 6.937-3.817.078.172.159.348.234.528-2.151 1.397-4.948 3.047-7.357 3.972a201.196 201.196 0 0 0-2.923 12.668c4.122-.846 9.502-3.546 12.752-5.324-.004.225-.016.447-.025.661-3.37 1.831-8.747 4.485-12.841 5.272-.784 4.097-1.453 8.374-2.042 13.113.025.051.04.107.032.169-.003.02-.106.651-.149 1.818-.049.03-.092.058-.133.078-.12.076-.187.108-.187.108z"></path><path fill="#0AC69F" d="M398.183 817.047a.287.287 0 0 1-.352-.197c-1.773-6.161-1.924-10.823-1.822-13.216l-.003-.005a7.089 7.089 0 0 1-.114-.154c.315-2.657.65-5.171 1.014-7.585-2.993-3.014-5.534-6.442-7.472-9.396-.018-.36-.026-.725-.021-1.091 1.91 3 4.506 6.604 7.605 9.783a185.475 185.475 0 0 1 2.761-14.237c-2.247-2.172-4.255-5.41-5.685-8.08.129-.165.26-.325.396-.488 1.376 2.588 3.3 5.759 5.44 7.92 1.237-5.192 2.704-10.409 4.472-16.27.233-.134.359-.202.359-.202l.218.287a335.975 335.975 0 0 0-3.038 10.586c2.299-.941 4.911-2.501 6.937-3.817.078.172.159.348.234.528-2.151 1.397-4.948 3.047-7.357 3.972a201.196 201.196 0 0 0-2.923 12.668c4.122-.846 9.502-3.546 12.752-5.324-.004.225-.016.447-.025.661-3.37 1.831-8.747 4.485-12.841 5.272-.784 4.097-1.453 8.374-2.042 13.113.025.051.04.107.032.169-.003.02-.106.651-.149 1.818-.076 2.367.086 6.922 1.814 12.927a.28.28 0 0 1-.19.358z"></path><path fill="#FFF" d="M413.139 795.24c.257-4.436-3.404-3.861-6.468-4.457-2.034-.793-2.74-3.768-5.031-4.075-4.998.534-5.856 12.472-6.538 16.575l8.043 3.942c3.565-3.647 9.615-6.283 9.994-11.985z"></path><path fill="#FBC0CD" d="M413.139 795.24c.103-1.77-.42-2.741-1.278-3.308.041.221.073.458.094.715.404 5.7-5.23 9.138-8.263 13.238l-8.506-2.806c.004-.122.006-.252.008-.387-.031.21-.062.411-.092.591l8.043 3.942c3.565-3.647 9.615-6.283 9.994-11.985z"></path><path fill="#FFF" d="M390.52 788.487c-3.713-2.44-5.045 1.018-7.094 3.373-1.703 1.365-4.632.489-6.044 2.319-2.036 4.596 7.874 11.308 11.085 13.951l7.435-4.995c-1.376-4.911-.633-11.469-5.382-14.648z"></path><path fill="#FBC0CD" d="M390.52 788.487c-1.482-.973-2.583-1.007-3.504-.547.212.075.433.165.666.276 5.138 2.5 5.299 9.099 7.333 13.775l-6.683 5.964-.332-.201c.166.132.325.259.466.375l7.435-4.995c-1.375-4.91-.632-11.468-5.381-14.647z"></path><path fill="#FFF" d="M373.362 804.699c-3.97 1.995-1.641 4.878-.626 7.83.33 2.157-1.893 4.256-1.014 6.394 2.962 4.061 13.73-1.165 17.624-2.625l-.608-8.936c-4.941-1.264-10.248-5.186-15.376-2.663z"></path><path fill="#FBC0CD" d="M373.362 804.699c-1.584.796-2.164 1.734-2.226 2.76.171-.146.36-.292.572-.439 4.735-3.2 10.529-.04 15.596.537l1.823 8.77-.34.187c.197-.078.386-.152.558-.216l-.608-8.936c-4.94-1.264-10.247-5.186-15.375-2.663z"></path><path fill="#FFF" d="M378.823 827.664c-.257 4.436 3.404 3.861 6.468 4.457 2.033.793 2.739 3.767 5.031 4.075 4.998-.534 5.856-12.473 6.539-16.575l-8.043-3.942c-3.565 3.647-9.616 6.283-9.995 11.985z"></path><path fill="#FBC0CD" d="M378.823 827.664c-.103 1.77.42 2.741 1.278 3.308a7.066 7.066 0 0 1-.094-.715c-.404-5.7 5.23-9.138 8.263-13.238l8.506 2.806-.008.388c.031-.21.062-.411.092-.591l-8.043-3.942c-3.564 3.646-9.615 6.282-9.994 11.984z"></path><path fill="#FFF" d="M401.442 834.417c3.713 2.44 5.045-1.018 7.094-3.373 1.703-1.365 4.632-.489 6.045-2.319 2.036-4.596-7.874-11.308-11.085-13.951l-7.436 4.995c1.376 4.911.634 11.469 5.382 14.648z"></path><path fill="#FBC0CD" d="M401.442 834.417c1.481.974 2.583 1.007 3.503.547a6.867 6.867 0 0 1-.666-.276c-5.139-2.5-5.299-9.099-7.333-13.775l6.683-5.964c.104.064.215.131.332.2a37.123 37.123 0 0 1-.466-.375l-7.436 4.995c1.377 4.911.635 11.469 5.383 14.648z"></path><path fill="#FFF" d="M418.6 818.205c3.97-1.995 1.642-4.878.626-7.83-.33-2.157 1.893-4.256 1.014-6.395-2.962-4.061-13.729 1.165-17.624 2.625l.608 8.936c4.941 1.265 10.249 5.187 15.376 2.664z"></path><path fill="#FBC0CD" d="M418.6 818.205c1.584-.796 2.164-1.734 2.226-2.76-.171.146-.36.292-.572.439-4.735 3.2-10.529.04-15.596-.537l-1.823-8.77c.108-.058.221-.121.339-.187-.197.078-.386.152-.558.216l.608 8.936c4.941 1.264 10.249 5.186 15.376 2.663z"></path><path fill="#F56181" d="M387.767 807.747a9.01 9.01 0 1 1 16.428 7.41 9.012 9.012 0 0 1-16.428-7.41z"></path></svg>